<svg xmlns="http://www.w3.org/2000/svg" viewBox="0 0 250 130"><defs><style>.cls-1{fill:#737373;}.cls-2{fill:none;}</style></defs><g id="Layer_2" data-name="Layer 2"><g id="logos"><path class="cls-1" d="M98.93,90.77h0a2.42,2.42,0,0,1,2.45-2.47,2.55,2.55,0,0,1,1.83.65l-.53.63a1.88,1.88,0,0,0-1.33-.51,1.61,1.61,0,0,0-1.55,1.68v0a1.59,1.59,0,0,0,1.62,1.7,1.92,1.92,0,0,0,1.15-.36v-.89h-1.22v-.73h2v2a3,3,0,0,1-2,.74,2.35,2.35,0,0,1-2.46-2.45"/><rect class="cls-1" x="106.49" y="88.37" width="0.84" height="4.77"/><polygon class="cls-1" points="110.57 88.37 114.11 88.37 114.11 89.14 111.4 89.14 111.4 90.44 113.8 90.44 113.8 91.2 111.4 91.2 111.4 93.14 110.57 93.14 110.57 88.37"/><polygon class="cls-1" points="118.17 89.15 116.66 89.15 116.66 88.37 120.52 88.37 120.52 89.15 119.01 89.15 119.01 93.14 118.17 93.14 118.17 89.15"/><path class="cls-1" d="M122.32,93.78c.41-.08.61-.29.58-.64h-.35V92.2h.9V93a1,1,0,0,1-1,1.14Z"/><path class="cls-1" d="M130.19,92.45l.5-.6a2.24,2.24,0,0,0,1.5.62c.52,0,.85-.25.85-.6h0c0-.35-.19-.53-1.08-.73s-1.58-.55-1.58-1.43h0A1.46,1.46,0,0,1,132,88.3a2.69,2.69,0,0,1,1.73.6l-.45.64a2.17,2.17,0,0,0-1.29-.49c-.49,0-.78.25-.78.56v0c0,.36.22.53,1.14.75s1.52.6,1.52,1.39v0c0,.89-.7,1.42-1.7,1.42a2.93,2.93,0,0,1-2-.76"/><path class="cls-1" d="M136.76,91.12V88.37h.83v2.71c0,.89.46,1.36,1.21,1.36S140,92,140,91.12V88.37h.84v2.71a1.91,1.91,0,0,1-2.05,2.14,1.88,1.88,0,0,1-2-2.1"/><path class="cls-1" d="M143.74,90.77h0a2.41,2.41,0,0,1,2.45-2.47,2.48,2.48,0,0,1,1.86.74l-.53.62a1.91,1.91,0,0,0-1.33-.59,1.6,1.6,0,0,0-1.57,1.68v0a1.6,1.6,0,0,0,1.57,1.69,1.83,1.83,0,0,0,1.36-.62l.54.55a2.45,2.45,0,0,1-1.93.84,2.39,2.39,0,0,1-2.42-2.45"/><path class="cls-1" d="M150.59,90.77h0a2.41,2.41,0,0,1,2.46-2.47,2.51,2.51,0,0,1,1.86.74l-.54.62a1.91,1.91,0,0,0-1.33-.59,1.6,1.6,0,0,0-1.57,1.68v0A1.61,1.61,0,0,0,153,92.45a1.81,1.81,0,0,0,1.36-.62l.54.55a2.43,2.43,0,0,1-1.93.84,2.39,2.39,0,0,1-2.42-2.45"/><polygon class="cls-1" points="157.79 88.37 161.32 88.37 161.32 89.12 158.63 89.12 158.63 90.36 161.01 90.36 161.01 91.11 158.63 91.11 158.63 92.39 161.35 92.39 161.35 93.14 157.79 93.14 157.79 88.37"/><polygon class="cls-1" points="164.32 88.37 167.85 88.37 167.85 89.12 165.16 89.12 165.16 90.36 167.54 90.36 167.54 91.11 165.16 91.11 165.16 92.39 167.88 92.39 167.88 93.14 164.32 93.14 164.32 88.37"/><path class="cls-1" d="M171.68,89.14v3.24h.94a1.55,1.55,0,0,0,1.65-1.61h0a1.56,1.56,0,0,0-1.65-1.62Zm-.83-.77h1.77a2.37,2.37,0,0,1,2.53,2.37v0a2.38,2.38,0,0,1-2.53,2.38h-1.77Z"/><path class="cls-1" d="M184.31,89.5h0a.52.52,0,0,0-.54-.54.55.55,0,0,0-.57.57v0a1,1,0,0,0,.36.71c.49-.18.75-.41.75-.75m0,2.6L183.27,91a.88.88,0,0,0-.63.79h0a.74.74,0,0,0,.8.7,1.3,1.3,0,0,0,.89-.42m.48.49a2.09,2.09,0,0,1-1.45.62,1.41,1.41,0,0,1-1.56-1.36v0a1.43,1.43,0,0,1,1-1.33,1.57,1.57,0,0,1-.39-1h0a1.24,1.24,0,0,1,1.36-1.2,1.18,1.18,0,0,1,1.27,1.15v0c0,.62-.42,1-1.05,1.24l.82.83a7.92,7.92,0,0,0,.51-.92l.63.33a7,7,0,0,1-.65,1.09l.76.76-.63.45Z"/><polygon class="cls-1" points="194.03 89.15 192.52 89.15 192.52 88.37 196.38 88.37 196.38 89.15 194.87 89.15 194.87 93.14 194.03 93.14 194.03 89.15"/><polygon class="cls-1" points="199.24 88.37 200.07 88.37 200.07 90.36 202.34 90.36 202.34 88.37 203.18 88.37 203.18 93.14 202.34 93.14 202.34 91.13 200.07 91.13 200.07 93.14 199.24 93.14 199.24 88.37"/><path class="cls-1" d="M208.44,90.74c.6,0,1-.32,1-.8h0c0-.52-.37-.79-1-.79h-1.22v1.6Zm-2.06-2.37h2.12a1.89,1.89,0,0,1,1.37.48,1.45,1.45,0,0,1,.4,1h0a1.43,1.43,0,0,1-1.13,1.45l1.28,1.8h-1l-1.17-1.66h-1v1.66h-.83Z"/><rect class="cls-1" x="213.31" y="88.37" width="0.84" height="4.77"/><polygon class="cls-1" points="216.99 88.37 217.91 88.37 219.34 92.04 220.77 88.37 221.67 88.37 219.7 93.18 218.96 93.18 216.99 88.37"/><polygon class="cls-1" points="224.46 88.37 227.99 88.37 227.99 89.12 225.3 89.12 225.3 90.36 227.69 90.36 227.69 91.11 225.3 91.11 225.3 92.39 228.03 92.39 228.03 93.14 224.46 93.14 224.46 88.37"/><path class="cls-1" d="M87.15,74.49V66a.13.13,0,0,1,.13-.14h6.78c1.71,0,5.71.43,5.74,4.39a3.86,3.86,0,0,1-1,2.88C97.44,74.45,95,74.63,93,74.63H87.28a.13.13,0,0,1-.13-.14m0-10.36V56.58a.13.13,0,0,1,.13-.13h6c2.59,0,5.69.7,5.69,4,0,2.46-2.39,3.78-4.64,3.78H87.28a.13.13,0,0,1-.13-.13M97.62,65a4.91,4.91,0,0,0,2.95-4.54c0-3.52-2.64-5.54-7.24-5.54H86a.43.43,0,0,0-.43.43V75.76a.44.44,0,0,0,.43.43H93.1c3.25,0,5.49-.67,6.85-2A5.73,5.73,0,0,0,97.62,65"/><path class="cls-1" d="M126.4,74.63H114.18a.14.14,0,0,1-.14-.14v-8.1a.14.14,0,0,1,.14-.13h11.08a.43.43,0,0,0,.43-.43v-.7a.43.43,0,0,0-.43-.43H114.18a.14.14,0,0,1-.14-.14v-8a.14.14,0,0,1,.14-.13h12a.43.43,0,0,0,.42-.43v-.7a.42.42,0,0,0-.42-.43H112.89a.43.43,0,0,0-.43.43V75.76a.43.43,0,0,0,.43.43H126.4a.44.44,0,0,0,.43-.43v-.7a.43.43,0,0,0-.43-.43"/><path class="cls-1" d="M151.64,74.63h-11.9a.14.14,0,0,1-.14-.14V55.32a.43.43,0,0,0-.43-.43h-.72a.43.43,0,0,0-.43.43V75.76a.43.43,0,0,0,.43.43h13.19a.43.43,0,0,0,.42-.43v-.7a.42.42,0,0,0-.42-.43"/><path class="cls-1" d="M163.22,54.89h-.73a.43.43,0,0,0-.43.43V75.76a.43.43,0,0,0,.43.43h.73a.44.44,0,0,0,.43-.43V55.32a.43.43,0,0,0-.43-.43"/><path class="cls-1" d="M190.12,74.63H177.9a.14.14,0,0,1-.14-.14v-8.1a.13.13,0,0,1,.14-.13H189a.43.43,0,0,0,.43-.43v-.7a.43.43,0,0,0-.43-.43H177.9a.14.14,0,0,1-.14-.14v-8a.13.13,0,0,1,.14-.13h12a.43.43,0,0,0,.42-.43v-.7a.42.42,0,0,0-.42-.43H176.61a.43.43,0,0,0-.43.43V75.76a.43.43,0,0,0,.43.43h13.51a.43.43,0,0,0,.42-.43v-.7a.42.42,0,0,0-.42-.43"/><path class="cls-1" d="M218,54.89h-.76a.41.41,0,0,0-.39.26l-8,18.43a.13.13,0,0,1-.12.08.15.15,0,0,1-.13-.08l-8-18.43a.43.43,0,0,0-.4-.26h-.78a.42.42,0,0,0-.39.6l8.91,20.44a.43.43,0,0,0,.39.26H209a.42.42,0,0,0,.39-.26l8.91-20.44a.46.46,0,0,0,0-.41.41.41,0,0,0-.35-.19"/><path class="cls-1" d="M242.37,74.63H230.15a.14.14,0,0,1-.14-.14v-8.1a.13.13,0,0,1,.14-.13h11.08a.43.43,0,0,0,.43-.43v-.7a.43.43,0,0,0-.43-.43H230.15a.14.14,0,0,1-.14-.14v-8a.13.13,0,0,1,.14-.13H242.1a.43.43,0,0,0,.43-.43v-.7a.43.43,0,0,0-.43-.43H228.86a.43.43,0,0,0-.43.43V75.76a.43.43,0,0,0,.43.43h13.51a.43.43,0,0,0,.42-.43v-.7a.42.42,0,0,0-.42-.43"/><path class="cls-1" d="M68.15,84.74l0,.09c-.09.23-.19.45-.29.67a1.3,1.3,0,0,1-.08.17c-.09.19-.18.38-.28.57l-.12.23-.28.5c0,.09-.1.18-.16.27s-.18.3-.28.45a2.9,2.9,0,0,1-.19.29l-.28.41c-.08.1-.15.21-.22.31s-.21.26-.31.4l-.23.28-.36.43-.21.23c-.13.16-.28.3-.42.45l-7.28-7.31V74.34a4.68,4.68,0,0,1,1.16-2.82l5.08-5.09A1.49,1.49,0,0,1,64.44,66a1.29,1.29,0,0,1,.9.43l.16.2a3,3,0,0,1,.22.28l.32.42.19.27c.11.15.22.31.32.47l.15.23.33.55.1.17c.12.22.24.43.35.65l0,.09a18.18,18.18,0,0,1,.62,15m-4.57,6.55-.24.21-.42.36-.29.23-.39.31-.31.22-.4.28-.3.2-.44.27-.28.16-.49.28-.23.12-.57.29-.17.08-.67.29-.08,0a18,18,0,0,1-15-.63l0,0c-.23-.12-.46-.24-.68-.37l-.16-.09c-.19-.11-.38-.22-.56-.34L41.67,93l-.47-.32-.27-.19-.41-.31L40.23,92,40,91.81a1.29,1.29,0,0,1-.43-.9A1.45,1.45,0,0,1,40,89.82l5.08-5.09a4.63,4.63,0,0,1,2.8-1.17h8.82L64,90.87l-.44.42m-25-1.42a1.27,1.27,0,0,1-.88-.36l-.36-.45-.14-.18c-.18-.24-.37-.49-.54-.75l0,0c-.18-.26-.34-.52-.51-.79l0,0c-.16-.27-.31-.54-.46-.81a.47.47,0,0,0,0-.1c-.14-.27-.27-.54-.4-.81l-.05-.11v0c-.1-.2-.18-.41-.26-.62a.88.88,0,0,1,0-.81,1,1,0,0,1,.88-.4H41.4a1,1,0,0,1,.88.4.91.91,0,0,1,.06.81c-.09.21-.17.42-.26.62l0,0a.54.54,0,0,1-.05.11c-.12.27-.26.54-.4.81a.93.93,0,0,1,0,.1c-.14.27-.3.54-.46.81l0,0q-.24.4-.51.81l0,0c-.18.25-.36.51-.55.76a1.83,1.83,0,0,0-.13.16c-.12.16-.25.31-.37.46a1.27,1.27,0,0,1-.88.36M38.06,91c-.16.15-.32.31-.49.45l-.13.11c-.19.16-.37.33-.57.48l0,0a17.94,17.94,0,0,1-23.1-.74l-.06,0-.47-.44,7.28-7.31H29.3a4.6,4.6,0,0,1,2.81,1.17l6.07,6.08,0,.06a1.29,1.29,0,0,1-.17.16M12.4,90l-.21-.23-.36-.43c-.08-.09-.15-.19-.23-.29s-.21-.26-.3-.39l-.23-.31-.28-.4-.19-.31c-.1-.14-.19-.29-.28-.43L10.16,87c-.09-.16-.19-.32-.27-.48s-.09-.16-.13-.24-.19-.38-.28-.57l-.08-.18c-.1-.21-.2-.43-.29-.65l0-.1c-.1-.26-.2-.51-.29-.77h0A18.13,18.13,0,0,1,9.7,69.76l0-.09c.11-.22.23-.43.35-.65l.1-.17.33-.55.15-.23c.11-.16.21-.32.33-.48l.18-.25c.1-.15.21-.29.32-.44l.22-.27c0-.07.11-.13.17-.2a1.26,1.26,0,0,1,.89-.43h.07a1.49,1.49,0,0,1,1,.43L19,71.53a4.7,4.7,0,0,1,1.15,2.81v8.84l-7.28,7.31c-.14-.15-.28-.29-.42-.45m-.52-26.48-.12-.14-.29-.36-.22-.29c-.1-.14-.2-.29-.31-.43l-.15-.23q-.18-.26-.33-.51c0-.06-.07-.12-.11-.17L10,60.84l-.06-.1-.34-.66s0,0,0,0c-.12-.23-.23-.47-.33-.71h0a17.72,17.72,0,0,1-1-3.11h0c-.07-.26-.12-.52-.17-.79a.15.15,0,0,1,0-.07c0-.24-.09-.49-.12-.74a1,1,0,0,1,0-.17c0-.22-.06-.43-.08-.65l0-.4,0-.44c0-.28,0-.57,0-.85,0-.1,0-.19,0-.29s0-.38,0-.57,0-.35,0-.52,0-.22,0-.32,0-.43.07-.64l0-.19c0-.25.07-.49.11-.72l0-.1c0-.26.1-.52.16-.78v0a17.9,17.9,0,0,1,2.19-5.33l0,0c.14-.22.28-.44.43-.66l.06-.08.42-.59.13-.17c.13-.16.25-.33.39-.48a3.88,3.88,0,0,1,.26-.31l.29-.33c.13-.15.27-.29.41-.44l7.28,7.31v8.84a4.68,4.68,0,0,1-1.16,2.82l-5.08,5.09a1.45,1.45,0,0,1-1.08.43,1.3,1.3,0,0,1-.9-.44m1.75-24.84.34-.29.3-.27.48-.38.17-.13c.2-.15.39-.29.59-.42l.08-.06c.22-.15.44-.3.66-.43l0,0a17.66,17.66,0,0,1,5.31-2.2h0l.76-.16.11,0,.7-.11a1.66,1.66,0,0,1,.22,0l.6-.07.38,0,.47,0,.84,0,.84,0,.28,0,.53,0,.41,0,.39.05.48.07.29,0,.55.11.19,0,.62.15.09,0a17.64,17.64,0,0,1,4.17,1.72l.05,0,.55.33.16.1.46.31.24.16.4.29.29.22.34.27.13.11a1.3,1.3,0,0,1,.44.91,1.48,1.48,0,0,1-.42,1.09l-2.68,2.68-.18.19-2.22,2.22a4.63,4.63,0,0,1-2.8,1.17H20.48L13.2,39.13c.14-.14.28-.28.43-.41m25,1.41a1.27,1.27,0,0,1,.88.36c.12.15.25.3.37.46a1.83,1.83,0,0,0,.13.16h0c.19.25.37.51.55.76,0,0,0,0,0,0,.18.26.35.53.51.79l0,0c.16.27.31.54.46.81l0,.1c.14.27.28.54.4.81l.05.11,0,0c.09.2.17.41.26.62a.91.91,0,0,1-.06.81,1,1,0,0,1-.88.4H35.82a1,1,0,0,1-.88-.4.88.88,0,0,1,0-.81c.08-.21.16-.42.26-.62v0l.05-.11c.13-.27.26-.54.4-.81a.31.31,0,0,0,0-.1c.15-.27.3-.54.46-.81l0,0c.16-.27.33-.53.51-.79l0,0c.17-.25.36-.51.54-.76h0a1.83,1.83,0,0,1,.13-.16l.36-.46a1.27,1.27,0,0,1,.88-.36m1.44-2,.13-.11.37-.29.28-.22.44-.31.23-.16.51-.33.16-.1.59-.34.1-.06.66-.35,0,0A18.19,18.19,0,0,1,49,34.21h0c.26,0,.53-.07.79-.09h.12l.82,0,.73,0h.28l.59,0,.46,0,.38,0,.6.07.23,0,.69.11.12,0,.75.16h0A17.66,17.66,0,0,1,61,36.72l0,0,.66.43.09.06c.19.13.39.27.58.42l.17.13c.17.13.33.25.48.38l.31.27.33.29c.15.13.29.27.43.41l-7.28,7.31H47.92a4.63,4.63,0,0,1-2.8-1.17l-.73-.73L40,40.18a1.45,1.45,0,0,1-.43-1.09,1.3,1.3,0,0,1,.44-.91M60.84,67.47l-.05,0c-.26.16-.53.31-.81.46l-.09.05-.81.4-.11,0,0,0-.61.26a.9.9,0,0,1-.81-.06,1,1,0,0,1-.4-.88h0V65h0V62.2a1,1,0,0,1,.4-.88.76.76,0,0,1,.44-.13,1.21,1.21,0,0,1,.36.07l.61.26,0,0,.12.05.79.4L60,62c.27.15.54.3.8.46l.05,0c.27.17.54.34.8.52l0,0,.76.55.16.13.45.37a1.26,1.26,0,0,1,0,1.76c-.14.12-.29.25-.45.37l-.16.13c-.25.19-.5.38-.76.55l0,0c-.26.18-.53.35-.8.52m-6.39,7.14c.09-.15.17-.3.25-.45a.75.75,0,0,0,.07-.12L55,73.6l.11-.21.21-.44.12-.26c.1-.21.19-.43.28-.65l.16-.39L56,71.5a7.51,7.51,0,0,1,.7-1.61l.28-.08a15.77,15.77,0,0,0,1.67-.6h0L59.2,69l.08,0,.53-.25a.2.2,0,0,1,.08,0l.54-.29,0,0c.2-.11.41-.23.61-.36l-4.42,4.44Zm-11.9,11c.09-.19.17-.38.25-.57v0h0a16.79,16.79,0,0,0,.6-1.68c0-.09.05-.18.08-.27a6.86,6.86,0,0,1,1.6-.71l.15-.06.41-.16.56-.25.34-.15.41-.21.23-.12c.15-.07.29-.15.43-.23l.15-.08.42-.24L46,83.11l-4.42,4.43.35-.61,0-.07q.15-.26.27-.51a.47.47,0,0,0,0-.1c.09-.17.17-.34.25-.5a1,1,0,0,1,0-.1m5.64-36.53-.43-.25-.14-.08-.43-.24a1.51,1.51,0,0,1-.22-.11l-.43-.21-.31-.14-.59-.26-.4-.16-.15-.06a7.88,7.88,0,0,1-1.6-.7c0-.1-.05-.19-.08-.28h0a.24.24,0,0,1,0-.08c-.17-.54-.36-1.08-.58-1.6h0v0c-.08-.19-.16-.38-.25-.57l0-.09c-.08-.17-.16-.34-.25-.51l0-.09-.28-.53,0-.05c-.11-.21-.23-.42-.35-.62l.17.17,3,3L46,46.9l1.24,1.24Zm8.39-.66v7.2c0,.41-.1.6-.19.64s-.3,0-.59-.31l-2.53-2.54-.33-.33L52.85,53,52.77,53h0l-.45-.45-.62-.62h0l-1-1-.05-.05-3-3c-.28-.29-.34-.5-.3-.59s.23-.2.63-.2H55.1a1.49,1.49,0,0,1,1.48,1.49M57,60.2h0l-.28-.08A7.51,7.51,0,0,1,56,58.5l-.06-.15-.16-.4c-.08-.2-.17-.39-.25-.59L55.33,57l-.21-.42A2.26,2.26,0,0,0,55,56.4c-.08-.15-.16-.29-.23-.44l-.09-.14-.24-.43,1,1,1.24,1.24,1.24,1.25,3.18,3.19c-.2-.13-.4-.24-.61-.36l0,0c-.18-.09-.35-.19-.53-.27l-.09,0-.51-.25-.09,0-.57-.25h0c-.54-.22-1.08-.42-1.64-.59M34,82.41a15.5,15.5,0,0,1-1.67-.54l-.71-.28-.3-.13-.55-.26L30.28,81,30,80.83l-.76-.44-.15-.09L28.67,80l-.22-.15c-.2-.14-.4-.28-.59-.43l-.33-.25L27.25,79l-.57-.49-.17-.15-.61-.58h0c-.2-.2-.39-.41-.58-.61L25.17,77c-.16-.19-.33-.38-.48-.57l-.22-.28-.26-.34-.42-.59L23.64,75c-.1-.14-.19-.29-.28-.43l-.09-.15-.44-.76-.14-.27c-.08-.15-.16-.3-.23-.46s-.17-.36-.25-.54-.09-.21-.14-.31-.19-.46-.28-.7a15.84,15.84,0,0,1-.54-1.69c-.15-.56-.27-1.13-.37-1.71,0-.18-.05-.37-.08-.56v0c0-.2-.05-.4-.07-.6,0-.59-.08-1.17-.08-1.75s0-1.16.08-1.74c0-.21.05-.41.07-.61v-.06c0-.18.05-.36.08-.54.1-.58.22-1.15.37-1.71s.35-1.17.56-1.74c.07-.17.13-.35.21-.52s.1-.25.16-.38l.09-.2c.06-.14.13-.28.2-.42l.06-.13a19.85,19.85,0,0,1,1.09-1.9,1,1,0,0,0,.08-.11c.09-.13.17-.26.27-.39l.11-.15.26-.36c.07-.09.15-.18.22-.28.42-.52.86-1,1.33-1.5h0a18.41,18.41,0,0,1,1.55-1.38l.22-.18.36-.27.15-.11.4-.27.1-.07a19.79,19.79,0,0,1,1.89-1.1l.14-.06.41-.2.21-.09.38-.16c.14-.07.29-.12.44-.18a16.45,16.45,0,0,1,1.8-.59h0c.57-.15,1.14-.27,1.71-.37l.44-.07.17,0,.58-.07a17.06,17.06,0,0,1,3.5,0l.59.07.16,0,.44.07c.58.1,1.15.22,1.71.37s1.15.34,1.71.55l.54.22.37.16.21.09.41.19.14.08A17.79,17.79,0,0,1,48.53,50l.11.07.39.27.15.11.36.27.27.21a17.53,17.53,0,0,1,1.51,1.35h0a19.08,19.08,0,0,1,1.27,1.43l.28.35.26.35.12.17c.09.12.18.25.26.38l.08.12a20.83,20.83,0,0,1,1.09,1.88l.07.15c.06.13.13.27.19.41l.09.21c.06.12.11.25.17.37s.12.3.17.45A15.94,15.94,0,0,1,56,60.34c.15.56.27,1.13.37,1.71,0,.19.06.38.08.57v0c0,.2,0,.4.07.6A17.08,17.08,0,0,1,56.58,65h0a17.08,17.08,0,0,1-.08,1.75c0,.2,0,.4-.07.6,0,0,0,.05,0,.07,0,.18-.05.36-.08.53-.1.58-.22,1.15-.37,1.71a17.2,17.2,0,0,1-.58,1.8l-.18.46L55,72.3l-.09.2-.19.42-.07.13A17.93,17.93,0,0,1,53.6,75l-.07.1-.27.4-.12.15-.26.36-.22.28a17.42,17.42,0,0,1-1.34,1.51h0a16.81,16.81,0,0,1-1.48,1.32l-.3.24-.35.26-.16.12-.39.27-.11.07a17.87,17.87,0,0,1-1.89,1.1l-.14.06-.41.2-.21.09-.37.16-.5.2a17,17,0,0,1-1.75.57,16.8,16.8,0,0,1-1.71.37l-.41.06-.28,0-.5.06a17.06,17.06,0,0,1-3.5,0l-.59-.07-.15,0-.45-.07c-.57-.1-1.14-.22-1.71-.37M29,80.87c.23.14.46.28.7.41l.27.14c.19.1.39.21.6.3l.43.2.32.15.7.28.09,0a6.86,6.86,0,0,1,1.6.71,2.76,2.76,0,0,1,.08.27q.27.85.6,1.68h0l0,0,.24.57,0,.09.24.51,0,.09c.09.18.18.36.28.54l0,0c.12.21.23.42.36.62l-4-4-.47-.47Zm-8.38.67v-7.2c0-.41.11-.6.2-.63l.06,0a.87.87,0,0,1,.52.32l4.1,4.12,4.11,4.11c.28.29.34.5.3.59s-.22.2-.63.2H22.12a1.49,1.49,0,0,1-1.48-1.49M16.76,68.31l0,0,.53.29.09,0,.51.25L18,69l.57.25h0a16.61,16.61,0,0,0,1.67.6h0l.28.08a7.13,7.13,0,0,1,.71,1.61l0,.09c.09.24.19.47.28.7l.15.33c.06.14.13.28.2.42s.2.41.3.61l.14.27c.13.24.27.47.41.7l-1-1h0l-1.24-1.24-1.24-1.24h0L16.4,68.22,16.14,68c.2.13.41.24.62.36m-.38-5.77.05,0,.81-.46.1,0,.8-.4.12-.05h0c.2-.1.41-.18.62-.27a1.27,1.27,0,0,1,.36-.07.77.77,0,0,1,.45.13,1,1,0,0,1,.39.88v5.6a1,1,0,0,1-.39.88.88.88,0,0,1-.81.06l-.61-.26,0,0-.1,0c-.28-.12-.54-.26-.81-.4l-.1-.05c-.27-.15-.54-.3-.8-.46l-.07,0-.81-.52h0c-.25-.18-.51-.36-.75-.55l-.17-.13-.45-.37a1.25,1.25,0,0,1-.36-.88,1.27,1.27,0,0,1,.36-.88l.46-.38.14-.11h0c.24-.19.5-.37.75-.55l0,0c.26-.17.52-.34.79-.5m5.42-6.17h0l1-1-.24.44a.57.57,0,0,0-.08.13l-.24.44-.11.22-.21.42c0,.1-.08.19-.13.29l-.27.62-.15.4-.06.15a7.13,7.13,0,0,1-.71,1.61l-.28.08h0c-.55.17-1.1.37-1.63.59h0l-.59.26-.08,0-.52.25-.09,0-.53.29,0,0c-.21.12-.42.23-.62.36l4.14-4.16.28-.28ZM34.42,44.92v0h0c-.21.52-.4,1-.57,1.6l0,.08h0c0,.09-.05.18-.08.28a7.88,7.88,0,0,1-1.6.7l-.15.06-.4.16-.59.26-.31.14-.42.21-.23.12-.43.23-.15.09-.42.24,2.22-2.22,4.42-4.44c-.13.2-.24.41-.36.62a.08.08,0,0,0,0,.05c-.1.17-.19.35-.28.53l0,.09-.24.51,0,.09-.25.57M20.64,47.1V47h.12l-.12.13M22.12,47H29.3c.41,0,.6.11.63.2s0,.3-.3.59l-1.16,1.16L26.6,50.79l0,.05-1,1h0l-1,1-.06.06-3,3c-.29.29-.49.34-.58.31s-.2-.23-.2-.64v-7.2A1.49,1.49,0,0,1,22.12,47M55.1,83H47.92c-.4,0-.59-.11-.63-.2s0-.3.3-.59l3-3,.08-.07,2-2,.11-.12,3-3a.88.88,0,0,1,.53-.32l.06,0c.09,0,.19.22.19.63v7.2A1.49,1.49,0,0,1,55.1,83M64.82,40a2.2,2.2,0,0,1,.2.23c.13.14.25.28.37.43s.15.19.23.29l.31.39c.07.1.14.21.22.31l.28.41.2.3.27.43.16.29c.1.16.19.32.28.48l.12.25c.1.18.19.37.28.56l.09.18c.09.21.19.43.28.65,0,0,0,.07,0,.11.11.25.2.5.29.75v0a18.16,18.16,0,0,1-.92,14.19l-.06.13-.33.6a1.59,1.59,0,0,1-.13.22l-.3.5-.18.27c-.09.15-.19.29-.29.44l-.21.3-.29.38-.25.32-.15.18a1.33,1.33,0,0,1-.9.43,1.45,1.45,0,0,1-1.08-.43l-5.08-5.09a4.68,4.68,0,0,1-1.16-2.82V46.82l7.28-7.31q.22.23.42.45m3.45,30.11c-.11-.23-.22-.46-.34-.69a1.09,1.09,0,0,0-.08-.15c-.1-.21-.22-.41-.33-.61l-.12-.2c-.11-.18-.22-.36-.34-.54l-.15-.24c-.11-.17-.23-.33-.35-.5l-.17-.24c-.12-.17-.25-.33-.38-.49l-.18-.23,0-.05-.05-.06c-.31-.37-.63-.72-1-1.07.34-.35.66-.71,1-1.09l0,0,0,0,.25-.31.31-.4.21-.3.31-.45.18-.27.31-.5.14-.24c.11-.19.21-.38.31-.57a1.14,1.14,0,0,0,.1-.19c.11-.21.22-.43.32-.65l.06-.12c.11-.25.23-.51.33-.77h0a18.62,18.62,0,0,0,0-13.94.36.36,0,0,1,0-.09c-.09-.23-.2-.47-.3-.7l-.09-.18c-.09-.2-.19-.4-.29-.59s-.08-.17-.13-.25-.18-.34-.28-.51l-.17-.29-.28-.45-.21-.32-.29-.42L66.36,41l-.31-.4-.24-.31c-.12-.15-.25-.29-.38-.44l-.21-.24c-.2-.22-.41-.45-.62-.66s-.44-.43-.66-.63l-.24-.2-.45-.39L63,37.49l-.42-.33-.31-.22-.42-.3-.31-.2L61,36.16,60.76,36c-.17-.1-.34-.2-.52-.29L60,35.57c-.19-.1-.39-.2-.6-.29l-.17-.08-.71-.31-.07,0a18.44,18.44,0,0,0-14.7.35l-.08,0c-.23.11-.47.22-.7.35l-.14.07-.62.35-.18.1-.57.36-.21.13-.52.37-.22.16-.51.39-.21.17,0,0-.07.06c-.36.3-.71.62-1.06,1-.36-.35-.73-.69-1.11-1h0L37,37.38l-.24-.19-.53-.38-.17-.12-.6-.39-.11-.07-.66-.39-.07,0-.71-.38h0l-.74-.35h0l-.77-.32h0l-.78-.28h0l-.78-.24h0L30,34l-.08,0-.74-.16-.15,0-.69-.11-.24,0-.6-.07-.43,0-.44,0-.88,0h-.89l-.47,0-.4,0-.61.08-.24,0-.71.12-.12,0L21.5,34h0A18.13,18.13,0,0,0,16,36.26l0,0-.68.44-.09.07-.6.43-.18.14-.49.39-.32.28-.34.29c-.22.2-.43.41-.64.62s-.42.43-.62.65l-.3.34-.27.32-.39.49-.14.18-.43.6-.06.09c-.15.22-.3.45-.44.68l0,0A18.09,18.09,0,0,0,7.7,47.81v0c-.06.27-.12.53-.17.8,0,0,0,.07,0,.1,0,.25-.09.49-.12.74l0,.2c0,.22-.05.44-.07.65l0,.34,0,.54v0c0,.19,0,.38,0,.57v.28c0,.3,0,.59,0,.89,0,.12,0,.25,0,.37s0,.33,0,.5,0,.37.07.55l0,.3c0,.22.07.44.11.65l0,.19c0,.24.09.47.15.71a.43.43,0,0,1,0,.11c.06.25.13.5.2.75l0,.07c.07.25.15.51.23.76,0,0,0,0,0,0,.09.25.18.51.28.76v0c.1.25.2.51.31.76v0c.11.25.22.5.35.74v0L9.5,61a.16.16,0,0,1,0,.07c.13.22.25.44.39.66l.06.11.4.61.11.16c.13.18.25.36.39.53l.18.24.35.45h0l0,0c.31.38.65.75,1,1.11-.34.35-.66.7-1,1.07l-.06.06,0,.05-.18.24c-.13.15-.26.31-.38.48l-.17.24c-.12.17-.24.33-.35.5l-.15.23-.34.55-.11.2c-.12.2-.23.4-.34.61l-.08.15c-.12.23-.23.46-.34.69l0,.08A18.67,18.67,0,0,0,8.56,84.9l0,.07c.1.24.2.48.31.72l.07.16.3.61.13.23c.09.18.19.35.29.52l.16.29.29.46.2.31.29.42.23.32.32.41.23.3.38.44.21.24q.3.34.63.66a17.91,17.91,0,0,0,2.47,2.08,18.46,18.46,0,0,0,8,3.16,18.17,18.17,0,0,0,2.65.19A18.44,18.44,0,0,0,36,93.4a18.09,18.09,0,0,0,2.66-2.16c.35.34.71.67,1.08,1a.12.12,0,0,0,.05.05s0,0,0,0l.23.17.47.37.24.18.5.34.22.15.56.35.17.1c.23.14.46.27.7.39l0,0a18.55,18.55,0,0,0,8.6,2.12l.83,0a18.63,18.63,0,0,0,6.11-1.34l.07,0,.72-.31.16-.08.61-.29a1.71,1.71,0,0,1,.23-.13c.18-.09.35-.19.52-.29l.28-.16.46-.29.31-.2.42-.3.31-.22.42-.33.29-.23.45-.38.24-.21q.33-.3.66-.63c.21-.21.42-.44.62-.66l.21-.24c.13-.15.26-.29.38-.45l.24-.29.32-.42c.07-.1.15-.2.22-.31l.29-.42.2-.31.29-.46.17-.29.29-.52.12-.23.3-.61a1.19,1.19,0,0,1,.08-.16l.31-.72,0-.07a18.54,18.54,0,0,0-.35-14.74.36.36,0,0,0,0-.09"/><path class="cls-1" d="M34.59,71.19v-5.4h4.5c2.12,0,3.54,1.18,3.54,2.93s-1.29,2.9-3.54,2.9h-4.5v-.43m.64,1h3.86c2.57,0,4.11-1.3,4.11-3.47s-1.69-3.5-4.11-3.5H34.23a.21.21,0,0,0-.21.21v6.19a1.48,1.48,0,0,1-1.31-1.44s0,0,0,0V59.85a1.49,1.49,0,0,1,.89-1.35v-.6a2,2,0,0,0-1.45,2v10.3a2,2,0,0,0,1.9,2h1.19Z"/><path class="cls-1" d="M39,58.38a2.73,2.73,0,0,1,3,2.5,2.8,2.8,0,0,1-3,2.57h-4.4V58.38Zm3.32,6.13a4.77,4.77,0,0,0,2.11-3.63C44.42,58.16,42,56,39,56H36.06a2,2,0,0,0-2,1.75c0,.11,0,.2,0,.27V62.3h0v1.5a.21.21,0,0,0,.21.21H39a3.36,3.36,0,0,0,3.54-3.13A3.28,3.28,0,0,0,39,57.81H34.62a1.46,1.46,0,0,1,1.44-1.21H39c2.74,0,4.88,1.88,4.88,4.28a4.17,4.17,0,0,1-2.19,3.33l-.41.17a.21.21,0,0,0,0,.4l.42.11a4.32,4.32,0,0,1,2.82,3.92c0,2.09-.92,4.59-5.29,4.59H36a1.47,1.47,0,0,1-1.26-.77h-.61A2,2,0,0,0,36.06,74h3.17c3.78,0,5.86-1.83,5.86-5.15a4.92,4.92,0,0,0-2.78-4.3"/><rect class="cls-2" width="250" height="130"/></g></g></svg>