<svg xmlns="http://www.w3.org/2000/svg" viewBox="0 0 250 130"><defs><style>.cls-1{fill:#737373;}.cls-2{fill:none;}</style></defs><g id="Layer_2" data-name="Layer 2"><g id="logos"><path class="cls-1" d="M23.7,49.62c0-1.87,0-3.71-.11-5.52s-.14-3.62-.23-5.43q1.11.09,2.25.15t2.25.06c.73,0,1.48,0,2.25-.1s1.51-.11,2.25-.11a19.69,19.69,0,0,1,3.43.28,8.79,8.79,0,0,1,2.85,1,5.36,5.36,0,0,1,2,1.89,5.63,5.63,0,0,1,.72,3,6.29,6.29,0,0,1-2,4.92,11.26,11.26,0,0,1-5.16,2.51v.08a10.46,10.46,0,0,1,6,1.83q2.19,1.65,2.19,5.3a7.59,7.59,0,0,1-1,4A8,8,0,0,1,38.8,66a10.49,10.49,0,0,1-3.45,1.4,17.87,17.87,0,0,1-3.76.4c-.68,0-1.36,0-2.06,0s-1.37,0-2.05,0H25.42c-.69,0-1.38,0-2.06.08.09-1.81.16-3.61.23-5.41s.11-3.63.11-5.49Zm5.77,2.08a14.69,14.69,0,0,0,3-.3,8,8,0,0,0,2.61-1,5.29,5.29,0,0,0,1.84-1.86,5.63,5.63,0,0,0,.7-2.95,5.32,5.32,0,0,0-.63-2.78,4.68,4.68,0,0,0-1.61-1.61,6.3,6.3,0,0,0-2.21-.77,17,17,0,0,0-2.46-.19c-.74,0-1.36,0-1.87.07s-1,.09-1.36.15c-.05,1.35-.11,2.7-.17,4s-.08,2.67-.08,4V51.7Zm-2.29,5.9c0,1.44,0,2.87.08,4.28s.12,2.84.17,4.29l1.91.15q1.11.06,2.25.06a7.4,7.4,0,0,0,2.61-.47,6.17,6.17,0,0,0,2.19-1.38,6.58,6.58,0,0,0,1.48-2.24,7.92,7.92,0,0,0,.55-3,6.16,6.16,0,0,0-.65-3,4.55,4.55,0,0,0-1.89-1.82,9.06,9.06,0,0,0-3-.92,26.44,26.44,0,0,0-3.84-.25H27.18Z"/><path class="cls-1" d="M56.14,55.9l-1.25-2.1-1.83-3.06c-.66-1.11-1.36-2.29-2.1-3.52l-2.1-3.52c-.66-1.12-1.26-2.12-1.8-3l-1.23-2,1.17.15a11.34,11.34,0,0,0,2.33,0l1.17-.15q1.91,3.69,3.88,7.26c1.31,2.37,2.71,4.85,4.18,7.42.65-1,1.33-2.13,2-3.35s1.41-2.46,2.12-3.73,1.38-2.56,2-3.84,1.26-2.54,1.83-3.76a6.63,6.63,0,0,0,3.31,0c-1.36,2.07-2.58,3.93-3.65,5.6s-2,3.19-2.84,4.54-1.55,2.59-2.17,3.67-1.16,2.08-1.61,3c0,1,0,2.17,0,3.35s0,2.36.07,3.5.06,2.21.1,3.19.09,1.76.15,2.35c-.65-.06-1.34-.08-2.08-.08s-1.43,0-2.08.08q.26-2.2.3-5.34t0-6.58"/><path class="cls-1" d="M81.49,63.85a7,7,0,0,0,1.4,1.43,7.25,7.25,0,0,0,1.93,1,7.38,7.38,0,0,0,2.46.4,6.24,6.24,0,0,0,2.53-.49,5.75,5.75,0,0,0,1.91-1.31,5.85,5.85,0,0,0,1.2-2,6.54,6.54,0,0,0,.43-2.39,4.53,4.53,0,0,0-1-3.1,8.09,8.09,0,0,0-2.48-1.91,28.54,28.54,0,0,0-3.2-1.4,16,16,0,0,1-3.21-1.59A8.48,8.48,0,0,1,81,50.13a7.1,7.1,0,0,1-1-4,8,8,0,0,1,.64-3.25,7,7,0,0,1,1.85-2.52,8.48,8.48,0,0,1,2.9-1.65,11.43,11.43,0,0,1,3.82-.6,11.16,11.16,0,0,1,3.52.49,8.68,8.68,0,0,1,2.76,1.51,9.75,9.75,0,0,0-.64,1.52q-.26.81-.51,2h-.5a11.58,11.58,0,0,0-.58-1.29,5,5,0,0,0-1-1.3,5.6,5.6,0,0,0-1.47-1,4.8,4.8,0,0,0-2-.4,6.18,6.18,0,0,0-2.19.38,5.54,5.54,0,0,0-1.74,1.08,4.77,4.77,0,0,0-1.14,1.68A5.49,5.49,0,0,0,83.29,45a4.64,4.64,0,0,0,1,3.14A8.3,8.3,0,0,0,86.77,50a23.94,23.94,0,0,0,3.2,1.4,17.52,17.52,0,0,1,3.21,1.51,8.11,8.11,0,0,1,2.48,2.29,6.27,6.27,0,0,1,1,3.73,9.74,9.74,0,0,1-.7,3.7,8.72,8.72,0,0,1-2,3,9,9,0,0,1-3.27,2,12.72,12.72,0,0,1-4.39.7,10.88,10.88,0,0,1-4.26-.7,11.29,11.29,0,0,1-2.74-1.59,9.48,9.48,0,0,0,.53-1.76c.1-.52.19-1.19.28-2h.51a8.05,8.05,0,0,0,.91,1.54"/><path class="cls-1" d="M127.36,67.82a7.51,7.51,0,0,0-1.13-.08H124a7.51,7.51,0,0,0-1.13.08c-.2-.65-.47-1.43-.8-2.35s-.72-1.88-1.13-2.89l-1.25-3c-.42-1-.82-2-1.19-3q-1.35,0-2.76-.06c-.93,0-1.86,0-2.8,0s-1.74,0-2.59,0l-2.58.06c-.91,2.2-1.73,4.31-2.46,6.3s-1.29,3.64-1.66,4.94a15.45,15.45,0,0,0-3.14,0q3.44-7.42,6.71-14.76t6.57-14.94h.81l2.2,5.33c.8,1.91,1.6,3.84,2.42,5.79s1.64,3.89,2.46,5.81,1.6,3.71,2.32,5.37,1.37,3.13,2,4.43,1,2.29,1.42,3m-18.8-13.19c.74,0,1.5,0,2.29,0s1.56,0,2.3,0l2.37,0,2.38-.06-4.71-10.78Z"/><path class="cls-1" d="M133,49.66c0-1.86,0-3.7-.11-5.49s-.15-3.63-.23-5.5l2.42.15c.79,0,1.6.06,2.42.06s1.62,0,2.42-.1,1.59-.11,2.41-.11a17,17,0,0,1,3.4.34,8.26,8.26,0,0,1,2.82,1.13,5.69,5.69,0,0,1,1.91,2,7.38,7.38,0,0,1-.21,6.69A8.45,8.45,0,0,1,148,51.29a10.91,10.91,0,0,1-2.82,1.49,14.35,14.35,0,0,1-2.74.7l1.4,1.78c.59.77,1.26,1.61,2,2.53l2.29,2.88c.79,1,1.55,2,2.29,2.89s1.43,1.76,2.08,2.52,1.17,1.35,1.57,1.74a9.17,9.17,0,0,0-1.28-.08h-2.5a8.29,8.29,0,0,0-1.23.08l-1.93-2.67q-1.29-1.79-2.87-3.82t-3.2-4q-1.64-2-3-3.42H136.5V57c0,1.87,0,3.71.1,5.52s.15,3.59.24,5.34c-.65-.06-1.35-.08-2.08-.08s-1.43,0-2.08.08c.08-1.75.16-3.53.23-5.34S133,58.83,133,57Zm3.48,2.42a8.23,8.23,0,0,0,1.29.17c.47,0,1,0,1.55,0a14,14,0,0,0,2.74-.29,8.16,8.16,0,0,0,2.61-1,6.18,6.18,0,0,0,2-2,5.87,5.87,0,0,0,.79-3.16,5.53,5.53,0,0,0-.62-2.74,4.85,4.85,0,0,0-1.59-1.71,5.88,5.88,0,0,0-2.12-.87,11,11,0,0,0-2.25-.24c-1,0-1.81,0-2.46.07s-1.21.09-1.66.14c-.05,1.56-.11,3.1-.17,4.63s-.08,3.05-.08,4.58Z"/><path class="cls-1" d="M185.63,67.82a7.38,7.38,0,0,0-1.12-.08h-2.25a7.38,7.38,0,0,0-1.12.08c-.2-.65-.47-1.43-.81-2.35s-.71-1.88-1.12-2.89l-1.25-3c-.43-1-.83-2-1.19-3q-1.36,0-2.76-.06c-.93,0-1.87,0-2.8,0s-1.74,0-2.59,0l-2.59.06c-.9,2.2-1.72,4.31-2.46,6.3s-1.29,3.64-1.65,4.94a15.45,15.45,0,0,0-3.14,0q3.43-7.42,6.7-14.76t6.58-14.94h.8l2.21,5.33q1.19,2.86,2.42,5.79T180,55.05q1.23,2.88,2.31,5.37t2,4.43c.58,1.3,1.06,2.29,1.42,3M166.84,54.63c.73,0,1.5,0,2.29,0s1.55,0,2.29,0l2.38,0,2.37-.06-4.71-10.78Z"/><path class="cls-1" d="M212.19,44.17c-.07-1.8-.15-3.63-.23-5.5l1.06.15a8.7,8.7,0,0,0,2,0l1.06-.15c-.09,1.87-.17,3.7-.24,5.5s-.1,3.63-.1,5.49V57c0,1.87,0,3.71.1,5.52s.15,3.59.24,5.34c-.65-.06-1.35-.08-2.08-.08s-1.43,0-2.08.08c.08-1.75.16-3.53.23-5.34s.11-3.65.11-5.52V53.14l-4.44-.06c-1.42,0-2.9,0-4.43,0s-3,0-4.43,0l-4.44.06V57c0,1.87,0,3.71.11,5.52s.15,3.59.23,5.34c-.65-.06-1.34-.08-2.08-.08s-1.43,0-2.08.08q.13-2.62.24-5.34c.07-1.81.1-3.65.1-5.52v-7.3c0-1.86,0-3.7-.1-5.49s-.15-3.63-.24-5.5l1.07.15a8.43,8.43,0,0,0,1,.06,8.72,8.72,0,0,0,1-.06l1.06-.15c-.08,1.87-.16,3.7-.23,5.5s-.11,3.63-.11,5.49v1.49l4.44.08c1.43,0,2.9,0,4.43,0s3,0,4.43,0l4.44-.08V49.66c0-1.86,0-3.7-.11-5.49"/><polygon class="cls-1" points="69.58 79.7 71.68 79.7 71.68 89.76 77.98 89.76 77.98 91.67 69.58 91.67 69.58 79.7"/><path class="cls-1" d="M83.57,85.72v0a6.26,6.26,0,0,1,12.52,0v0a6.26,6.26,0,0,1-12.52,0m10.31,0v0a4.1,4.1,0,0,0-4.07-4.26,4,4,0,0,0-4,4.22v0a4.09,4.09,0,0,0,4.07,4.24,4,4,0,0,0,4-4.21"/><polygon class="cls-1" points="103.25 79.7 105.2 79.7 111.61 87.98 111.61 79.7 113.69 79.7 113.69 91.67 111.92 91.67 105.32 83.16 105.32 91.67 103.25 91.67 103.25 79.7"/><path class="cls-1" d="M121.38,79.7h4.46c3.77,0,6.37,2.58,6.37,6v0c0,3.37-2.6,6-6.37,6h-4.46Zm2.1,1.92v8.14h2.36a3.9,3.9,0,0,0,4.16-4v0a3.93,3.93,0,0,0-4.16-4.07Z"/><path class="cls-1" d="M138.84,85.72v0a6.26,6.26,0,0,1,12.52,0v0a6.26,6.26,0,0,1-12.52,0m10.31,0v0a4.1,4.1,0,0,0-4.07-4.26,4,4,0,0,0-4,4.22v0a4.09,4.09,0,0,0,4.07,4.24,4,4,0,0,0,4-4.21"/><polygon class="cls-1" points="158.53 79.7 160.47 79.7 166.89 87.98 166.89 79.7 168.96 79.7 168.96 91.67 167.2 91.67 160.59 83.16 160.59 91.67 158.53 91.67 158.53 79.7"/><polygon class="cls-1" points="220.1 39.42 218.85 39.42 218.85 38.77 222.04 38.77 222.04 39.42 220.79 39.42 220.79 42.71 220.1 42.71 220.1 39.42"/><polygon class="cls-1" points="222.77 38.77 223.51 38.77 224.71 40.63 225.9 38.77 226.64 38.77 226.64 42.71 225.95 42.71 225.95 39.89 224.71 41.74 224.68 41.74 223.45 39.9 223.45 42.71 222.77 42.71 222.77 38.77"/><rect class="cls-2" width="250" height="130"/></g></g></svg>