<svg xmlns="http://www.w3.org/2000/svg" viewBox="0 0 50.75 67.63"><path d="M49.26,61.51c-5.43,7.07-13.56,6.37-16.11,5.76-.79-.21-12.5-2.64-25.06-22.88C-2,28,0,13.92.54,11.3S3.45,2.54,13.54.13c1.23-.34,3.43,0,3.85.71.16.28,4.35,14.35,4.42,14.78a2.45,2.45,0,0,1,0,1.26,3.42,3.42,0,0,1-1.74,1.77,16.53,16.53,0,0,1-3.18,1.58,25,25,0,0,0-3.12,1.53c-1,.58-1.55,1.09-1.67,1.55-.29,1.31-.49,6.19,5.75,15.43S27.35,51,27.7,51.22a2.21,2.21,0,0,0,.85.46A3,3,0,0,0,30.72,51c1-.58,4.54-3.5,5.58-4a3.45,3.45,0,0,1,2.39-.63A3.13,3.13,0,0,1,39.8,47c.46.3,10.65,10.58,10.81,10.87.5.85-.49,2.76-1.27,3.7"/></svg>
