<svg xmlns="http://www.w3.org/2000/svg" viewBox="0 0 23.07 21.25"><path d="M5.29,18.87a1.19,1.19,0,1,0,1.19,1.19,1.19,1.19,0,0,0-1.19-1.19h0m14.29-5.35c-1.34-.46-3.33-1.45-4.64-.4l-1.34,1a20.58,20.58,0,0,1-3.32-2.47l-.1-.1a19.05,19.05,0,0,1-2.56-2.9L8.73,7.48c1.19-1.2.09-3-.41-4.28C7.45,1,7.2-.09,4.33,0a3.15,3.15,0,0,0-2.25.9C-2.87,5.68,2.06,11.83,6,15.47c1.23,1.13,2.73-.22,1.49-1.36C5.05,11.86,2,8.57,2.13,5.19c0-.92.75-2.95,2-3.23h.3A3.75,3.75,0,0,1,5.54,2,34.18,34.18,0,0,1,7.19,6.14L6,7.48a1.75,1.75,0,0,0-.49,1.43,1.51,1.51,0,0,0,.27.7,20,20,0,0,0,2.9,3.33l.22.2a24.19,24.19,0,0,0,2.51,2c.71.49,1.19.76,1.19.76a2.15,2.15,0,0,0,2.32-.21l1.39-1.07a20.59,20.59,0,0,1,4.63,1.58,5.57,5.57,0,0,1,0,1v.27a1.05,1.05,0,0,1-.3.45c-5.12,4.46-9.36-3.34-13.28.25-1,.91.49,2.27,1.48,1.36.62-.56,1.42-.66,2.8.14a10.85,10.85,0,0,0,5.82,1.53c2.11-.05,5.71-1.57,5.6-3.94.12-2.64-1.07-2.86-3.48-3.66"/></svg>
