<svg xmlns="http://www.w3.org/2000/svg" viewBox="0 0 10.26 10.29"><path d="M7.72,10.29a2.53,2.53,0,0,1-1.57-.54A4.7,4.7,0,0,1,.54,6.16a4.59,4.59,0,0,1,0-2A2.56,2.56,0,0,1,1,.54,2.59,2.59,0,0,1,2.54,0,2.65,2.65,0,0,1,4.11.53a5.56,5.56,0,0,1,1-.1,4.71,4.71,0,0,1,4.72,4.7h0a5.57,5.57,0,0,1-.11,1,2.57,2.57,0,0,1-2,4.15ZM5.77,4.48l-.69-.16c-.51-.12-.89-.21-.89-.6s.37-.51,1-.51c1,0,1.07.77,1.72.77a.69.69,0,0,0,.7-.68v0C7.61,2.48,6.33,2,5.06,2s-2.5.51-2.5,1.87c0,1.12.75,1.52,1.73,1.76l1,.24c.6.15,1,.21,1,.64s-.38.61-1,.61c-1.24,0-1.31-1-2-1a.66.66,0,0,0-.69.62.28.28,0,0,0,0,.09c0,.82,1.26,1.49,2.77,1.49,1.25,0,2.57-.63,2.57-2C7.84,5.1,6.72,4.69,5.77,4.48Z"/></svg>
