<svg xmlns="http://www.w3.org/2000/svg" viewBox="0 0 256.48 160.2"><path d="M0,140.51H4v7.8h8.8v-7.8h4V159.9h-4v-8.15H4v8.15H0Z"/><path d="M21.81,140.51H33L32,143.93H25.84v4.47H32v3.38H25.84v4.71H33v3.41H21.81Z"/><path d="M42.8,140.43h3.26L54,159.9H49.65l-1.88-4.73H41.18l-1.79,4.73H35.24Zm3.76,11.5-1.14-3.27c-.47-1.41-.71-2.23-.89-2.88h-.05a24.35,24.35,0,0,1-1,2.92l-1.17,3.23Z"/><path d="M56.81,140.51h4v16h6.77v3.41H56.81Z"/><path d="M74.5,143.93H68.85v-3.42H84.68l-1.05,3.42H78.54v16h-4Z"/><path d="M87.37,140.51h4v7.8h8.8v-7.8h4V159.9h-4v-8.15H91.4v8.15h-4Z"/><path d="M113.74,152.23l-6.68-11.72h4.36l4.35,8.24h.06l4.36-8.24h4.32l-6.74,11.77v7.62h-4Z"/><path d="M137.89,141.87h-5.57v-1.36h13.3l-.59,1.36h-5.58v18h-1.56Z"/><path d="M148.75,140.51h1.56v8.77h11.21v-8.77h1.56V159.9h-1.56v-9.26H150.31v9.26h-1.56Z"/><path d="M170.18,140.51h1.56V159.9h-1.56Z"/><path d="M191.6,159.9l-9.71-12.82c-1.32-1.74-2.26-3.09-2.94-4.09h-.06c0,1.06.06,1.76.06,3.47V159.9h-1.56V140.51h1.44l9.33,12.36c1.41,1.86,2.41,3.3,3.09,4.33h.06c0-1.06-.06-1.77-.06-3.47V140.51h1.56V159.9Z"/><path d="M198.44,140.51H200v9.16h.06l7.68-9.16h1.94l-8.21,9.69,8.77,9.7h-2.06l-8.12-9H200v9h-1.56Z"/><path d="M213.84,140.51h1.56V159.9h-1.56Z"/><path d="M235.25,159.9l-9.7-12.82c-1.33-1.74-2.27-3.09-2.94-4.09h-.07c0,1.06.07,1.76.07,3.47V159.9h-1.56V140.51h1.44l9.32,12.36c1.41,1.86,2.42,3.3,3.09,4.33H235c0-1.06-.06-1.77-.06-3.47V140.51h1.56V159.9Z"/><path d="M256.48,158.76a13.66,13.66,0,0,1-6.06,1.44c-5.53,0-9.33-4-9.33-9.74,0-6,3.92-10.09,9.74-10.09a12.71,12.71,0,0,1,5.15,1.09V143a11,11,0,0,0-5.09-1.21c-5.17,0-8.15,3.53-8.15,8.47,0,5.33,3.15,8.57,7.95,8.57a9.45,9.45,0,0,0,4.23-.89v-7h1.56Z"/><path d="M179.29,87.82c-.09.11-3.55,4-10.54,4-5.34,0-10.83-2-15.95-5.56,7.47-7.89,11.39-17.76,11.39-26.58,0-9.09-5.26-18.32-16.34-18.32a17.44,17.44,0,0,0-8.26,2c7.23-9.23,17.83-12.4,22.1-13.34.4.2.7.12.61-.2a6.46,6.46,0,0,0-2.91-3.21,2,2,0,0,0-1.15-.11,59.27,59.27,0,0,0-14-6.91c3.8-4.75,6.32-9.25,6.32-13.72,0-3.9-2.26-5.79-5.22-5.79-4.19,0-10.89,5.33-14.45,17.25l-1.16,0c-22.58,0-44.2,18.21-44.2,42.44,0,12.29,8.16,24.43,19.3,28.2,4.47,7.12,12.61,10.86,21.58,10.86,9.59,0,17.85-4.15,24.17-10.24,5.55,4.82,11.46,7.56,16.84,7.56,8.25,0,12.43-7.11,12.64-7.88C180.18,87.64,179.66,87.36,179.29,87.82ZM147.85,42.75c9.78,0,14.64,8.13,14.64,17.09s-4.36,18.32-11.15,25.3c-9.07-7-16.77-19-20.13-33.61C136.2,45.68,141.9,42.75,147.85,42.75Zm8.53-15.85c-9.25,2.65-18.92,9.8-26,20.15a71.15,71.15,0,0,1-.93-11.35c5-5.49,10.15-10.49,14.07-15.24A53.62,53.62,0,0,1,156.38,26.9ZM130,27.1a58.63,58.63,0,0,1,1.91-8.65,46.3,46.3,0,0,1,6.09.67C135.63,21.63,132.9,24.29,130,27.1ZM143.56,2.33c1.8,0,2.68,1.07,2.68,3.21,0,3.68-3,7.88-7.36,12.65a46.2,46.2,0,0,0-6.63-.82C135.13,8.53,139.68,2.33,143.56,2.33ZM86.84,59.6c0-23.83,21.49-41.22,42.56-41.22l1.14,0a59.37,59.37,0,0,0-1.77,9.91C116.1,40.68,101.17,56,101.17,74.42a25.82,25.82,0,0,0,2.61,11.73C93.73,82.22,86.84,71.4,86.84,59.6ZM127.61,96a17.34,17.34,0,0,1-13.89-7c6.89-.65,16.25-6.14,18.21-12,.33-1-.5-1.14-.8-.27-1.6,4.66-10.12,10.91-18.32,11a21.45,21.45,0,0,1-3.38-11.7c0-16,9.28-28.63,19-39.36a76.3,76.3,0,0,0,1,11.55A62.86,62.86,0,0,0,121.55,66c-.24.89.64,1.32,1,.41a58,58,0,0,1,7.76-13.84c3.3,14.63,10.54,26.93,18.76,34.67C143.1,92.57,135.58,96,127.61,96Z"/><path d="M126.37,98.85a28.45,28.45,0,0,1-12.5-2.77A22,22,0,0,1,104.75,88,27.93,27.93,0,0,1,90.92,77.06a31.15,31.15,0,0,1-5.48-17.33A41,41,0,0,1,99.08,29.38a45.83,45.83,0,0,1,30.61-12.14h1.12c2.05-6.83,4.93-10.88,7-13.08C140.29,1.52,143,0,145.3,0c3.26,0,5.28,2.24,5.28,5.85,0,4-1.94,8.24-6.29,13.69a59.76,59.76,0,0,1,14,6.94c2.07-.47,5.18,4.38,3.4,3.5-4.18.92-14.62,4.14-21.83,13.17a17.65,17.65,0,0,1,8-1.9A15.12,15.12,0,0,1,160.22,47a20.39,20.39,0,0,1,4,12.6,35.84,35.84,0,0,1-2.9,13.66,43,43,0,0,1-8.47,12.91c5.2,3.61,10.68,5.51,15.87,5.51,7,0,10.46-3.88,10.49-3.92a.53.53,0,0,1,.63-.22.56.56,0,0,1,.2.67c-.22.81-4.43,7.92-12.69,7.92-5.32,0-11.14-2.6-16.83-7.53C145.68,93.3,137.54,98.85,126.37,98.85Zm3.32-81.5A45.66,45.66,0,0,0,99.16,29.47,40.87,40.87,0,0,0,85.55,59.73,31.12,31.12,0,0,0,91,77a27.78,27.78,0,0,0,13.8,10.87h0v0A22,22,0,0,0,113.92,96a28.22,28.22,0,0,0,12.45,2.76c11.16,0,19.29-5.56,24.14-10.23l0,0,0,0c5.69,4.93,11.5,7.54,16.8,7.54,8.2,0,12.37-7,12.58-7.84a.45.45,0,0,0-.14-.54.42.42,0,0,0-.49.19h0s-3.52,4-10.58,4c-5.23,0-10.76-1.93-16-5.58l-.06,0,0,0a43,43,0,0,0,8.48-12.92,35.46,35.46,0,0,0,2.9-13.62,20.37,20.37,0,0,0-4-12.54,15,15,0,0,0-12.28-5.73,17.22,17.22,0,0,0-8.23,2l-.26.14.18-.23c7.25-9.24,17.85-12.4,22.06-13.33h0a10.42,10.42,0,0,0,4.66,1.29c3.21,0,4.68-1.26,4.68-2.42,0-.76-.61-1.51-1.67-2.06a11.5,11.5,0,0,0-5.18-1,27.26,27.26,0,0,0-6,.71h0l0,0a58.49,58.49,0,0,0-13.89-6.88l-.08,0,.05-.06c4.37-5.46,6.32-9.68,6.32-13.68,0-3.59-1.93-5.74-5.17-5.74-2.25,0-5,1.51-7.42,4.14-2,2.2-4.93,6.25-7,13.08v0h-.19ZM127.61,96.1a17.3,17.3,0,0,1-13.94-7l-.06-.08h.1a26.13,26.13,0,0,0,10.93-4c3.76-2.38,6.33-5.21,7.24-8,.15-.44.05-.69-.11-.75s-.44.1-.58.51c-.81,2.36-3.32,5.07-6.71,7.25a22.7,22.7,0,0,1-11.67,3.82h0l0,0a21.5,21.5,0,0,1-3.39-11.73c0-16.24,9.63-29,19-39.4l.1-.1v.14a77.71,77.71,0,0,0,1,11.54v0A62.88,62.88,0,0,0,121.61,66c-.12.44,0,.75.27.83s.47,0,.66-.45a58.35,58.35,0,0,1,7.76-13.86l.07-.09,0,.12c3.1,13.71,9.93,26.33,18.75,34.64l0,0,0,0C142.73,93,135.08,96.1,127.61,96.1Zm-13.78-7A17.17,17.17,0,0,0,127.61,96c7.43,0,15-3.1,21.42-8.73-8.79-8.3-15.6-20.88-18.71-34.54a57.63,57.63,0,0,0-7.68,13.73c-.22.51-.56.6-.8.52a.76.76,0,0,1-.34-1,62.68,62.68,0,0,1,7.94-17.72,77.17,77.17,0,0,1-1-11.4C119,47.22,109.49,60,109.49,76.1a21.36,21.36,0,0,0,3.35,11.64A22.54,22.54,0,0,0,124.42,84c3.37-2.17,5.86-4.86,6.66-7.19.17-.49.49-.67.72-.59s.36.38.19.9c-.92,2.76-3.51,5.61-7.29,8A26.41,26.41,0,0,1,113.83,89.12Zm-9.93-2.86-.14-.06A25.8,25.8,0,0,1,91.49,75.86,30.22,30.22,0,0,1,86.78,59.6,39.87,39.87,0,0,1,100.18,30,44,44,0,0,1,129.4,18.32l.83,0h.38l0,.06a59.37,59.37,0,0,0-1.76,9.9v0l0,0c-6.5,6.35-13.3,13.19-18.55,20.76-6.08,8.78-9,17.06-9,25.31a25.76,25.76,0,0,0,2.61,11.71Zm25.5-67.82A43.86,43.86,0,0,0,100.25,30.1,39.76,39.76,0,0,0,86.89,59.6a30,30,0,0,0,4.7,16.19,25.66,25.66,0,0,0,12.08,10.26,25.82,25.82,0,0,1-2.56-11.63c0-8.27,3-16.57,9.06-25.37,5.25-7.58,12-14.42,18.55-20.77a58.71,58.71,0,0,1,1.75-9.83H129.4Zm21.94,66.77,0,0c-9.59-7.36-16.93-19.62-20.14-33.64v0l0,0c4.91-5.75,10.67-8.79,16.68-8.79,10.16,0,14.7,8.61,14.7,17.14S158.37,78,151.38,85.18ZM131.27,51.55c3.21,14,10.52,26.17,20.06,33.52,7-7.17,11.11-16.59,11.11-25.23,0-8.48-4.51-17-14.59-17C141.89,42.81,136.15,45.83,131.27,51.55Zm-1-4.35,0-.14a73.77,73.77,0,0,1-.93-11.36v0h0c1.78-1.94,3.58-3.83,5.31-5.65,3.2-3.35,6.22-6.52,8.75-9.59l0,0h0a52.55,52.55,0,0,1,12.93,6.44l.11.07-.12,0c-9.63,2.77-19.12,10.1-26,20.13Zm-.83-11.48a71.45,71.45,0,0,0,.9,11.18c6.89-9.95,16.31-17.24,25.89-20a52.23,52.23,0,0,0-12.76-6.35c-2.54,3.06-5.55,6.22-8.74,9.57C133,31.92,131.24,33.79,129.46,35.72Zm.47-8.46,0-.16a57.79,57.79,0,0,1,1.92-8.67v0h0a49.7,49.7,0,0,1,6.1.67l.1,0-.07.08c-2.32,2.45-5,5-7.79,7.77Zm2-8.76A57.92,57.92,0,0,0,130.09,27l.09-.1c2.79-2.71,5.42-5.27,7.72-7.69A47.33,47.33,0,0,0,132,18.5Zm6.94-.25h0a48.09,48.09,0,0,0-6.62-.82h-.07l0-.07c2.93-9,7.5-15.08,11.36-15.08,1.81,0,2.73,1.1,2.73,3.27,0,3.25-2.27,7.16-7.37,12.68Zm-6.57-.93a46.79,46.79,0,0,1,6.53.8c5.06-5.48,7.32-9.36,7.32-12.58,0-2.12-.86-3.15-2.62-3.15C139.76,2.39,135.25,8.38,132.33,17.32Z"/><path d="M203.17,61.05c-1.91-1.84-3.06-2.52-10.06-5.57-7.82-3.4-9.45-5-9.45-9.32,0-4.55,3.33-7.74,8.09-7.74A12,12,0,0,1,199,40.66c1.5,1.15,2.56,2.73,3.65,6.06,0,0,0,0,0,0a.75.75,0,0,0,.72.53.77.77,0,0,0,.77-.76c0-.27-.19-1-.26-1.84s-.2-3.4-.2-4.42c0,0,0-2.17.15-3.13h0a.54.54,0,0,0-.94-.36h0a.82.82,0,0,1-.76.3,8.25,8.25,0,0,1-1.7-.21,67.7,67.7,0,0,0-8-.61c-8.56,0-14.14,4.69-14.14,11.83a9.36,9.36,0,0,0,3,7.2c2,1.84,2.11,1.91,9.31,5.17,8.3,3.74,10,5.43,10,9.65,0,4.69-3.74,8.16-8.91,8.16-4,0-8.09-1.36-10.19-3.34a13.15,13.15,0,0,1-3.59-6.63h0a.76.76,0,0,0-1.51.13.17.17,0,0,0,0,.07v0a89.09,89.09,0,0,0,1.22,11.66h0a.26.26,0,0,0,.07.11s0,0,0,0a.54.54,0,0,0,.42.21l.08,0h0c.16,0,.29-.13.51-.31a1.92,1.92,0,0,1,1.2-.36,4.81,4.81,0,0,1,.89.07,55.71,55.71,0,0,0,9.58,1c10.26,0,16.18-4.28,16.18-11.76A10.69,10.69,0,0,0,203.17,61.05Z"/><path d="M76.69,61.05c-1.9-1.84-3-2.52-10.06-5.57-7.81-3.4-9.44-5-9.44-9.32,0-4.55,3.33-7.74,8.09-7.74a12,12,0,0,1,7.27,2.24c1.49,1.15,2.56,2.73,3.65,6.06v0a.74.74,0,0,0,.72.53.76.76,0,0,0,.76-.76c0-.27-.18-1-.25-1.84s-.2-3.4-.2-4.42c0,0,0-2.17.14-3.13h0a.54.54,0,0,0-.54-.54.53.53,0,0,0-.39.18h0c-.08.1-.21.3-.76.3A8.19,8.19,0,0,1,74,36.85a67.86,67.86,0,0,0-8-.61c-8.57,0-14.14,4.69-14.14,11.83a9.36,9.36,0,0,0,3,7.2c2,1.84,2.11,1.91,9.31,5.17,8.29,3.74,10,5.43,10,9.65,0,4.69-3.74,8.16-8.9,8.16-4,0-8.09-1.36-10.2-3.34a13.21,13.21,0,0,1-3.58-6.63h0a.77.77,0,0,0-1.52.13s0,0,0,.07v0a89.09,89.09,0,0,0,1.22,11.66h0l.07.11s0,0,0,0a.56.56,0,0,0,.42.21l.08,0h0c.17,0,.3-.13.52-.31a1.9,1.9,0,0,1,1.2-.36,4.76,4.76,0,0,1,.88.07,55.82,55.82,0,0,0,9.59,1c10.26,0,16.17-4.28,16.17-11.76A10.65,10.65,0,0,0,76.69,61.05Z"/></svg>
