<svg width="48" height="48" viewBox="0 0 48 48" fill="none" xmlns="http://www.w3.org/2000/svg">
<path d="M38.0156 36C35.3906 36 35.0728 39 31.0078 39C26.925 39 26.6391 36 24 36C21.4425 36 21.0319 39 17.0156 39C12.9375 39 12.6281 36 10.0078 36C7.3875 36 7.065 39 3 39V48H45V39C40.9453 39 40.5938 36 38.0156 36ZM12 9C13.6641 9 15 7.73438 15 5.25C15 2.76562 13.125 0 12 0C12 3.84375 9 3.09375 9 6V6.00004C8.99484 7.65171 10.3296 8.99484 11.9813 9C11.9875 9.00002 11.9938 9.00002 12 9L12 9ZM24 9C25.6641 9 27 7.73438 27 5.25C27 2.76562 25.125 0 24 0C24 3.84375 21 3.09375 21 6V6.00004C20.9948 7.65171 22.3296 8.99484 23.9813 9C23.9875 9.00002 23.9938 9.00002 24 9L24 9ZM36 9C37.6641 9 39 7.73438 39 5.25C39 2.76562 37.125 0 36 0C36 3.84375 33 3.09375 33 6V6.00004C32.9948 7.65171 34.3296 8.99484 35.9813 9C35.9875 9.00002 35.9938 9.00002 36 9L36 9Z" fill="#8F0034"/>
<path d="M45 36C42.375 36 42.0694 33 38.0156 33C33.9441 33 33.6253 36 31.0078 36C28.4109 36 28.0594 33 24 33C19.9837 33 19.5731 36 17.0156 36C14.3766 36 14.0906 33 10.0078 33C5.925 33 5.63438 36 3 36V28.5H3C3 26.0147 5.01472 24 7.5 24H9V10.5H15V24H21V10.5H27V24H33V10.5H39V24H40.5C42.9853 24 45 26.0147 45 28.5V36Z" fill="#FF035E"/>
</svg>
