<svg width="48" height="48" viewBox="0 0 48 48" fill="none" xmlns="http://www.w3.org/2000/svg">
<g clip-path="url(#clip0)">
<path d="M17.25 6.75V6.75C17.25 3.02208 20.2721 0 24 0C27.7279 -5.629e-07 30.75 3.02208 30.75 6.75C30.75 10.4779 27.7279 13.5 24 13.5C20.2721 13.5 17.25 10.4779 17.25 6.75V6.75Z" fill="#8F0034"/>
<path d="M6.87841 11.1217C5.70671 9.94995 5.70671 8.05024 6.87841 6.87854C8.05012 5.70683 9.94983 5.70683 11.1215 6.87854L19.2422 15.0001H28.7578L36.8784 6.87854C38.0501 5.70683 39.9498 5.70683 41.1215 6.87854C42.2932 8.05024 42.2932 9.94995 41.1215 11.1217L32.25 19.9923V45.0001C32.25 46.657 30.9068 48.0001 29.25 48.0001H27.75C26.0931 48.0001 24.75 46.657 24.75 45.0001V34.5001H23.25V45.0001C23.25 46.657 21.9068 48.0001 20.25 48.0001H18.75C17.0931 48.0001 15.75 46.657 15.75 45.0001V19.9923L6.87841 11.1217Z" fill="#FF035E"/>
</g>
<defs>
<clipPath id="clip0">
<rect width="48" height="48" fill="white"/>
</clipPath>
</defs>
</svg>
