<svg width="1440" height="66" viewBox="0 0 1440 66" fill="none" xmlns="http://www.w3.org/2000/svg">
<path d="M1440 35.8494L1437.13 36.5571L1434.26 37.4914L1431.39 38.5831L1428.52 39.7473L1425.65 40.8918L1422.78 41.9247L1420.94 42.4637C1420.26 42.6634 1419.53 42.8421 1418.76 42.9977L1418.2 43.111C1417.43 43.2655 1416.61 43.3853 1415.76 43.4674L1415.59 43.4845C1414.65 43.5747 1413.68 43.6128 1412.71 43.5972C1411.78 43.5822 1410.86 43.5176 1409.98 43.4057L1409.68 43.3672C1408.85 43.2619 1408.07 43.1232 1407.33 42.9539L1406.72 42.8125C1405.95 42.6364 1405.23 42.4398 1404.55 42.2243L1402.7 41.636L1399.83 40.5309L1396.96 39.3011L1394.09 38.0202L1391.22 36.762L1388.35 35.5952L1385.48 34.5794L1383.73 34.0801C1382.99 33.8679 1382.2 33.676 1381.37 33.5061L1380.95 33.4205C1380.15 33.2555 1379.3 33.1191 1378.42 33.0134L1378.23 32.9914C1377.33 32.883 1376.39 32.8119 1375.44 32.7796C1374.49 32.7471 1373.52 32.7541 1372.57 32.8002L1372.47 32.8052C1371.58 32.8483 1370.71 32.9231 1369.87 33.0284L1369.53 33.0706C1368.69 33.1752 1367.87 33.3033 1367.09 33.4536L1365.4 33.7798L1362.53 34.4997L1359.66 35.3621L1356.79 36.3444L1353.92 37.4261L1351.05 38.5867L1348.18 39.8034L1345.31 41.0488L1342.44 42.2894L1339.57 43.4837L1336.7 44.5814L1333.83 45.5227L1331.97 45.9884C1331.3 46.1556 1330.58 46.2963 1329.83 46.4079L1329.31 46.4844C1328.5 46.6027 1327.65 46.673 1326.78 46.6924C1325.75 46.7154 1324.72 46.6665 1323.75 46.5487L1323.67 46.5387C1322.8 46.4337 1321.99 46.2784 1321.27 46.0794L1320.64 45.9063C1319.87 45.6956 1319.18 45.4553 1318.57 45.1902L1316.62 44.3455L1313.75 42.6672L1310.88 40.6021L1308.01 38.2301L1305.14 35.6628L1302.27 33.0394L1299.4 30.5182L1296.53 28.2649L1294.36 26.8814C1293.9 26.5867 1293.36 26.3063 1292.76 26.0434L1291.51 25.4918C1291.04 25.2844 1290.46 25.1094 1289.8 24.9759L1289.28 24.8683C1288.4 24.6894 1287.38 24.622 1286.38 24.6773C1285.52 24.725 1284.71 24.8616 1284.07 25.0698L1283.11 25.3824C1282.5 25.5814 1281.97 25.8102 1281.54 26.0619C1280.06 26.9331 1278.69 27.8934 1277.44 28.932L1276.45 29.7564L1273.58 32.736L1270.71 36.1694L1267.84 39.8844L1264.97 43.6861L1262.1 47.3672L1259.23 50.718L1258.34 51.5955C1257.02 52.8882 1255.58 54.1119 1254.02 55.2574C1253.67 55.5128 1253.23 55.7528 1252.73 55.9725L1251.37 56.5571C1250.89 56.7678 1250.22 56.9187 1249.47 56.9879C1248.39 57.0884 1247.23 57.008 1246.34 56.7697L1245.74 56.6112C1245.18 56.4604 1244.7 56.2704 1244.36 56.0529L1242.82 55.0928C1242.28 54.758 1241.83 54.4085 1241.45 54.0477L1239.14 51.8325L1236.28 48.2356L1233.41 43.9794L1230.54 39.2897L1227.67 34.4238L1224.8 29.6555L1221.93 25.2581L1219.06 21.488L1216.7 19.0885C1216.36 18.7429 1215.94 18.4073 1215.45 18.0848L1213.79 16.9874C1213.48 16.7857 1213.05 16.611 1212.52 16.4764L1212.15 16.3809C1211.1 16.1127 1209.72 16.0669 1208.55 16.2615C1207.92 16.3665 1207.39 16.5349 1207.03 16.7455L1205.41 17.6908C1204.95 17.964 1204.56 18.2527 1204.25 18.5526L1201.84 20.9064L1198.97 24.6976L1196.1 29.2812L1193.24 34.4174L1187.5 45.2341L1184.63 50.3251L1181.76 54.8219L1180.85 55.9818C1179.54 57.6372 1178.06 59.2165 1176.41 60.7049C1176.15 60.936 1175.81 61.1541 1175.39 61.3536L1173.96 62.0308C1173.45 62.2759 1172.65 62.4275 1171.78 62.4442C1170.84 62.4624 1169.93 62.319 1169.34 62.0595L1168.05 61.486C1167.63 61.2997 1167.28 61.0928 1167.03 60.8717C1165.37 59.4116 1163.89 57.8542 1162.6 56.2162L1161.67 55.031L1158.8 50.472L1155.93 45.2609L1153.06 39.6958L1150.19 34.0944L1147.33 28.7754L1144.46 24.0387L1141.59 20.1479L1139.14 17.7291C1138.86 17.4536 1138.5 17.1894 1138.06 16.9409L1136.45 16.0265C1136.06 15.8076 1135.47 15.6425 1134.77 15.5594C1133.67 15.4271 1132.45 15.5194 1131.59 15.7995L1130.81 16.0567C1130.35 16.2083 1129.97 16.3895 1129.7 16.5906C1128.06 17.8196 1126.6 19.1587 1125.32 20.5893L1124.37 21.6561L1121.5 25.7331L1118.63 30.4167L1115.76 35.4234L1112.89 40.457L1110.02 45.2252L1107.15 49.4564L1106.21 50.5935C1104.93 52.1397 1103.48 53.615 1101.89 55.0069C1101.58 55.2833 1101.17 55.5461 1100.68 55.79L1099.23 56.5201C1098.78 56.7411 1098.15 56.9054 1097.42 56.9882C1096.33 57.1118 1095.13 57.041 1094.21 56.7982L1093.62 56.6398C1093.08 56.4984 1092.64 56.3205 1092.3 56.117L1090.72 55.1493C1090.2 54.8336 1089.75 54.5047 1089.37 54.1652L1087.07 52.086L1084.2 48.8558L1081.33 45.2143L1078.46 41.4071L1075.59 37.6789L1072.72 34.2574L1069.85 31.3387L1067.66 29.6043C1067.21 29.2512 1066.68 28.9121 1066.07 28.5903L1064.79 27.9176C1064.34 27.6799 1063.78 27.4722 1063.12 27.3045L1062.48 27.1407C1061.68 26.9369 1060.71 26.8314 1059.72 26.8404C1058.84 26.8485 1057.99 26.947 1057.27 27.1236L1056.43 27.3286C1055.82 27.4795 1055.27 27.6604 1054.8 27.866L1052.64 28.811L1049.77 30.4627L1046.9 32.3422L1044.03 34.2826L1041.16 36.1326L1038.29 37.7683L1036.41 38.6412C1035.75 38.9477 1035.03 39.2363 1034.24 39.5046L1033.64 39.7131C1032.91 39.9604 1032.12 40.1795 1031.26 40.3667L1030.98 40.4289C1030.12 40.6174 1029.19 40.7649 1028.22 40.8675C1027.28 40.966 1026.32 41.0223 1025.35 41.0352L1025.14 41.0379C1024.34 41.0484 1023.55 41.0334 1022.76 40.9931L1021.07 40.9068L1015.33 40.4291L1013.73 40.3438C1012.89 40.2991 1012.04 40.2762 1011.19 40.2755L1011.08 40.2754C1010.09 40.2746 1009.11 40.3056 1008.14 40.368C1007.2 40.4284 1006.28 40.518 1005.38 40.6358L1003.86 40.8369L1000.99 41.3848L998.119 42.0522L995.249 42.7669L992.38 43.4425L990.534 43.7917C989.853 43.9204 989.139 44.0261 988.401 44.1074L987.882 44.1645C987.06 44.2551 986.203 44.3016 985.341 44.3026C984.304 44.3037 983.274 44.2388 982.302 44.111L982.229 44.1014C981.35 43.9858 980.528 43.8226 979.792 43.6179L979.193 43.4512C978.422 43.2366 977.718 42.9937 977.093 42.7268L975.164 41.9029L972.294 40.2836L969.425 38.3424L966.556 36.1857L963.686 33.9454L960.817 31.7679L957.948 29.8023L955.841 28.6174C955.333 28.332 954.76 28.0618 954.125 27.8096L952.998 27.3614C952.476 27.1537 951.859 26.9778 951.173 26.8408L950.606 26.7275C949.779 26.5624 948.835 26.4847 947.885 26.5036C946.961 26.522 946.069 26.6314 945.313 26.8193L944.624 26.9905C943.946 27.1589 943.348 27.364 942.853 27.598L941.697 28.1437C941.054 28.4469 940.482 28.7679 939.987 29.1034L937.862 30.541L934.993 32.9763L932.123 35.7774L929.254 38.7894L926.385 41.841L923.515 44.7571L920.646 47.3714L919.68 48.1004C918.413 49.0565 917.046 49.9429 915.591 50.7519C915.137 51.0043 914.592 51.235 913.97 51.4383L912.974 51.7643C912.361 51.9647 911.608 52.1051 910.792 52.1714C909.741 52.2567 908.638 52.2146 907.663 52.0519L907.372 52.0033C906.664 51.8852 906.034 51.7171 905.519 51.5095L904.355 51.0404C903.74 50.7923 903.196 50.5235 902.731 50.2378L900.561 48.9041L897.691 46.6371L894.822 43.9928L891.952 41.1124L889.083 38.1452L886.214 35.2428L883.344 32.5522L880.475 30.2085L878.374 28.8306C877.862 28.4952 877.277 28.1744 876.624 27.8711L875.502 27.3506C874.994 27.1149 874.389 26.9072 873.706 26.7344L872.988 26.5526C872.254 26.3667 871.393 26.2522 870.492 26.2207C869.516 26.1866 868.533 26.2511 867.658 26.4068L867.208 26.4869C866.493 26.614 865.848 26.784 865.3 26.9891L864.234 27.3886C863.585 27.6316 863 27.8947 862.486 28.1747L860.39 29.3176L857.52 31.2709L854.651 33.4964L851.781 35.8658L848.912 38.2481L846.043 40.5179L843.173 42.5623L840.304 44.2849L838.296 45.2113C837.723 45.4754 837.074 45.7179 836.359 45.9348L835.559 46.1772C834.902 46.3767 834.151 46.5348 833.34 46.6446L833.134 46.6724C832.188 46.8005 831.171 46.8504 830.161 46.8183C829.28 46.7903 828.425 46.7005 827.645 46.5542L827.058 46.4442C826.327 46.3071 825.648 46.1382 825.036 45.9415L823.088 45.3145L820.218 44.0905L817.349 42.6657L814.48 41.1479L811.61 39.6457L808.741 38.2605L805.872 37.0794L804.054 36.5025C803.354 36.2806 802.594 36.0836 801.785 35.9143L801.348 35.8229C800.541 35.6543 799.668 35.5239 798.764 35.4362C797.774 35.3403 796.742 35.2957 795.716 35.3052C794.838 35.3134 793.967 35.3605 793.123 35.4456L792.682 35.4901C791.912 35.5677 791.162 35.6684 790.441 35.791L788.655 36.0947L785.786 36.701L782.917 37.3359L780.047 37.9094L778.358 38.1632C777.573 38.2811 776.759 38.3734 775.926 38.439L775.694 38.4572C774.774 38.5297 773.832 38.5635 772.889 38.558C771.926 38.5524 770.969 38.5059 770.038 38.4194L769.854 38.4023C769 38.323 768.17 38.2144 767.377 38.0782L765.701 37.7903L762.831 37.1228L759.962 36.3533L757.092 35.5679L754.223 34.8566L752.434 34.5134C751.716 34.3757 750.96 34.2634 750.179 34.1781L749.768 34.1333C748.916 34.0405 748.032 33.9909 747.141 33.986C746.13 33.9805 745.124 34.0326 744.161 34.1403L744.076 34.1497C743.194 34.2484 742.355 34.3901 741.584 34.5707L741.07 34.6914C740.276 34.8774 739.538 35.0909 738.865 35.3287L737.007 35.9859L734.138 37.3063L731.268 38.8691C729.358 40.0125 727.564 41.2502 725.909 42.5803C724.032 44.0888 721.672 45.9978 721.016 46.5852C720.374 47.16 718.349 49.0803 716.708 50.6419C715.175 52.1013 713.733 53.6075 712.378 55.154L708.732 58.6464L706.321 60.4256C706.028 60.6423 705.499 60.8088 704.854 60.8879C703.757 61.0223 702.54 60.8802 701.891 60.5418L700.587 59.8622C700.28 59.7023 700.042 59.5273 699.88 59.343C698.132 57.3501 696.608 55.2624 695.32 53.0991L694.385 51.5284L691.516 45.5409L685.777 32.2206L682.908 26.1509L681.884 24.4287C680.656 22.3622 679.156 20.3835 677.402 18.5192C677.249 18.3566 676.977 18.211 676.612 18.0972C675.379 17.7122 673.466 17.7894 672.513 18.2628L671.819 18.6076C671.562 18.7356 671.37 18.8784 671.251 19.0296C669.46 21.3198 667.926 23.7071 666.662 26.1692L665.691 28.0599L662.822 35.0284L659.953 42.6672L657.083 50.1751L654.214 56.7472L651.548 61.3195C651.412 61.5515 651.227 61.7795 650.993 62.0016L648.882 64.0079C648.628 64.2485 648.044 64.4273 647.331 64.4824C646.329 64.5597 645.311 64.3769 644.903 64.0463L643.041 62.5375C642.839 62.3733 642.682 62.2024 642.574 62.0275L639.867 57.6516L636.998 51.181L634.128 43.5594L631.259 35.5918L628.39 28.1187L625.52 21.9218L622.802 17.8649C622.702 17.7151 622.549 17.5702 622.347 17.4337L620.912 16.465C620.297 16.0498 618.818 15.9002 617.669 16.137C617.181 16.2375 616.814 16.3969 616.637 16.5855C614.912 18.4157 613.47 20.3726 612.333 22.4227L611.174 24.515L608.304 31.2806L605.435 38.9322L602.565 46.6783L599.696 53.7248L598.716 55.6495C597.459 58.1196 595.925 60.514 594.131 62.8098C594.016 62.9563 593.825 63.0942 593.568 63.2163L593.153 63.4127C592.075 63.9238 589.946 63.9697 588.698 63.5086C588.383 63.3922 588.15 63.2514 588.019 63.0976C586.243 61.0219 584.732 58.837 583.504 56.569L582.48 54.6775L579.611 47.9632L573.872 33.0546L571.003 26.3674L569.93 24.4117C568.735 22.2336 567.248 20.1427 565.488 18.1682C565.342 18.0034 565.066 17.8566 564.692 17.7444C563.481 17.3805 561.632 17.479 560.782 17.9526L559.866 18.4631C559.64 18.5889 559.471 18.7263 559.365 18.8704C557.561 21.3186 556.005 23.8555 554.709 26.4618L553.786 28.3183L550.917 35.3308L548.048 42.7996L545.178 49.8772L542.309 55.7553L539.597 59.5463C539.493 59.6924 539.329 59.8324 539.11 59.962L538.002 60.6202C537.239 61.0732 535.523 61.1919 534.328 60.8746C533.92 60.7662 533.615 60.6164 533.456 60.4454C531.711 58.5721 530.226 56.5817 529.024 54.5026L527.962 52.6649L525.093 46.4761L522.223 39.8573L519.354 33.6314L518.404 31.9459C517.127 29.679 515.595 27.4889 513.825 25.3969C513.686 25.2331 513.468 25.0791 513.179 24.9417L512.337 24.5407C511.452 24.1194 509.772 24.0231 508.552 24.3238C508.112 24.4325 507.772 24.5843 507.575 24.7603C505.867 26.2862 504.377 27.9292 503.126 29.665L502.138 31.0353L499.269 35.8355L496.399 40.7916L493.53 45.2654L491.052 48.2561C490.792 48.571 490.457 48.8779 490.053 49.1735L488.224 50.5123C487.942 50.7188 487.49 50.8908 486.927 51.0061C485.727 51.2517 484.215 51.2031 483.162 50.8851L482.7 50.7457C482.273 50.6167 481.926 50.4582 481.68 50.2801C480.018 49.0765 478.499 47.777 477.138 46.395L476.314 45.5577L473.444 42.2596L470.575 39.0361L469.657 38.1584C468.358 36.9169 466.917 35.7545 465.347 34.6835C465.009 34.4526 464.568 34.242 464.042 34.0596L463.027 33.7076C462.349 33.4723 461.431 33.3421 460.478 33.3458C459.59 33.3493 458.737 33.4689 458.086 33.6813L456.996 34.037C456.487 34.2034 456.046 34.3941 455.688 34.6035L453.359 35.964L450.489 38.1177L447.62 40.4442L444.751 42.6339L442.519 44.0156C442.095 44.278 441.596 44.5245 441.03 44.7514L439.794 45.2471C439.28 45.4532 438.634 45.6133 437.908 45.7141C436.772 45.8719 435.505 45.8746 434.363 45.7226C433.648 45.6276 433.003 45.4751 432.485 45.2779L431.246 44.8065C430.686 44.5934 430.186 44.3616 429.755 44.1144L427.535 42.843L424.665 40.8732L421.796 38.8372L418.926 36.9967L416.748 35.922C416.289 35.696 415.746 35.4927 415.133 35.3177L414.223 35.058C413.546 34.8648 412.729 34.742 411.864 34.7035C410.861 34.6589 409.843 34.7299 408.965 34.9057L408.453 35.0081C407.789 35.141 407.198 35.3143 406.707 35.5199L405.455 36.0442C404.872 36.2881 404.345 36.5477 403.879 36.8206L401.71 38.0886L398.841 40.0332L395.972 42.0036L393.102 43.7628L390.986 44.7578C390.486 44.993 389.902 45.2046 389.248 45.3875L388.401 45.6246C387.72 45.8153 386.916 45.9449 386.06 46.0022C385.038 46.0707 383.982 46.0334 383.019 45.8949L382.729 45.8532C381.999 45.7482 381.331 45.597 380.757 45.4071L379.694 45.0554C379.07 44.8488 378.499 44.6229 377.99 44.3804L375.886 43.3781L373.017 41.7489L370.147 40.0292L367.278 38.3889L364.409 36.9799L362.456 36.2603C361.847 36.0358 361.161 35.8391 360.412 35.6747L359.851 35.5513C359.071 35.38 358.204 35.2631 357.298 35.2072C356.311 35.1461 355.298 35.1588 354.325 35.2442L354.133 35.261C353.337 35.331 352.575 35.4432 351.874 35.5938L351.108 35.7586C350.412 35.9082 349.755 36.0791 349.144 36.2691L347.192 36.8759L344.323 37.948L341.454 39.1147L338.584 40.3123L335.715 41.4996L332.846 42.6505L329.976 43.7417L327.107 44.7393L325.144 45.3207C324.541 45.4995 323.9 45.6625 323.229 45.8084L322.342 46.001C321.696 46.1414 320.999 46.2505 320.269 46.3254L319.848 46.3686C318.959 46.4599 318.024 46.4827 317.108 46.4355C316.135 46.3854 315.208 46.2578 314.398 46.0624L313.91 45.9448C313.148 45.7611 312.471 45.5371 311.903 45.2809L310.911 44.8331C310.232 44.5266 309.629 44.2002 309.108 43.8576L307.021 42.485L304.152 40.101L301.283 37.4033L298.413 34.6508L295.544 32.1563L293.121 30.5486C292.825 30.3522 292.447 30.1726 291.999 30.0158L290.897 29.6297C290.208 29.3886 289.241 29.2731 288.277 29.3169C287.421 29.3557 286.648 29.5167 286.14 29.7618L284.735 30.44C284.291 30.6543 283.929 30.888 283.657 31.1352C282.019 32.6228 280.543 34.1968 279.24 35.8436L278.328 36.9967L275.458 41.2814L272.589 45.7411L269.72 49.8345L267.175 52.6736C266.959 52.9147 266.679 53.148 266.338 53.3706L264.522 54.5571C264.177 54.7824 263.581 54.9473 262.877 55.0123C261.816 55.1103 260.693 54.9662 260.061 54.6509L258.741 53.9915C258.41 53.8264 258.15 53.6453 257.967 53.454C256.24 51.6407 254.707 49.7374 253.382 47.76L252.504 46.4502L249.634 41.3708L246.765 36.0615L243.896 31.1286L242.903 29.7505C241.655 28.0187 240.166 26.3803 238.459 24.8601C238.261 24.6835 237.935 24.5281 237.514 24.4093C236.255 24.0545 234.432 24.0975 233.32 24.5083L232.957 24.6424C232.602 24.7735 232.329 24.9293 232.156 25.0998C230.421 26.8109 228.908 28.6303 227.634 30.5357L226.679 31.9628L223.81 37.223L220.941 42.8378L218.071 48.1461L217.146 49.5584C215.852 51.5335 214.326 53.4269 212.583 55.2182C212.417 55.388 212.163 55.5454 211.834 55.6824L211.132 55.9737C210.182 56.3684 208.539 56.4489 207.318 56.1605C206.846 56.049 206.478 55.891 206.26 55.7064C204.575 54.2743 203.108 52.7183 201.885 51.0647L200.855 49.6711L197.986 44.8271L195.116 39.6025L192.247 34.6078L191.361 33.3106C190.041 31.3772 188.517 29.5179 186.802 27.7487C186.607 27.5482 186.332 27.3583 185.986 27.185L184.619 26.5019C184.022 26.2032 182.984 26.0544 181.962 26.1211C181.205 26.1706 180.546 26.3332 180.157 26.5669L178.43 27.603C178.078 27.8144 177.789 28.0379 177.567 28.2701L175.031 30.9281L172.162 34.8448L169.292 39.2135L166.423 43.545L163.553 47.3697L161.088 49.8763C160.819 50.1495 160.475 50.4127 160.059 50.662L158.375 51.672C158.013 51.8894 157.448 52.0564 156.776 52.1448C155.656 52.2923 154.395 52.202 153.529 51.9125L152.737 51.648C152.3 51.502 151.944 51.3288 151.688 51.1372C150.037 49.9052 148.537 48.5747 147.205 47.1604L146.337 46.2393L143.468 42.6547L140.599 38.9464L137.729 35.5304L135.377 33.2737C135.033 32.9436 134.615 32.6235 134.128 32.3165L132.492 31.2864C132.162 31.0783 131.701 30.8994 131.145 30.7631L130.798 30.678C129.754 30.4225 128.41 30.3731 127.239 30.5471C126.594 30.6429 126.04 30.8011 125.64 31.0031L124.09 31.7874C123.619 32.0255 123.214 32.2788 122.879 32.5438L120.513 34.4151L117.644 37.2257L114.774 40.2632L111.905 43.2082L111.015 44.0012C109.697 45.1754 108.264 46.2816 106.727 47.3116C106.355 47.5607 105.894 47.7924 105.357 48.0009L104.146 48.4703C103.594 48.6845 102.864 48.8321 102.059 48.8921C101.017 48.9698 99.9294 48.8947 99.0482 48.6842L98.453 48.542C97.862 48.4009 97.3533 48.2213 96.9545 48.0129L95.5086 47.2574C94.9629 46.9723 94.4807 46.6728 94.0662 46.3616L91.8195 44.675L88.9501 42.0824L86.0808 39.3071L83.2114 36.6238L82.3291 35.9092C81.0062 34.8378 79.5748 33.8369 78.0463 32.9147C77.6658 32.6851 77.195 32.4755 76.648 32.2922L75.5758 31.9329C74.9463 31.7219 74.131 31.5927 73.2644 31.5665C72.2823 31.5369 71.3055 31.6416 70.538 31.859L69.7321 32.0871C69.1581 32.2496 68.6684 32.4458 68.2844 32.6669L66.833 33.5028C66.2752 33.824 65.7837 34.1589 65.3623 34.5048L63.1259 36.3405L60.2565 39.191L57.3872 42.2732L54.5178 45.2846L53.6882 46.0429C52.3304 47.2838 50.8414 48.4491 49.2344 49.5284C48.9328 49.731 48.5405 49.9151 48.0725 50.0739L47.0563 50.4186C46.3339 50.6636 45.3271 50.776 44.3345 50.7225C43.5049 50.6778 42.7578 50.5208 42.253 50.2852L40.8554 49.633C40.401 49.4209 40.025 49.1894 39.7366 48.944C38.1154 47.5647 36.6366 46.1036 35.3117 44.5722L34.4323 43.5556L31.563 39.7185L28.6936 35.8074L25.8243 32.3042L23.3037 29.9815C23.0721 29.768 22.7654 29.5656 22.3908 29.3789L20.9009 28.6361C20.389 28.3809 19.5587 28.228 18.6703 28.2251C17.7602 28.2223 16.9045 28.3772 16.3833 28.6393L14.9131 29.3787C14.5371 29.5678 14.2321 29.7731 14.0057 29.9895L11.4774 32.4073L8.60807 36.1355L2.86938 44.683L0 48.4428" stroke="#07474A" stroke-width="2" stroke-miterlimit="16" stroke-linecap="round"/>
<path d="M1440 31.4341L1437.13 32.1274L1434.26 33.0426L1431.39 34.112L1428.52 35.2525L1425.65 36.3736L1422.78 37.3854L1420.94 37.9134C1420.26 38.1091 1419.53 38.2841 1418.76 38.4365L1418.2 38.5475C1417.43 38.6989 1416.61 38.8162 1415.76 38.8967L1415.59 38.9134C1414.65 39.0018 1413.68 39.039 1412.71 39.0238C1411.78 39.0091 1410.86 38.9458 1409.98 38.8362L1409.68 38.7985C1408.85 38.6953 1408.07 38.5595 1407.33 38.3937L1406.72 38.2551C1405.95 38.0826 1405.23 37.89 1404.55 37.6789L1402.7 37.1026L1399.83 36.0201L1396.96 34.8154L1394.09 33.5606L1391.22 32.3281L1388.35 31.1851L1385.48 30.19L1383.73 29.7009C1382.99 29.493 1382.2 29.305 1381.37 29.1386L1380.95 29.0548C1380.15 28.8931 1379.3 28.7595 1378.42 28.656L1378.23 28.6344C1377.33 28.5282 1376.39 28.4586 1375.44 28.427C1374.49 28.3951 1373.52 28.4019 1372.57 28.4472L1372.47 28.452C1371.58 28.4943 1370.71 28.5675 1369.87 28.6707L1369.53 28.712C1368.69 28.8145 1367.87 28.94 1367.09 29.0872L1365.4 29.4068L1362.53 30.1119L1359.66 30.9567L1356.79 31.919L1353.92 32.9787L1351.05 34.1156L1348.18 35.3074L1345.31 36.5274L1342.44 37.7427L1339.57 38.9126L1336.7 39.9879L1333.83 40.91L1331.97 41.3662C1331.3 41.53 1330.58 41.6678 1329.83 41.7771L1329.31 41.852C1328.5 41.968 1327.65 42.0369 1326.78 42.0558C1325.75 42.0783 1324.72 42.0305 1323.75 41.915L1323.67 41.9052C1322.8 41.8024 1321.99 41.6503 1321.27 41.4553L1320.64 41.2857C1319.87 41.0793 1319.18 40.844 1318.57 40.5842L1316.62 39.7569L1313.75 38.1127L1310.88 36.0898L1308.01 33.7663L1305.14 31.2514L1302.27 28.6814L1299.4 26.2117L1296.53 24.0044L1294.36 22.6491C1293.9 22.3604 1293.36 22.0858 1292.76 21.8282L1291.51 21.2879C1291.04 21.0847 1290.46 20.9133 1289.8 20.7825L1289.28 20.6771C1288.4 20.5019 1287.38 20.4358 1286.38 20.49C1285.52 20.5368 1284.71 20.6706 1284.07 20.8745L1283.11 21.1807C1282.5 21.3756 1281.97 21.5998 1281.54 21.8463C1280.06 22.6998 1278.69 23.6404 1277.44 24.6579L1276.45 25.4655L1273.58 28.3843L1270.71 31.7476L1267.84 35.3868L1264.97 39.1109L1262.1 42.7169L1259.23 45.9993L1258.34 46.8589C1257.02 48.1252 1255.58 49.3239 1254.02 50.446C1253.67 50.6962 1253.23 50.9313 1252.73 51.1466L1251.37 51.7192C1250.89 51.9256 1250.22 52.0734 1249.47 52.1412C1248.39 52.2397 1247.23 52.1609 1246.34 51.9275L1245.74 51.7722C1245.18 51.6245 1244.7 51.4383 1244.36 51.2252L1242.82 50.2848C1242.28 49.9568 1241.83 49.6144 1241.45 49.261L1239.14 47.091L1236.28 43.5675L1233.41 39.3982L1230.54 34.8042L1227.67 30.0376L1224.8 25.3666L1221.93 21.059L1219.06 17.3658L1216.7 15.0152C1216.36 14.6767 1215.94 14.348 1215.45 14.032L1213.79 12.957C1213.48 12.7595 1213.05 12.5884 1212.52 12.4564L1212.15 12.3629C1211.1 12.1002 1209.72 12.0554 1208.55 12.246C1207.92 12.3488 1207.39 12.5138 1207.03 12.7201L1205.41 13.6461C1204.95 13.9138 1204.56 14.1965 1204.25 14.4903L1201.84 16.796L1198.97 20.5099L1196.1 25L1193.24 30.0314L1187.5 40.6273L1184.63 45.6144L1181.76 50.0194L1180.85 51.1556C1179.54 52.7772 1178.06 54.3243 1176.41 55.7823C1176.15 56.0087 1175.81 56.2224 1175.39 56.4178L1173.96 57.0812C1173.45 57.3213 1172.65 57.4698 1171.78 57.4862C1170.84 57.504 1169.93 57.3635 1169.34 57.1093L1168.05 56.5475C1167.63 56.365 1167.28 56.1623 1167.03 55.9457C1165.37 54.5155 1163.89 52.9899 1162.6 51.3853L1161.67 50.2243L1158.8 45.7583L1155.93 40.6536L1153.06 35.202L1150.19 29.7149L1147.33 24.5044L1144.46 19.8645L1141.59 16.053L1139.14 13.6836C1138.86 13.4137 1138.5 13.1549 1138.06 12.9115L1136.45 12.0158C1136.06 11.8013 1135.47 11.6396 1134.77 11.5582C1133.67 11.4286 1132.45 11.519 1131.59 11.7934L1130.81 12.0453C1130.35 12.1938 1129.97 12.3714 1129.7 12.5684C1128.06 13.7722 1126.6 15.0841 1125.32 16.4854L1124.37 17.5304L1121.5 21.5243L1118.63 26.1123L1115.76 31.0168L1112.89 35.9477L1110.02 40.6186L1107.15 44.7634L1106.21 45.8773C1104.93 47.392 1103.48 48.8372 1101.89 50.2006C1101.58 50.4714 1101.17 50.7288 1100.68 50.9678L1099.23 51.683C1098.78 51.8994 1098.15 52.0604 1097.42 52.1415C1096.33 52.2626 1095.13 52.1932 1094.21 51.9554L1093.62 51.8002C1093.08 51.6617 1092.64 51.4875 1092.3 51.288L1090.72 50.3401C1090.2 50.0309 1089.75 49.7086 1089.37 49.3761L1087.07 47.3393L1084.2 44.1751L1081.33 40.6079L1078.46 36.8784L1075.59 33.2262L1072.72 29.8746L1069.85 27.0155L1067.66 25.3164C1067.21 24.9706 1066.68 24.6383 1066.07 24.3232L1064.79 23.6642C1064.34 23.4313 1063.78 23.2279 1063.12 23.0636L1062.48 22.9032C1061.68 22.7035 1060.71 22.6001 1059.72 22.609C1058.84 22.6169 1057.99 22.7134 1057.27 22.8864L1056.43 23.0872C1055.82 23.235 1055.27 23.4123 1054.8 23.6136L1052.64 24.5394L1049.77 26.1573L1046.9 27.9984L1044.03 29.8992L1041.16 31.7115L1038.29 33.3139L1036.41 34.1689C1035.75 34.4692 1035.03 34.7519 1034.24 35.0147L1033.64 35.2189C1032.91 35.4612 1032.12 35.6759 1031.26 35.8592L1030.98 35.9201C1030.12 36.1048 1029.19 36.2493 1028.22 36.3498C1027.28 36.4463 1026.32 36.5015 1025.35 36.514L1025.14 36.5167C1024.34 36.527 1023.55 36.5123 1022.76 36.4728L1021.07 36.3883L1015.33 35.9204L1013.73 35.8368C1012.89 35.793 1012.04 35.7706 1011.19 35.7699L1011.08 35.7698C1010.09 35.769 1009.11 35.7993 1008.14 35.8605C1007.2 35.9196 1006.28 36.0074 1005.38 36.1228L1003.86 36.3198L1000.99 36.8566L998.119 37.5103L995.249 38.2104L992.38 38.8723L990.534 39.2143C989.853 39.3404 989.139 39.444 988.401 39.5235L987.882 39.5795C987.06 39.6682 986.203 39.7138 985.341 39.7148C984.304 39.7159 983.274 39.6523 982.302 39.5271L982.229 39.5177C981.35 39.4044 980.528 39.2446 979.792 39.044L979.193 38.8808C978.422 38.6706 977.718 38.4327 977.093 38.1711L975.164 37.3641L972.294 35.7778L969.425 33.8762L966.556 31.7636L963.686 29.569L960.817 27.4359L957.948 25.5104L955.841 24.3497C955.333 24.0701 954.76 23.8054 954.125 23.5584L952.998 23.1193C952.476 22.9159 951.859 22.7436 951.173 22.6094L950.606 22.4984C949.779 22.3367 948.835 22.2605 947.885 22.279C946.961 22.2971 946.069 22.4042 945.313 22.5883L944.624 22.756C943.946 22.921 943.348 23.1218 942.853 23.3511L941.697 23.8856C941.054 24.1827 940.482 24.4971 939.987 24.8258L937.862 26.234L934.993 28.6196L932.123 31.3636L929.254 34.3141L926.385 37.3034L923.515 40.16L920.646 42.721L919.68 43.4351C918.413 44.3717 917.046 45.24 915.591 46.0325C915.137 46.2797 914.592 46.5057 913.97 46.7049L912.974 47.0242C912.361 47.2206 911.608 47.3581 910.792 47.423C909.741 47.5066 908.638 47.4653 907.663 47.306L907.372 47.2583C906.664 47.1426 906.034 46.978 905.519 46.7746L904.355 46.3151C903.74 46.0721 903.196 45.8087 902.731 45.5289L900.561 44.2224L897.691 42.0017L894.822 39.4113L891.952 36.5897L889.083 33.6831L886.214 30.8399L883.344 28.2042L880.475 25.9083L878.374 24.5585C877.862 24.23 877.277 23.9158 876.624 23.6187L875.502 23.1087C874.994 22.8779 874.389 22.6744 873.706 22.5052L872.988 22.3271C872.254 22.145 871.393 22.0328 870.492 22.0019C869.516 21.9685 868.533 22.0317 867.658 22.1842L867.208 22.2627C866.493 22.3872 865.848 22.5537 865.3 22.7546L864.234 23.146C863.585 23.384 863 23.6418 862.486 23.9161L860.39 25.0356L857.52 26.949L854.651 29.1291L851.781 31.4502L848.912 33.7838L846.043 36.0074L843.173 38.01L840.304 39.6974L838.296 40.6049C837.723 40.8636 837.074 41.1012 836.359 41.3137L835.559 41.5511C834.902 41.7465 834.151 41.9014 833.34 42.009L833.134 42.0362C832.188 42.1617 831.171 42.2106 830.161 42.1791C829.28 42.1517 828.425 42.0637 827.645 41.9204L827.058 41.8127C826.327 41.6784 825.648 41.5129 825.036 41.3202L823.088 40.706L820.218 39.5071L817.349 38.1113L814.48 36.6245L811.61 35.153L808.741 33.796L805.872 32.639L804.054 32.0739C803.354 31.8565 802.594 31.6635 801.785 31.4977L801.348 31.4081C800.541 31.243 799.668 31.1152 798.764 31.0294C797.774 30.9354 796.742 30.8917 795.716 30.901C794.838 30.909 793.967 30.9552 793.123 31.0385L792.682 31.0821C791.912 31.1582 791.162 31.2568 790.441 31.3769L788.655 31.6744L785.786 32.2683L782.917 32.8902L780.047 33.452L778.358 33.7007C777.573 33.8162 776.759 33.9066 775.926 33.9708L775.694 33.9887C774.774 34.0597 773.832 34.0928 772.889 34.0874C771.926 34.082 770.969 34.0364 770.038 33.9517L769.854 33.9349C769 33.8572 768.17 33.7509 767.377 33.6174L765.701 33.3354L762.831 32.6815L759.962 31.9278L757.092 31.1583L754.223 30.4615L752.434 30.1254C751.716 29.9905 750.96 29.8804 750.179 29.7969L749.768 29.753C748.916 29.6621 748.032 29.6135 747.141 29.6088C746.13 29.6034 745.124 29.6544 744.161 29.7598L744.076 29.7691C743.194 29.8657 742.355 30.0046 741.584 30.1815L741.07 30.2997C740.276 30.482 739.538 30.6911 738.865 30.924L737.007 31.5678L734.138 32.8613L731.268 34.3922C729.358 35.5123 727.564 36.7247 725.909 38.0276C724.032 39.5054 721.672 41.3754 721.016 41.9508C720.374 42.5139 718.349 44.395 716.708 45.9247C715.175 47.3543 713.733 48.8298 712.378 50.3448L708.732 53.7659L706.321 55.5088C706.028 55.7211 705.499 55.8841 704.854 55.9616C703.757 56.0933 702.54 55.9541 701.891 55.6226L700.587 54.9569C700.28 54.8002 700.042 54.6288 699.88 54.4482C698.132 52.496 696.608 50.4509 695.32 48.3317L694.385 46.7931L691.516 40.9278L685.777 27.8794L682.908 21.9335L681.884 20.2465C680.656 18.2222 679.156 16.2839 677.402 14.4576C677.249 14.2983 676.977 14.1556 676.612 14.0442C675.379 13.667 673.466 13.7427 672.513 14.2064L671.819 14.5442C671.562 14.6696 671.37 14.8094 671.251 14.9575C669.46 17.201 667.926 19.5396 666.662 21.9514L665.691 23.8036L662.822 30.6299L659.953 38.1128L657.083 45.4674L654.214 51.9054L651.548 56.3844C651.412 56.6117 651.227 56.835 650.993 57.0526L648.882 59.0179C648.628 59.2537 648.044 59.4288 647.331 59.4827C646.329 59.5585 645.311 59.3794 644.903 59.0555L643.041 57.5776C642.839 57.4167 642.682 57.2493 642.574 57.0779L639.867 52.7914L636.998 46.4528L634.128 38.9867L631.259 31.1818L628.39 23.8612L625.52 17.7907L622.802 13.8167C622.702 13.6699 622.549 13.528 622.347 13.3942L620.912 12.4453C620.297 12.0386 618.818 11.892 617.669 12.124C617.181 12.2225 616.814 12.3786 616.637 12.5634C614.912 14.3562 613.47 16.2732 612.333 18.2814L611.174 20.331L608.304 26.9585L605.435 34.454L602.565 42.042L599.696 48.9447L598.716 50.8301C597.459 53.2498 595.925 55.5954 594.131 57.8443C594.016 57.9878 593.825 58.1229 593.568 58.2425L593.153 58.4348C592.075 58.9356 589.946 58.9805 588.698 58.5288C588.383 58.4148 588.15 58.2769 588.019 58.1263C586.243 56.0929 584.732 53.9525 583.504 51.7308L582.48 49.878L579.611 43.3007L573.872 28.6963L571.003 22.1456L569.93 20.2298C568.735 18.0962 567.248 16.048 565.488 14.1138C565.342 13.9524 565.066 13.8085 564.692 13.6986C563.481 13.3422 561.632 13.4386 560.782 13.9026L559.866 14.4026C559.64 14.5259 559.471 14.6605 559.365 14.8016C557.561 17.1998 556.005 19.685 554.709 22.2381L553.786 24.0567L550.917 30.9261L548.048 38.2425L545.178 45.1756L542.309 50.9338L539.597 54.6474C539.493 54.7905 539.329 54.9276 539.11 55.0546L538.002 55.6994C537.239 56.1431 535.523 56.2594 534.328 55.9486C533.92 55.8424 533.615 55.6957 533.456 55.5282C531.711 53.6931 530.226 51.7433 529.024 49.7067L527.962 47.9064L525.093 41.8439L522.223 35.3602L519.354 29.2614L518.404 27.6103C517.127 25.3896 515.595 23.2442 513.825 21.1949C513.686 21.0345 513.468 20.8836 513.179 20.749L512.337 20.3562C511.452 19.9435 509.772 19.8492 508.552 20.1438C508.112 20.2502 507.772 20.3989 507.575 20.5714C505.867 22.0661 504.377 23.6755 503.126 25.3759L502.138 26.7182L499.269 31.4205L496.399 36.2755L493.53 40.6579L491.052 43.5876C490.792 43.8961 490.457 44.1967 490.053 44.4863L488.224 45.7977C487.942 46 487.49 46.1685 486.927 46.2815C485.727 46.5221 484.215 46.4745 483.162 46.163L482.7 46.0264C482.273 45.9 481.926 45.7448 481.68 45.5703C480.018 44.3912 478.499 43.1183 477.138 41.7645L476.314 40.9443L473.444 37.7135L470.575 34.5558L469.657 33.696C468.358 32.4798 466.917 31.3412 465.347 30.292C465.009 30.0658 464.568 29.8595 464.042 29.6808L463.027 29.336C462.349 29.1055 461.431 28.978 460.478 28.9816C459.59 28.9851 458.737 29.1022 458.086 29.3102L456.996 29.6587C456.487 29.8217 456.046 30.0085 455.688 30.2137L453.359 31.5464L450.489 33.6561L447.62 35.9351L444.751 38.0802L442.519 39.4336C442.095 39.6907 441.596 39.9322 441.03 40.1545L439.794 40.64C439.28 40.8419 438.634 40.9987 437.908 41.0975C436.772 41.2521 435.505 41.2547 434.363 41.1058C433.648 41.0127 433.003 40.8633 432.485 40.6701L431.246 40.2084C430.686 39.9996 430.186 39.7726 429.755 39.5304L427.535 38.2849L424.665 36.3554L421.796 34.361L418.926 32.558L416.748 31.5053C416.289 31.2838 415.746 31.0847 415.133 30.9132L414.223 30.6589C413.546 30.4696 412.729 30.3493 411.864 30.3116C410.861 30.2679 409.843 30.3374 408.965 30.5097L408.453 30.61C407.789 30.7401 407.198 30.9099 406.707 31.1113L405.455 31.625C404.872 31.8639 404.345 32.1182 403.879 32.3855L401.71 33.6277L398.841 35.5325L395.972 37.4627L393.102 39.186L390.986 40.1607C390.486 40.3911 389.902 40.5984 389.248 40.7776L388.401 41.0098C387.72 41.1966 386.916 41.3236 386.06 41.3798C385.038 41.4468 383.982 41.4103 383.019 41.2746L382.729 41.2337C381.999 41.1309 381.331 40.9828 380.757 40.7968L379.694 40.4523C379.07 40.2499 378.499 40.0286 377.99 39.791L375.886 38.8091L373.017 37.2132L370.147 35.5286L367.278 33.9217L364.409 32.5416L362.456 31.8366C361.847 31.6167 361.161 31.424 360.412 31.263L359.851 31.1421C359.071 30.9743 358.204 30.8598 357.298 30.805C356.311 30.7452 355.298 30.7576 354.325 30.8412L354.133 30.8577C353.337 30.9263 352.575 31.0362 351.874 31.1837L351.108 31.3451C350.412 31.4917 349.755 31.6591 349.144 31.8452L347.192 32.4397L344.323 33.4899L341.454 34.6328L338.584 35.8059L335.715 36.9689L332.846 38.0964L329.976 39.1653L327.107 40.1426L325.144 40.7121C324.541 40.8872 323.9 41.0469 323.229 41.1898L322.342 41.3785C321.696 41.5161 320.999 41.623 320.269 41.6963L319.848 41.7387C318.959 41.8281 318.024 41.8504 317.108 41.8042C316.135 41.7551 315.208 41.6301 314.398 41.4387L313.91 41.3235C313.148 41.1435 312.471 40.9241 311.903 40.6731L310.911 40.2345C310.232 39.9342 309.629 39.6145 309.108 39.2789L307.021 37.9343L304.152 35.5989L301.283 32.9563L298.413 30.26L295.544 27.8164L293.121 26.2415C292.825 26.0491 292.447 25.8732 291.999 25.7195L290.897 25.3414C290.208 25.1051 289.241 24.992 288.277 25.0349C287.421 25.073 286.648 25.2306 286.14 25.4708L284.735 26.1351C284.291 26.345 283.929 26.574 283.657 26.8161C282.019 28.2734 280.543 29.8152 279.24 31.4284L278.328 32.558L275.458 36.7553L272.589 41.1239L269.72 45.1338L267.175 47.915C266.959 48.1511 266.679 48.3797 266.338 48.5978L264.522 49.76C264.177 49.9807 263.581 50.1422 262.877 50.206C261.816 50.302 260.693 50.1608 260.061 49.8519L258.741 49.2059C258.41 49.0442 258.15 48.8669 257.967 48.6794C256.24 46.9032 254.707 45.0386 253.382 43.1017L252.504 41.8186L249.634 36.8428L246.765 31.6419L243.896 26.8096L242.903 25.4597C241.655 23.7632 240.166 22.1583 238.459 20.6691C238.261 20.4961 237.935 20.3439 237.514 20.2275C236.255 19.88 234.432 19.9221 233.32 20.3244L232.957 20.4558C232.602 20.5842 232.329 20.7369 232.156 20.9039C230.421 22.5801 228.908 24.3623 227.634 26.2289L226.679 27.6268L223.81 32.7797L220.941 38.2798L218.071 43.4799L217.146 44.8633C215.852 46.7981 214.326 48.6529 212.583 50.4076C212.417 50.5739 212.163 50.7281 211.834 50.8623L211.132 51.1477C210.182 51.5343 208.539 51.6132 207.318 51.3307C206.846 51.2215 206.478 51.0667 206.26 50.8858C204.575 49.483 203.108 47.9588 201.885 46.3389L200.855 44.9738L197.986 40.2286L195.116 35.1106L192.247 30.2179L191.361 28.9471C190.041 27.0532 188.517 25.2319 186.802 23.4987C186.607 23.3023 186.332 23.1163 185.986 22.9465L184.619 22.2773C184.022 21.9848 182.984 21.839 181.962 21.9044C181.205 21.9528 180.546 22.1122 180.157 22.341L178.43 23.356C178.078 23.5631 177.789 23.782 177.567 24.0095L175.031 26.6132L172.162 30.45L169.292 34.7296L166.423 38.9727L163.553 42.7193L161.088 45.1748C160.819 45.4424 160.475 45.7002 160.059 45.9444L158.375 46.9338C158.013 47.1468 157.448 47.3103 156.776 47.397C155.656 47.5414 154.395 47.453 153.529 47.1694L152.737 46.9103C152.3 46.7673 151.944 46.5976 151.688 46.4099C150.037 45.203 148.537 43.8997 147.205 42.5142L146.337 41.612L143.468 38.1005L140.599 34.4679L137.729 31.1216L135.377 28.9109C135.033 28.5876 134.615 28.2741 134.128 27.9733L132.492 26.9642C132.162 26.7604 131.701 26.5851 131.145 26.4516L130.798 26.3683C129.754 26.118 128.41 26.0695 127.239 26.24C126.594 26.3339 126.04 26.4888 125.64 26.6867L124.09 27.455C123.619 27.6883 123.214 27.9364 122.879 28.196L120.513 30.0291L117.644 32.7823L114.774 35.7578L111.905 38.6427L111.015 39.4195C109.697 40.5698 108.264 41.6535 106.727 42.6623C106.355 42.9064 105.894 43.1333 105.357 43.3376L104.146 43.7975C103.594 44.0073 102.864 44.1518 102.059 44.2106C101.017 44.2867 99.9294 44.2132 99.0482 44.007L98.453 43.8677C97.862 43.7294 97.3533 43.5535 96.9545 43.3494L95.5086 42.6093C94.9629 42.33 94.4807 42.0366 94.0662 41.7318L91.8195 40.0796L88.9501 37.5399L86.0808 34.8213L83.2114 32.1927L82.3291 31.4927C81.0062 30.4431 79.5748 29.4627 78.0463 28.5593C77.6658 28.3344 77.195 28.1291 76.648 27.9495L75.5758 27.5975C74.9463 27.3909 74.131 27.2643 73.2644 27.2387C72.2823 27.2096 71.3055 27.3122 70.538 27.5251L69.7321 27.7486C69.1581 27.9078 68.6684 28.0999 68.2844 28.3165L66.833 29.1354C66.2752 29.4501 65.7837 29.7781 65.3623 30.117L63.1259 31.9151L60.2565 34.7075L57.3872 37.7268L54.5178 40.6768L53.6882 41.4195C52.3304 42.6352 50.8414 43.7766 49.2344 44.834C48.9328 45.0324 48.5405 45.2128 48.0725 45.3683L47.0563 45.7059C46.3339 45.946 45.3271 46.0561 44.3345 46.0037C43.5049 45.9599 42.7578 45.8061 42.253 45.5753L40.8554 44.9364C40.401 44.7286 40.025 44.5018 39.7366 44.2614C38.1154 42.9103 36.6366 41.479 35.3117 39.9789L34.4323 38.983L31.563 35.2242L28.6936 31.3929L25.8243 27.9613L23.3037 25.6859C23.0721 25.4768 22.7654 25.2785 22.3908 25.0956L20.9009 24.368C20.389 24.1181 19.5587 23.9682 18.6703 23.9655C17.7602 23.9626 16.9045 24.1144 16.3833 24.3712L14.9131 25.0955C14.5371 25.2807 14.2321 25.4818 14.0057 25.6938L11.4774 28.0622L8.60807 31.7143L2.86938 40.0875L0 43.7705" stroke="#0F8E95" stroke-width="2" stroke-miterlimit="16" stroke-linecap="round"/>
<path d="M1440 26.8494L1437.13 27.5571L1434.26 28.4914L1431.39 29.5831L1428.52 30.7473L1425.65 31.8918L1422.78 32.9247L1420.94 33.4637C1420.26 33.6634 1419.53 33.8421 1418.76 33.9977L1418.2 34.111C1417.43 34.2655 1416.61 34.3853 1415.76 34.4674L1415.59 34.4845C1414.65 34.5747 1413.68 34.6128 1412.71 34.5972C1411.78 34.5822 1410.86 34.5176 1409.98 34.4057L1409.68 34.3672C1408.85 34.2619 1408.07 34.1232 1407.33 33.9539L1406.72 33.8125C1405.95 33.6364 1405.23 33.4398 1404.55 33.2243L1402.7 32.636L1399.83 31.5309L1396.96 30.3011L1394.09 29.0202L1391.22 27.762L1388.35 26.5952L1385.48 25.5794L1383.73 25.0801C1382.99 24.8679 1382.2 24.676 1381.37 24.5061L1380.95 24.4205C1380.15 24.2555 1379.3 24.1191 1378.42 24.0134L1378.23 23.9914C1377.33 23.883 1376.39 23.8119 1375.44 23.7796C1374.49 23.7471 1373.52 23.7541 1372.57 23.8002L1372.47 23.8052C1371.58 23.8483 1370.71 23.9231 1369.87 24.0284L1369.53 24.0706C1368.69 24.1752 1367.87 24.3033 1367.09 24.4536L1365.4 24.7798L1362.53 25.4997L1359.66 26.3621L1356.79 27.3444L1353.92 28.4261L1351.05 29.5867L1348.18 30.8034L1345.31 32.0488L1342.44 33.2894L1339.57 34.4837L1336.7 35.5814L1333.83 36.5227L1331.97 36.9884C1331.3 37.1556 1330.58 37.2963 1329.83 37.4079L1329.31 37.4844C1328.5 37.6027 1327.65 37.673 1326.78 37.6924C1325.75 37.7154 1324.72 37.6665 1323.75 37.5487L1323.67 37.5387C1322.8 37.4337 1321.99 37.2784 1321.27 37.0794L1320.64 36.9063C1319.87 36.6956 1319.18 36.4553 1318.57 36.1902L1316.62 35.3455L1313.75 33.6672L1310.88 31.6021L1308.01 29.2301L1305.14 26.6628L1302.27 24.0394L1299.4 21.5182L1296.53 19.2649L1294.36 17.8814C1293.9 17.5867 1293.36 17.3063 1292.76 17.0434L1291.51 16.4918C1291.04 16.2844 1290.46 16.1094 1289.8 15.9759L1289.28 15.8683C1288.4 15.6894 1287.38 15.622 1286.38 15.6773C1285.52 15.725 1284.71 15.8616 1284.07 16.0698L1283.11 16.3824C1282.5 16.5814 1281.97 16.8102 1281.54 17.0619C1280.06 17.9331 1278.69 18.8934 1277.44 19.932L1276.45 20.7564L1273.58 23.736L1270.71 27.1694L1267.84 30.8844L1264.97 34.6861L1262.1 38.3672L1259.23 41.718L1258.34 42.5955C1257.02 43.8882 1255.58 45.1119 1254.02 46.2574C1253.67 46.5128 1253.23 46.7528 1252.73 46.9725L1251.37 47.5571C1250.89 47.7678 1250.22 47.9187 1249.47 47.9879C1248.39 48.0884 1247.23 48.008 1246.34 47.7697L1245.74 47.6112C1245.18 47.4604 1244.7 47.2704 1244.36 47.0529L1242.82 46.0928C1242.28 45.758 1241.83 45.4085 1241.45 45.0477L1239.14 42.8325L1236.28 39.2356L1233.41 34.9794L1230.54 30.2897L1227.67 25.4238L1224.8 20.6555L1221.93 16.2581L1219.06 12.488L1216.7 10.0885C1216.36 9.7429 1215.94 9.40729 1215.45 9.08477L1213.79 7.98735C1213.48 7.78572 1213.05 7.61103 1212.52 7.47636L1212.15 7.38092C1211.1 7.11273 1209.72 7.06693 1208.55 7.2615C1207.92 7.36651 1207.39 7.53494 1207.03 7.74553L1205.41 8.69083C1204.95 8.96404 1204.56 9.25267 1204.25 9.55256L1201.84 11.9064L1198.97 15.6976L1196.1 20.2812L1193.24 25.4174L1187.5 36.2341L1184.63 41.3251L1181.76 45.8219L1180.85 46.9818C1179.54 48.6372 1178.06 50.2165 1176.41 51.7049C1176.15 51.936 1175.81 52.1541 1175.39 52.3536L1173.96 53.0308C1173.45 53.2759 1172.65 53.4275 1171.78 53.4442C1170.84 53.4624 1169.93 53.319 1169.34 53.0595L1168.05 52.486C1167.63 52.2997 1167.28 52.0928 1167.03 51.8717C1165.37 50.4116 1163.89 48.8542 1162.6 47.2162L1161.67 46.031L1158.8 41.472L1155.93 36.2609L1153.06 30.6958L1150.19 25.0944L1147.33 19.7754L1144.46 15.0387L1141.59 11.1479L1139.14 8.72905C1138.86 8.4536 1138.5 8.18938 1138.06 7.94086L1136.45 7.02654C1136.06 6.80756 1135.47 6.64246 1134.77 6.55941C1133.67 6.42713 1132.45 6.51942 1131.59 6.79952L1130.81 7.0567C1130.35 7.20828 1129.97 7.38951 1129.7 7.59062C1128.06 8.81958 1126.6 10.1587 1125.32 11.5893L1124.37 12.6561L1121.5 16.7331L1118.63 21.4167L1115.76 26.4234L1112.89 31.457L1110.02 36.2252L1107.15 40.4564L1106.21 41.5935C1104.93 43.1397 1103.48 44.615 1101.89 46.0069C1101.58 46.2833 1101.17 46.5461 1100.68 46.79L1099.23 47.5201C1098.78 47.7411 1098.15 47.9054 1097.42 47.9882C1096.33 48.1118 1095.13 48.041 1094.21 47.7982L1093.62 47.6398C1093.08 47.4984 1092.64 47.3205 1092.3 47.117L1090.72 46.1493C1090.2 45.8336 1089.75 45.5047 1089.37 45.1652L1087.07 43.086L1084.2 39.8558L1081.33 36.2143L1078.46 32.4071L1075.59 28.6789L1072.72 25.2574L1069.85 22.3387L1067.66 20.6043C1067.21 20.2512 1066.68 19.9121 1066.07 19.5903L1064.79 18.9176C1064.34 18.6799 1063.78 18.4722 1063.12 18.3045L1062.48 18.1407C1061.68 17.9369 1060.71 17.8314 1059.72 17.8404C1058.84 17.8485 1057.99 17.947 1057.27 18.1236L1056.43 18.3286C1055.82 18.4795 1055.27 18.6604 1054.8 18.866L1052.64 19.811L1049.77 21.4627L1046.9 23.3422L1044.03 25.2826L1041.16 27.1326L1038.29 28.7683L1036.41 29.6412C1035.75 29.9477 1035.03 30.2363 1034.24 30.5046L1033.64 30.7131C1032.91 30.9604 1032.12 31.1795 1031.26 31.3667L1030.98 31.4289C1030.12 31.6174 1029.19 31.7649 1028.22 31.8675C1027.28 31.966 1026.32 32.0223 1025.35 32.0352L1025.14 32.0379C1024.34 32.0484 1023.55 32.0334 1022.76 31.9931L1021.07 31.9068L1015.33 31.4291L1013.73 31.3438C1012.89 31.2991 1012.04 31.2762 1011.19 31.2755L1011.08 31.2754C1010.09 31.2746 1009.11 31.3056 1008.14 31.368C1007.2 31.4284 1006.28 31.518 1005.38 31.6358L1003.86 31.8369L1000.99 32.3848L998.119 33.0522L995.249 33.7669L992.38 34.4425L990.534 34.7917C989.853 34.9204 989.139 35.0261 988.401 35.1074L987.882 35.1645C987.06 35.2551 986.203 35.3016 985.341 35.3026C984.304 35.3037 983.274 35.2388 982.302 35.111L982.229 35.1014C981.35 34.9858 980.528 34.8226 979.792 34.6179L979.193 34.4512C978.422 34.2366 977.718 33.9937 977.093 33.7268L975.164 32.9029L972.294 31.2836L969.425 29.3424L966.556 27.1857L963.686 24.9454L960.817 22.7679L957.948 20.8023L955.841 19.6174C955.333 19.332 954.76 19.0618 954.125 18.8096L952.998 18.3614C952.476 18.1537 951.859 17.9778 951.173 17.8408L950.606 17.7275C949.779 17.5624 948.835 17.4847 947.885 17.5036C946.961 17.522 946.069 17.6314 945.313 17.8193L944.624 17.9905C943.946 18.1589 943.348 18.364 942.853 18.598L941.697 19.1437C941.054 19.4469 940.482 19.7679 939.987 20.1034L937.862 21.541L934.993 23.9763L932.123 26.7774L929.254 29.7894L926.385 32.841L923.515 35.7571L920.646 38.3714L919.68 39.1004C918.413 40.0565 917.046 40.9429 915.591 41.7519C915.137 42.0043 914.592 42.235 913.97 42.4383L912.974 42.7643C912.361 42.9647 911.608 43.1051 910.792 43.1714C909.741 43.2567 908.638 43.2146 907.663 43.0519L907.372 43.0033C906.664 42.8852 906.034 42.7171 905.519 42.5095L904.355 42.0404C903.74 41.7923 903.196 41.5235 902.731 41.2378L900.561 39.9041L897.691 37.6371L894.822 34.9928L891.952 32.1124L889.083 29.1452L886.214 26.2428L883.344 23.5522L880.475 21.2085L878.374 19.8306C877.862 19.4952 877.277 19.1744 876.624 18.8711L875.502 18.3506C874.994 18.1149 874.389 17.9072 873.706 17.7344L872.988 17.5526C872.254 17.3667 871.393 17.2522 870.492 17.2207C869.516 17.1866 868.533 17.2511 867.658 17.4068L867.208 17.4869C866.493 17.614 865.848 17.784 865.3 17.9891L864.234 18.3886C863.585 18.6316 863 18.8947 862.486 19.1747L860.39 20.3176L857.52 22.2709L854.651 24.4964L851.781 26.8658L848.912 29.2481L846.043 31.5179L843.173 33.5623L840.304 35.2849L838.296 36.2113C837.723 36.4754 837.074 36.7179 836.359 36.9348L835.559 37.1772C834.902 37.3767 834.151 37.5348 833.34 37.6446L833.134 37.6724C832.188 37.8005 831.171 37.8504 830.161 37.8183C829.28 37.7903 828.425 37.7005 827.645 37.5542L827.058 37.4442C826.327 37.3071 825.648 37.1382 825.036 36.9415L823.088 36.3145L820.218 35.0905L817.349 33.6657L814.48 32.1479L811.61 30.6457L808.741 29.2605L805.872 28.0794L804.054 27.5025C803.354 27.2806 802.594 27.0836 801.785 26.9143L801.348 26.8229C800.541 26.6543 799.668 26.5239 798.764 26.4362C797.774 26.3403 796.742 26.2957 795.716 26.3052C794.838 26.3134 793.967 26.3605 793.123 26.4456L792.682 26.4901C791.912 26.5677 791.162 26.6684 790.441 26.791L788.655 27.0947L785.786 27.701L782.917 28.3359L780.047 28.9094L778.358 29.1632C777.573 29.2811 776.759 29.3734 775.926 29.439L775.694 29.4572C774.774 29.5297 773.832 29.5635 772.889 29.558C771.926 29.5524 770.969 29.5059 770.038 29.4194L769.854 29.4023C769 29.323 768.17 29.2144 767.377 29.0782L765.701 28.7903L762.831 28.1228L759.962 27.3533L757.092 26.5679L754.223 25.8566L752.434 25.5134C751.716 25.3757 750.96 25.2634 750.179 25.1781L749.768 25.1333C748.916 25.0405 748.032 24.9909 747.141 24.986C746.13 24.9805 745.124 25.0326 744.161 25.1403L744.076 25.1497C743.194 25.2484 742.355 25.3901 741.584 25.5707L741.07 25.6914C740.276 25.8774 739.538 26.0909 738.865 26.3287L737.007 26.9859L734.138 28.3063L731.268 29.8691C729.358 31.0125 727.564 32.2502 725.909 33.5803C724.032 35.0888 721.672 36.9978 721.016 37.5852C720.374 38.16 718.349 40.0803 716.708 41.6419C715.175 43.1013 713.733 44.6075 712.378 46.154L708.732 49.6464L706.321 51.4256C706.028 51.6423 705.499 51.8088 704.854 51.8879C703.757 52.0223 702.54 51.8802 701.891 51.5418L700.587 50.8622C700.28 50.7023 700.042 50.5273 699.88 50.343C698.132 48.3501 696.608 46.2624 695.32 44.0991L694.385 42.5284L691.516 36.5409L685.777 23.2206L682.908 17.1509L681.884 15.4287C680.656 13.3622 679.156 11.3835 677.402 9.51922C677.249 9.35655 676.977 9.21096 676.612 9.09719C675.379 8.71217 673.466 8.78945 672.513 9.26281L671.819 9.60762C671.562 9.73562 671.37 9.87839 671.251 10.0296C669.46 12.3198 667.926 14.7071 666.662 17.1692L665.691 19.0599L662.822 26.0284L659.953 33.6672L657.083 41.1751L654.214 47.7472L651.548 52.3195C651.412 52.5515 651.227 52.7795 650.993 53.0016L648.882 55.0079C648.628 55.2485 648.044 55.4273 647.331 55.4824C646.329 55.5597 645.311 55.3769 644.903 55.0463L643.041 53.5375C642.839 53.3733 642.682 53.2024 642.574 53.0275L639.867 48.6516L636.998 42.181L634.128 34.5594L631.259 26.5918L628.39 19.1187L625.52 12.9218L622.802 8.86492C622.702 8.71508 622.549 8.57022 622.347 8.43366L620.912 7.46502C620.297 7.04981 618.818 6.9002 617.669 7.13702C617.181 7.23752 616.814 7.39694 616.637 7.58551C614.912 9.41567 613.47 11.3726 612.333 13.4227L611.174 15.515L608.304 22.2806L605.435 29.9322L602.565 37.6783L599.696 44.7248L598.716 46.6495C597.459 49.1196 595.925 51.514 594.131 53.8098C594.016 53.9563 593.825 54.0942 593.568 54.2163L593.153 54.4127C592.075 54.9238 589.946 54.9697 588.698 54.5086C588.383 54.3922 588.15 54.2514 588.019 54.0976C586.243 52.0219 584.732 49.837 583.504 47.569L582.48 45.6775L579.611 38.9632L573.872 24.0546L571.003 17.3674L569.93 15.4117C568.735 13.2336 567.248 11.1427 565.488 9.16821C565.342 9.00345 565.066 8.85655 564.692 8.74438C563.481 8.38054 561.632 8.479 560.782 8.95265L559.866 9.46307C559.64 9.58894 559.471 9.72635 559.365 9.87041C557.561 12.3186 556.005 14.8555 554.709 17.4618L553.786 19.3183L550.917 26.3308L548.048 33.7996L545.178 40.8772L542.309 46.7553L539.597 50.5463C539.493 50.6924 539.329 50.8324 539.11 50.962L538.002 51.6202C537.239 52.0732 535.523 52.1919 534.328 51.8746C533.92 51.7662 533.615 51.6164 533.456 51.4454C531.711 49.5721 530.226 47.5817 529.024 45.5026L527.962 43.6649L525.093 37.4761L522.223 30.8573L519.354 24.6314L518.404 22.9459C517.127 20.679 515.595 18.4889 513.825 16.3969C513.686 16.2331 513.468 16.0791 513.179 15.9417L512.337 15.5407C511.452 15.1194 509.772 15.0231 508.552 15.3238C508.112 15.4325 507.772 15.5843 507.575 15.7603C505.867 17.2862 504.377 18.9292 503.126 20.665L502.138 22.0353L499.269 26.8355L496.399 31.7916L493.53 36.2654L491.052 39.2561C490.792 39.571 490.457 39.8779 490.053 40.1735L488.224 41.5123C487.942 41.7188 487.49 41.8908 486.927 42.0061C485.727 42.2517 484.215 42.2031 483.162 41.8851L482.7 41.7457C482.273 41.6167 481.926 41.4582 481.68 41.2801C480.018 40.0765 478.499 38.777 477.138 37.395L476.314 36.5577L473.444 33.2596L470.575 30.0361L469.657 29.1584C468.358 27.9169 466.917 26.7545 465.347 25.6835C465.009 25.4526 464.568 25.242 464.042 25.0596L463.027 24.7076C462.349 24.4723 461.431 24.3421 460.478 24.3458C459.59 24.3493 458.737 24.4689 458.086 24.6813L456.996 25.037C456.487 25.2034 456.046 25.3941 455.688 25.6035L453.359 26.964L450.489 29.1177L447.62 31.4442L444.751 33.6339L442.519 35.0156C442.095 35.278 441.596 35.5245 441.03 35.7514L439.794 36.2471C439.28 36.4532 438.634 36.6133 437.908 36.7141C436.772 36.8719 435.505 36.8746 434.363 36.7226C433.648 36.6276 433.003 36.4751 432.485 36.2779L431.246 35.8065C430.686 35.5934 430.186 35.3616 429.755 35.1144L427.535 33.843L424.665 31.8732L421.796 29.8372L418.926 27.9967L416.748 26.922C416.289 26.696 415.746 26.4927 415.133 26.3177L414.223 26.058C413.546 25.8648 412.729 25.742 411.864 25.7035C410.861 25.6589 409.843 25.7299 408.965 25.9057L408.453 26.0081C407.789 26.141 407.198 26.3143 406.707 26.5199L405.455 27.0442C404.872 27.2881 404.345 27.5477 403.879 27.8206L401.71 29.0886L398.841 31.0332L395.972 33.0036L393.102 34.7628L390.986 35.7578C390.486 35.993 389.902 36.2046 389.248 36.3875L388.401 36.6246C387.72 36.8153 386.916 36.9449 386.06 37.0022C385.038 37.0707 383.982 37.0334 383.019 36.8949L382.729 36.8532C381.999 36.7482 381.331 36.597 380.757 36.4071L379.694 36.0554C379.07 35.8488 378.499 35.6229 377.99 35.3804L375.886 34.3781L373.017 32.7489L370.147 31.0292L367.278 29.3889L364.409 27.9799L362.456 27.2603C361.847 27.0358 361.161 26.8391 360.412 26.6747L359.851 26.5513C359.071 26.38 358.204 26.2631 357.298 26.2072C356.311 26.1461 355.298 26.1588 354.325 26.2442L354.133 26.261C353.337 26.331 352.575 26.4432 351.874 26.5938L351.108 26.7586C350.412 26.9082 349.755 27.0791 349.144 27.2691L347.192 27.8759L344.323 28.948L341.454 30.1147L338.584 31.3123L335.715 32.4996L332.846 33.6505L329.976 34.7417L327.107 35.7393L325.144 36.3207C324.541 36.4995 323.9 36.6625 323.229 36.8084L322.342 37.001C321.696 37.1414 320.999 37.2505 320.269 37.3254L319.848 37.3686C318.959 37.4599 318.024 37.4827 317.108 37.4355C316.135 37.3854 315.208 37.2578 314.398 37.0624L313.91 36.9448C313.148 36.7611 312.471 36.5371 311.903 36.2809L310.911 35.8331C310.232 35.5266 309.629 35.2002 309.108 34.8576L307.021 33.485L304.152 31.101L301.283 28.4033L298.413 25.6508L295.544 23.1563L293.121 21.5486C292.825 21.3522 292.447 21.1726 291.999 21.0158L290.897 20.6297C290.208 20.3886 289.241 20.2731 288.277 20.3169C287.421 20.3557 286.648 20.5167 286.14 20.7618L284.735 21.44C284.291 21.6543 283.929 21.888 283.657 22.1352C282.019 23.6228 280.543 25.1968 279.24 26.8436L278.328 27.9967L275.458 32.2814L272.589 36.7411L269.72 40.8345L267.175 43.6736C266.959 43.9147 266.679 44.148 266.338 44.3706L264.522 45.5571C264.177 45.7824 263.581 45.9473 262.877 46.0123C261.816 46.1103 260.693 45.9662 260.061 45.6509L258.741 44.9915C258.41 44.8264 258.15 44.6453 257.967 44.454C256.24 42.6407 254.707 40.7374 253.382 38.76L252.504 37.4502L249.634 32.3708L246.765 27.0615L243.896 22.1286L242.903 20.7505C241.655 19.0187 240.166 17.3803 238.459 15.8601C238.261 15.6835 237.935 15.5281 237.514 15.4093C236.255 15.0545 234.432 15.0975 233.32 15.5083L232.957 15.6424C232.602 15.7735 232.329 15.9293 232.156 16.0998C230.421 17.8109 228.908 19.6303 227.634 21.5357L226.679 22.9628L223.81 28.223L220.941 33.8378L218.071 39.1461L217.146 40.5584C215.852 42.5335 214.326 44.4269 212.583 46.2182C212.417 46.388 212.163 46.5454 211.834 46.6824L211.132 46.9737C210.182 47.3684 208.539 47.4489 207.318 47.1605C206.846 47.049 206.478 46.891 206.26 46.7064C204.575 45.2743 203.108 43.7183 201.885 42.0647L200.855 40.6711L197.986 35.8271L195.116 30.6025L192.247 25.6078L191.361 24.3106C190.041 22.3772 188.517 20.5179 186.802 18.7487C186.607 18.5482 186.332 18.3583 185.986 18.185L184.619 17.5019C184.022 17.2032 182.984 17.0544 181.962 17.1211C181.205 17.1706 180.546 17.3332 180.157 17.5669L178.43 18.603C178.078 18.8144 177.789 19.0379 177.567 19.2701L175.031 21.9281L172.162 25.8448L169.292 30.2135L166.423 34.545L163.553 38.3697L161.088 40.8763C160.819 41.1495 160.475 41.4127 160.059 41.662L158.375 42.672C158.013 42.8894 157.448 43.0564 156.776 43.1448C155.656 43.2923 154.395 43.202 153.529 42.9125L152.737 42.648C152.3 42.502 151.944 42.3288 151.688 42.1372C150.037 40.9052 148.537 39.5747 147.205 38.1604L146.337 37.2393L143.468 33.6547L140.599 29.9464L137.729 26.5304L135.377 24.2737C135.033 23.9436 134.615 23.6235 134.128 23.3165L132.492 22.2864C132.162 22.0783 131.701 21.8994 131.145 21.7631L130.798 21.678C129.754 21.4225 128.41 21.3731 127.239 21.5471C126.594 21.6429 126.04 21.8011 125.64 22.0031L124.09 22.7874C123.619 23.0255 123.214 23.2788 122.879 23.5438L120.513 25.4151L117.644 28.2257L114.774 31.2632L111.905 34.2082L111.015 35.0012C109.697 36.1754 108.264 37.2816 106.727 38.3116C106.355 38.5607 105.894 38.7924 105.357 39.0009L104.146 39.4703C103.594 39.6845 102.864 39.8321 102.059 39.8921C101.017 39.9698 99.9294 39.8947 99.0482 39.6842L98.453 39.542C97.862 39.4009 97.3533 39.2213 96.9545 39.0129L95.5086 38.2574C94.9629 37.9723 94.4807 37.6728 94.0662 37.3616L91.8195 35.675L88.9501 33.0824L86.0808 30.3071L83.2114 27.6238L82.3291 26.9092C81.0062 25.8378 79.5748 24.8369 78.0463 23.9147C77.6658 23.6851 77.195 23.4755 76.648 23.2922L75.5758 22.9329C74.9463 22.7219 74.131 22.5927 73.2644 22.5665C72.2823 22.5369 71.3055 22.6416 70.538 22.859L69.7321 23.0871C69.1581 23.2496 68.6684 23.4458 68.2844 23.6669L66.833 24.5028C66.2752 24.824 65.7837 25.1589 65.3623 25.5048L63.1259 27.3405L60.2565 30.191L57.3872 33.2732L54.5178 36.2846L53.6882 37.0429C52.3304 38.2838 50.8414 39.4491 49.2344 40.5284C48.9328 40.731 48.5405 40.9151 48.0725 41.0739L47.0563 41.4186C46.3339 41.6636 45.3271 41.776 44.3345 41.7225C43.5049 41.6778 42.7578 41.5208 42.253 41.2852L40.8554 40.633C40.401 40.4209 40.025 40.1894 39.7366 39.944C38.1154 38.5647 36.6366 37.1036 35.3117 35.5722L34.4323 34.5556L31.563 30.7185L28.6936 26.8074L25.8243 23.3042L23.3037 20.9815C23.0721 20.768 22.7654 20.5656 22.3908 20.3789L20.9009 19.6361C20.389 19.3809 19.5587 19.228 18.6703 19.2251C17.7602 19.2223 16.9045 19.3772 16.3833 19.6393L14.9131 20.3787C14.5371 20.5678 14.2321 20.7731 14.0057 20.9895L11.4774 23.4073L8.60807 27.1355L2.86938 35.683L0 39.4428" stroke="#14C3CC" stroke-width="2" stroke-miterlimit="16" stroke-linecap="round"/>
<path d="M1440 21.8494L1437.13 22.5571L1434.26 23.4914L1431.39 24.5831L1428.52 25.7473L1425.65 26.8918L1422.78 27.9247L1420.94 28.4637C1420.26 28.6634 1419.53 28.8421 1418.76 28.9977L1418.2 29.111C1417.43 29.2655 1416.61 29.3853 1415.76 29.4674L1415.59 29.4845C1414.65 29.5747 1413.68 29.6128 1412.71 29.5972C1411.78 29.5822 1410.86 29.5176 1409.98 29.4057L1409.68 29.3672C1408.85 29.2619 1408.07 29.1232 1407.33 28.9539L1406.72 28.8125C1405.95 28.6364 1405.23 28.4398 1404.55 28.2243L1402.7 27.636L1399.83 26.5309L1396.96 25.3011L1394.09 24.0202L1391.22 22.762L1388.35 21.5952L1385.48 20.5794L1383.73 20.0801C1382.99 19.8679 1382.2 19.676 1381.37 19.5061L1380.95 19.4205C1380.15 19.2555 1379.3 19.1191 1378.42 19.0134L1378.23 18.9914C1377.33 18.883 1376.39 18.8119 1375.44 18.7796C1374.49 18.7471 1373.52 18.7541 1372.57 18.8002L1372.47 18.8052C1371.58 18.8483 1370.71 18.9231 1369.87 19.0284L1369.53 19.0706C1368.69 19.1752 1367.87 19.3033 1367.09 19.4536L1365.4 19.7798L1362.53 20.4997L1359.66 21.3621L1356.79 22.3444L1353.92 23.4261L1351.05 24.5867L1348.18 25.8034L1345.31 27.0488L1342.44 28.2894L1339.57 29.4837L1336.7 30.5814L1333.83 31.5227L1331.97 31.9884C1331.3 32.1556 1330.58 32.2963 1329.83 32.4079L1329.31 32.4844C1328.5 32.6027 1327.65 32.673 1326.78 32.6924C1325.75 32.7154 1324.72 32.6665 1323.75 32.5487L1323.67 32.5387C1322.8 32.4337 1321.99 32.2784 1321.27 32.0794L1320.64 31.9063C1319.87 31.6956 1319.18 31.4553 1318.57 31.1902L1316.62 30.3455L1313.75 28.6672L1310.88 26.6021L1308.01 24.2301L1305.14 21.6628L1302.27 19.0394L1299.4 16.5182L1296.53 14.2649L1294.36 12.8814C1293.9 12.5867 1293.36 12.3063 1292.76 12.0434L1291.51 11.4918C1291.04 11.2844 1290.46 11.1094 1289.8 10.9759L1289.28 10.8683C1288.4 10.6894 1287.38 10.622 1286.38 10.6773C1285.52 10.725 1284.71 10.8616 1284.07 11.0698L1283.11 11.3824C1282.5 11.5814 1281.97 11.8102 1281.54 12.0619C1280.06 12.9331 1278.69 13.8934 1277.44 14.932L1276.45 15.7564L1273.58 18.736L1270.71 22.1694L1267.84 25.8844L1264.97 29.6861L1262.1 33.3672L1259.23 36.718L1258.34 37.5955C1257.02 38.8882 1255.58 40.1119 1254.02 41.2574C1253.67 41.5128 1253.23 41.7528 1252.73 41.9725L1251.37 42.5571C1250.89 42.7678 1250.22 42.9187 1249.47 42.9879C1248.39 43.0884 1247.23 43.008 1246.34 42.7697L1245.74 42.6112C1245.18 42.4604 1244.7 42.2704 1244.36 42.0529L1242.82 41.0928C1242.28 40.758 1241.83 40.4085 1241.45 40.0477L1239.14 37.8325L1236.28 34.2356L1233.41 29.9794L1230.54 25.2897L1227.67 20.4238L1224.8 15.6555L1221.93 11.2581L1219.06 7.488L1216.7 5.08847C1216.36 4.7429 1215.94 4.40729 1215.45 4.08477L1213.79 2.98735C1213.48 2.78572 1213.05 2.61103 1212.52 2.47636L1212.15 2.38092C1211.1 2.11273 1209.72 2.06693 1208.55 2.2615C1207.92 2.36651 1207.39 2.53494 1207.03 2.74553L1205.41 3.69083C1204.95 3.96404 1204.56 4.25267 1204.25 4.55256L1201.84 6.90638L1198.97 10.6976L1196.1 15.2812L1193.24 20.4174L1187.5 31.2341L1184.63 36.3251L1181.76 40.8219L1180.85 41.9818C1179.54 43.6372 1178.06 45.2165 1176.41 46.7049C1176.15 46.936 1175.81 47.1541 1175.39 47.3536L1173.96 48.0308C1173.45 48.2759 1172.65 48.4275 1171.78 48.4442C1170.84 48.4624 1169.93 48.319 1169.34 48.0595L1168.05 47.486C1167.63 47.2997 1167.28 47.0928 1167.03 46.8717C1165.37 45.4116 1163.89 43.8542 1162.6 42.2162L1161.67 41.031L1158.8 36.472L1155.93 31.2609L1153.06 25.6958L1150.19 20.0944L1147.33 14.7754L1144.46 10.0387L1141.59 6.14789L1139.14 3.72905C1138.86 3.4536 1138.5 3.18938 1138.06 2.94086L1136.45 2.02654C1136.06 1.80756 1135.47 1.64246 1134.77 1.55941C1133.67 1.42713 1132.45 1.51942 1131.59 1.79952L1130.81 2.0567C1130.35 2.20828 1129.97 2.38951 1129.7 2.59062C1128.06 3.81958 1126.6 5.15873 1125.32 6.58931L1124.37 7.65606L1121.5 11.7331L1118.63 16.4167L1115.76 21.4234L1112.89 26.457L1110.02 31.2252L1107.15 35.4564L1106.21 36.5935C1104.93 38.1397 1103.48 39.615 1101.89 41.0069C1101.58 41.2833 1101.17 41.5461 1100.68 41.79L1099.23 42.5201C1098.78 42.7411 1098.15 42.9054 1097.42 42.9882C1096.33 43.1118 1095.13 43.041 1094.21 42.7982L1093.62 42.6398C1093.08 42.4984 1092.64 42.3205 1092.3 42.117L1090.72 41.1493C1090.2 40.8336 1089.75 40.5047 1089.37 40.1652L1087.07 38.086L1084.2 34.8558L1081.33 31.2143L1078.46 27.4071L1075.59 23.6789L1072.72 20.2574L1069.85 17.3387L1067.66 15.6043C1067.21 15.2512 1066.68 14.9121 1066.07 14.5903L1064.79 13.9176C1064.34 13.6799 1063.78 13.4722 1063.12 13.3045L1062.48 13.1407C1061.68 12.9369 1060.71 12.8314 1059.72 12.8404C1058.84 12.8485 1057.99 12.947 1057.27 13.1236L1056.43 13.3286C1055.82 13.4795 1055.27 13.6604 1054.8 13.866L1052.64 14.811L1049.77 16.4627L1046.9 18.3422L1044.03 20.2826L1041.16 22.1326L1038.29 23.7683L1036.41 24.6412C1035.75 24.9477 1035.03 25.2363 1034.24 25.5046L1033.64 25.7131C1032.91 25.9604 1032.12 26.1795 1031.26 26.3667L1030.98 26.4289C1030.12 26.6174 1029.19 26.7649 1028.22 26.8675C1027.28 26.966 1026.32 27.0223 1025.35 27.0352L1025.14 27.0379C1024.34 27.0484 1023.55 27.0334 1022.76 26.9931L1021.07 26.9068L1015.33 26.4291L1013.73 26.3438C1012.89 26.2991 1012.04 26.2762 1011.19 26.2755L1011.08 26.2754C1010.09 26.2746 1009.11 26.3056 1008.14 26.368C1007.2 26.4284 1006.28 26.518 1005.38 26.6358L1003.86 26.8369L1000.99 27.3848L998.119 28.0522L995.249 28.7669L992.38 29.4425L990.534 29.7917C989.853 29.9204 989.139 30.0261 988.401 30.1074L987.882 30.1645C987.06 30.2551 986.203 30.3016 985.341 30.3026C984.304 30.3037 983.274 30.2388 982.302 30.111L982.229 30.1014C981.35 29.9858 980.528 29.8226 979.792 29.6179L979.193 29.4512C978.422 29.2366 977.718 28.9937 977.093 28.7268L975.164 27.9029L972.294 26.2836L969.425 24.3424L966.556 22.1857L963.686 19.9454L960.817 17.7679L957.948 15.8023L955.841 14.6174C955.333 14.332 954.76 14.0618 954.125 13.8096L952.998 13.3614C952.476 13.1537 951.859 12.9778 951.173 12.8408L950.606 12.7275C949.779 12.5624 948.835 12.4847 947.885 12.5036C946.961 12.522 946.069 12.6314 945.313 12.8193L944.624 12.9905C943.946 13.1589 943.348 13.364 942.853 13.598L941.697 14.1437C941.054 14.4469 940.482 14.7679 939.987 15.1034L937.862 16.541L934.993 18.9763L932.123 21.7774L929.254 24.7894L926.385 27.841L923.515 30.7571L920.646 33.3714L919.68 34.1004C918.413 35.0565 917.046 35.9429 915.591 36.7519C915.137 37.0043 914.592 37.235 913.97 37.4383L912.974 37.7643C912.361 37.9647 911.608 38.1051 910.792 38.1714C909.741 38.2567 908.638 38.2146 907.663 38.0519L907.372 38.0033C906.664 37.8852 906.034 37.7171 905.519 37.5095L904.355 37.0404C903.74 36.7923 903.196 36.5235 902.731 36.2378L900.561 34.9041L897.691 32.6371L894.822 29.9928L891.952 27.1124L889.083 24.1452L886.214 21.2428L883.344 18.5522L880.475 16.2085L878.374 14.8306C877.862 14.4952 877.277 14.1744 876.624 13.8711L875.502 13.3506C874.994 13.1149 874.389 12.9072 873.706 12.7344L872.988 12.5526C872.254 12.3667 871.393 12.2522 870.492 12.2207C869.516 12.1866 868.533 12.2511 867.658 12.4068L867.208 12.4869C866.493 12.614 865.848 12.784 865.3 12.9891L864.234 13.3886C863.585 13.6316 863 13.8947 862.486 14.1747L860.39 15.3176L857.52 17.2709L854.651 19.4964L851.781 21.8658L848.912 24.2481L846.043 26.5179L843.173 28.5623L840.304 30.2849L838.296 31.2113C837.723 31.4754 837.074 31.7179 836.359 31.9348L835.559 32.1772C834.902 32.3767 834.151 32.5348 833.34 32.6446L833.134 32.6724C832.188 32.8005 831.171 32.8504 830.161 32.8183C829.28 32.7903 828.425 32.7005 827.645 32.5542L827.058 32.4442C826.327 32.3071 825.648 32.1382 825.036 31.9415L823.088 31.3145L820.218 30.0905L817.349 28.6657L814.48 27.1479L811.61 25.6457L808.741 24.2605L805.872 23.0794L804.054 22.5025C803.354 22.2806 802.594 22.0836 801.785 21.9143L801.348 21.8229C800.541 21.6543 799.668 21.5239 798.764 21.4362C797.774 21.3403 796.742 21.2957 795.716 21.3052C794.838 21.3134 793.967 21.3605 793.123 21.4456L792.682 21.4901C791.912 21.5677 791.162 21.6684 790.441 21.791L788.655 22.0947L785.786 22.701L782.917 23.3359L780.047 23.9094L778.358 24.1632C777.573 24.2811 776.759 24.3734 775.926 24.439L775.694 24.4572C774.774 24.5297 773.832 24.5635 772.889 24.558C771.926 24.5524 770.969 24.5059 770.038 24.4194L769.854 24.4023C769 24.323 768.17 24.2144 767.377 24.0782L765.701 23.7903L762.831 23.1228L759.962 22.3533L757.092 21.5679L754.223 20.8566L752.434 20.5134C751.716 20.3757 750.96 20.2634 750.179 20.1781L749.768 20.1333C748.916 20.0405 748.032 19.9909 747.141 19.986C746.13 19.9805 745.124 20.0326 744.161 20.1403L744.076 20.1497C743.194 20.2484 742.355 20.3901 741.584 20.5707L741.07 20.6914C740.276 20.8774 739.538 21.0909 738.865 21.3287L737.007 21.9859L734.138 23.3063L731.268 24.8691C729.358 26.0125 727.564 27.2502 725.909 28.5803C724.032 30.0888 721.672 31.9978 721.016 32.5852C720.374 33.16 718.349 35.0803 716.708 36.6419C715.175 38.1013 713.733 39.6075 712.378 41.154L708.732 44.6464L706.321 46.4256C706.028 46.6423 705.499 46.8088 704.854 46.8879C703.757 47.0223 702.54 46.8802 701.891 46.5418L700.587 45.8622C700.28 45.7023 700.042 45.5273 699.88 45.343C698.132 43.3501 696.608 41.2624 695.32 39.0991L694.385 37.5284L691.516 31.5409L685.777 18.2206L682.908 12.1509L681.884 10.4287C680.656 8.36224 679.156 6.38353 677.402 4.51922C677.249 4.35655 676.977 4.21096 676.612 4.09719C675.379 3.71217 673.466 3.78945 672.513 4.26281L671.819 4.60762C671.562 4.73562 671.37 4.87839 671.251 5.02955C669.46 7.31977 667.926 9.70705 666.662 12.1692L665.691 14.0599L662.822 21.0284L659.953 28.6672L657.083 36.1751L654.214 42.7472L651.548 47.3195C651.412 47.5515 651.227 47.7795 650.993 48.0016L648.882 50.0079C648.628 50.2485 648.044 50.4273 647.331 50.4824C646.329 50.5597 645.311 50.3769 644.903 50.0463L643.041 48.5375C642.839 48.3733 642.682 48.2024 642.574 48.0275L639.867 43.6516L636.998 37.181L634.128 29.5594L631.259 21.5918L628.39 14.1187L625.52 7.92179L622.802 3.86492C622.702 3.71508 622.549 3.57022 622.347 3.43366L620.912 2.46502C620.297 2.04981 618.818 1.9002 617.669 2.13702C617.181 2.23752 616.814 2.39694 616.637 2.58551C614.912 4.41567 613.47 6.37265 612.333 8.42266L611.174 10.515L608.304 17.2806L605.435 24.9322L602.565 32.6783L599.696 39.7248L598.716 41.6495C597.459 44.1196 595.925 46.514 594.131 48.8098C594.016 48.9563 593.825 49.0942 593.568 49.2163L593.153 49.4127C592.075 49.9238 589.946 49.9697 588.698 49.5086C588.383 49.3922 588.15 49.2514 588.019 49.0976C586.243 47.0219 584.732 44.837 583.504 42.569L582.48 40.6775L579.611 33.9632L573.872 19.0546L571.003 12.3674L569.93 10.4117C568.735 8.23358 567.248 6.14272 565.488 4.16821C565.342 4.00345 565.066 3.85655 564.692 3.74438C563.481 3.38054 561.632 3.479 560.782 3.95265L559.866 4.46307C559.64 4.58894 559.471 4.72635 559.365 4.87041C557.561 7.3186 556.005 9.85552 554.709 12.4618L553.786 14.3183L550.917 21.3308L548.048 28.7996L545.178 35.8772L542.309 41.7553L539.597 45.5463C539.493 45.6924 539.329 45.8324 539.11 45.962L538.002 46.6202C537.239 47.0732 535.523 47.1919 534.328 46.8746C533.92 46.7662 533.615 46.6164 533.456 46.4454C531.711 44.5721 530.226 42.5817 529.024 40.5026L527.962 38.6649L525.093 32.4761L522.223 25.8573L519.354 19.6314L518.404 17.9459C517.127 15.679 515.595 13.4889 513.825 11.3969C513.686 11.2331 513.468 11.0791 513.179 10.9417L512.337 10.5407C511.452 10.1194 509.772 10.0231 508.552 10.3238C508.112 10.4325 507.772 10.5843 507.575 10.7603C505.867 12.2862 504.377 13.9292 503.126 15.665L502.138 17.0353L499.269 21.8355L496.399 26.7916L493.53 31.2654L491.052 34.2561C490.792 34.571 490.457 34.8779 490.053 35.1735L488.224 36.5123C487.942 36.7188 487.49 36.8908 486.927 37.0061C485.727 37.2517 484.215 37.2031 483.162 36.8851L482.7 36.7457C482.273 36.6167 481.926 36.4582 481.68 36.2801C480.018 35.0765 478.499 33.777 477.138 32.395L476.314 31.5577L473.444 28.2596L470.575 25.0361L469.657 24.1584C468.358 22.9169 466.917 21.7545 465.347 20.6835C465.009 20.4526 464.568 20.242 464.042 20.0596L463.027 19.7076C462.349 19.4723 461.431 19.3421 460.478 19.3458C459.59 19.3493 458.737 19.4689 458.086 19.6813L456.996 20.037C456.487 20.2034 456.046 20.3941 455.688 20.6035L453.359 21.964L450.489 24.1177L447.62 26.4442L444.751 28.6339L442.519 30.0156C442.095 30.278 441.596 30.5245 441.03 30.7514L439.794 31.2471C439.28 31.4532 438.634 31.6133 437.908 31.7141C436.772 31.8719 435.505 31.8746 434.363 31.7226C433.648 31.6276 433.003 31.4751 432.485 31.2779L431.246 30.8065C430.686 30.5934 430.186 30.3616 429.755 30.1144L427.535 28.843L424.665 26.8732L421.796 24.8372L418.926 22.9967L416.748 21.922C416.289 21.696 415.746 21.4927 415.133 21.3177L414.223 21.058C413.546 20.8648 412.729 20.742 411.864 20.7035C410.861 20.6589 409.843 20.7299 408.965 20.9057L408.453 21.0081C407.789 21.141 407.198 21.3143 406.707 21.5199L405.455 22.0442C404.872 22.2881 404.345 22.5477 403.879 22.8206L401.71 24.0886L398.841 26.0332L395.972 28.0036L393.102 29.7628L390.986 30.7578C390.486 30.993 389.902 31.2046 389.248 31.3875L388.401 31.6246C387.72 31.8153 386.916 31.9449 386.06 32.0022C385.038 32.0707 383.982 32.0334 383.019 31.8949L382.729 31.8532C381.999 31.7482 381.331 31.597 380.757 31.4071L379.694 31.0554C379.07 30.8488 378.499 30.6229 377.99 30.3804L375.886 29.3781L373.017 27.7489L370.147 26.0292L367.278 24.3889L364.409 22.9799L362.456 22.2603C361.847 22.0358 361.161 21.8391 360.412 21.6747L359.851 21.5513C359.071 21.38 358.204 21.2631 357.298 21.2072C356.311 21.1461 355.298 21.1588 354.325 21.2442L354.133 21.261C353.337 21.331 352.575 21.4432 351.874 21.5938L351.108 21.7586C350.412 21.9082 349.755 22.0791 349.144 22.2691L347.192 22.8759L344.323 23.948L341.454 25.1147L338.584 26.3123L335.715 27.4996L332.846 28.6505L329.976 29.7417L327.107 30.7393L325.144 31.3207C324.541 31.4995 323.9 31.6625 323.229 31.8084L322.342 32.001C321.696 32.1414 320.999 32.2505 320.269 32.3254L319.848 32.3686C318.959 32.4599 318.024 32.4827 317.108 32.4355C316.135 32.3854 315.208 32.2578 314.398 32.0624L313.91 31.9448C313.148 31.7611 312.471 31.5371 311.903 31.2809L310.911 30.8331C310.232 30.5266 309.629 30.2002 309.108 29.8576L307.021 28.485L304.152 26.101L301.283 23.4033L298.413 20.6508L295.544 18.1563L293.121 16.5486C292.825 16.3522 292.447 16.1726 291.999 16.0158L290.897 15.6297C290.208 15.3886 289.241 15.2731 288.277 15.3169C287.421 15.3557 286.648 15.5167 286.14 15.7618L284.735 16.44C284.291 16.6543 283.929 16.888 283.657 17.1352C282.019 18.6228 280.543 20.1968 279.24 21.8436L278.328 22.9967L275.458 27.2814L272.589 31.7411L269.72 35.8345L267.175 38.6736C266.959 38.9147 266.679 39.148 266.338 39.3706L264.522 40.5571C264.177 40.7824 263.581 40.9473 262.877 41.0123C261.816 41.1103 260.693 40.9662 260.061 40.6509L258.741 39.9915C258.41 39.8264 258.15 39.6453 257.967 39.454C256.24 37.6407 254.707 35.7374 253.382 33.76L252.504 32.4502L249.634 27.3708L246.765 22.0615L243.896 17.1286L242.903 15.7505C241.655 14.0187 240.166 12.3803 238.459 10.8601C238.261 10.6835 237.935 10.5281 237.514 10.4093C236.255 10.0545 234.432 10.0975 233.32 10.5083L232.957 10.6424C232.602 10.7735 232.329 10.9293 232.156 11.0998C230.421 12.8109 228.908 14.6303 227.634 16.5357L226.679 17.9628L223.81 23.223L220.941 28.8378L218.071 34.1461L217.146 35.5584C215.852 37.5335 214.326 39.4269 212.583 41.2182C212.417 41.388 212.163 41.5454 211.834 41.6824L211.132 41.9737C210.182 42.3684 208.539 42.4489 207.318 42.1605C206.846 42.049 206.478 41.891 206.26 41.7064C204.575 40.2743 203.108 38.7183 201.885 37.0647L200.855 35.6711L197.986 30.8271L195.116 25.6025L192.247 20.6078L191.361 19.3106C190.041 17.3772 188.517 15.5179 186.802 13.7487C186.607 13.5482 186.332 13.3583 185.986 13.185L184.619 12.5019C184.022 12.2032 182.984 12.0544 181.962 12.1211C181.205 12.1706 180.546 12.3332 180.157 12.5669L178.43 13.603C178.078 13.8144 177.789 14.0379 177.567 14.2701L175.031 16.9281L172.162 20.8448L169.292 25.2135L166.423 29.545L163.553 33.3697L161.088 35.8763C160.819 36.1495 160.475 36.4127 160.059 36.662L158.375 37.672C158.013 37.8894 157.448 38.0564 156.776 38.1448C155.656 38.2923 154.395 38.202 153.529 37.9125L152.737 37.648C152.3 37.502 151.944 37.3288 151.688 37.1372C150.037 35.9052 148.537 34.5747 147.205 33.1604L146.337 32.2393L143.468 28.6547L140.599 24.9464L137.729 21.5304L135.377 19.2737C135.033 18.9436 134.615 18.6235 134.128 18.3165L132.492 17.2864C132.162 17.0783 131.701 16.8994 131.145 16.7631L130.798 16.678C129.754 16.4225 128.41 16.3731 127.239 16.5471C126.594 16.6429 126.04 16.8011 125.64 17.0031L124.09 17.7874C123.619 18.0255 123.214 18.2788 122.879 18.5438L120.513 20.4151L117.644 23.2257L114.774 26.2632L111.905 29.2082L111.015 30.0012C109.697 31.1754 108.264 32.2816 106.727 33.3116C106.355 33.5607 105.894 33.7924 105.357 34.0009L104.146 34.4703C103.594 34.6845 102.864 34.8321 102.059 34.8921C101.017 34.9698 99.9294 34.8947 99.0482 34.6842L98.453 34.542C97.862 34.4009 97.3533 34.2213 96.9545 34.0129L95.5086 33.2574C94.9629 32.9723 94.4807 32.6728 94.0662 32.3616L91.8195 30.675L88.9501 28.0824L86.0808 25.3071L83.2114 22.6238L82.3291 21.9092C81.0062 20.8378 79.5748 19.8369 78.0463 18.9147C77.6658 18.6851 77.195 18.4755 76.648 18.2922L75.5758 17.9329C74.9463 17.7219 74.131 17.5927 73.2644 17.5665C72.2823 17.5369 71.3055 17.6416 70.538 17.859L69.7321 18.0871C69.1581 18.2496 68.6684 18.4458 68.2844 18.6669L66.833 19.5028C66.2752 19.824 65.7837 20.1589 65.3623 20.5048L63.1259 22.3405L60.2565 25.191L57.3872 28.2732L54.5178 31.2846L53.6882 32.0429C52.3304 33.2838 50.8414 34.4491 49.2344 35.5284C48.9328 35.731 48.5405 35.9151 48.0725 36.0739L47.0563 36.4186C46.3339 36.6636 45.3271 36.776 44.3345 36.7225C43.5049 36.6778 42.7578 36.5208 42.253 36.2852L40.8554 35.633C40.401 35.4209 40.025 35.1894 39.7366 34.944C38.1154 33.5647 36.6366 32.1036 35.3117 30.5722L34.4323 29.5556L31.563 25.7185L28.6936 21.8074L25.8243 18.3042L23.3037 15.9815C23.0721 15.768 22.7654 15.5656 22.3908 15.3789L20.9009 14.6361C20.389 14.3809 19.5587 14.228 18.6703 14.2251C17.7602 14.2223 16.9045 14.3772 16.3833 14.6393L14.9131 15.3787C14.5371 15.5678 14.2321 15.7731 14.0057 15.9895L11.4774 18.4073L8.60807 22.1355L2.86938 30.683L0 34.4428" stroke="#20DFE9" stroke-width="2" stroke-miterlimit="16" stroke-linecap="round"/>
</svg>
