<svg width="48" height="48" viewBox="0 0 48 48" fill="none" xmlns="http://www.w3.org/2000/svg">
<g clip-path="url(#clip0)">
<path d="M28.413 16.5038L34.7287 13.884L38.1487 19.584C38.636 20.4337 38.7796 21.4376 38.55 22.3898C37.875 25.3328 34.35 26.8148 31.7677 25.2188C30.9313 24.7106 30.3205 23.9023 30.06 22.959L28.413 16.5038ZM9.46195 22.3898C10.137 25.3328 13.662 26.8148 16.2435 25.2188C17.0802 24.7109 17.6914 23.9026 17.952 22.959L19.602 16.509L13.2847 13.8885L9.86695 19.5885C9.37984 20.4365 9.23497 21.4385 9.46195 22.3898H9.46195Z" fill="#8F0034"/>
<path d="M47.9542 37.3193C47.3262 35.7932 45.58 35.0652 44.054 35.6932C44.049 35.6952 44.0441 35.6972 44.0392 35.6993L42.3825 36.3893L39.48 28.7483C43.0717 26.1233 44.3392 21.2265 42.0675 17.2898L35.5725 6.0038C34.9684 4.96117 33.6866 4.52568 32.5725 4.98455L24 8.5388L15.4282 4.98455V4.98455C15.1372 4.86272 14.8249 4.80001 14.5095 4.80005V4.80005C13.6505 4.8006 12.857 5.2595 12.4282 6.0038L5.93397 17.2898C3.66897 21.2265 4.92897 26.1233 8.52147 28.7408L5.61897 36.3818L3.96147 35.6918C2.43878 35.0557 0.688712 35.7744 0.0525845 37.2971C0.0505346 37.302 0.0484978 37.3069 0.0464741 37.3118H0.0464741C-0.0827981 37.6169 0.0597515 37.9691 0.364867 38.0983C0.366234 38.0989 0.367603 38.0995 0.368974 38.1L12.5407 43.1543C12.6144 43.1849 12.6934 43.2007 12.7732 43.2008C13.0138 43.2007 13.2303 43.0548 13.3207 42.8318C13.9534 41.3011 13.2286 39.547 11.7 38.9093L10.0432 38.2193L12.9982 30.45C13.3282 30.4875 13.6582 30.5475 13.9807 30.5475C17.8582 30.5475 21.4357 28.0658 22.4857 24.1515L24 18.4973L25.5157 24.15C26.5657 28.0643 30.1425 30.546 34.02 30.546C34.3425 30.546 34.6725 30.486 35.0025 30.4485L37.95 38.2193L36.2925 38.9093C34.7623 39.5446 34.0368 41.3002 34.6722 42.8303C34.6723 42.8306 34.6724 42.8308 34.6725 42.831C34.7653 43.0537 34.9825 43.199 35.2237 43.2C35.3023 43.2 35.3801 43.1842 35.4525 43.1535L47.6317 38.1C47.9352 37.9724 48.0792 37.6239 47.9542 37.3193V37.3193ZM17.9542 22.959C17.6937 23.9026 17.0825 24.7109 16.2457 25.2188C13.6657 26.8155 10.1415 25.3328 9.46422 22.3898C9.23619 21.438 9.38054 20.4351 9.86772 19.5863L15.4927 10.2113L20.664 12.3683L17.9542 22.959ZM38.55 22.3898C37.875 25.3328 34.35 26.8148 31.7677 25.2188C30.9314 24.7106 30.3205 23.9024 30.06 22.959L27.357 12.3706L32.5275 10.2136L38.1487 19.5885C38.6349 20.4369 38.7784 21.439 38.55 22.3898Z" fill="#FF035E"/>
</g>
<defs>
<clipPath id="clip0">
<rect width="48" height="48" fill="white"/>
</clipPath>
</defs>
</svg>
