<svg width="48" height="48" viewBox="0 0 48 48" fill="none" xmlns="http://www.w3.org/2000/svg">
<path d="M47.7384 25.7812C45.7753 21.3638 43.1972 11.5566 40.8872 8.27344V8.27344C37.2353 3.08703 31.2891 0.000928125 24.9459 0H18C8.0625 0 2.83349e-07 8.0625 2.83349e-07 18L0 18.0032C-7.72274e-07 23.1177 2.18389 27.9889 6.00238 31.3915V48H30.0024V42H36.0024C39.3161 42 42.0024 39.3137 42.0024 36V30H45.0024C46.6592 29.9984 48.0011 28.654 47.9995 26.9971C47.9991 26.5782 47.911 26.164 47.7408 25.7812L47.7384 25.7812ZM31.5 19.5H26.7244C26.9018 19.9804 26.9951 20.4879 27 21C27 23.4853 24.9853 25.5 22.5 25.5C21.9879 25.4951 21.4804 25.4018 21 25.2244V30H15V25.2244C14.5196 25.4018 14.0121 25.4951 13.5 25.5C11.0147 25.5 9 23.4853 9 21C9 20.9062 9.02156 20.8228 9.02719 20.7328C6.68325 19.9255 5.43756 17.3709 6.24486 15.027C6.87002 13.2119 8.58026 11.9953 10.5 12V12C10.5 9.51472 12.5147 7.5 15 7.5C15.775 7.50433 16.5355 7.71117 17.2059 8.1C18.5191 6.0046 21.2822 5.37044 23.3776 6.68356C23.9507 7.04268 24.4349 7.52694 24.7941 8.1C26.916 6.86893 29.6341 7.59112 30.8652 9.71305C31.0102 9.96305 31.1305 10.2266 31.2244 10.5H31.5C33.9853 10.5 36 12.5147 36 15C36 17.4853 33.9853 19.5 31.5 19.5V19.5Z" fill="#8F0034"/>
<path d="M6.24466 15.0272V15.0272C6.87001 13.2121 8.58021 11.9955 10.5 12V12C10.5 9.5147 12.5147 7.49998 15 7.49998C15.775 7.50431 16.5355 7.71115 17.2059 8.09998C18.519 6.00457 21.2822 5.37042 23.3776 6.68354C23.9507 7.04266 24.4349 7.52692 24.794 8.09998C26.916 6.86891 29.6341 7.5911 30.8652 9.71302C31.0102 9.96303 31.1305 10.2266 31.2243 10.5H31.5C33.9853 10.5 36 12.5147 36 15C36 17.4853 33.9853 19.5 31.5 19.5H26.7243C26.9018 19.9804 26.995 20.4879 27 21C27 23.4853 24.9853 25.5 22.5 25.5C21.9878 25.4951 21.4804 25.4018 21 25.2244V30H15V25.2244C14.5195 25.4018 14.0121 25.4951 13.5 25.5C11.0147 25.5 8.99997 23.4853 8.99997 21C8.99997 20.9062 9.02153 20.8228 9.02716 20.7328H9.02716C6.68326 19.9256 5.4375 17.3711 6.24466 15.0272L6.24466 15.0272Z" fill="#FF035E"/>
</svg>
