<svg width="48" height="48" viewBox="0 0 48 48" fill="none" xmlns="http://www.w3.org/2000/svg">
<g clip-path="url(#clip0)">
<path d="M5.34253 28.615V44V43.9999C5.34481 44.7354 5.94043 45.331 6.67586 45.3333H41.3425C42.0779 45.331 42.6736 44.7354 42.6758 43.9999V28.615C42.1175 28.1566 38.9509 25.4225 24.0092 12.2483C9.00003 25.49 5.87586 28.1725 5.34253 28.615V28.615ZM31.5175 26.4225C33.6633 28.2041 33.9585 31.3879 32.1768 33.5337C32.0865 33.6425 31.9916 33.7475 31.8925 33.8483L24.8334 40.9808C24.3817 41.4364 23.6462 41.4396 23.1905 40.988C23.1881 40.9856 23.1857 40.9832 23.1834 40.9808L16.125 33.8483C14.1656 31.8596 14.1894 28.659 16.1781 26.6996C16.276 26.6031 16.3779 26.5107 16.4834 26.4225C18.4834 24.7558 21.4584 25.0566 23.2834 26.9066L24 27.6308L24.7167 26.9066C26.5509 25.0566 29.5259 24.7558 31.5175 26.4225L31.5175 26.4225Z" fill="#8F0034"/>
<path d="M31.5175 26.4225C29.5258 24.7558 26.5508 25.0567 24.7175 26.9067L24.0008 27.6308L23.2842 26.9067C21.4592 25.0567 18.4842 24.7558 16.4842 26.4225H16.4842C14.3424 28.2133 14.0579 31.4013 15.8487 33.5431C15.9369 33.6485 16.0293 33.7504 16.1258 33.8483L23.1842 40.9808C23.6359 41.4365 24.3714 41.4397 24.827 40.988C24.8294 40.9856 24.8318 40.9832 24.8342 40.9808L31.8925 33.8483C33.8479 31.8596 33.8208 28.6622 31.8321 26.7068C31.7312 26.6077 31.6263 26.5128 31.5175 26.4225L31.5175 26.4225ZM47.5675 22.3559L42.6758 18.04V6.66669C42.6758 5.93031 42.0789 5.33336 41.3425 5.33336H36.0092C35.2728 5.33336 34.6758 5.93031 34.6758 6.66669V10.975L26.2342 3.52252V3.52252C24.9667 2.38247 23.0433 2.38247 21.7758 3.52252L0.442522 22.3559H0.442522C-0.105355 22.8479 -0.150635 23.6909 0.341387 24.2388C0.341765 24.2392 0.342144 24.2396 0.342522 24.24L2.12585 26.2233C2.61811 26.771 3.46113 26.8159 4.0088 26.3237C4.00893 26.3236 4.00906 26.3235 4.00919 26.3233L23.1259 9.47335C23.6319 9.03165 24.3864 9.03165 24.8925 9.47335L44 26.3333C44.5477 26.8256 45.3907 26.7806 45.8829 26.2329C45.8831 26.2328 45.8832 26.2327 45.8833 26.2325L47.6667 24.25C48.1616 23.6993 48.1173 22.8519 47.5675 22.3558L47.5675 22.3559Z" fill="#FF035E"/>
</g>
<defs>
<clipPath id="clip0">
<rect width="48" height="48" fill="white"/>
</clipPath>
</defs>
</svg>
