<svg width="87" height="87" viewBox="0 0 87 87" fill="none" xmlns="http://www.w3.org/2000/svg">
<path d="M36.6667 24.1666C37.7712 24.1666 38.6667 25.0621 38.6667 26.1666V46.3333C38.6667 47.4379 37.7712 48.3333 36.6667 48.3333H28.8571C27.3135 48.3333 26.3517 50.0077 27.1295 51.341L32.0788 59.8255C32.8566 61.1589 31.8948 62.8333 30.3513 62.8333H24.1071C23.3957 62.8333 22.7379 62.4555 22.3795 61.841L14.7724 48.8003C14.594 48.4945 14.5 48.1467 14.5 47.7926V26.1666C14.5 25.0621 15.3954 24.1666 16.5 24.1666H36.6667ZM72.5 46.3333C72.5 47.4379 71.6046 48.3333 70.5 48.3333H62.6904C61.1468 48.3333 60.1851 50.0077 60.9628 51.341L65.9122 59.8255C66.6899 61.1589 65.7282 62.8333 64.1846 62.8333H57.9404C57.2291 62.8333 56.5713 62.4555 56.2128 61.841L48.6058 48.8003C48.4273 48.4945 48.3333 48.1467 48.3333 47.7926V26.1666C48.3333 25.0621 49.2288 24.1666 50.3333 24.1666H70.5C71.6046 24.1666 72.5 25.0621 72.5 26.1666V46.3333Z" fill="#20DFE9"/>
</svg>
