<svg width="28" height="33" viewBox="0 0 28 33" fill="none" xmlns="http://www.w3.org/2000/svg">
<g clip-path="url(#clip0)">
<path d="M14.0063 9.31221C10.0313 9.31221 6.82505 12.5185 6.82505 16.4935C6.82505 20.4685 10.0313 23.6747 14.0063 23.6747C17.9813 23.6747 21.1875 20.4685 21.1875 16.4935C21.1875 12.5185 17.9813 9.31221 14.0063 9.31221ZM14.0063 21.1622C11.4375 21.1622 9.33755 19.0685 9.33755 16.4935C9.33755 13.9185 11.4313 11.8247 14.0063 11.8247C16.5813 11.8247 18.675 13.9185 18.675 16.4935C18.675 19.0685 16.575 21.1622 14.0063 21.1622ZM23.1563 9.01846C23.1563 9.94971 22.4063 10.6935 21.4813 10.6935C20.55 10.6935 19.8063 9.94346 19.8063 9.01846C19.8063 8.09346 20.5563 7.34346 21.4813 7.34346C22.4063 7.34346 23.1563 8.09346 23.1563 9.01846ZM27.9125 10.7185C27.8063 8.47471 27.2938 6.48721 25.65 4.84971C24.0125 3.21221 22.025 2.69971 19.7813 2.58721C17.4688 2.45596 10.5375 2.45596 8.22505 2.58721C5.98755 2.69346 4.00005 3.20596 2.3563 4.84346C0.712549 6.48096 0.206299 8.46846 0.0937988 10.7122C-0.0374512 13.0247 -0.0374512 19.956 0.0937988 22.2685C0.200049 24.5122 0.712549 26.4997 2.3563 28.1372C4.00005 29.7747 5.9813 30.2872 8.22505 30.3997C10.5375 30.531 17.4688 30.531 19.7813 30.3997C22.025 30.2935 24.0125 29.781 25.65 28.1372C27.2875 26.4997 27.8 24.5122 27.9125 22.2685C28.0438 19.956 28.0438 13.031 27.9125 10.7185ZM24.925 24.7497C24.4375 25.9747 23.4938 26.9185 22.2625 27.4122C20.4188 28.1435 16.0438 27.9747 14.0063 27.9747C11.9688 27.9747 7.58755 28.1372 5.75005 27.4122C4.52505 26.9247 3.5813 25.981 3.08755 24.7497C2.3563 22.906 2.52505 18.531 2.52505 16.4935C2.52505 14.456 2.36255 10.0747 3.08755 8.23721C3.57505 7.01221 4.5188 6.06846 5.75005 5.57471C7.5938 4.84346 11.9688 5.01221 14.0063 5.01221C16.0438 5.01221 20.425 4.84971 22.2625 5.57471C23.4875 6.06221 24.4313 7.00596 24.925 8.23721C25.6563 10.081 25.4875 14.456 25.4875 16.4935C25.4875 18.531 25.6563 22.9122 24.925 24.7497Z" fill="white"/>
</g>
<defs>
<clipPath id="clip0">
<rect width="28" height="32" fill="white" transform="translate(0 0.5)"/>
</clipPath>
</defs>
</svg>
