<svg width="48" height="48" viewBox="0 0 48 48" fill="none" xmlns="http://www.w3.org/2000/svg">
<path d="M39.6 4.80005H8.39999V4.80005C6.41415 4.80582 4.80576 6.41421 4.79999 8.40005V33.6H43.2V8.40005V8.4001C43.1943 6.41427 41.5859 4.80585 39.6 4.80005L39.6 4.80005ZM38.4 28.8H9.59999V9.60005H38.4V28.8Z" fill="#8F0034"/>
<path d="M38.4 9.6001H9.6V28.8001H38.4V9.6001ZM46.8 36.0001H28.6155C28.56 37.4858 27.5123 38.4001 26.16 38.4001H21.6C20.1982 38.4001 19.125 37.0898 19.1423 36.0001H1.2H1.2C0.537258 36.0001 8.15025e-08 36.5374 8.15025e-08 37.2001V38.4001L0 38.4001C0.00781043 41.0478 2.15225 43.1923 4.79997 43.2001H43.2C45.8477 43.1923 47.9921 41.0478 48 38.4001V37.2001C48 36.5374 47.4627 36.0001 46.8 36.0001L46.8 36.0001Z" fill="#FF035E"/>
</svg>
