<svg width="205" height="20" viewBox="0 0 205 20" fill="none" xmlns="http://www.w3.org/2000/svg">
<path d="M203.669 2.85412V0H194.743C193.769 0 192.934 0.120937 192.238 0.362811C191.542 0.588561 190.968 0.91106 190.515 1.33031C190.08 1.74956 189.758 2.24943 189.55 2.82993C189.358 3.39431 189.263 3.78987 189.263 4.46712C189.263 5.03149 189.341 5.39179 189.497 5.95616C189.671 6.52053 189.967 7.02847 190.385 7.47997C190.82 7.93147 191.411 8.29428 192.16 8.5684C192.908 8.84253 193.873 8.97959 195.056 8.97959H199.154H204.609C204.436 8.55415 204.175 8.16715 203.826 7.81859C203.391 7.36709 202.79 7.00428 202.025 6.73016C201.259 6.43991 200.276 6.29478 199.076 6.29478H194.952C194.43 6.29478 194.004 6.24641 193.673 6.14966C193.343 6.03678 193.073 5.89166 192.864 5.71428C192.673 5.52079 192.534 5.31116 192.447 5.08541C192.377 4.84354 192.342 4.7037 192.342 4.46183C192.342 4.13265 192.525 3.76518 192.89 3.41043C193.256 3.03956 193.839 2.85412 194.639 2.85412H203.669Z" fill="white"/>
<path d="M204.687 13.4482C204.896 12.8677 205 12.2308 205 11.5374C205 11.2862 204.984 10.9546 204.951 10.6122H201.862C201.901 10.9052 201.92 11.2677 201.92 11.4407C201.92 12.0373 201.72 12.5291 201.32 12.9161C200.937 13.287 200.328 13.4724 199.493 13.4724H189.576V16.3265H199.389C200.398 16.3265 201.25 16.2056 201.946 15.9637C202.66 15.7218 203.243 15.3913 203.695 14.972C204.147 14.5367 204.478 14.0287 204.687 13.4482Z" fill="white"/>
<path fill-rule="evenodd" clip-rule="evenodd" d="M173.043 0C174.067 0 174.938 0.112875 175.656 0.338624C176.39 0.548249 176.988 0.854624 177.449 1.25775C177.927 1.64475 178.277 2.11237 178.499 2.66062C178.721 3.20887 178.832 4.11968 178.832 4.7808C178.832 5.73217 178.563 6.8726 178.192 7.48677C177.783 8.16327 176.978 8.97959 176.347 8.97959H164V1.33031C164 0.443436 164.478 0 165.435 0H173.043ZM166.972 7.19954H173.12C174.896 7.19954 175.784 6.13832 175.784 5.13832C175.784 4.49332 175.57 3.77324 175.143 3.38624C174.733 2.99924 174.067 2.80574 173.145 2.80574H167.305C167.083 2.80574 166.972 2.90249 166.972 3.09599V7.19954Z" fill="white"/>
<path d="M178.576 13.6417C178.798 13.0935 178.909 12.1827 178.909 11.5215C178.909 11.1979 178.883 10.8948 178.832 10.6122H175.826C175.849 10.7529 175.861 10.9028 175.861 11.062C175.861 11.7392 175.647 12.5694 175.22 12.9403C174.793 13.3112 174.119 13.4966 173.196 13.4966H167.305C167.083 13.4966 166.972 13.4079 166.972 13.2305V10.6122H164V14.9962C164 15.8831 164.478 16.3265 165.435 16.3265H173.12C174.144 16.3265 175.015 16.2137 175.733 15.9879C176.467 15.7622 177.065 15.4558 177.526 15.0688C178.004 14.6657 178.354 14.19 178.576 13.6417Z" fill="white"/>
<path d="M134.596 16.3265H137.911L140.327 10.6135H137.018L134.596 16.3265Z" fill="white"/>
<path d="M141.992 0.475299C141.414 0.776323 140.963 1.30707 140.64 2.06755L137.71 8.97959H141.018L143.369 3.42215C143.539 3.05776 143.828 2.87556 144.236 2.87556C144.644 2.87556 144.925 3.05776 145.078 3.42215L147.329 8.97959H150.65L147.832 2.06755C147.526 1.30707 147.075 0.776323 146.48 0.475299C145.902 0.158433 145.163 0 144.261 0C143.343 0 142.587 0.158433 141.992 0.475299Z" fill="white"/>
<path d="M150.306 16.3265H153.646L151.316 10.6122H147.991L150.306 16.3265Z" fill="white"/>
<path d="M116.233 11.7793C116.131 11.4245 116.079 11.0537 116.079 10.6667V10.6122H113.061V10.6909C113.061 11.5132 113.171 12.2711 113.393 12.9645C113.632 13.6417 114.007 14.2303 114.519 14.7302C115.031 15.23 115.687 15.6251 116.489 15.9153C117.307 16.1895 118.288 16.3265 119.431 16.3265H126.313V13.4724H119.61C118.928 13.4724 118.356 13.3998 117.896 13.2547C117.452 13.1096 117.094 12.9161 116.821 12.6742C116.549 12.4162 116.352 12.1179 116.233 11.7793Z" fill="white"/>
<path d="M116.079 0H113.061V8.97959H116.079V0Z" fill="white"/>
<path d="M100.654 2.00756C99.3035 0.669187 97.3209 0 94.7068 0H88.4435C87.461 0 86.9697 0.443436 86.9697 1.33031V8.97959H90.0751V3.14437C90.0751 2.95087 90.1891 2.85412 90.4172 2.85412H94.7068C96.4437 2.85412 97.6894 3.27337 98.4438 4.11187C99.2157 4.93424 99.6017 6.28067 99.6017 8.15117C99.6017 8.43958 99.5925 8.71572 99.5742 8.97959H102.687C102.7 8.71858 102.707 8.4505 102.707 8.17536C102.707 5.40187 102.023 3.34593 100.654 2.00756Z" fill="white"/>
<path d="M94.7068 16.3265C97.3209 16.3265 99.3035 15.6573 100.654 14.319C101.583 13.4104 102.197 12.1748 102.495 10.6122H99.3C99.1071 11.27 98.8217 11.8042 98.4438 12.2147C97.6718 13.0532 96.4262 13.4724 94.7068 13.4724H90.4172C90.1891 13.4724 90.0751 13.3757 90.0751 13.1822V10.6122H86.9697V14.9962C86.9697 15.8831 87.461 16.3265 88.4435 16.3265H94.7068Z" fill="white"/>
<path d="M57.9798 16.3265H61.0426V10.6023H57.9798V16.3265Z" fill="white"/>
<path d="M58.9661 0.992616C58.3086 1.63822 57.9798 2.49364 57.9798 3.55889V8.97117H61.0426V3.70415C61.0426 3.41363 61.1291 3.18767 61.3022 3.02627C61.4925 2.84873 61.7607 2.75996 62.1068 2.75996C62.6086 2.75996 62.972 2.99399 63.1969 3.46205L66.0465 8.97117H69.3228C69.3228 8.97117 65.6759 2.52197 65.3247 1.93696C64.2538 0.152918 63.2142 0 62.003 0C60.636 0 59.6237 0.330872 58.9661 0.992616Z" fill="white"/>
<path d="M71.7884 13.3334C71.6153 13.2042 71.4769 13.0428 71.3731 12.8492L70.1221 10.6023H66.8458L68.9332 14.5439C69.1755 14.9151 69.461 15.2379 69.7898 15.5123C70.1358 15.7705 70.5338 15.9642 70.9837 16.0933C71.4509 16.2386 71.9874 16.3112 72.593 16.3112C73.9427 16.3112 74.9463 15.9884 75.6039 15.3428C76.2787 14.6811 76.6162 13.8095 76.6162 12.7281V10.6023H73.5274V12.6071C73.5274 12.8814 73.4322 13.1074 73.2419 13.2849C73.0689 13.4463 72.8179 13.527 72.4892 13.527C72.195 13.527 71.9614 13.4625 71.7884 13.3334Z" fill="white"/>
<path d="M76.6162 0H73.5274V8.97117H76.6162V0Z" fill="white"/>
<path d="M44.313 16.3265H47.6262V10.6122H44.313V16.3265Z" fill="white"/>
<path d="M47.6262 0H44.313V8.97959H47.6262V0Z" fill="white"/>
<path d="M10.0274 3.23594C10.2114 3.39776 10.4201 3.69415 10.5529 4.23178L11.8685 8.97569H15.2094L13.7033 3.54646C13.1834 1.57759 11.7227 0.0756929 9.69644 0.00269451C7.71278 -0.0687706 5.99157 1.28878 5.23638 3.18847L2.92809 8.97569H6.39248L8.25175 4.28283C8.73033 3.14209 9.31778 3.00924 9.56239 3.0242C9.66675 3.03059 9.84382 3.07443 10.0274 3.23594Z" fill="white"/>
<path d="M30.8021 3.19643L30.8013 3.19425C30.0374 1.19813 28.3317 -0.0567326 26.3579 0.0099144C24.3376 0.0781322 22.8496 1.57323 22.3339 3.53882L20.8242 8.98145H24.1653L25.4805 4.2396C25.6163 3.70265 25.827 3.40832 26.0127 3.24725C26.1979 3.08665 26.379 3.04026 26.4922 3.03115C26.7132 3.01338 27.3132 3.14915 27.7816 4.27816L27.7826 4.2805L29.6432 8.98145H33.1074L30.8021 3.19643Z" fill="white"/>
<path d="M0 16.3169H3.48398L5.74593 10.6076H2.27719L0 16.3169Z" fill="white"/>
<path d="M22.1133 16.4816C21.0385 20.6554 15.0169 20.5753 13.9249 16.4925L12.3211 10.6076H15.6622L17.0629 15.7588C17.216 16.3313 17.6401 16.5627 18.0245 16.5591C18.4142 16.5555 18.8306 16.3109 18.9689 15.7725L20.3732 10.6076H23.7143L22.1133 16.4816Z" fill="white"/>
<path d="M36.0303 16.3166L32.5472 16.3186L30.2869 10.6076H33.7554L36.0303 16.3166Z" fill="white"/>
</svg>
