<svg width="49" height="49" viewBox="0 0 49 49" fill="none" xmlns="http://www.w3.org/2000/svg">
<g clip-path="url(#clip0)">
<path d="M48.7773 19.2681V40.819C48.7773 42.1415 47.7052 43.2136 46.3827 43.2136H3.2809V43.2136C1.95843 43.2136 0.886353 42.1415 0.886353 40.819V19.2681H0.886353C0.886352 17.9456 1.95843 16.8736 3.2809 16.8736H16.0812L25.6549 26.4517H8.66862V26.4517C8.33801 26.4517 8.06999 26.7198 8.06999 27.0504V28.2476V28.2476C8.06999 28.5783 8.33801 28.8463 8.66862 28.8463H28.0495L32.8386 33.6354H8.66862V33.6354C8.33801 33.6354 8.06999 33.9034 8.06999 34.234V35.4313V35.4313C8.06999 35.7619 8.33801 36.0299 8.66862 36.0299H42.7909V36.0299C43.4521 36.0299 43.9882 35.4939 43.9882 34.8326V29.2608V29.2601C43.9882 27.9898 43.4835 26.7716 42.5853 25.8735L33.5868 16.8735H46.3827V16.8735C47.7052 16.8735 48.7772 17.9456 48.7772 19.2681L48.7773 19.2681Z" fill="#8F0034"/>
<path d="M40.8933 27.5671L23.5732 10.2485L18.2079 15.6138L35.5228 32.9331V32.9331C35.972 33.3826 36.5814 33.6351 37.2169 33.635H40.3964V33.635C41.0576 33.635 41.5937 33.0989 41.5937 32.4377V29.2604V29.2605C41.594 28.6255 41.3421 28.0163 40.8933 27.5671L40.8933 27.5671ZM18.7542 5.42424V5.42424C18.0515 4.72903 16.9202 4.72903 16.2175 5.42424L13.3829 8.25803V8.25803C12.6886 8.95816 12.6886 10.0872 13.3829 10.7873L16.5183 13.9226L21.8836 8.54987L18.7542 5.42424Z" fill="#FF035E"/>
</g>
<defs>
<clipPath id="clip0">
<rect width="47.8909" height="47.8909" fill="white" transform="translate(0.886353 0.111328)"/>
</clipPath>
</defs>
</svg>
