<svg width="48" height="48" viewBox="0 0 48 48" fill="none" xmlns="http://www.w3.org/2000/svg">
<g clip-path="url(#clip0)">
<path d="M46.6667 21.3334H44.2075C43.4765 19.6799 42.4167 18.1925 41.0925 16.9617L42.6667 10.6667H40C37.55 10.6667 35.3842 11.7917 33.9167 13.5267C33.2858 13.4351 32.6567 13.3334 32 13.3334H21.3333C13.4317 13.3334 8 19.9067 8 26.6667V26.6669C7.99676 30.8644 9.97342 34.8176 13.3334 37.3335V44.0001C13.3334 44.7365 13.9304 45.3335 14.6668 45.3335H20.0001C20.7365 45.3335 21.3334 44.7365 21.3334 44.0001V40.0001H32.0001V44.0001C32.0001 44.7365 32.5971 45.3335 33.3334 45.3335H38.6668C39.4031 45.3335 40.0001 44.7365 40.0001 44.0001V37.2735C40.9852 36.5291 41.8624 35.6519 42.6067 34.6667H46.6667C47.403 34.6667 48 34.0698 48 33.3334V22.6667C48 21.9303 47.403 21.3334 46.6667 21.3334V21.3334ZM36 26.6667C35.2636 26.6667 34.6667 26.0698 34.6667 25.3334C34.6667 24.597 35.2636 24.0001 36 24.0001C36.7364 24.0001 37.3333 24.597 37.3333 25.3334C37.3333 26.0698 36.7364 26.6667 36 26.6667Z" fill="#8F0034"/>
<path d="M4.27161 23.9601C3.18916 23.7401 2.48997 22.6843 2.70992 21.6019C2.70992 21.6018 2.70993 21.6018 2.70994 21.6017C2.89494 20.6517 3.78328 20.0001 4.74994 20.0001H4.83327C5.10942 20.0001 5.33328 19.7762 5.33328 19.5001V17.8334C5.33328 17.5573 5.10942 17.3334 4.83327 17.3334C2.45828 17.3334 0.34161 19.0334 0.0391103 21.3851H0.0391104C0.0127393 21.5848 -0.000345028 21.7861 -5.63617e-05 21.9876L-5.63876e-05 21.9876C-0.00326917 24.5683 2.08594 26.6631 4.66663 26.6667H7.99996V26.6667C8.00083 25.7705 8.09495 24.8768 8.28079 24.0001H4.6666C4.53392 24.0001 4.40158 23.9867 4.2716 23.9601L4.27161 23.9601ZM35.9999 24.0001C35.2635 24.0001 34.6666 24.597 34.6666 25.3334C34.6666 26.0698 35.2635 26.6667 35.9999 26.6667C36.7363 26.6667 37.3333 26.0698 37.3333 25.3334C37.3333 24.597 36.7363 24.0001 35.9999 24.0001ZM25.5416 2.66675V2.66675C21.1233 2.66566 17.5407 6.2465 17.5396 10.6648C17.5394 11.7091 17.7436 12.7434 18.1408 13.7092L18.1408 13.7092C19.1863 13.4578 20.258 13.3316 21.3333 13.3334H31.9999C32.3541 13.3363 32.7079 13.3607 33.0591 13.4067C34.5696 9.25175 32.4258 4.659 28.2708 3.1485C27.396 2.83047 26.4724 2.66746 25.5416 2.66678V2.66675Z" fill="#FF035E"/>
</g>
<defs>
<clipPath id="clip0">
<rect width="48" height="48" fill="white"/>
</clipPath>
</defs>
</svg>
