<svg width="24" height="24" viewBox="0 0 24 24" fill="none" xmlns="http://www.w3.org/2000/svg">
<g clip-path="url(#clip0)">
<path d="M12 23.9072C12.2424 23.9072 12.4606 23.8506 12.6546 23.7375C12.8485 23.6243 13.0061 23.4758 13.1273 23.292C13.2485 23.1082 13.3091 22.9031 13.3091 22.6769V13.2728H22.7055C22.9382 13.2728 23.1539 13.2163 23.3527 13.1031C23.5515 12.99 23.7091 12.8368 23.8255 12.6435C23.9418 12.4503 24 12.2358 24 12.0001C24 11.7738 23.9418 11.5641 23.8255 11.3708C23.7091 11.1775 23.5515 11.0243 23.3527 10.9112C23.1539 10.7981 22.9382 10.7415 22.7055 10.7415H13.3091V1.32332C13.3091 1.09706 13.2485 0.889651 13.1273 0.701099C13.0061 0.512546 12.8485 0.364061 12.6546 0.255644C12.4606 0.147227 12.2424 0.0930176 12 0.0930176C11.7673 0.0930176 11.5515 0.147227 11.3527 0.255644C11.1539 0.364061 10.9964 0.512546 10.88 0.701099C10.7636 0.889651 10.7055 1.09706 10.7055 1.32332V10.7415H1.29455C1.06182 10.7415 0.848485 10.7981 0.654546 10.9112C0.460606 11.0243 0.30303 11.1775 0.181819 11.3708C0.060606 11.5641 0 11.7738 0 12.0001C0 12.2358 0.0606062 12.4503 0.181819 12.6435C0.303031 12.8368 0.460607 12.99 0.654546 13.1031C0.848486 13.2163 1.06182 13.2728 1.29455 13.2728H10.7055V22.6769C10.7055 22.9031 10.7636 23.1082 10.88 23.292C10.9964 23.4758 11.1539 23.6243 11.3527 23.7375C11.5515 23.8506 11.7673 23.9072 12 23.9072Z" fill="#20DFE9"/>
</g>
<defs>
<clipPath id="clip0">
<rect width="24" height="24" fill="white"/>
</clipPath>
</defs>
</svg>
