<svg width="24" height="24" viewBox="0 0 24 24" fill="none" xmlns="http://www.w3.org/2000/svg">
<g clip-path="url(#clip0)">
<path d="M22.7055 13.3755H13.3091H10.7055H1.29455C1.06182 13.3755 0.848486 13.3185 0.654546 13.2045C0.460607 13.0905 0.303031 12.9361 0.181818 12.7413C0.0606062 12.5466 0 12.3304 0 12.0929C0 11.8648 0.060606 11.6534 0.181818 11.4587C0.30303 11.2639 0.460606 11.1095 0.654546 10.9955C0.848485 10.8815 1.06182 10.8245 1.29455 10.8245H10.7055H13.3091H22.7055C22.9382 10.8245 23.1539 10.8815 23.3527 10.9955C23.5515 11.1095 23.7091 11.2639 23.8255 11.4587C23.9418 11.6534 24 11.8648 24 12.0929C24 12.3304 23.9418 12.5466 23.8255 12.7413C23.7091 12.9361 23.5515 13.0905 23.3527 13.2045C23.1539 13.3185 22.9382 13.3755 22.7055 13.3755Z" fill="#20DFE9"/>
</g>
<defs>
<clipPath id="clip0">
<rect width="24" height="24" fill="white"/>
</clipPath>
</defs>
</svg>
