<svg width="48" height="48" viewBox="0 0 48 48" fill="none" xmlns="http://www.w3.org/2000/svg">
<path d="M9.75 22.125V25.875C9.75 26.4963 10.2537 27 10.875 27H13.5V21H10.875C10.2537 21 9.75 21.5037 9.75 22.125H9.75ZM28.875 21H21V27H28.875C29.4963 27 30 26.4963 30 25.875V22.125C30 21.5037 29.4963 21 28.875 21Z" fill="#8F0034"/>
<path d="M13.5 39V14.8125C13.5 7.94438 18.9375 3 26.6184 3C31.1794 3 34.605 5.115 36.1416 6.27469C36.6365 6.65012 36.7334 7.35562 36.3581 7.85063C36.3524 7.85914 36.3461 7.86728 36.3394 7.875L33.6684 11.2041C33.3125 11.6481 32.681 11.7563 32.1975 11.4563C31.0941 10.7672 29.01 9.68906 26.7928 9.68906C23.3025 9.68906 21 12.0159 21 15.0403V38.8922H32.4853V34.125C32.4853 33.5037 32.989 33 33.6103 33H37.875C38.4963 33 39 33.5037 39 34.125V43.875C39 44.4963 38.4963 45 37.875 45H10.125H10.125C9.50368 45 9 44.4963 9 43.875V40.125H9C9 39.5037 9.50368 39 10.125 39H13.5Z" fill="#FF035E"/>
</svg>
