<svg xmlns="http://www.w3.org/2000/svg" viewBox="0 0 84.94 76"><defs><style>.cls-1{fill:#2f455e;}</style></defs><g id="Layer_2" data-name="Layer 2"><g id="lotus_therapy_meditation_relax" data-name="lotus, therapy, meditation, relax"><path class="cls-1" d="M81.65,47.43c.46-.81,4.44-8,3-10.5-1.17-2-6.8-2.72-11.47-2.65C75.2,23.81,73.08,14,70.91,12.7c-2.33-1.35-9.46,1.54-15.12,5.26C52,7.57,45.06,0,42.45,0S32.94,7.57,29.11,18C23.45,14.24,16.32,11.35,14,12.7S9.56,23.75,11.69,34.28C7,34.23,1.45,34.91.29,36.93-1.2,39.51,3.14,50.4,11.61,57.5c-3.41,1.85-5.16,4-5.16,6.5,0,7.88,18.11,12,36,12s36-4.12,36-12c0-2.47-1.74-4.64-5.14-6.48A37.08,37.08,0,0,0,81.65,47.43Zm-.79-8.34A31.64,31.64,0,0,1,67,57.05a32.1,32.1,0,0,1-14.47,3.81c.34-.18.75-.37,1-.53A40.45,40.45,0,0,0,69,45.62a34.73,34.73,0,0,0,3.12-7.29A28.65,28.65,0,0,1,80.86,39.09ZM68.79,16.38c1.13,3,3.27,16-3.24,27.24-4.3,7.46-11.13,12-16.18,14.38,4.44-6,9.08-15.64,9.08-26a38.9,38.9,0,0,0-1.4-10.06A34.05,34.05,0,0,1,68.79,16.38ZM42.45,4.21c2.82,2.1,12,13.79,12,27.79s-9.18,25.69-12,27.79c-2.82-2.1-12-13.79-12-27.79S39.63,6.31,42.45,4.21ZM16.11,16.38a34.05,34.05,0,0,1,11.74,5.56A38.9,38.9,0,0,0,26.45,32c0,10.37,4.64,20.06,9.08,26-5.05-2.38-11.88-6.92-16.18-14.38C12.84,32.35,15,19.39,16.11,16.38ZM4,39.09a28.75,28.75,0,0,1,8.69-.76,36.39,36.39,0,0,0,3.16,7.29A40.45,40.45,0,0,0,31.31,60.33c.29.16.69.35,1,.53a32.23,32.23,0,0,1-14.47-3.81A31.69,31.69,0,0,1,4,39.09ZM74.45,64c0,2.79-11,8-32,8s-32-5.21-32-8c0-.85,1.32-2.33,4.87-3.84.19.12.37.25.56.36,5.75,3.32,12.83,4.4,18.57,4.4a33,33,0,0,0,8-.86,33,33,0,0,0,8,.86c5.74,0,12.82-1.08,18.57-4.4.2-.11.34-.26.53-.37C73.12,61.66,74.45,63.14,74.45,64Z"/></g></g></svg>