<svg xmlns="http://www.w3.org/2000/svg" viewBox="0 0 233.12 190.19"><defs><style>.cls-r3{fill:#2f455e;}</style></defs><g id="Layer_2" data-name="Layer 2"><g id="icons"><path class="cls-r3" d="M154.79,189.94a32,32,0,0,1-20.17-7.17L1.77,74.67A4.11,4.11,0,0,1,.5,70.06l9.72-26.27L62,1.18a4.17,4.17,0,0,1,5.76.49,21.77,21.77,0,0,1,5,17.7l-.93,5.79a22.23,22.23,0,0,0,32.11,23.28l23.13-11.89a4.54,4.54,0,0,1,6.51,3l6,26.44L184,141.85l33,9.27a17.65,17.65,0,0,1,9.51,6.65l4.39,6.09a10.43,10.43,0,0,1-.33,12.6,33.22,33.22,0,0,1-25.29,12.45l-49.85,1ZM7.79,70.55,139,177.34a24.94,24.94,0,0,0,16.26,5.59l49.85-1a26.22,26.22,0,0,0,20-9.83,3.41,3.41,0,0,0,.11-4.13l-4.39-6.08a10.62,10.62,0,0,0-5.73-4l-35.76-10L133,68.61l-5.57-24.39L107.14,54.66a29.23,29.23,0,0,1-42.22-30.6l.93-5.8a14.77,14.77,0,0,0-1.79-9.72L16.13,48Zm58.64-64h0Z"/><path class="cls-r3" d="M154.79,190.19A32.32,32.32,0,0,1,134.46,183L1.61,74.87A4.36,4.36,0,0,1,.27,70L10,43.64l.05,0L61.81,1a4.4,4.4,0,0,1,6.1.52A22,22,0,0,1,73,19.41l-.93,5.79a22,22,0,0,0,31.75,23L127,36.32a4.79,4.79,0,0,1,6.86,3.2l6,26.39,44.28,75.72,32.94,9.25a17.89,17.89,0,0,1,9.65,6.75l4.39,6.08a10.68,10.68,0,0,1-.33,12.91,33.47,33.47,0,0,1-25.49,12.54l-49.85,1ZM10.43,43.94.74,70.14a3.86,3.86,0,0,0,1.19,4.34L134.78,182.57a31.63,31.63,0,0,0,20.65,7.11l49.85-1a33,33,0,0,0,25.11-12.35,10.19,10.19,0,0,0,.32-12.3l-4.39-6.09a17.47,17.47,0,0,0-9.38-6.56l-33.14-9.3-.05-.09L139.38,66.1v0l-6-26.43a4.29,4.29,0,0,0-6.15-2.86L104.06,48.66A22.48,22.48,0,0,1,71.59,25.12l.92-5.79a21.47,21.47,0,0,0-5-17.49,3.9,3.9,0,0,0-5.41-.46ZM154.81,183.19a25.24,25.24,0,0,1-15.93-5.66L7.49,70.63l8.43-22.79L64.12,8.16l.15.25A15.1,15.1,0,0,1,66.1,18.3l-.93,5.79A29,29,0,0,0,107,54.44l20.6-10.59,5.64,24.67,46.25,79.09,35.66,10a10.92,10.92,0,0,1,5.87,4.1l4.39,6.09a3.68,3.68,0,0,1-.12,4.43,26.52,26.52,0,0,1-20.17,9.92l-49.85,1ZM8.08,70.47,139.19,177.14a24.85,24.85,0,0,0,16.1,5.54l49.85-1a26,26,0,0,0,19.79-9.74,3.15,3.15,0,0,0,.1-3.82L220.64,162a10.38,10.38,0,0,0-5.59-3.91L179.19,148l-.05-.09L132.79,68.71v0l-5.5-24.08-20,10.29A29.47,29.47,0,0,1,64.68,24l.92-5.8A14.52,14.52,0,0,0,64,8.92L16.34,48.14ZM66.57,6.79l-.32-.39.09.09-.08-.09.34.36Z"/><path class="cls-r3" d="M198.92,169.8h0l-48.12-.21L10.88,48.21a3.5,3.5,0,0,1,4.59-5.29L153.41,162.6l45.52.2a3.5,3.5,0,0,1,0,7Z"/><path class="cls-r3" d="M198.92,170.05h0l-48.21-.21-.07-.06L10.72,48.4a3.75,3.75,0,1,1,4.91-5.67L153.5,162.35l45.44.2a3.75,3.75,0,0,1,0,7.5Zm-48-.71,48,.21,0,.25v-.25a3.25,3.25,0,0,0,0-6.5l-45.61-.2-.07-.06L15.3,43.11A3.25,3.25,0,0,0,11,48Z"/><path class="cls-r3" d="M123.92,189.6h-113a3.5,3.5,0,1,1,0-7h113a3.5,3.5,0,0,1,0,7Z"/><path class="cls-r3" d="M123.92,189.85h-113a3.75,3.75,0,1,1,0-7.5h113a3.75,3.75,0,0,1,0,7.5Zm-113-7a3.25,3.25,0,1,0,0,6.5h113a3.25,3.25,0,0,0,0-6.5Z"/><path class="cls-r3" d="M125.92,92.6h-62a3.5,3.5,0,1,1,0-7h62a3.5,3.5,0,0,1,0,7Z"/><path class="cls-r3" d="M125.92,92.85h-62a3.75,3.75,0,1,1,0-7.5h62a3.75,3.75,0,0,1,0,7.5Zm-62-7a3.25,3.25,0,1,0,0,6.5h62a3.25,3.25,0,0,0,0-6.5Z"/><path class="cls-r3" d="M130.92,118.6h-36a3.5,3.5,0,1,1,0-7h36a3.5,3.5,0,0,1,0,7Z"/><path class="cls-r3" d="M130.92,118.85h-36a3.75,3.75,0,1,1,0-7.5h36a3.75,3.75,0,0,1,0,7.5Zm-36-7a3.25,3.25,0,1,0,0,6.5h36a3.25,3.25,0,0,0,0-6.5Z"/><path class="cls-r3" d="M135.92,144.6h-10a3.5,3.5,0,1,1,0-7h10a3.5,3.5,0,0,1,0,7Z"/><path class="cls-r3" d="M135.92,144.85h-10a3.75,3.75,0,1,1,0-7.5h10a3.75,3.75,0,0,1,0,7.5Zm-10-7a3.25,3.25,0,1,0,0,6.5h10a3.25,3.25,0,0,0,0-6.5Z"/></g></g></svg>