<svg xmlns="http://www.w3.org/2000/svg" viewBox="0 0 80 80"><defs><style>.cls-r5{fill:#2f455e;}</style></defs><g id="Layer_2" data-name="Layer 2"><g id="yin_yang_balance_zen" data-name="yin, yang, balance, zen"><path class="cls-r5" d="M40,0a40,40,0,0,0,0,80h0A40,40,0,0,0,40,0ZM4,40A36.06,36.06,0,0,1,29.15,5.68,23.87,23.87,0,0,0,22,22c0,9.53,7.41,17.92,17.61,20C49.05,43.85,54,51.46,54,58c0,7.33-5.71,16.26-14.22,18A36,36,0,0,1,4,40ZM50.85,74.32A23.87,23.87,0,0,0,58,58c0-9.53-7.41-17.92-17.61-20C31,36.15,26,28.54,26,22c0-7.33,5.71-16.26,14.22-18A36,36,0,0,1,50.85,74.32Z"/><path class="cls-r5" d="M40,66a6,6,0,1,0-6-6A6,6,0,0,0,40,66Zm0-8a2,2,0,1,1-2,2A2,2,0,0,1,40,58Z"/><path class="cls-r5" d="M40,14a6,6,0,1,0,6,6A6,6,0,0,0,40,14Zm0,8a2,2,0,1,1,2-2A2,2,0,0,1,40,22Z"/></g></g></svg>