<svg xmlns="http://www.w3.org/2000/svg" viewBox="0 0 237.39 188.39"><defs><style>.cls-r2{fill:#2f455e;stroke:#2f455e;stroke-miterlimit:10;stroke-width:2px;}</style></defs><g id="Layer_2" data-name="Layer 2"><g id="icons"><path class="cls-r2" d="M40.5,155.1H4.5a3.5,3.5,0,0,1,0-7h36a3.5,3.5,0,0,1,0,7Z"/><path class="cls-r2" d="M40.27,153.59A32.16,32.16,0,0,1,8.1,121.43a3.5,3.5,0,0,1,7,0,25.16,25.16,0,0,0,25.17,25.16,3.5,3.5,0,1,1,0,7Z"/><path class="cls-r2" d="M11.6,187.39a3.5,3.5,0,0,1-3.5-3.5,32.16,32.16,0,0,1,32.17-32.16,3.5,3.5,0,1,1,0,7A25.16,25.16,0,0,0,15.1,183.89,3.49,3.49,0,0,1,11.6,187.39Z"/><path class="cls-r2" d="M83.38,178.16q-10.45,0-20.9-.34l-.74,0a25.83,25.83,0,0,1,.8-51.64A679.2,679.2,0,0,1,210,137.48l17.6,3.31A10.82,10.82,0,0,1,227.7,162l-17.86,3.58A643.87,643.87,0,0,1,83.38,178.16Zm-20.78-45A18.83,18.83,0,0,0,62,170.8l.74,0a636,636,0,0,0,145.76-12.07l17.85-3.58a3.82,3.82,0,0,0,0-7.5l-17.6-3.31a672.72,672.72,0,0,0-146-11.2Z"/><path class="cls-r2" d="M209.72,125.21a3.36,3.36,0,0,1-1.31-.26,3.5,3.5,0,0,1-1.93-4.56A62.79,62.79,0,1,0,87,110.43a3.5,3.5,0,0,1-6.83,1.51A69.79,69.79,0,1,1,213,123,3.52,3.52,0,0,1,209.72,125.21Z"/><path class="cls-r2" d="M208.39,46.25a3.5,3.5,0,0,1-2-6.35c10.44-7.45,13-23.43,13.55-29.79-6.2-1.51-22.14-4.32-32.58,3.13a47.56,47.56,0,0,0-10.41,10.07,3.5,3.5,0,1,1-5.61-4.18,54.49,54.49,0,0,1,12-11.58c16-11.44,40.37-3.73,41.4-3.4l2.47.8,0,2.59c0,1.08-.64,26.62-16.66,38.06A3.5,3.5,0,0,1,208.39,46.25Z"/><path class="cls-r2" d="M127.69,71.69a3.51,3.51,0,0,1-2.48-6L126,65a3.5,3.5,0,0,1,5,5l-.75.75A3.5,3.5,0,0,1,127.69,71.69Z"/><path class="cls-r2" d="M141.14,53.74a3.5,3.5,0,0,1-2.47-6l1.49-1.5a3.5,3.5,0,0,1,5,4.95l-1.49,1.5A3.51,3.51,0,0,1,141.14,53.74Z"/><path class="cls-r2" d="M165.81,56a3.51,3.51,0,0,1-2.47-6l1.49-1.49a3.5,3.5,0,0,1,4.95,4.95L168.29,55A3.52,3.52,0,0,1,165.81,56Z"/><path class="cls-r2" d="M142.64,88.13a3.5,3.5,0,0,1-2.48-6l.75-.75a3.5,3.5,0,0,1,5,5l-.75.75A3.49,3.49,0,0,1,142.64,88.13Z"/><path class="cls-r2" d="M169.55,74.68a3.46,3.46,0,0,1-2.47-1,3.49,3.49,0,0,1,0-5l.75-.75a3.5,3.5,0,0,1,4.94,5l-.74.74A3.48,3.48,0,0,1,169.55,74.68Z"/><path class="cls-r2" d="M149.37,69.44a3.5,3.5,0,0,1-2.48-6l1.5-1.5a3.5,3.5,0,1,1,5,5l-1.5,1.5A3.49,3.49,0,0,1,149.37,69.44Z"/><path class="cls-r2" d="M43.77,122.9a3.16,3.16,0,0,1-.91-.12c-11.15-3-20-8-26.4-14.85-8-8.62-12.82-21.34-14-36.78A96.44,96.44,0,0,1,3.1,50.4l.44-2.68,2.71-.24a96.17,96.17,0,0,1,20.74,1c15.3,2.34,27.61,8.14,35.6,16.77a45.12,45.12,0,0,1,6.79,9.65,3.5,3.5,0,1,1-6.18,3.27A38.4,38.4,0,0,0,57.46,70c-13.94-15-39.35-15.82-47.79-15.63-.84,8.41-2,33.79,11.93,48.85,5.45,5.89,13.22,10.21,23.07,12.84a3.5,3.5,0,0,1-.9,6.88Z"/><path class="cls-r2" d="M49,46.94a3.79,3.79,0,0,1-.58,0,3.51,3.51,0,0,1-2.88-4C49.14,21.5,64.85,4,65.51,3.26l1.83-2,2.41,1.27c.64.34,15.75,8.47,26.83,22.54a3.5,3.5,0,1,1-5.5,4.33c-7.66-9.73-17.65-16.48-22.19-19.26C64.81,15.23,55,28.78,52.45,44A3.51,3.51,0,0,1,49,46.94Z"/><path class="cls-r2" d="M55.51,103.81a3.49,3.49,0,0,1-2.48-1L21.34,70.89a3.5,3.5,0,1,1,5-4.93L58,97.84a3.51,3.51,0,0,1-2.49,6Z"/><path class="cls-r2" d="M39.8,86.9a3.5,3.5,0,0,1-3.5-3.39l-.49-16a3.5,3.5,0,0,1,7-.22l.49,16a3.51,3.51,0,0,1-3.39,3.61Z"/><path class="cls-r2" d="M75.69,66.88a3.5,3.5,0,0,1-3.48-3.19L68.62,23.28a3.5,3.5,0,0,1,7-.61l3.58,40.4A3.51,3.51,0,0,1,76,66.87Z"/><path class="cls-r2" d="M73.41,59.63a3.51,3.51,0,0,1-1.91-.56L57.54,50a3.5,3.5,0,0,1,3.82-5.86l14,9.1a3.5,3.5,0,0,1-1.91,6.43Z"/><path class="cls-r2" d="M74.55,46.08a3.5,3.5,0,0,1-2.76-5.65l8.9-11.38a3.5,3.5,0,1,1,5.51,4.31L77.31,44.74A3.5,3.5,0,0,1,74.55,46.08Z"/><path class="cls-r2" d="M30.09,100.54a3.5,3.5,0,0,1-.27-7l18.9-1.49a3.5,3.5,0,0,1,.55,7l-18.91,1.49Z"/></g></g></svg>