<svg xmlns="http://www.w3.org/2000/svg" viewBox="0 0 80 80"><defs><style>.cls-r4{fill:#2f455e;}</style></defs><g id="Layer_2" data-name="Layer 2"><g id="spa_wellness_therapy_treatment" data-name="spa, wellness, therapy, treatment"><path class="cls-r4" d="M70,52H26A10,10,0,0,0,16,62v8A10,10,0,0,0,26,80H70A10,10,0,0,0,80,70V62A10,10,0,0,0,70,52Zm6,18a6,6,0,0,1-6,6H26a6,6,0,0,1-6-6V62a6,6,0,0,1,6-6H54a6,6,0,0,1,6,6,2,2,0,0,1-2,2H34a2,2,0,0,0,0,4H58a6,6,0,0,0,6-6,9.9,9.9,0,0,0-2-6h8a6,6,0,0,1,6,6Z"/><path class="cls-r4" d="M12,76H4V28H28V46a2,2,0,0,0,4,0V26a2,2,0,0,0-2-2H18V19.72A8,8,0,0,0,24,12c0-3.58-4.18-12-8-12S8,8.42,8,12a8,8,0,0,0,6,7.72V24H2a2,2,0,0,0-2,2V78a2,2,0,0,0,2,2H12a2,2,0,0,0,0-4Zm0-64c0-2.26,2.63-6.78,4-7.86,1.37,1.08,4,5.6,4,7.86a4,4,0,0,1-8,0Z"/><path class="cls-r4" d="M54,44h8A14,14,0,0,0,76,30a2,2,0,0,0-2-2H70a13.84,13.84,0,0,0-4.19.71c-.92-4.36-6.06-7.95-6.7-8.37a2,2,0,0,0-2.22,0c-.64.42-5.78,4-6.7,8.37A13.84,13.84,0,0,0,46,28H42a2,2,0,0,0-2,2A14,14,0,0,0,54,44ZM71.8,32A10,10,0,0,1,62,40H60.2A10,10,0,0,1,70,32ZM54,30c0-1.78,2.26-4.1,4-5.51,1.75,1.4,4,3.72,4,5.51,0,.19,0,.38,0,.56a14.09,14.09,0,0,0-4,4.34,14.09,14.09,0,0,0-4-4.34C54,30.38,54,30.19,54,30Zm-8,2a10,10,0,0,1,9.8,8H54a10,10,0,0,1-9.8-8Z"/></g></g></svg>