<svg xmlns="http://www.w3.org/2000/svg" viewBox="0 0 24 19.5"><defs><style>.cls-1{fill:#7ba2b5;}</style></defs><g id="Layer_2" data-name="Layer 2"><g id="Layer_1-2" data-name="Layer 1"><path class="cls-1" d="M24,2.31a9.56,9.56,0,0,1-2.83.77A4.9,4.9,0,0,0,23.34.36a10.22,10.22,0,0,1-3.13,1.2,4.92,4.92,0,0,0-8.39,4.49A14,14,0,0,1,1.67.9,4.94,4.94,0,0,0,3.19,7.48,5,5,0,0,1,1,6.86a4.94,4.94,0,0,0,4,4.89,4.86,4.86,0,0,1-2.22.08,4.93,4.93,0,0,0,4.6,3.42,9.86,9.86,0,0,1-7.29,2A13.92,13.92,0,0,0,7.55,19.5a13.92,13.92,0,0,0,14-14.64A10.11,10.11,0,0,0,24,2.31"/></g></g></svg>