<svg width="32" height="33" viewBox="0 0 32 33" fill="none" xmlns="http://www.w3.org/2000/svg">
<path d="M28.7107 9.97966C28.7311 10.264 28.7311 10.5484 28.7311 10.8328C28.7311 19.5062 22.1321 29.5 10.0711 29.5C6.35534 29.5 2.90357 28.4234 0 26.5547C0.52794 26.6156 1.0355 26.6359 1.58376 26.6359C4.64971 26.6359 7.47209 25.6 9.72591 23.8328C6.84265 23.7719 4.42639 21.8828 3.59389 19.2828C4.00002 19.3437 4.40608 19.3843 4.83252 19.3843C5.42133 19.3843 6.01021 19.3031 6.5584 19.1609C3.55333 18.5515 1.29944 15.9109 1.29944 12.7219V12.6406C2.17251 13.1281 3.18783 13.4328 4.26389 13.4734C2.49738 12.2953 1.34007 10.2843 1.34007 8.00933C1.34007 6.7906 1.66488 5.67341 2.23345 4.69841C5.4619 8.67965 10.3147 11.2796 15.7563 11.564C15.6548 11.0765 15.5939 10.5688 15.5939 10.0609C15.5939 6.44528 18.5178 3.5 22.1523 3.5C24.0406 3.5 25.7462 4.29219 26.9442 5.57187C28.4264 5.28751 29.8477 4.73905 31.1066 3.9875C30.6192 5.51098 29.5837 6.79066 28.2234 7.60311C29.5432 7.46099 30.8224 7.09528 32 6.58752C31.1067 7.88747 29.9899 9.04524 28.7107 9.97966Z" fill="white"/>
</svg>
