<svg width="48" height="48" viewBox="0 0 48 48" fill="none" xmlns="http://www.w3.org/2000/svg">
<g clip-path="url(#clip0)">
<path d="M18.975 38.4001L24.4425 23.3723L28.95 25.0126L24.0795 38.4001H18.975Z" fill="#8F0034"/>
<path d="M18.5723 18.6796L36.4575 25.1919C39.1395 16.0884 37.86 7.81736 33.261 6.14186C32.7059 5.94082 32.1197 5.83926 31.5292 5.84186C27.1777 5.84486 21.909 11.0311 18.5723 18.6796ZM8.6535 15.0676L16.3118 17.8561C18.951 11.7406 22.7775 7.03511 26.7367 4.82936L26.7368 4.82936C19.5386 4.46923 12.6055 7.58828 8.1 13.2136C7.59525 13.8436 7.8975 14.7924 8.6535 15.0676H8.6535ZM39.1102 9.33762L39.1103 9.33762C39.6122 10.6705 39.9448 12.0611 40.1003 13.4769C40.5308 17.2186 39.9938 21.5941 38.679 26.0019L46.3755 28.8001C47.1323 29.0754 47.9738 28.5429 47.9933 27.7374V27.7374C48.1556 20.5342 44.8517 13.6905 39.1103 9.33762L39.1102 9.33762ZM42 38.4001H1.2C0.537258 38.4001 0 38.9374 0 39.6001V42.0001H0C-1.00071e-07 42.6629 0.537258 43.2001 1.2 43.2001H42C42.6627 43.2001 43.2 42.6629 43.2 42.0001V39.6001C43.2 38.9374 42.6627 38.4001 42 38.4001Z" fill="#FF035E"/>
</g>
<defs>
<clipPath id="clip0">
<rect width="48" height="48" fill="white"/>
</clipPath>
</defs>
</svg>
