<svg width="2521" height="143" fill="none" xmlns="http://www.w3.org/2000/svg">
  <path fill-rule="evenodd" clip-rule="evenodd" d="M2229.26 116.549c-3.36 3.369-6.94 5.451-10.76 5.451-7.41 0-13.93-5.87-19.9-14.084-5.84-8.0451-11.4-18.6767-16.95-29.2895l-.47-.9132c-5.73-10.9562-11.46-21.8159-17.55-29.9417-6.13-8.1755-12.4-13.2716-19.13-13.2716-3.76 0-8.08 2.3576-12.98 6.1934-3.9 3.0553-8.01 6.9264-12.34 10.9977-1.07 1.0044-2.15 2.021-3.25 3.0405-5.5 5.1266-11.31 10.3048-17.29 14.2003-5.98 3.8928-12.24 6.5681-18.64 6.5681-7.04 0-13.58-.5033-19.71-1.0033l-1.09-.0892c-5.72-.4692-11.07-.9075-16.2-.9075-2.61 0-6.16.6887-10.33 1.7651-3.5.9061-7.38 2.0677-11.41 3.2759-.73.2213-1.48.4441-2.22.6672C2009.45 82.0707 1999.18 85 1991.5 85c-6.59 0-12.75-3.3268-18.59-8.1174-5.85-4.7944-11.51-11.1713-17.1-17.4694l-.13-.155c-5.56-6.2757-11.04-12.4605-16.64-17.0977-5.64-4.6804-11.26-7.6605-17.04-7.6605-7.59 0-14.28 4.3234-20.61 11.0896-6.34 6.7645-12.16 15.8056-18.05 24.9517l-.03.0531c-5.85 9.0866-11.77 18.2732-18.24 25.1827-6.48 6.9209-13.66 11.7229-22.07 11.7229-3.26 0-6.52-1.264-9.74-3.363-3.22-2.101-6.47-5.0766-9.71-8.5999-6.35-6.8896-12.84-16.0106-19.31-25.1078l-.43-.5996c-6.64-9.3271-13.25-18.5793-19.76-25.5043-3.25-3.4598-6.44-6.3044-9.56-8.2792-3.12-1.9752-6.12-3.0462-8.99-3.0462-5.87 0-11.94 3.5049-18.31 9.051-5.88 5.1203-11.85 11.8312-17.98 18.7221-.49.5465-.98 1.094-1.46 1.642-6.62 7.4289-13.42 14.9282-20.4 20.566-6.97 5.6299-14.26 9.5189-21.85 9.5189-4.18 0-8.99-2.238-14.09-5.3832-3.96-2.4455-8.24-5.5237-12.67-8.7191-1.3-.9387-2.62-1.8875-3.95-2.8334-5.87-4.1842-11.97-8.3333-18.12-11.4373-6.15-3.1059-12.27-5.127-18.17-5.127-6.05 0-14.71 2.4231-23.67 4.928l-.12.035C1585.82 66.4477 1576.67 69 1570 69c-3.4 0-7.33-.8793-11.53-2.1523-3.47-1.0511-7.2-2.3914-11.03-3.7715-.82-.2939-1.64-.5895-2.46-.8846-9.46-3.383-19.43-6.6916-28.48-6.6916-10.81 0-19.99 4.6683-28.07 11.782-8.1 7.1254-15.04 16.6556-21.34 26.2664-2.11 3.2133-4.15 6.4444-6.14 9.5936-3.93 6.218-7.66 12.116-11.29 16.93-2.75 3.637-5.5 6.725-8.3 8.909-2.81 2.186-5.75 3.519-8.86 3.519-3.3 0-6.21-2.247-8.81-5.683-2.61-3.467-5.07-8.366-7.43-14.159-4.71-11.582-9.09-26.9996-13.46-42.3425l-.01-.0418c-4.38-15.3933-8.74-30.7087-13.4-42.1784-2.34-5.7386-4.72-10.4483-7.18-13.7076-2.48-3.2906-4.88-4.8877-7.21-4.8877-2.29 0-4.65 1.7069-7.09 5.2988-2.42 3.5451-4.72 8.6655-6.96 14.8984-4.47 12.456-8.57 29.0867-12.67 45.7911l-.14.6047c-4.04 16.469-8.09 32.96-12.49 45.381-2.22 6.282-4.56 11.59-7.06 15.345-2.47 3.702-5.3 6.181-8.59 6.181-3.3 0-6.19-2.579-8.76-6.417-2.6-3.901-5.08-9.419-7.48-15.958-4.78-13.088-9.29-30.5161-13.73-47.8775l-.63-2.461c-4.22-16.5574-8.39-32.8707-12.67-45.2403-2.25-6.4961-4.52-11.842-6.81-15.54708-1.15-1.85265-2.28-3.2489-3.38-4.17285C1265.45 4.40622 1264.44 4 1263.5 4c-.95 0-1.95.40181-3.04 1.30651-1.09.90914-2.2 2.28337-3.34 4.1079-2.26 3.64919-4.49 8.91579-6.7 15.31789-4.15 12.0453-8.17 27.8848-12.25 44.0042l-.76 3.0094c-4.34 17.1116-8.78 34.2911-13.54 47.1941-2.38 6.446-4.87 11.889-7.5 15.738-2.59 3.794-5.53 6.322-8.87 6.322-3.32 0-6.29-2.431-8.94-6.108-2.69-3.724-5.25-8.991-7.71-15.228-4.93-12.483-9.57-29.1006-14.06-45.6518-.45-1.6195-.88-3.2384-1.32-4.8528-4.04-14.9168-7.98-29.454-11.94-40.622-2.2-6.1929-4.38-11.2879-6.56-14.8185-1.1-1.7657-2.16-3.0937-3.18-3.97074C1152.76 8.87364 1151.84 8.5 1151 8.5c-.86 0-1.8.36054-2.84 1.18231-1.04.82439-2.13 2.07079-3.24 3.72629-2.24 3.3114-4.49 8.0926-6.75 13.9075-4.53 11.6196-9.02 27.1336-13.46 42.7081l-.76 2.6806c-4.18 14.6463-8.31 29.1452-12.37 40.1872-2.16 5.853-4.31 10.793-6.47 14.285-1.08 1.745-2.19 3.174-3.34 4.178-1.15 1.002-2.41 1.645-3.77 1.645-1.31 0-2.56-.522-3.75-1.371s-2.36-2.062-3.52-3.548c-2.31-2.97-4.67-7.168-7.04-12.135-4.74-9.943-9.63-23.1773-14.38-36.3571-.66-1.8304-1.32-3.6596-1.97-5.4791-4.06-11.3089-7.98-22.2426-11.6-30.7331-2.11-4.9319-4.09-8.9888-5.91-11.7993-.91-1.4073-1.76-2.4586-2.53-3.1477-.78-.6999-1.37-.9297-1.8-.9297-.52 0-1.16.2028-1.93.7036-.77.4993-1.62 1.258-2.53 2.2731-1.82 2.0313-3.81 4.9718-5.93 8.5619-4.22 7.1745-8.83 16.7565-13.46 26.3945l-.01.0322c-4.62 9.6014-9.26 19.2559-13.53 26.5108-2.13 3.6287-4.21 6.7038-6.16 8.8839-.98 1.09-1.958 1.985-2.927 2.614-.967.627-1.984 1.026-3.023 1.026-1.884 0-3.801-.933-5.683-2.35-1.898-1.43-3.88-3.4445-5.912-5.8112-3.559-4.1468-7.374-9.4991-11.261-14.9517-.547-.7676-1.096-1.5371-1.645-2.3055-4.474-6.2571-9.013-12.4507-13.419-17.0797-2.201-2.313-4.339-4.2034-6.388-5.5104C949.639 55.182 947.74 54.5 946 54.5c-3.633 0-7.307 2.0224-11.13 5.3055-3.702 3.1796-7.388 7.4024-11.165 11.7278l-.327.3745c-3.864 4.4248-7.822 8.9258-11.895 12.314C907.42 87.6028 903.1 90 898.5 90c-4.556 0-8.951-2.107-13.187-5.1057-4.111-2.9096-8.193-6.7494-12.239-10.555l-.384-.3608c-4.198-3.9476-8.362-7.8302-12.585-10.7325-4.224-2.9032-8.397-4.746-12.605-4.746-4.212 0-8.482 1.8461-12.844 4.7539-4.357 2.9051-8.694 6.7911-13.047 10.737l-.586.5311c-4.133 3.7491-8.285 7.5142-12.397 10.3768C804.329 87.8903 799.933 90 795.5 90c-4.415 0-9.146-2.0958-13.949-5.0718-4.54-2.8135-9.281-6.5037-14.032-10.2021-.295-.229-.589-.4579-.883-.6867-5.07-3.9434-10.145-7.8407-15.097-10.7558-4.962-2.9218-9.681-4.7836-14.039-4.7836-4.375 0-9.82 1.9655-16.015 5.0514-5.368 2.6738-11.18 6.1249-17.202 9.701-.899.534-1.803 1.0707-2.711 1.6081-6.967 4.124-14.152 8.2761-21.108 11.3957C673.519 89.371 666.709 91.5 660.5 91.5c-6.367 0-11.915-3.2869-16.913-8.0073-4.996-4.7183-9.566-10.9861-13.964-17.1626-.344-.4834-.687-.9661-1.03-1.4476-4.058-5.7092-7.986-11.2357-12.055-15.4539C612.115 44.8433 607.706 42 603 42c-2.242 0-4.423 1.0004-6.599 2.9098-2.182 1.9145-4.294 4.6893-6.367 8.0946-4.107 6.7449-7.931 15.7389-11.805 24.8524l-.121.2845c-3.898 9.1665-7.85 18.4314-12.156 25.3997-2.154 3.487-4.43 6.454-6.877 8.559-2.454 2.11-5.137 3.4-8.075 3.4-2.999 0-5.739-1.582-8.238-4.098-2.501-2.519-4.861-6.072-7.119-10.255-4.515-8.3687-8.742-19.5001-12.892-30.5453l-.449-1.1978c-4.01-10.6762-7.955-21.181-12.058-29.1166-2.128-4.117-4.268-7.4801-6.438-9.8016C501.627 28.1551 499.537 27 497.5 27c-2.021 0-4.124 1.2003-6.334 3.6453-2.199 2.4311-4.374 5.9515-6.538 10.257-4.327 8.6074-8.493 20.1068-12.688 31.6882l-.017.0466c-4.175 11.5283-8.378 23.1344-12.764 31.8589-2.195 4.366-4.465 8.073-6.841 10.7-2.363 2.614-4.964 4.304-7.818 4.304-2.826 0-5.435-1.566-7.831-4.018-2.405-2.46-4.712-5.931-6.945-10.018-4.467-8.177-8.756-19.0541-12.968-29.8505-.165-.4235-.33-.8468-.495-1.2698-4.057-10.4004-8.046-20.6301-12.092-28.3645-2.106-4.026-4.198-7.3156-6.282-9.5862C395.788 34.1054 393.833 33 392 33c-1.895 0-3.915.983-6.079 2.9425-2.156 1.952-4.351 4.779-6.58 8.2397-4.46 6.9219-8.932 16.1723-13.441 25.5029l-.021.0436c-4.484 9.2801-9.005 18.6365-13.538 25.6723-2.271 3.5236-4.576 6.517-6.92 8.639-2.336 2.115-4.816 3.46-7.421 3.46-2.542 0-5.029-1.093-7.427-2.859-2.401-1.767-4.787-4.263-7.149-7.202-4.722-5.8746-9.476-13.6865-14.155-21.4215l-.383-.6338c-4.567-7.5522-9.06-14.9821-13.439-20.5801-2.25-2.8756-4.436-5.224-6.55-6.8462-2.119-1.6266-4.08-2.4574-5.897-2.4574-1.861 0-3.826.7259-5.912 2.1105-2.085 1.3841-4.232 3.3866-6.438 5.8395-4.178 4.6447-8.448 10.7665-12.823 17.0381-.252.361-.504.7226-.757 1.0843-4.616 6.6126-9.346 13.302-14.126 18.335C238.202 94.8999 233.196 98.5 228 98.5c-5.183 0-10.029-3.3954-14.608-8.1162-4.37-4.5052-8.686-10.4212-12.999-16.3335-.233-.3203-.467-.6406-.701-.9607-4.572-6.2631-9.148-12.4428-13.875-17.0619-4.744-4.6352-9.469-7.5277-14.317-7.5277-4.803 0-9.455 3.1841-14.101 8.3412-4.62 5.129-9.045 11.9925-13.428 18.9422-.34.5384-.679 1.0774-1.018 1.6161-4.014 6.3763-8.003 12.7114-12.027 17.5668C126.608 100.176 121.999 104 117 104c-2.555 0-5.063-1.151-7.479-2.998-2.422-1.8518-4.836-4.4656-7.225-7.5454-4.7765-6.1578-9.5754-14.344-14.2261-22.4594-.5031-.8778-1.0044-1.7547-1.5038-2.6283-4.1362-7.2357-8.1419-14.2429-11.9385-19.6371-2.1272-3.0222-4.1558-5.4893-6.0688-7.1918C66.6259 39.8197 64.9448 39 63.5 39c-1.3653 0-3.1015 1.0087-5.2212 3.253-2.0741 2.196-4.3272 5.3707-6.7341 9.2436-3.7062 5.9633-7.7013 13.4549-11.9038 21.3352-1.2566 2.3563-2.5317 4.7474-3.8232 7.1428-5.5921 10.372-11.4841 20.8104-17.4348 28.6604-2.9757 3.926-5.9959 7.245-9.03459 9.59C6.3142 120.567 3.1806 122 0 122v-2c2.5694 0 5.27955-1.161 8.1263-3.358 2.8422-2.194 5.7399-5.359 8.6627-9.215 5.8461-7.7121 11.6729-18.0236 17.2683-28.4016 1.2778-2.37 2.5439-4.7443 3.7951-7.0905 4.2093-7.8935 8.249-15.4688 11.9936-21.494 2.4289-3.9083 4.7657-7.218 6.9788-9.5611C58.9921 38.585 61.2403 37 63.5 37c2.1802 0 4.3272 1.2115 6.3885 3.046 2.0811 1.8522 4.2127 4.4632 6.3746 7.5347 3.8549 5.477 7.9112 12.5733 12.0365 19.7904.5009.8764 1.0028 1.7545 1.5055 2.6317 4.6618 8.1346 9.3942 16.1984 14.0709 22.2281 2.338 3.0139 4.631 5.4782 6.859 7.1817C112.969 101.12 115.055 102 117 102c4.001 0 8.08-3.1137 12.386-8.31 3.937-4.7493 7.856-10.9738 11.893-17.3851.332-.5284.666-1.0581 1-1.5883 4.367-6.9253 8.88-13.9368 13.634-19.2141 4.729-5.2491 9.89-9.0025 15.587-9.0025 5.652 0 10.864 3.3575 15.715 8.0973 4.866 4.7559 9.54 11.0762 14.093 17.3131.222.3049.445.6097.667.914 4.345 5.9557 8.583 11.766 12.852 16.1668C219.342 93.6454 223.683 96.5 228 96.5c4.304 0 8.798-3.0249 13.494-7.9699 4.657-4.9045 9.302-11.4651 13.936-18.1025.262-.3747.523-.7497.785-1.1246 4.347-6.2326 8.684-12.4502 12.948-17.1905 2.262-2.5159 4.537-4.654 6.819-6.1684C278.263 44.4303 280.611 43.5 283 43.5c2.433 0 4.816 1.1067 7.115 2.8708 2.304 1.7683 4.61 4.2637 6.907 7.2006 4.455 5.6948 9.002 13.2146 13.539 20.7171l.42.694c4.696 7.765 9.38 15.4531 14.002 21.2035 2.309 2.8734 4.571 5.222 6.776 6.845 2.207 1.625 4.283 2.469 6.241 2.469 1.895 0 3.915-.983 6.079-2.942 2.156-1.953 4.351-4.7795 6.58-8.2402 4.46-6.9219 8.932-16.1723 13.441-25.5029l.021-.0435c4.484-9.2802 9.005-18.6365 13.538-25.6724 2.271-3.5236 4.576-6.517 6.92-8.6391C386.915 32.3452 389.395 31 392 31c2.667 0 5.119 1.5977 7.361 4.0406 2.257 2.4599 4.444 5.928 6.58 10.0115 4.099 7.8353 8.124 18.1578 12.161 28.5092.172.4418.345.8836.517 1.3252 4.225 10.8286 8.467 21.5765 12.86 29.6185 2.197 4.022 4.402 7.309 6.62 9.579 2.227 2.279 4.352 3.416 6.401 3.416 2.021 0 4.124-1.2 6.334-3.645 2.199-2.431 4.374-5.952 6.538-10.257 4.327-8.6077 8.493-20.1071 12.688-31.6885l.017-.0468c4.175-11.5282 8.378-23.1342 12.764-31.8587 2.195-4.3664 4.465-8.0725 6.841-10.7001C492.045 26.6904 494.646 25 497.5 25c2.838 0 5.42 1.6105 7.767 4.1198 2.354 2.5183 4.593 6.0692 6.754 10.2491 4.158 8.0434 8.14 18.6467 12.129 29.2691l.474 1.2603c4.162 11.0798 8.342 22.0734 12.78 30.2987 2.219 4.113 4.472 7.474 6.777 9.796 2.308 2.324 4.568 3.507 6.819 3.507 2.312 0 4.551-1.007 6.771-2.916 2.227-1.915 4.376-4.69 6.48-8.094 4.21-6.8127 8.101-15.9228 12.016-25.1313l.161-.378c3.843-9.0407 7.715-18.1459 11.898-25.0164 2.122-3.4853 4.357-6.4527 6.756-8.5577C597.486 41.2965 600.117 40 603 40c5.544 0 10.448 3.3442 14.978 8.0401 4.178 4.3321 8.193 9.9814 12.225 15.6553.35.4916.699.9834 1.049 1.4745 4.414 6.1985 8.876 12.3057 13.708 16.8687 4.83 4.5608 9.907 7.4614 15.54 7.4614 5.791 0 12.294-1.996 19.146-5.0687 6.84-3.0679 13.937-7.1658 20.907-11.2918.903-.5348 1.805-1.0701 2.704-1.6038 6.014-3.5714 11.897-7.065 17.336-9.7746C726.82 58.6595 732.625 56.5 737.5 56.5c4.892 0 9.985 2.0757 15.054 5.0601 5.08 2.9912 10.255 6.9689 15.31 10.9005l.853.6636c4.78 3.7205 9.442 7.3488 13.888 10.1039C787.334 86.1583 791.665 88 795.5 88c3.817 0 7.796-1.8278 11.983-4.7426 4.004-2.7867 8.068-6.4723 12.236-10.2528l.547-.4955c4.334-3.9291 8.779-7.9181 13.281-10.9193 4.498-2.9984 9.165-5.0898 13.953-5.0898 4.792 0 9.369 2.0947 13.738 5.0977 4.371 3.004 8.645 6.9964 12.822 10.9238l.333.313c4.087 3.8438 8.081 7.5996 12.075 10.4274C890.576 86.1695 894.556 88 898.5 88c3.9 0 7.768-2.0403 11.704-5.3156 3.928-3.268 7.782-7.642 11.668-12.0922l.376-.4309c3.736-4.2798 7.506-8.598 11.319-11.873C937.495 54.9151 941.633 52.5 946 52.5c2.26 0 4.533.8805 6.767 2.3053 2.238 1.4274 4.502 3.4433 6.762 5.8178 4.517 4.746 9.133 11.0524 13.597 17.2953.552.7724 1.102 1.5438 1.649 2.3113 3.896 5.4649 7.652 10.734 11.148 14.8065 1.992 2.3208 3.866 4.2122 5.598 5.5168 1.749 1.317 3.238 1.947 4.479 1.947.523 0 1.162-.203 1.934-.704.77-.499 1.613-1.258 2.526-2.2727 1.82-2.0313 3.81-4.9718 5.93-8.5619 4.22-7.1745 8.83-16.7565 13.46-26.3945l.02-.0344c4.61-9.6006 9.25-19.2543 13.52-26.5086 2.13-3.6287 4.21-6.7038 6.16-8.8834.98-1.0903 1.96-1.986 2.93-2.6146.96-.6272 1.98-1.0259 3.02-1.0259 1.14 0 2.19.5944 3.14 1.4399.95.8563 1.91 2.0716 2.87 3.5491 1.92 2.9591 3.95 7.1443 6.07 12.103 3.64 8.5493 7.59 19.548 11.65 30.8496.65 1.8183 1.3 3.6445 1.96 5.4695 4.75 13.1952 9.61 26.3359 14.31 36.1739 2.35 4.924 4.63 8.968 6.81 11.767 1.09 1.4 2.12 2.453 3.1 3.15.97.696 1.83.998 2.59.998.7 0 1.51-.33 2.45-1.151.94-.82 1.93-2.066 2.96-3.725 2.05-3.317 4.15-8.104 6.29-13.923 4.04-10.966 8.15-25.3926 12.33-40.0674l.76-2.6578c4.43-15.5505 8.95-31.1615 13.51-42.8857 2.28-5.857 4.6-10.8023 6.96-14.2995 1.18-1.7487 2.39-3.17714 3.66-4.17652C1148.18 7.11212 1149.55 6.5 1151 6.5c1.47 0 2.84.66152 4.09 1.72792 1.24 1.06387 2.43 2.58258 3.58 4.43988 2.29 3.7155 4.53 8.972 6.74 15.201 3.99 11.2463 7.95 25.8639 11.99 40.7613.44 1.6173.87 3.2378 1.31 4.8577 4.51 16.5738 9.12 33.0812 14 45.4422 2.44 6.185 4.93 11.27 7.47 14.792 2.58 3.569 5.02 5.278 7.32 5.278 2.28 0 4.69-1.754 7.22-5.451 2.49-3.644 4.91-8.904 7.27-15.302 4.72-12.784 9.13-29.8545 13.48-46.9929l.77-3.0381c4.07-16.0863 8.11-32.0059 12.29-44.1358 2.22-6.4416 4.51-11.8782 6.89-15.72117 1.2-1.92157 2.45-3.4907 3.76-4.58839C1260.5 2.6685 1261.95 2 1263.5 2c1.56 0 3.01.67972 4.33 1.7958 1.32 1.11219 2.58 2.70226 3.79 4.6504 2.41 3.8965 4.73 9.41 7 15.9451 4.31 12.4511 8.49 28.838 12.71 45.3563l.64 2.5049c4.44 17.3886 8.93 34.7105 13.67 47.6855 2.38 6.492 4.79 11.833 7.27 15.534 2.51 3.763 4.89 5.528 7.09 5.528 2.21 0 4.52-1.693 6.93-5.291 2.36-3.547 4.63-8.668 6.84-14.902 4.36-12.329 8.39-28.7452 12.44-45.2756l.13-.5197c4.09-16.6706 8.21-33.4149 12.73-45.9901 2.25-6.2828 4.63-11.5921 7.18-15.3478 2.53-3.70883 5.41-6.1738 8.75-6.1738 3.3 0 6.21 2.24663 8.81 5.6826 2.61 3.4673 5.07 8.3669 7.43 14.1596 4.71 11.5823 9.09 26.9994 13.46 42.3424l.01.0417c4.38 15.3933 8.74 30.7087 13.4 42.1787 2.34 5.738 4.72 10.448 7.18 13.707 2.48 3.291 4.88 4.888 7.21 4.888 2.51 0 5.03-1.073 7.63-3.098 2.6-2.027 5.23-4.955 7.93-8.536 3.59-4.748 7.24-10.523 11.13-16.69 2-3.1664 4.07-6.4363 6.22-9.7244 6.33-9.6392 13.39-19.359 21.69-26.6711 8.33-7.3238 17.96-12.2805 29.4-12.2805 9.45 0 19.73 3.4414 29.15 6.8084.83.2988 1.66.597 2.48.8924 3.84 1.3794 7.5 2.698 10.92 3.7327C1563.2 66.1918 1566.9 67 1570 67c6.33 0 15.18-2.4477 24.17-4.963l.39-.1088c8.75-2.448 17.61-4.9282 23.94-4.9282 6.35 0 12.79 2.1664 19.08 5.3418 6.29 3.1772 12.5 7.4031 18.38 11.5939 1.35.963 2.68 1.9231 3.99 2.8684 4.42 3.1866 8.61 6.2062 12.51 8.6103 5.09 3.1361 9.47 5.0856 13.04 5.0856 6.91 0 13.75-3.5485 20.59-9.0748 6.83-5.5185 13.53-12.8942 20.16-20.3403.5-.5552.99-1.1109 1.49-1.6662 6.1-6.8621 12.15-13.6675 18.13-18.876 6.45-5.6101 13-9.5427 19.63-9.5427 3.38 0 6.74 1.2571 10.06 3.3562 3.32 2.0993 6.64 5.0751 9.95 8.5997 6.62 7.0437 13.32 16.4165 19.93 25.7144l.38.5401c6.51 9.1463 12.93 18.1772 19.2 24.9712 3.19 3.4612 6.3 6.3054 9.33 8.2794 3.03 1.975 5.91 3.039 8.65 3.039 7.59 0 14.28-4.323 20.61-11.0896 6.34-6.7645 12.16-15.8056 18.05-24.9517l.03-.0532c5.85-9.0865 11.77-18.2731 18.24-25.1826C1906.41 37.3016 1913.59 32.5 1922 32.5c6.47 0 12.54 3.3324 18.32 8.1208 5.71 4.7359 11.28 11.0173 16.79 17.2398l.2.2262c5.61 6.3269 11.16 12.575 16.86 17.2493C1979.88 80.0143 1985.59 83 1991.5 83c7.32 0 17.3-2.8207 26.96-5.7082.75-.2218 1.49-.444 2.22-.665 4.03-1.2073 7.95-2.3817 11.49-3.2981 4.18-1.0799 7.94-1.8287 10.83-1.8287 5.21 0 10.64.4449 16.34.9121l1.12.0912c6.12.5 12.58.9967 19.54.9967 5.85 0 11.72-2.4497 17.55-6.2444 5.83-3.792 11.52-8.8638 17.02-13.9872 1.07-1 2.14-2.0028 3.2-2.9982 4.33-4.0792 8.54-8.0334 12.52-11.1511 4.92-3.8517 9.72-6.6191 14.21-6.6191 7.77 0 14.56 5.8414 20.73 14.0721 6.21 8.2805 12.01 19.2958 17.72 30.2146l.43.828c5.58 10.6785 11.08 21.2 16.84 29.1253 5.96 8.193 11.94 13.26 18.28 13.26 3.06 0 6.16-1.668 9.34-4.862 3.17-3.187 6.31-7.783 9.43-13.375 6.22-11.1812 12.23-26.1162 18.18-41.131l1.03-2.615c5.58-14.1027 11.1-28.0807 16.68-38.7309 2.96-5.6527 5.96-10.42812 9.04-13.80294C2285.25 2.128 2288.51 0 2292 0c3.53 0 6.84 2.41627 9.94 6.16325 3.13 3.78396 6.23 9.14235 9.3 15.49485 5.8 11.9722 11.61 27.6886 17.49 43.5588l1.08 2.9358c6.26 16.889 12.58 33.7043 19.05 46.2963 3.23 6.299 6.48 11.483 9.73 15.08 3.26 3.616 6.4 5.471 9.41 5.471 3.02 0 6.09-1.819 9.27-5.361 3.16-3.525 6.28-8.609 9.38-14.791 6.1-12.149 12.01-28.3006 17.98-44.598l.31-.8437c6.05-16.5448 12.17-33.1711 18.56-45.6589 3.2-6.2422 6.49-11.511 9.92-15.23204C2436.84 4.80637 2440.53 2.5 2444.5 2.5c3.93 0 7.59 2.02463 11.02 5.32927 3.42 3.30763 6.71 7.99003 9.89 13.53243 6.36 11.0847 12.43 25.8401 18.45 40.5084l.14.3422c5.99 14.5924 11.94 29.0711 18.11 39.9347 3.11 5.474 6.25 9.971 9.43 13.09 3.19 3.122 6.33 4.763 9.46 4.763v2c-3.87 0-7.48-2.031-10.86-5.334-3.38-3.308-6.62-7.99-9.77-13.531-6.23-10.9735-12.21-25.5456-18.18-40.0684l-.18-.4367c-6.04-14.7067-12.06-29.3263-18.34-40.2729-3.14-5.4732-6.31-9.9705-9.54-13.08862C2450.89 6.14725 2447.7 4.5 2444.5 4.5c-3.15 0-6.34 1.83426-9.61 5.37136-3.25 3.52504-6.45 8.60784-9.61 14.78744-6.32 12.356-12.4 28.8547-18.47 45.4349l-.34.9302c-5.94 16.234-11.88 32.4711-18.03 44.7211-3.13 6.241-6.35 11.509-9.68 15.229-3.32 3.705-6.9 6.026-10.76 6.026-3.86 0-7.49-2.364-10.9-6.13-3.42-3.787-6.76-9.149-10.02-15.507-6.53-12.72-12.9-29.6547-19.14-46.5157-.36-.97-.72-1.9398-1.08-2.9086-5.89-15.9046-11.67-31.5306-17.42-43.4093-3.05-6.3038-6.06-11.4922-9.04-15.09108C2297.39 3.80248 2294.6 2 2292 2c-2.64 0-5.41 1.622-8.32 4.82934-2.91 3.18766-5.82 7.78726-8.75 13.38456-5.52 10.5507-11.01 24.4325-16.6 38.5742l-1.03 2.5799c-5.93 14.9852-11.98 30.0502-18.29 41.369-3.15 5.658-6.39 10.437-9.75 13.812z" fill="#fff"/>
</svg>
