<svg width="2880" height="143" viewBox="0 0 2880 143" fill="none" xmlns="http://www.w3.org/2000/svg">
<path fill-rule="evenodd" clip-rule="evenodd" d="M2262.07 0.949067C2263.99 0.0478324 2266.64 -0.221449 2269 0.183717C2270.48 0.438023 2271.84 0.956264 2272.79 1.72671L2276.01 4.34421C2276.95 5.10392 2277.74 5.92696 2278.36 6.80501C2281.65 11.4556 2284.61 16.3468 2287.24 21.4412L2289.06 24.9946L2289.08 25.0304L2289.1 25.0675L2294.83 38.6275L2294.84 38.6473L2300.58 53.9031L2300.59 53.9116L2306.32 69.9452L2305.39 70.3151L2306.32 69.9473L2312.05 85.8553L2311.12 86.2469L2312.05 85.877L2317.76 100.727L2316.85 101.165L2317.78 100.773L2323.47 113.733L2323.45 113.694L2322.59 114.217L2323.49 113.778L2323.47 113.733L2325.3 117.056C2327.86 121.714 2330.79 126.134 2334.07 130.268C2334.48 130.791 2335.07 131.312 2335.84 131.799L2338.43 133.441C2339.39 134.048 2341 134.44 2342.76 134.392C2344.38 134.347 2345.78 133.939 2346.6 133.377L2349.45 131.438C2350.22 130.914 2350.82 130.359 2351.25 129.799C2354.52 125.582 2357.46 121.097 2360.05 116.387L2361.82 113.175L2362.72 113.618L2361.85 113.095L2367.53 100.345L2368.45 100.745L2367.55 100.301L2373.26 85.791L2374.19 86.1702L2373.26 85.7707L2384.72 54.825L2384.73 54.8164L2384.73 54.8078L2390.46 40.1039L2390.47 40.0837L2390.48 40.064L2396.21 26.942L2396.23 26.9057L2396.25 26.8708L2402.01 15.9544L2406.87 9.15846C2407.54 8.21825 2408.38 7.32971 2409.37 6.50114L2412.59 3.795C2413.47 3.0615 2414.68 2.52821 2416.04 2.20591C2418.55 1.60907 2421.5 1.74245 2423.78 2.58062L2424.52 2.85383C2425.66 3.27001 2426.65 3.83015 2427.39 4.52649L2430.72 7.66819C2431.74 8.63513 2432.63 9.65103 2433.35 10.7087L2438.07 17.5781L2438.1 17.6272L2443.86 28.4732L2443.88 28.5019L2443.89 28.5316L2449.62 41.1203L2449.63 41.1349L2449.64 41.1496L2455.37 54.8002L2461.1 68.7243L2460.19 69.1525L2461.11 68.7373L2466.82 82.1147L2465.92 82.5783L2466.84 82.1501L2472.52 94.2345L2471.66 94.7628L2472.55 94.2992L2478.22 104.475L2478.19 104.425L2477.39 105.06L2478.25 104.532L2478.22 104.475L2482.79 110.767C2483.49 111.733 2484.36 112.68 2485.38 113.597L2488.45 116.345C2489.03 116.865 2489.86 117.354 2490.91 117.756L2492.1 118.21C2493.72 118.827 2495.87 119.049 2497.9 118.779C2499.3 118.594 2500.49 118.194 2501.32 117.683L2504.02 116.01C2504.98 115.417 2505.77 114.782 2506.4 114.125C2509.48 110.881 2512.34 107.409 2514.95 103.734L2516.68 101.313L2517.52 101.869L2516.72 101.243L2522.39 91.7576L2523.26 92.2767L2522.41 91.7204L2528.12 81.232L2528.99 81.7386L2528.12 81.2194L2533.85 70.3485L2533.86 70.3395L2539.59 59.7042L2539.6 59.6885L2539.61 59.6731L2545.34 49.844L2545.36 49.815L2545.38 49.7871L2551.11 41.2572L2551.14 41.2109L2553.14 38.8291C2555.69 35.7967 2558.48 32.9993 2561.48 30.4675C2562.41 29.6792 2563.55 28.9798 2564.83 28.3812L2566.76 27.4863C2568.16 26.8319 2569.88 26.4193 2571.69 26.2757C2573.8 26.1089 2575.96 26.3099 2577.83 26.858L2578.89 27.166C2580.26 27.5679 2581.5 28.1019 2582.53 28.7538L2585.04 30.3329C2586.28 31.1128 2587.4 31.9506 2588.37 32.8396L2592.75 36.8364L2592.79 36.8765L2598.52 43.3272L2598.54 43.3485L2604.29 50.5886L2604.3 50.5964L2604.31 50.6044L2610.03 58.1063L2609.26 58.7696L2610.04 58.1148L2615.74 65.4247L2614.99 66.1192L2615.77 65.4559L2621.43 72.1626L2620.73 72.9096L2621.48 72.2151L2627.12 78.037L2627.08 78.0031L2626.46 78.8215L2627.16 78.0745L2627.12 78.037L2632.76 82.7622L2632.7 82.7249L2632.19 83.6264L2632.82 82.8079L2632.76 82.7622L2636.6 85.1428C2637.76 85.8668 2639.1 86.5291 2640.58 87.1139L2641.83 87.6095C2643.21 88.1521 2644.77 88.5803 2646.44 88.8712L2646.61 88.8998C2648.49 89.2256 2650.48 89.3615 2652.48 89.2978C2654.16 89.244 2655.81 89.0489 2657.35 88.7223L2658.39 88.5034C2659.86 88.192 2661.26 87.8007 2662.55 87.338L2666.23 86.0203L2666.19 86.0401L2666.6 86.9962L2666.27 86.0047L2666.23 86.0203L2671.87 83.3731L2672.33 84.3016L2671.92 83.3456L2677.57 80.2485L2678.06 81.1592L2677.6 80.2307L2683.29 76.838L2683.79 77.7342L2683.3 76.8293L2689.02 73.2873L2694.75 69.722L2694.76 69.7165L2700.5 66.2335L2700.5 66.2282L2700.51 66.2231L2706.25 62.9006L2706.26 62.8932L2706.27 62.8861L2712.01 59.7894L2712.02 59.7803L2712.04 59.7718L2717.8 56.9489L2717.82 56.9394L2723.58 54.4587L2729.37 52.3754L2732.8 51.4318C2734.39 50.9933 2736.04 50.6202 2737.75 50.3156L2738.42 50.195C2740.15 49.8873 2741.93 49.6691 2743.73 49.5434L2743.94 49.5292C2745.88 49.3943 2747.84 49.3741 2749.79 49.469C2751.72 49.5633 2753.63 49.7707 2755.48 50.0878L2755.84 50.1509C2757.64 50.4593 2759.37 50.8579 2761.02 51.3416L2761.85 51.5865C2763.53 52.0814 2765.14 52.6414 2766.66 53.2622L2770.2 54.7067L2775.97 57.6327L2775.99 57.6456L2776.02 57.6601L2781.75 61.0004L2781.76 61.0087L2781.78 61.0175L2787.51 64.6196L2787.52 64.6238L2793.24 68.2811L2792.73 69.1852L2793.25 68.2907L2798.93 71.7787L2798.47 72.7058L2798.97 71.8018L2804.6 74.9085L2804.2 75.8695L2804.66 74.9424L2808.3 76.5928C2809.62 77.1938 2811.03 77.7442 2812.53 78.2381L2813.76 78.6431C2815.18 79.1126 2816.71 79.4992 2818.32 79.7935L2818.92 79.9035C2820.63 80.2146 2822.42 80.3947 2824.23 80.4365C2826.12 80.48 2828.01 80.3738 2829.82 80.1227L2830.18 80.0738C2831.83 79.8445 2833.42 79.5107 2834.9 79.0821L2836.02 78.7579C2837.53 78.3218 2838.95 77.8223 2840.28 77.2662L2843.89 75.7558L2844.33 76.6959L2843.96 75.723L2849.59 72.8189L2850.07 73.7389L2849.63 72.7988L2855.32 69.5464L2855.8 70.4627L2855.32 69.5427L2861.06 66.2065L2861.07 66.2L2866.81 63.0749L2866.83 63.0602L2872.64 60.3526L2872.68 60.3369L2879.36 57.9763L2880 59.962L2873.36 62.3068L2873.41 62.287L2873 61.3297L2873.32 62.3226L2873.36 62.3068L2867.73 64.934L2867.27 64.0044L2867.67 64.9617L2862.02 68.0459L2861.54 67.1333L2861.99 68.0592L2856.28 71.3789L2856.28 71.3826L2850.54 74.6588L2850.53 74.6693L2844.77 77.636L2844.74 77.6538L2844.7 77.6688L2841.02 79.212C2839.62 79.7992 2838.12 80.3227 2836.55 80.7777L2835.43 81.1018C2833.86 81.5582 2832.18 81.9103 2830.44 82.1511L2830.08 82.2001C2828.16 82.4655 2826.17 82.5771 2824.19 82.5314C2822.28 82.4873 2820.39 82.2977 2818.58 81.9678L2817.98 81.8578C2816.29 81.549 2814.67 81.1414 2813.16 80.6419L2811.93 80.2369C2810.37 79.7228 2808.89 79.1473 2807.5 78.5147L2803.8 76.8305L2803.77 76.8149L2803.73 76.7967L2798 73.633L2797.98 73.6219L2797.96 73.6099L2792.23 70.0892L2792.22 70.0845L2792.21 70.0796L2786.48 66.417L2787 65.5183L2786.48 66.4128L2780.78 62.832L2781.26 61.9162L2780.75 62.8149L2775.1 59.519L2775.53 58.5759L2775.05 59.4917L2769.44 56.6441L2769.8 55.6678L2769.36 56.611L2765.94 55.2146C2764.48 54.6204 2762.94 54.0818 2761.31 53.604L2760.48 53.3591C2758.91 52.8977 2757.25 52.5154 2755.52 52.2186L2755.15 52.1556C2753.39 51.8521 2751.56 51.6527 2749.69 51.5621C2747.82 51.4709 2745.93 51.4903 2744.07 51.6199L2743.87 51.6342C2742.12 51.7553 2740.41 51.9653 2738.76 52.2606L2738.08 52.3812C2736.44 52.6759 2734.84 53.0363 2733.31 53.4583L2729.99 54.37L2729.66 53.3805L2729.92 54.3921L2724.31 56.4088L2723.93 55.4397L2724.25 56.4307L2718.62 58.8575L2718.2 57.9085L2718.58 58.8777L2712.92 61.6522L2712.46 60.7208L2712.89 61.6698L2707.21 64.7345L2706.73 63.8175L2707.19 64.7489L2701.5 68.0466L2701 67.1401L2701.48 68.057L2695.77 71.5242L2695.26 70.6231L2695.76 71.5296L2690.04 75.0896L2689.53 74.1885L2690.04 75.0905L2684.3 78.6465L2684.29 78.6507L2678.56 82.0699L2678.54 82.0791L2678.53 82.0877L2672.79 85.2301L2672.76 85.2448L2672.74 85.2577L2666.96 87.972L2663.2 89.3209C2661.81 89.8155 2660.33 90.2297 2658.78 90.5575L2657.75 90.7764C2656.09 91.1275 2654.33 91.335 2652.54 91.3922C2650.42 91.4598 2648.3 91.316 2646.28 90.9671L2646.12 90.9385C2644.33 90.6282 2642.64 90.1676 2641.13 89.5704L2639.87 89.0748C2638.3 88.4532 2636.86 87.7402 2635.58 86.9458L2631.63 84.4905L2625.84 79.64L2625.8 79.6063L2625.76 79.5685L2620 73.6312L2619.98 73.6041L2614.23 66.7984L2614.22 66.7826L2608.49 59.4329L2608.48 59.4244L2602.76 51.9297L2603.52 51.2618L2602.75 51.9139L2597.06 44.7559L2597.79 44.0415L2597.03 44.7121L2591.36 38.3458L2591.4 38.3814L2592.06 37.5909L2591.33 38.3052L2591.36 38.3458L2587.06 34.4207C2586.19 33.6222 2585.17 32.8548 2584.01 32.1294L2581.51 30.5504C2580.65 30.0144 2579.59 29.5468 2578.35 29.1842L2577.3 28.8762C2575.67 28.4 2573.74 28.2148 2571.84 28.3651C2570.21 28.4946 2568.72 28.864 2567.57 29.4015L2565.64 30.2965C2564.48 30.837 2563.5 31.4477 2562.73 32.1004C2559.82 34.557 2557.11 37.2714 2554.64 40.2138L2552.71 42.5103L2552.74 42.4644L2551.93 41.8608L2552.68 42.5531L2552.71 42.5103L2547.04 50.9374L2546.19 50.3907L2547.01 50.9943L2541.33 60.7353L2540.46 60.2198L2541.31 60.7665L2535.6 71.3617L2534.73 70.8551L2535.59 71.3706L2529.87 82.2452L2524.12 92.8147L2518.37 102.426L2518.35 102.462L2518.33 102.495L2516.56 104.986C2513.89 108.741 2510.97 112.29 2507.81 115.605C2507.05 116.409 2506.11 117.149 2505.04 117.814L2502.33 119.488C2501.21 120.183 2499.74 120.648 2498.15 120.858C2495.85 121.164 2493.38 120.926 2491.42 120.179L2490.23 119.725C2489.02 119.263 2487.96 118.664 2487.15 117.939L2484.08 115.19C2482.97 114.19 2482 113.136 2481.2 112.036L2476.56 105.644L2476.53 105.588L2470.79 95.2911L2470.78 95.2593L2470.76 95.2264L2465.03 83.0419L2465.02 83.0243L2465.01 83.0065L2459.28 69.5807L2453.54 55.6448L2454.46 55.2225L2453.54 55.6376L2447.82 42.0234L2448.72 41.5719L2447.81 41.9942L2442.12 29.4929L2442.99 28.9831L2442.09 29.4346L2436.41 18.7536L2436.44 18.8019L2437.26 18.19L2436.38 18.6998L2436.41 18.7536L2431.73 11.9325C2431.1 11.0116 2430.32 10.106 2429.38 9.22631L2426.05 6.08463C2425.57 5.62649 2424.83 5.18645 2423.86 4.83154L2423.12 4.5583C2421.22 3.86096 2418.65 3.73207 2416.48 4.24928C2415.31 4.52821 2414.41 4.95927 2413.84 5.43156L2410.61 8.13776C2409.74 8.87353 2409.02 9.63752 2408.47 10.4144L2403.7 17.0957L2403.73 17.0326L2402.85 16.5249L2403.65 17.1528L2403.7 17.0957L2398.03 27.8149L2397.12 27.3785L2398 27.8861L2392.31 40.8969L2391.39 40.5004L2392.3 40.9368L2386.59 55.5835L2385.65 55.2043L2386.58 55.6008L2375.12 86.5495L2375.12 86.5596L2375.11 86.5697L2369.38 101.144L2369.37 101.166L2369.36 101.188L2363.63 114.061L2363.61 114.102L2363.59 114.141L2361.78 117.433C2359.14 122.239 2356.14 126.816 2352.8 131.12C2352.21 131.884 2351.44 132.578 2350.53 133.195L2347.69 135.134C2346.45 135.976 2344.66 136.435 2342.81 136.486C2340.81 136.542 2338.79 136.113 2337.4 135.235L2334.81 133.593C2333.89 133.014 2333.12 132.349 2332.53 131.607C2329.18 127.381 2326.18 122.863 2323.57 118.102L2321.7 114.698L2315.95 101.603L2315.93 101.58L2315.93 101.557L2310.19 86.6277L2310.18 86.6168L2304.45 70.685L2304.45 70.6829L2298.72 54.6642L2299.65 54.2794L2298.72 54.6473L2293.01 39.4769L2293.92 39.0522L2292.99 39.4369L2287.31 25.9898L2288.19 25.4922L2287.27 25.9168L2285.48 22.4365C2282.9 17.43 2279.99 12.6232 2276.75 8.05278C2276.26 7.35372 2275.61 6.66392 2274.79 6.00071L2271.57 3.38317C2270.97 2.89984 2269.97 2.47279 2268.68 2.25162C2266.62 1.8994 2264.38 2.15851 2262.89 2.86103L2261.32 3.59727C2260.48 3.99354 2259.85 4.44479 2259.42 4.90152C2256.19 8.37087 2253.3 12.1621 2250.77 16.2213L2248.91 19.1993L2248.94 19.1508L2248.05 18.6711L2248.89 19.2437L2248.91 19.1993L2243.23 30.7716L2242.32 30.3429L2243.21 30.8226L2237.5 44.1562L2236.59 43.7518L2237.5 44.1796L2231.77 58.4876L2230.85 58.0842L2231.77 58.4894L2226.04 72.8978L2226.03 72.9073L2226.03 72.9167L2220.3 86.567L2220.29 86.589L2220.28 86.6105L2214.54 98.7234L2214.53 98.7633L2212.63 102.031C2210.04 106.52 2207.12 110.795 2203.9 114.82C2203.2 115.698 2202.32 116.512 2201.28 117.254L2198.37 119.344C2197.33 120.092 2195.91 120.603 2194.35 120.855C2192.02 121.232 2189.46 121.023 2187.45 120.261L2186.26 119.807C2185.12 119.373 2184.11 118.811 2183.33 118.13L2180.16 115.36C2179.08 114.418 2178.14 113.429 2177.34 112.398L2172.74 106.446L2172.71 106.403L2172.68 106.357L2166.94 97.1094L2166.93 97.0859L2166.92 97.0617L2161.18 86.6369L2161.18 86.6283L2161.17 86.6196L2155.44 75.7285L2156.31 75.2177L2155.44 75.7203L2149.73 65.0891L2150.58 64.541L2149.71 65.0552L2144.04 55.358L2144.85 54.746L2144 55.2941L2138.34 47.0542L2138.38 47.1029L2139.11 46.3906L2138.3 47.0025L2138.34 47.0542L2133.99 42.1375C2133.15 41.1841 2132.14 40.2581 2130.97 39.3719L2128.42 37.4462C2127.62 36.8377 2126.58 36.2856 2125.33 35.8307L2124.05 35.3619C2122.58 34.8246 2120.76 34.5358 2118.88 34.5605C2117.22 34.5824 2115.62 34.8507 2114.29 35.3171L2112.62 35.9039C2111.44 36.3161 2110.41 36.8047 2109.54 37.3482L2105.28 40.0193L2105.33 39.9778L2104.71 39.1543L2105.23 40.0536L2105.28 40.0193L2099.65 44.6632L2098.98 43.8825L2099.6 44.7061L2093.92 50.0327L2093.25 49.2676L2093.91 50.0439L2088.19 55.5876L2088.18 55.5961L2088.17 55.6043L2082.44 60.9006L2082.42 60.9215L2082.39 60.941L2076.66 65.6237L2076.62 65.6547L2076.58 65.6817L2072.83 68.1805C2071.47 69.0842 2069.99 69.9315 2068.39 70.7166L2067.17 71.3134C2065.68 72.0456 2064.04 72.6906 2062.29 73.2395L2061.73 73.4175C2059.95 73.9732 2058.05 74.406 2056.06 74.7065C2054.16 74.9948 2052.19 75.1594 2050.2 75.1969L2049.79 75.2048C2048.17 75.2354 2046.55 75.1917 2044.94 75.0741L2041.55 74.8256L2030.11 73.4593L2030.18 72.4144L2030.07 73.4554L2026.9 73.2151C2025.24 73.0889 2023.57 73.0244 2021.89 73.0224L2021.67 73.0221C2019.73 73.0197 2017.79 73.1071 2015.89 73.283C2014.04 73.4533 2012.23 73.7058 2010.47 74.0372L2007.46 74.6057L2007.5 74.5955L2007.24 73.5817L2007.42 74.6128L2007.46 74.6057L2001.81 76.149L2001.51 75.1505L2001.76 76.1642L1996.1 78.0527L1995.78 77.0609L1996.08 78.0594L1990.36 80.1017L1990.35 80.1044L1984.59 82.0479L1980.87 83.0551C1979.48 83.4333 1978.02 83.7429 1976.51 83.9805L1975.47 84.1442C1973.78 84.4113 1972.02 84.5482 1970.25 84.551C1968.12 84.5544 1966 84.3636 1964 83.9861L1963.85 83.9586C1962.04 83.6176 1960.34 83.1345 1958.8 82.5224L1957.61 82.0455C1956.02 81.4133 1954.56 80.6941 1953.26 79.897L1949.35 77.5045L1943.53 72.7989L1937.74 67.1913L1937.73 67.1715L1931.99 60.9974L1931.99 60.9902L1931.98 60.983L1926.26 54.5802L1926.98 53.8529L1926.25 54.5694L1920.56 48.3841L1921.24 47.6192L1920.52 48.3465L1914.86 42.7921L1914.9 42.8228L1915.51 41.9921L1914.83 42.757L1914.86 42.7921L1910.69 39.4307C1909.72 38.6511 1908.62 37.907 1907.39 37.208L1905.14 35.9249C1904.18 35.3755 1903.02 34.8996 1901.71 34.5247L1900.58 34.2004C1899.03 33.7575 1897.24 33.5442 1895.43 33.5958C1893.67 33.6461 1891.99 33.9451 1890.58 34.4445L1889.21 34.9346C1887.91 35.3948 1886.8 35.9472 1885.89 36.5619L1883.58 38.1241C1882.34 38.9638 1881.24 39.8462 1880.3 40.7607L1876.09 44.8355L1876.13 44.7909L1875.37 44.1067L1876.05 44.876L1876.09 44.8355L1870.42 51.7364L1870.44 51.707L1869.64 51.0786L1870.4 51.7628L1870.42 51.7364L1864.73 59.6968L1863.91 59.0976L1864.71 59.7261L1859 68.3143L1858.17 67.7203L1858.99 68.3195L1853.26 77.0503L1853.26 77.0595L1853.25 77.0686L1847.5 85.4391L1841.75 92.9449L1841.72 92.9831L1841.69 93.0182L1839.78 95.0884C1837.2 97.8746 1834.42 100.453 1831.48 102.801C1830.5 103.58 1829.34 104.279 1828.04 104.888L1826.05 105.821C1824.71 106.448 1823.11 106.872 1821.39 107.071C1819.19 107.328 1816.87 107.203 1814.81 106.71L1814.23 106.57C1812.74 106.215 1811.39 105.704 1810.26 105.053L1807.94 103.71C1806.66 102.972 1805.52 102.165 1804.53 101.297L1800.15 97.4366L1794.37 90.8986L1794.35 90.8694L1788.58 83.2511L1788.56 83.2336L1782.83 74.9876L1782.82 74.9757L1777.1 66.4902L1777.9 65.8761L1777.09 66.4813L1771.38 58.2117L1772.17 57.5671L1771.36 58.1812L1765.67 50.5369L1765.69 50.5637L1766.44 49.8645L1765.65 50.5091L1765.67 50.5369L1760 43.8971L1760.04 43.9353L1760.7 43.155L1759.96 43.8542L1760 43.8971L1755.84 39.9905C1754.86 39.0736 1753.74 38.1895 1752.47 37.3483L1750.23 35.8581C1749.29 35.2345 1748.16 34.6728 1746.85 34.1996L1745.42 33.6791C1744.05 33.1843 1742.43 32.8715 1740.71 32.7852C1738.85 32.6918 1736.98 32.8694 1735.33 33.2895L1734.43 33.5189C1733.06 33.867 1731.85 34.3276 1730.84 34.8711L1728.71 36.0149C1727.45 36.6875 1726.33 37.4106 1725.36 38.173L1721.21 41.4103L1721.25 41.3715L1720.57 40.6044L1721.17 41.4447L1721.21 41.4103L1715.54 46.9401L1715.56 46.9153L1714.84 46.1963L1715.52 46.9634L1715.54 46.9401L1709.85 53.2624L1709.1 52.5684L1709.83 53.2865L1704.12 60.0434L1703.37 59.3506L1704.12 60.0455L1698.39 66.8634L1698.38 66.8729L1692.64 73.3802L1692.62 73.4003L1692.6 73.4194L1686.84 79.3032L1681.02 84.3041L1676.96 86.991C1675.76 87.7829 1674.41 88.5034 1672.93 89.1439L1671.34 89.8378C1669.95 90.441 1668.38 90.9126 1666.7 91.2382L1666.29 91.3179C1664.32 91.6997 1662.21 91.8473 1660.12 91.752C1658.3 91.6689 1656.52 91.4024 1654.89 90.9641L1653.72 90.6494C1652.21 90.2444 1650.8 89.7431 1649.53 89.1543L1645.58 87.3354L1639.8 83.8015L1639.77 83.7834L1634.01 79.6843L1633.99 79.6756L1633.98 79.6664L1628.25 75.3244L1628.83 74.4723L1628.25 75.3214L1622.55 71.0463L1623.1 70.1718L1622.52 71.0239L1616.85 67.1011L1616.88 67.1194L1617.37 66.2062L1616.82 67.0807L1616.85 67.1011L1611.19 63.7646L1611.24 63.7862L1611.63 62.825L1611.14 63.7382L1611.19 63.7646L1607.6 62.1346C1606.25 61.5193 1604.77 60.9702 1603.19 60.4968L1602.32 60.2351C1600.76 59.768 1599.06 59.4042 1597.3 59.1594C1595.37 58.8916 1593.36 58.7667 1591.35 58.7934C1589.64 58.8162 1587.94 58.9481 1586.3 59.1855L1585.41 59.3129C1583.9 59.5309 1582.44 59.8135 1581.03 60.1569L1577.51 61.0124L1577.23 60.007L1577.46 61.0263L1571.79 62.7444L1571.5 61.7415L1571.78 62.7481L1566.04 64.5661L1566.03 64.5698L1560.26 66.2204L1556.86 66.954C1555.26 67.2985 1553.6 67.5677 1551.9 67.7587L1551.44 67.811C1549.56 68.0228 1547.64 68.1215 1545.72 68.1055C1543.76 68.0891 1541.81 67.9532 1539.91 67.7004L1539.54 67.6515C1537.8 67.4201 1536.11 67.103 1534.49 66.7042L1531.1 65.8709L1525.31 63.9407L1519.55 61.73L1513.84 59.4899L1514.16 58.4976L1513.81 59.4789L1508.14 57.4656L1508.18 57.4748L1508.43 56.4614L1508.11 57.4537L1508.14 57.4656L1504.6 56.4925C1503.2 56.1083 1501.73 55.7942 1500.2 55.5554L1499.38 55.4271C1497.73 55.1689 1496.01 55.0305 1494.27 55.0169C1492.3 55.0015 1490.35 55.1469 1488.48 55.4464L1488.31 55.4734C1486.59 55.7484 1484.97 56.1422 1483.48 56.6408L1482.45 56.9863C1480.91 57.5056 1479.47 58.0992 1478.18 58.7562L1474.51 60.6125L1474.56 60.5814L1474.03 59.6945L1474.46 60.6378L1474.51 60.6125L1468.86 64.3396L1468.89 64.315L1468.3 63.4745L1468.83 64.3614L1468.86 64.3396L1463.2 68.7595L1462.56 67.9484L1461.97 67.1079L1467.73 62.6094L1473.55 58.7765L1477.31 56.8696C1478.7 56.1653 1480.22 55.5366 1481.84 54.9908L1482.87 54.6454C1484.47 54.1097 1486.19 53.6921 1488 53.4021L1488.17 53.3751C1490.15 53.0582 1492.22 52.9054 1494.29 52.9216C1496.11 52.9359 1497.93 53.0814 1499.68 53.3546L1500.5 53.4829C1502.09 53.7322 1503.64 54.061 1505.11 54.4656L1508.72 55.4572L1514.5 57.5106L1520.24 59.7626L1519.9 60.7463L1520.25 59.765L1525.93 61.9506L1525.63 62.9491L1525.98 61.9654L1531.63 63.8494L1531.59 63.8402L1531.36 64.8602L1531.67 63.8617L1531.63 63.8494L1534.94 64.6642C1536.49 65.0456 1538.12 65.3501 1539.79 65.5728L1540.16 65.6217C1541.98 65.8639 1543.85 65.9945 1545.74 66.0102C1547.58 66.0256 1549.43 65.9307 1551.23 65.7276L1551.69 65.6754C1553.32 65.4912 1554.92 65.2319 1556.45 64.9014L1559.8 64.1813L1559.77 64.1902L1560.03 65.1999L1559.83 64.1746L1559.8 64.1813L1565.48 62.5563L1565.77 63.5591L1565.5 62.5484L1571.21 60.7387L1571.22 60.7349L1576.98 58.9916L1580.58 58.1159C1582.05 57.7573 1583.57 57.4635 1585.14 57.2371L1586.02 57.1098C1587.75 56.8602 1589.53 56.7221 1591.33 56.6982C1593.43 56.6703 1595.54 56.8009 1597.56 57.0822C1599.41 57.3392 1601.21 57.7225 1602.87 58.2204L1603.74 58.4821C1605.4 58.978 1606.96 59.557 1608.4 60.2122L1612.08 61.8853L1617.89 65.3112L1623.65 69.2972L1623.67 69.3081L1629.42 73.6201L1629.42 73.6231L1635.13 77.9503L1634.57 78.8173L1635.15 77.9682L1640.83 82.0096L1640.8 81.9911L1640.3 82.8963L1640.86 82.0293L1640.83 82.0096L1646.49 85.4651L1646.44 85.4411L1646.03 86.4002L1646.54 85.4951L1646.49 85.4651L1650.33 87.2361C1651.5 87.7735 1652.8 88.2394 1654.22 88.6196L1655.39 88.9343C1656.87 89.3335 1658.51 89.5812 1660.21 89.6586C1662.16 89.7474 1664.11 89.6091 1665.93 89.2575L1666.34 89.1778C1667.9 88.8748 1669.33 88.441 1670.57 87.902L1672.17 87.2081C1673.55 86.6066 1674.8 85.9388 1675.89 85.2184L1679.85 82.6011L1679.8 82.6426L1680.44 83.4527L1679.9 82.5663L1679.85 82.6011L1685.5 77.7402L1685.47 77.7707L1686.17 78.5214L1685.54 77.7113L1685.5 77.7402L1691.17 71.9572L1691.9 72.6687L1691.21 71.918L1696.89 65.4778L1697.64 66.1706L1696.9 65.4591L1702.62 58.6578L1702.62 58.6556L1708.36 51.8726L1708.37 51.8603L1708.38 51.8484L1714.13 45.4524L1714.16 45.4291L1719.89 39.8372L1719.93 39.7982L1724.16 36.4924C1725.24 35.6516 1726.46 34.8683 1727.8 34.1496L1729.93 33.0058C1731.1 32.3748 1732.47 31.8625 1733.96 31.4829L1734.86 31.2535C1736.71 30.7822 1738.77 30.5901 1740.8 30.6923C1742.68 30.7865 1744.5 31.1293 1746.07 31.6988L1747.51 32.2193C1748.93 32.7353 1750.21 33.3627 1751.3 34.0885L1753.54 35.5787C1754.89 36.4742 1756.1 37.4268 1757.17 38.4299L1761.41 42.413L1767.18 49.1653L1767.2 49.1918L1772.96 56.9224L1772.97 56.9375L1772.98 56.9529L1778.71 65.2619L1778.72 65.2708L1784.45 73.7532L1783.64 74.3704L1784.45 73.7651L1790.15 81.9648L1789.37 82.6164L1790.18 81.9992L1795.86 89.5043L1795.84 89.4746L1795.11 90.1866L1795.89 89.535L1795.86 89.5043L1801.53 95.9164L1801.48 95.8741L1800.84 96.6765L1801.57 95.9645L1801.53 95.9164L1805.82 99.6924C1806.69 100.46 1807.72 101.192 1808.9 101.875L1811.23 103.218C1812.16 103.755 1813.33 104.206 1814.67 104.527L1815.25 104.667C1817.09 105.105 1819.18 105.221 1821.17 104.989C1822.72 104.808 1824.12 104.429 1825.23 103.908L1827.23 102.975C1828.41 102.419 1829.43 101.798 1830.27 101.132C1833.14 98.8481 1835.83 96.34 1838.34 93.6295L1840.22 91.5944L1840.19 91.6327L1840.97 92.2888L1840.26 91.5594L1840.22 91.5944L1845.9 84.1922L1846.71 84.8044L1845.93 84.1483L1851.62 75.8623L1852.44 76.4552L1851.63 75.844L1857.35 67.1264L1857.35 67.1211L1863.09 58.4984L1863.1 58.4836L1863.11 58.4691L1868.86 50.4215L1874.65 43.3777L1878.94 39.2221C1879.98 38.2154 1881.17 37.2601 1882.49 36.3633L1884.8 34.8011C1885.88 34.076 1887.15 33.4546 1888.56 32.9504L1889.94 32.4603C1891.56 31.8838 1893.44 31.5564 1895.37 31.5012C1897.36 31.4446 1899.35 31.6765 1901.1 32.1789L1902.23 32.5033C1903.67 32.9127 1904.97 33.4439 1906.09 34.0836L1908.35 35.3668C1909.66 36.1118 1910.85 36.9147 1911.91 37.7692L1916.16 41.1924L1921.94 46.8726L1921.96 46.8919L1927.69 53.1256L1927.7 53.1309L1927.7 53.1363L1933.42 59.5355L1932.71 60.2649L1933.44 59.5499L1939.12 65.6712L1938.44 66.4406L1939.16 65.7097L1944.82 71.1965L1944.79 71.1681L1944.18 71.9978L1944.85 71.2284L1944.82 71.1965L1950.47 75.7626L1950.41 75.7287L1949.91 76.6336L1950.52 75.8039L1950.47 75.7626L1954.27 78.0873C1955.46 78.8188 1956.82 79.4901 1958.32 80.0869L1959.51 80.5639C1960.92 81.1242 1962.5 81.5752 1964.2 81.8963L1964.35 81.9238C1966.23 82.278 1968.23 82.4589 1970.24 82.4557C1971.92 82.453 1973.58 82.3234 1975.17 82.0721L1976.21 81.9085C1977.65 81.681 1979.05 81.3854 1980.37 81.0264L1984 80.0438L1984.31 81.0412L1984.06 80.0268L1989.72 78.1152L1990.04 79.107L1989.74 78.1097L1995.47 76.0657L2001.23 74.1437L2007.03 72.5578L2010.12 71.975C2011.93 71.632 2013.81 71.3713 2015.71 71.1957C2017.68 71.0143 2019.67 70.9243 2021.67 70.9267L2021.89 70.927C2023.62 70.9291 2025.34 70.9954 2027.04 71.1253L2030.27 71.371L2036.02 72.0554L2041.71 72.7369L2041.65 73.782L2041.76 72.7411L2045.08 72.9838C2046.63 73.0971 2048.19 73.1393 2049.75 73.1098L2050.17 73.1019C2052.07 73.0659 2053.96 72.908 2055.78 72.6326C2057.67 72.3455 2059.48 71.9336 2061.15 71.4099L2061.72 71.232C2063.39 70.7091 2064.93 70.0994 2066.32 69.4158L2067.54 68.819C2069.07 68.0678 2070.48 67.2627 2071.76 66.4115L2075.47 63.9399L2075.43 63.9706L2076.05 64.7971L2075.51 63.9126L2075.47 63.9399L2081.12 59.3283L2081.78 60.1144L2081.17 59.2879L2086.84 54.0486L2087.51 54.8181L2086.85 54.032L2092.57 48.4937L2092.57 48.488L2092.58 48.4825L2098.34 43.0796L2098.36 43.059L2104.15 38.2893L2108.52 35.5495C2109.53 34.916 2110.7 34.3685 2111.98 33.917L2113.65 33.3302C2115.21 32.785 2117.02 32.4895 2118.86 32.4653C2120.93 32.4381 2122.98 32.7536 2124.71 33.3832L2125.99 33.852C2127.37 34.3575 2128.6 34.9942 2129.59 35.7471L2132.14 37.6728C2133.4 38.6289 2134.51 39.6449 2135.46 40.7128L2139.85 45.6782L2139.89 45.7259L2139.93 45.7786L2145.66 54.1341L2145.68 54.1653L2145.7 54.198L2151.43 63.9929L2151.44 64.0097L2151.45 64.0268L2157.19 74.7001L2157.19 74.7082L2162.91 85.5901L2162.05 86.1135L2162.92 85.6075L2168.62 95.9672L2167.78 96.5383L2168.65 96.0149L2174.32 105.168L2174.29 105.126L2173.52 105.786L2174.35 105.215L2174.32 105.168L2178.9 111.078C2179.6 111.991 2180.45 112.885 2181.44 113.75L2184.61 116.521C2185.17 117.006 2185.95 117.462 2186.94 117.837L2188.13 118.291C2189.79 118.918 2192.01 119.115 2194.05 118.784C2195.41 118.563 2196.52 118.132 2197.24 117.615L2200.15 115.525C2201.07 114.87 2201.8 114.18 2202.37 113.475C2205.52 109.531 2208.38 105.342 2210.93 100.944L2212.75 97.7918L2213.65 98.2576L2212.8 97.714L2218.47 85.7224L2219.38 86.1447L2218.49 85.6789L2224.19 72.091L2225.12 72.4944L2224.2 72.0721L2229.93 57.6808L2235.66 43.3457L2235.67 43.3339L2235.67 43.3222L2241.41 29.9142L2241.42 29.8884L2241.43 29.8632L2247.16 18.1913L2247.19 18.1435L2249.1 15.076C2251.69 10.9027 2254.67 7.005 2257.99 3.43807C2258.64 2.74335 2259.5 2.15695 2260.51 1.6853L2262.07 0.949067ZM1463.18 68.7749L1463.16 68.7889L1462.56 67.9484L1461.93 67.1374C1458.08 70.4421 1454.45 74.0276 1451.1 77.8898C1447.36 82.1913 1442.63 87.6684 1441.3 89.375C1439.72 91.4082 1433.98 99.2307 1430.61 103.828C1428.91 106.158 1427.3 108.56 1425.79 111.032L1424 113.967L1416.78 123.876L1412 128.923C1411.63 129.321 1410.81 129.741 1409.62 129.95C1408.63 130.124 1407.59 130.119 1406.64 129.961C1405.69 129.802 1404.92 129.498 1404.44 129.139L1401.83 127.194C1401.3 126.794 1400.92 126.385 1400.68 125.995C1397.22 120.337 1394.19 114.398 1391.63 108.234L1389.79 103.806L1384.08 86.7333L1383.13 87.0484L1384.07 86.7016L1372.61 48.5863L1366.87 31.1963L1366.86 31.1581L1364.82 26.2295C1362.33 20.2266 1359.29 14.4892 1355.75 9.09695C1355.3 8.40799 1354.57 7.8883 1353.74 7.51906C1352.34 6.89002 1350.6 6.65885 1348.99 6.75227C1347.39 6.84493 1345.76 7.26599 1344.6 8.09011L1343.21 9.07723C1342.61 9.50663 1342.1 10.0245 1341.77 10.6315C1338.17 17.2362 1335.07 24.1337 1332.52 31.2576L1330.58 36.6682L1324.84 56.651L1324.84 56.6633L1324.83 56.6756L1319.1 78.5394L1320.06 78.8217L1319.1 78.5439L1313.38 99.9962L1314.33 100.315L1313.37 100.033L1307.66 118.764L1302.35 131.808C1302.11 132.382 1301.79 132.959 1301.37 133.533L1297.15 139.276C1297.04 139.425 1296.79 139.634 1296.35 139.827C1295.92 140.015 1295.37 140.162 1294.74 140.232C1293.84 140.331 1292.95 140.262 1292.21 140.07C1291.44 139.872 1290.95 139.574 1290.73 139.323L1287.01 135.004C1286.67 134.602 1286.41 134.202 1286.25 133.814L1280.86 121.34L1275.16 102.917L1274.19 103.195L1275.14 102.871L1269.43 81.1087L1268.46 81.3757L1269.42 81.0974L1263.69 58.2911L1257.96 36.8889L1257.95 36.8623L1257.94 36.8361L1252.19 19.0314L1252.16 18.9705L1246.73 7.35656C1246.46 6.79004 1246.07 6.27428 1245.6 5.81325L1242.73 3.04023C1241.9 2.23706 1240.62 1.78687 1239.35 1.60292C1238.05 1.41472 1236.6 1.48007 1235.3 1.86277C1234.23 2.17848 1233.23 2.7278 1232.69 3.56045C1229.2 8.86216 1226.28 14.5473 1223.97 20.5146L1221.65 26.5027L1221.64 26.5449L1215.9 45.9135L1215.9 45.93L1210.16 67.8518L1210.16 67.8549L1204.43 90.0054L1205.39 90.3046L1204.43 90.0305L1198.71 110.145L1196.78 115.586C1194.27 122.627 1191.23 129.443 1187.67 135.965C1187.54 136.2 1187.29 136.483 1186.87 136.77L1186.04 137.332C1185.17 137.922 1183.77 138.298 1182.23 138.345C1180.7 138.393 1179.19 138.11 1178.13 137.551C1177.6 137.269 1177.3 136.977 1177.17 136.754C1173.66 130.866 1170.66 124.654 1168.22 118.195L1166.2 112.855L1160.49 93.6989L1159.52 93.9831L1160.48 93.6703L1149.01 51.0036L1149.01 50.9887L1143.27 31.8061L1143.25 31.7684L1141.12 26.2097C1138.7 19.8844 1135.69 13.8234 1132.14 8.11387C1131.7 7.39545 1130.94 6.86714 1130.09 6.5035C1128.71 5.90737 1127.02 5.70833 1125.46 5.82689C1123.93 5.94399 1122.36 6.38432 1121.3 7.23537L1119.47 8.69659C1118.93 9.12376 1118.49 9.62497 1118.19 10.1991C1114.56 17.2521 1111.43 24.5728 1108.82 32.103L1106.98 37.3853L1106.97 37.4139L1106.97 37.443L1101.23 57.5184L1101.23 57.5269L1101.23 57.5354L1095.5 78.9027L1096.46 79.2008L1095.49 78.9172L1089.78 99.1099L1090.72 99.4623L1089.76 99.1643L1084.07 115.869L1078.68 126.657C1078.55 126.922 1078.32 127.216 1077.97 127.519L1075.75 129.404C1075.21 129.868 1074.19 130.241 1072.94 130.365C1071.71 130.487 1070.41 130.352 1069.38 129.961C1068.66 129.688 1068.28 129.361 1068.12 129.127C1064.67 123.821 1061.73 118.17 1059.35 112.256L1057.26 107.07L1051.54 89.4088L1050.59 89.7256L1051.53 89.3889L1045.81 70.4607L1045.8 70.4516L1045.8 70.4426L1040.07 52.6191L1040.06 52.5864L1038.16 47.7636C1035.58 41.1986 1032.49 34.8659 1028.92 28.8286C1028.55 28.195 1027.99 27.6516 1027.33 27.199L1025.64 26.0509C1024.57 25.3192 1023.11 24.9191 1021.65 24.7991C1020.17 24.6781 1018.59 24.8324 1017.22 25.3155C1016.24 25.6603 1015.37 26.1803 1014.81 26.8942C1011.36 31.3166 1008.34 36.0915 1005.79 41.1471L1003.82 45.0668L998.071 58.844L998.066 58.8552L992.348 73.0071L993.253 73.4523L992.333 73.0435L986.638 85.764L981.715 94.2784C981.24 95.0991 980.625 95.9122 979.866 96.707L976.211 100.54C975.812 100.958 975.088 101.382 974.056 101.685C971.852 102.332 969.062 102.192 967.184 101.379L966.261 100.98C965.489 100.646 964.917 100.259 964.544 99.8712C961.263 96.4663 958.257 92.7814 955.558 88.8546L953.946 86.5087L948.228 77.0919L948.222 77.0827L942.489 67.8546L942.468 67.8212L940.628 65.3011C937.988 61.6844 935.064 58.3055 931.886 55.1996C931.119 54.449 930.147 53.7901 929.025 53.233L926.997 52.2252C925.475 51.4689 923.485 51.0774 921.47 51.0888C919.59 51.0994 917.744 51.4602 916.29 52.14L914.112 53.1583C913.033 53.6633 912.076 54.2527 911.281 54.9182L906.579 58.8536L900.802 65.0659L900.788 65.0803L895.063 71.7323L895.784 72.4575L895.042 71.7555L889.365 77.9617L884.945 81.8819C884.157 82.5811 883.217 83.2483 882.136 83.8695L879.666 85.2885C878.751 85.8142 877.563 86.2417 876.191 86.5148C874.043 86.9425 871.635 86.9501 869.471 86.5378C868.119 86.28 866.93 85.8718 866.002 85.3658L863.526 84.0162C862.453 83.4316 861.509 82.802 860.701 82.1394L856.3 78.5286L850.611 72.9335L849.916 73.6857L850.599 72.9216L844.86 67.0867L839.06 61.7565L834.654 58.6429C833.666 57.9451 832.513 57.3293 831.232 56.8053L829.414 56.0619C827.948 55.4625 826.21 55.093 824.397 54.9775C822.295 54.8435 820.151 55.0548 818.28 55.5914L817.257 55.8847C815.866 56.2835 814.603 56.8102 813.535 57.4511L811.033 58.9521C809.83 59.6738 808.734 60.4467 807.757 61.2655L803.396 64.9195L797.635 70.5123L797.631 70.517L791.918 76.1374L786.254 81.1124L782.079 83.9251C781.147 84.5534 780.043 85.1285 778.79 85.6308L777.097 86.3094C775.834 86.8157 774.32 87.1689 772.685 87.3258C770.733 87.5132 768.718 87.4103 766.891 87.0338L766.311 86.9144C764.916 86.6268 763.656 86.2159 762.59 85.7108L760.467 84.704C759.26 84.1317 758.166 83.5099 757.196 82.8481L753.026 80.0023L747.346 75.3822L746.713 76.1928L747.325 75.365L741.612 70.459L741.603 70.4514L741.594 70.4439L735.832 65.7247L730.017 61.6337L726.061 59.5442C724.785 58.8705 723.358 58.2858 721.814 57.8001L720.692 57.4469C719.06 56.9333 717.26 56.5868 715.389 56.4211C713.349 56.2405 711.257 56.2777 709.245 56.5308L708.861 56.5791C707.22 56.7856 705.643 57.1177 704.185 57.5667L702.654 58.0385C701.229 58.4773 699.879 58.9796 698.619 59.5409L694.688 61.2925L688.908 64.3868L683.159 67.7358L683.15 67.7415L677.419 71.168L677.907 72.0734L677.416 71.1699L671.697 74.5601L672.177 75.4789L671.686 74.5668L665.983 77.8441L666.444 78.7737L665.964 77.855L660.282 80.9513L660.711 81.8976L660.25 80.9679L654.575 83.7941L650.681 85.4468C649.506 85.9452 648.257 86.4009 646.944 86.8098L645.172 87.3612C643.932 87.747 642.588 88.049 641.175 88.2568L640.334 88.3805C638.628 88.6314 636.831 88.6946 635.067 88.5645C633.195 88.4263 631.425 88.075 629.894 87.5462L628.92 87.2097C627.457 86.7043 626.178 86.0952 625.122 85.4122L623.14 84.1304C621.827 83.2814 620.671 82.3838 619.68 81.4502L615.554 77.5616L609.879 70.8062L604.17 63.1167L603.376 63.7522L604.164 63.1086L598.422 55.2169L592.63 48.0024L587.738 43.3524C587.06 42.7079 586.218 42.1408 585.256 41.6581L583.054 40.5529C581.489 39.7678 579.378 39.4231 577.326 39.5567C575.509 39.6749 573.777 40.166 572.568 41.0016L569.761 42.943C568.806 43.6032 567.999 44.342 567.378 45.1507C564.074 49.451 561.09 54.0105 558.451 58.7893L556.626 62.0946L556.611 62.1272L550.877 74.3933L550.874 74.4006L550.87 74.408L545.152 87.1433L546.041 87.6216L545.137 87.1752L539.443 98.8123L534.387 106.893C534.01 107.496 533.511 108.096 532.885 108.682L529.256 112.078C528.779 112.525 527.816 112.951 526.509 113.124C524.534 113.385 522.564 112.973 521.571 112.263L518.932 110.375C518.348 109.957 517.923 109.523 517.644 109.103C514.222 103.956 511.179 98.5422 508.544 92.9094L506.818 89.2205L501.102 74.7249L500.173 75.1102L501.096 74.7099L495.364 59.513L489.609 45.3386L487.624 41.3924C485.087 36.3473 482.069 31.5849 478.615 27.1784C478.072 26.4843 477.249 25.9534 476.313 25.5755C474.905 25.007 473.228 24.7715 471.622 24.8258C470.02 24.8799 468.401 25.2254 467.124 25.901L466.398 26.285C465.598 26.7079 464.912 27.2471 464.446 27.9055C460.944 32.8552 457.881 38.131 455.298 43.6669L453.391 47.7519L447.644 62.8475L447.64 62.8582L441.909 78.9244L442.838 79.3099L441.902 78.9428L436.189 94.0866L434.371 98.0624C431.8 103.685 428.773 109.066 425.323 114.145C425.101 114.472 424.72 114.83 424.147 115.17L422.746 116.004C421.968 116.468 420.832 116.782 419.565 116.871C418.306 116.959 417.005 116.819 415.924 116.453C415.076 116.166 414.531 115.794 414.261 115.466C410.94 111.424 408.043 107.018 405.621 102.325L403.603 98.4139L397.897 84.6142L396.97 85.0049L397.887 84.5882L392.161 69.6496L392.158 69.6419L386.411 55.3116L384.641 51.5973C381.97 45.9946 378.893 40.6153 375.437 35.5068C374.965 34.8097 374.322 34.1836 373.555 33.6341L370.825 31.6785C369.375 30.6394 367.041 30.2065 364.864 30.4101C363.246 30.5614 361.704 31.0653 360.711 31.9195L357.261 34.8859C356.498 35.5413 355.854 36.25 355.351 37.0059L350.249 44.6655L344.478 55.953L338.736 68.4774L339.633 68.9336L338.735 68.4806L333.014 80.854L327.322 91.7236L322.431 98.8478C321.953 99.5446 321.327 100.233 320.552 100.899L317.188 103.79C316.642 104.259 315.695 104.688 314.449 104.923C312.372 105.315 310.065 105.06 308.552 104.336L306.97 103.579C306.176 103.199 305.577 102.769 305.171 102.336C301.913 98.8519 298.946 95.08 296.305 91.0623L294.611 88.4849L288.903 78.2695L288.034 78.7858L288.896 78.2561L283.161 67.637L277.392 57.7969L272.661 51.2944C271.926 50.2844 271.042 49.316 270.022 48.3957L266.755 45.4467C265.969 44.7375 264.922 44.1683 263.727 43.7492L263.033 43.5056C260.768 42.7108 257.904 42.566 255.407 43.0976C254.03 43.3907 252.784 43.8857 251.843 44.5679L248.746 46.813C247.754 47.5317 246.886 48.3058 246.16 49.1289L241.397 54.5265L235.621 62.632L229.886 71.3311L230.699 71.9394L229.877 71.3436L224.172 79.7329L222.43 81.9561C219.817 85.2923 216.981 88.4296 213.943 91.3446C213.274 91.9872 212.427 92.6014 211.413 93.1651L208.994 94.5091C208.033 95.0433 206.706 95.4379 205.191 95.5998C203.228 95.8094 201.197 95.6028 199.585 95.0511L198.396 94.6441C197.287 94.2646 196.368 93.7931 195.672 93.2725L192.783 91.1096C191.735 90.325 190.818 89.5076 190.036 88.6665L185.579 83.8727L179.884 76.5014L174.156 68.5634L168.396 60.8457L166.625 58.7908C163.938 55.6733 161.037 52.7665 157.945 50.0937C157.105 49.3676 156.087 48.7223 154.932 48.1675L152.789 47.1389C151.388 46.4661 149.625 46.0751 147.796 45.996C145.723 45.9063 143.63 46.2197 141.946 46.9027L140.336 47.556C139.119 48.0495 138.048 48.6579 137.186 49.3694L134.286 51.7625C133.131 52.7156 132.105 53.7159 131.219 54.7572L126.719 60.0487L120.947 68.2641L115.21 77.0943L116.029 77.6936L115.204 77.1037L109.495 85.687L107.875 87.8084C105.183 91.3339 102.237 94.6381 99.063 97.692C98.553 98.1827 97.8616 98.6545 96.9966 99.0749L94.9663 100.062C93.7109 100.672 91.8767 100.981 90.0211 100.837C88.4674 100.717 87.1512 100.299 86.3256 99.747L83.533 97.8798C82.6899 97.3161 82.0181 96.7175 81.5176 96.1075C78.31 92.1976 75.3789 88.0474 72.7477 83.6899L71.0224 80.8327L65.3081 69.8843L64.4279 70.38L65.3043 69.877L59.5634 58.6659L53.7841 48.5569L48.7068 41.8534C48.1695 41.1441 47.477 40.4955 46.6627 39.9139L43.6855 37.7875C42.441 36.8987 40.562 36.438 38.6703 36.4294C36.7338 36.4205 34.7985 36.8856 33.5304 37.7993L30.5926 39.9159C29.7734 40.5061 29.081 41.1668 28.5521 41.8913L23.4574 48.8713L17.6756 59.6341L6.2079 84.1057L0 95.7596L1.74446 96.7814L7.97805 85.0794L19.4442 60.6111L25.1295 50.0279L30.1388 43.1649C30.5146 42.65 31.041 42.1351 31.7242 41.6429L34.6619 39.5263C35.4769 38.9391 36.961 38.5169 38.6616 38.5247C40.3205 38.5322 41.7597 38.9473 42.5606 39.5194L45.5379 41.6457C46.2205 42.1333 46.7536 42.6438 47.1421 43.1567L52.1378 49.7523L57.8253 59.7008L63.5476 70.8756L63.5515 70.883L69.3001 81.8972L71.0595 84.8109C73.7428 89.2545 76.7318 93.4868 80.0028 97.474C80.655 98.2688 81.4856 98.9959 82.4587 99.6465L85.2513 101.514C86.4432 102.311 88.1124 102.791 89.8743 102.927C91.9854 103.09 94.1748 102.756 95.8064 101.963L97.8368 100.976C98.8423 100.487 99.7188 99.9048 100.414 99.2358C103.663 96.1097 106.678 92.7272 109.435 89.1182L111.096 86.9426L116.849 78.2929L116.855 78.2836L122.578 69.4759L128.273 61.3702L132.711 56.1517C133.509 55.2125 134.448 54.2953 135.521 53.4092L138.422 51.0161C139.094 50.4617 139.98 49.9471 141.057 49.5102L142.667 48.8569C144.051 48.2958 145.862 48.0094 147.713 48.0895C149.347 48.1602 150.843 48.5091 151.957 49.044L154.1 50.0727C155.131 50.5677 155.994 51.1222 156.674 51.7105C159.691 54.3181 162.521 57.1541 165.142 60.1956L166.866 62.1956L172.567 69.8346L173.364 69.2025L172.577 69.8481L178.311 77.7935L184.084 85.2664L188.605 90.1293C189.48 91.0699 190.489 91.9672 191.622 92.815L194.511 94.9779C195.41 95.6504 196.523 96.2073 197.776 96.636L198.965 97.0431C200.875 97.6965 203.19 97.9197 205.393 97.6844C207.093 97.5028 208.685 97.0525 209.93 96.3605L212.348 95.0166C213.483 94.3863 214.475 93.6744 215.292 92.8903C218.399 89.9084 221.301 86.699 223.974 83.2862L225.759 81.0078L231.517 72.5415L237.244 63.8553L242.935 55.8688L247.626 50.5519C248.239 49.8577 248.992 49.1817 249.882 48.5367L252.979 46.2916C253.634 45.8169 254.604 45.4066 255.804 45.1511C257.989 44.6861 260.495 44.8244 262.399 45.4927L263.093 45.7363C264.122 46.0973 264.917 46.5526 265.451 47.0348L268.719 49.9839C269.647 50.8215 270.432 51.6854 271.072 52.5654L275.742 58.9841L281.44 68.7022L287.164 79.302L287.168 79.3087L287.172 79.3154L292.924 89.6106L294.66 92.2515C297.366 96.3683 300.406 100.233 303.745 103.803C304.366 104.467 305.189 105.029 306.14 105.485L307.722 106.242C309.672 107.176 312.405 107.438 314.803 106.985C316.242 106.714 317.552 106.186 318.454 105.411L321.819 102.519C322.706 101.757 323.458 100.939 324.053 100.072L329.015 92.8442L334.79 81.8156L340.536 69.3884L346.259 56.9026L351.955 45.7641L356.989 38.2056C357.371 37.632 357.882 37.0608 358.528 36.5062L361.978 33.5399C362.54 33.0565 363.632 32.629 365.041 32.4972C366.946 32.319 368.762 32.738 369.698 33.4087L372.428 35.3643C373.047 35.8074 373.502 36.2681 373.807 36.7194C377.204 41.7403 380.229 47.0275 382.854 52.5342L384.595 56.187L390.31 70.4388L391.237 70.048L390.316 70.4541L396.048 85.4087L396.053 85.4216L401.804 99.331L403.864 103.322C406.354 108.148 409.332 112.678 412.748 116.834C413.347 117.563 414.272 118.096 415.311 118.447C416.67 118.907 418.23 119.064 419.698 118.961C421.158 118.859 422.613 118.493 423.733 117.826L425.134 116.992C425.879 116.549 426.513 116.005 426.951 115.36C430.467 110.183 433.552 104.699 436.173 98.9683L438.021 94.9263L443.767 79.6953L443.77 79.6861L449.499 63.6245L448.572 63.2361L449.507 63.603L455.219 48.6022L457.092 44.588C459.622 39.1671 462.621 34.0009 466.05 29.1541C466.275 28.8365 466.679 28.4834 467.298 28.1558L468.024 27.7718C468.97 27.2715 470.283 26.9675 471.687 26.92C473.086 26.8727 474.487 27.0836 475.595 27.5309C476.343 27.8331 476.823 28.1917 477.072 28.5087C480.439 32.8059 483.383 37.45 485.857 42.3698L487.803 46.2395L493.51 60.2964L494.439 59.911L493.52 60.3214L499.247 75.5031L504.995 90.083L506.75 93.8324C509.43 99.561 512.524 105.067 516.004 110.301C516.453 110.976 517.07 111.579 517.806 112.106L520.445 113.994C521.976 115.089 524.493 115.502 526.759 115.203C528.267 115.003 529.685 114.485 530.586 113.641L534.215 110.245C534.951 109.556 535.572 108.82 536.058 108.043L541.172 99.8681L546.938 88.084L546.945 88.0679L552.671 75.3155L551.774 74.8544L552.678 75.3007L558.39 63.0821L560.18 59.8393C562.768 55.1532 565.694 50.6821 568.934 46.4652C569.4 45.8584 570.042 45.2591 570.861 44.6922L573.668 42.7508C574.49 42.1827 575.846 41.7524 577.449 41.648C579.25 41.5308 581.005 41.8476 582.191 42.443L584.394 43.5482C585.222 43.9636 585.891 44.425 586.396 44.9047L591.188 49.46L596.862 56.5278L602.581 64.3877L602.587 64.3958L608.339 72.1438L608.359 72.1676L614.132 79.0383L618.344 83.0086C619.435 84.0368 620.69 85.0079 622.091 85.9139L624.073 87.1957C625.286 87.98 626.712 88.6531 628.295 89.1998L629.269 89.5363C630.977 90.1265 632.912 90.506 634.927 90.6547C636.826 90.7948 638.764 90.7273 640.612 90.4555L641.453 90.3318C642.955 90.1109 644.397 89.788 645.74 89.3699L647.512 88.8185C648.883 88.392 650.192 87.9145 651.43 87.3891L655.379 85.7131L661.155 82.8359L661.171 82.8273L666.914 79.6981L672.658 76.3976L672.669 76.3909L678.406 72.9901L684.13 69.5674L683.645 68.6516L684.139 69.5617L689.832 66.2447L689.378 65.3115L689.863 66.2274L695.535 63.1921L699.401 61.4694C700.583 60.9426 701.86 60.4669 703.217 60.0489L704.748 59.5771C706.09 59.1639 707.557 58.8535 709.099 58.6595L709.483 58.6112C711.358 58.3753 713.314 58.3403 715.22 58.509C716.97 58.6639 718.633 58.9864 720.118 59.4538L721.24 59.807C722.687 60.2625 724.004 60.8042 725.162 61.4156L729.008 63.4465L734.659 67.4224L740.346 72.0802L740.979 71.2696L740.364 72.0953L746.08 77.0034L746.09 77.0121L746.1 77.0206L751.867 81.7111L756.106 84.6043C757.171 85.3309 758.355 86.0026 759.643 86.6132L761.767 87.6201C762.995 88.2023 764.406 88.6571 765.926 88.9704L766.506 89.0899C768.528 89.5065 770.735 89.6171 772.868 89.4125C774.653 89.2411 776.35 88.8522 777.811 88.2666L779.503 87.588C780.863 87.043 782.093 86.4063 783.159 85.688L787.44 82.8037L793.222 77.7249L793.244 77.706L798.993 72.0498L798.314 71.2811L798.998 72.0451L804.7 66.5088L809.004 62.9025C809.892 62.1587 810.901 61.4454 812.026 60.7708L814.527 59.2697C815.422 58.7332 816.522 58.2677 817.784 57.9059L818.807 57.6126C820.447 57.1424 822.369 56.9475 824.276 57.069C825.921 57.1738 827.449 57.5073 828.688 58.0141L830.506 58.7575C831.675 59.2355 832.693 59.7837 833.537 60.3804L837.838 63.4199L843.505 68.6281L849.226 74.444L849.232 74.4499L854.998 80.121L859.47 83.7897C860.388 84.5426 861.439 85.2401 862.604 85.8754L865.08 87.225C866.224 87.8481 867.611 88.313 869.114 88.5994C871.517 89.0573 874.173 89.0495 876.564 88.5734C878.091 88.2695 879.487 87.7805 880.626 87.1261L883.096 85.7072C884.276 85.0291 885.33 84.2848 886.235 83.4817L890.735 79.4909L896.505 73.1827L896.515 73.1713L896.525 73.1595L902.232 66.5288L901.517 65.7977L902.259 66.4993L907.922 60.4098L912.527 56.5559C913.165 56.0221 913.969 55.5196 914.926 55.072L917.104 54.0537C918.251 53.5175 919.811 53.1935 921.481 53.1841C923.274 53.174 924.953 53.5282 926.141 54.1188L928.17 55.1266C929.151 55.6141 929.939 56.1609 930.524 56.7323C933.62 59.7586 936.469 63.0509 939.041 66.5748L940.835 69.0314L946.542 78.2174L947.384 77.6555L946.548 78.2265L952.291 87.6846L953.937 90.0797C956.701 94.1007 959.778 97.8739 963.138 101.36C963.747 101.993 964.563 102.512 965.499 102.917L966.422 103.316C968.752 104.324 972.003 104.463 974.594 103.703C975.813 103.346 976.895 102.785 977.624 102.021L981.279 98.1888C982.136 97.2908 982.855 96.347 983.423 95.3647L988.401 86.7553L994.157 73.8975L994.165 73.8794L994.173 73.8611L999.902 59.6839L998.987 59.2644L999.906 59.6727L1005.62 45.9772L1007.56 42.1249C1010.04 37.1934 1012.99 32.5356 1016.36 28.2218C1016.59 27.9278 1017.07 27.5786 1017.86 27.3013C1018.93 26.9235 1020.24 26.785 1021.49 26.8881C1022.76 26.9922 1023.86 27.3329 1024.55 27.8073L1026.24 28.9553C1026.73 29.2896 1027.04 29.6281 1027.22 29.9319C1030.73 35.8722 1033.77 42.1032 1036.31 48.5627L1038.18 53.322L1043.9 71.0944L1044.85 70.7775L1043.91 71.1124L1049.64 90.0425L1049.64 90.0524L1049.64 90.0623L1055.39 107.816L1057.51 113.072C1059.95 119.114 1062.95 124.887 1066.47 130.307C1066.96 131.052 1067.79 131.583 1068.7 131.931C1070.06 132.448 1071.67 132.597 1073.13 132.451C1074.57 132.309 1076.03 131.864 1077.01 131.031L1079.23 129.147C1079.74 128.707 1080.17 128.201 1080.46 127.629L1085.91 116.711L1091.66 99.8148L1091.67 99.7879L1091.68 99.7604L1097.41 79.4988L1097.42 79.4916L1097.42 79.4844L1103.15 58.1196L1102.19 57.819L1103.15 58.1026L1108.86 38.1019L1107.92 37.7436L1108.88 38.0442L1110.69 32.8196C1113.27 25.385 1116.37 18.1572 1119.95 11.1936C1120.08 10.9429 1120.31 10.6574 1120.68 10.3639L1122.51 8.90262C1123.14 8.3977 1124.27 8.01913 1125.61 7.91671C1126.93 7.81575 1128.3 7.99657 1129.34 8.44202C1129.98 8.72066 1130.33 9.03339 1130.47 9.25834C1133.95 14.8531 1136.89 20.7922 1139.27 26.9904L1141.38 32.5107L1147.1 51.5868L1148.06 51.3026L1147.1 51.6166L1158.56 94.2672L1158.57 94.2815L1164.3 113.517L1164.31 113.554L1166.36 118.967C1168.85 125.544 1171.9 131.87 1175.48 137.866C1175.87 138.523 1176.5 139.037 1177.23 139.421C1178.67 140.183 1180.53 140.494 1182.29 140.44C1184.04 140.386 1185.84 139.965 1187.13 139.091L1187.96 138.529C1188.56 138.117 1189.08 137.61 1189.41 137.006C1193.02 130.385 1196.11 123.466 1198.65 116.318L1200.59 110.843L1200.61 110.81L1200.62 110.777L1206.35 90.6039L1206.35 90.5914L1206.36 90.5788L1212.09 68.4064L1211.13 68.1291L1212.09 68.4032L1217.81 46.5347L1216.86 46.2241L1217.82 46.5014L1223.53 27.2081L1225.82 21.3024C1228.07 15.4764 1230.93 9.926 1234.33 4.7499C1234.49 4.50285 1234.96 4.13942 1235.84 3.87968C1236.84 3.58442 1238.01 3.52493 1239.07 3.67855C1240.16 3.83643 1240.98 4.19472 1241.37 4.58023L1244.24 7.35326C1244.57 7.67409 1244.8 7.98776 1244.93 8.27913L1250.33 19.8326L1256.03 37.4558L1256.99 37.1723L1256.05 37.5086L1261.76 58.8334L1262.73 58.5663L1261.76 58.8498L1267.49 81.6427L1267.5 81.654L1273.24 103.496L1273.24 103.518L1278.99 122.098L1284.43 134.678C1284.69 135.291 1285.06 135.87 1285.53 136.408L1289.25 140.728C1289.85 141.423 1290.78 141.861 1291.73 142.105C1292.71 142.357 1293.83 142.439 1294.95 142.316C1295.74 142.228 1296.48 142.04 1297.12 141.761C1297.74 141.487 1298.33 141.095 1298.73 140.555L1302.95 134.811C1303.46 134.113 1303.88 133.384 1304.19 132.631L1309.53 119.495L1309.55 119.448L1315.28 100.634L1315.29 100.616L1315.29 100.597L1321.02 79.1039L1321.02 79.0994L1326.75 57.2556L1325.8 56.9533L1326.76 57.2311L1332.48 37.3397L1334.39 31.9946C1336.91 24.9757 1339.95 18.1798 1343.51 11.6724C1343.65 11.4139 1343.91 11.1143 1344.33 10.8109L1345.72 9.82375C1346.47 9.29273 1347.7 8.92561 1349.1 8.84443C1350.49 8.76401 1351.9 8.97334 1352.96 9.44652C1353.59 9.7287 1353.95 10.0426 1354.11 10.285C1357.57 15.5663 1360.55 21.1857 1362.98 27.0652L1365 31.9202L1370.71 49.2302L1371.66 48.9152L1370.72 49.2577L1382.18 87.3635L1382.18 87.3794L1382.19 87.3952L1387.93 104.573L1389.8 109.071C1392.41 115.337 1395.48 121.375 1399 127.127C1399.41 127.792 1399.98 128.385 1400.68 128.901L1403.28 130.846C1404.1 131.456 1405.2 131.841 1406.33 132.03C1407.48 132.223 1408.74 132.229 1409.95 132.017C1411.33 131.773 1412.63 131.24 1413.42 130.398L1418.29 125.256L1425.61 115.205L1425.64 115.171L1425.66 115.134L1427.48 112.163C1428.96 109.74 1430.53 107.386 1432.2 105.104C1435.58 100.488 1441.29 92.702 1442.85 90.7009C1444.14 89.0502 1448.81 83.6296 1452.57 79.3008C1455.85 75.523 1459.4 72.0128 1463.18 68.7749ZM1365 31.9202L1365.01 31.9567L1365.93 31.5389L1364.99 31.8815L1365 31.9202ZM1332.48 37.3397L1332.49 37.3063L1331.53 37.004L1332.46 37.3725L1332.48 37.3397ZM1250.33 19.8326L1250.36 19.8931L1251.26 19.4318L1250.31 19.7681L1250.33 19.8326ZM1223.53 27.2081L1223.55 27.1661L1222.59 26.8555L1223.52 27.2494L1223.53 27.2081ZM1141.38 32.5107L1141.4 32.5491L1142.32 32.1587L1141.37 32.4726L1141.38 32.5107ZM1038.18 53.322L1038.2 53.3535L1039.12 52.954L1038.17 53.2889L1038.18 53.322ZM1005.62 45.9772L1005.64 45.9417L1004.72 45.5218L1005.6 46.0107L1005.62 45.9772ZM940.835 69.0314L940.858 69.0634L941.652 68.4265L940.814 68.9984L940.835 69.0314ZM907.922 60.4098L907.966 60.3631L907.251 59.6317L907.874 60.4505L907.922 60.4098ZM843.505 68.6281L843.524 68.6452L844.182 67.8572L843.487 68.6095L843.505 68.6281ZM837.838 63.4199L837.89 63.457L838.449 62.5882L837.79 63.3761L837.838 63.4199ZM804.7 66.5088L804.727 66.4829L804.048 65.7142L804.671 66.5326L804.7 66.5088ZM734.659 67.4224L734.689 67.4436L735.246 66.5736L734.631 67.3993L734.659 67.4224ZM729.008 63.4465L729.063 63.4758L729.512 62.5401L728.956 63.4101L729.008 63.4465ZM695.535 63.1921L695.566 63.1754L695.111 62.2423L695.502 63.2065L695.535 63.1921ZM596.862 56.5278L596.878 56.5472L597.642 55.8724L596.848 56.5079L596.862 56.5278ZM591.188 49.46L591.238 49.5073L591.909 48.7311L591.144 49.4059L591.188 49.46ZM558.39 63.0821L558.405 63.0494L557.508 62.5883L558.372 63.1133L558.39 63.0821ZM487.803 46.2395L487.822 46.2776L488.706 45.7889L487.787 46.1993L487.803 46.2395ZM455.219 48.6022L455.233 48.5655L454.305 48.1771L455.202 48.6376L455.219 48.6022ZM384.595 56.187L384.609 56.2178L385.503 55.7493L384.582 56.1554L384.595 56.187ZM351.955 45.7641L351.983 45.71L351.102 45.2149L351.921 45.8148L351.955 45.7641ZM346.259 56.9026L346.269 56.8816L345.369 56.4277L346.249 56.9228L346.259 56.9026ZM281.44 68.7022L281.449 68.7184L282.3 68.1696L281.431 68.6859L281.44 68.7022ZM275.742 58.9841L275.773 59.026L276.567 58.3905L275.716 58.9392L275.742 58.9841ZM242.935 55.8688L242.966 55.8248L242.166 55.1977L242.899 55.9092L242.935 55.8688ZM237.244 63.8553L237.254 63.8395L236.432 63.2436L237.233 63.8708L237.244 63.8553ZM166.866 62.1956L166.889 62.2231L167.631 61.5206L166.844 62.1663L166.866 62.1956ZM128.273 61.3702L128.3 61.3309L127.496 60.7094L128.242 61.4067L128.273 61.3702ZM122.578 69.4759L122.588 69.4599L121.763 68.87L122.567 69.4914L122.578 69.4759ZM57.8253 59.7008L57.8374 59.722L58.6943 59.1833L57.8141 59.6789L57.8253 59.7008ZM52.1378 49.7523L52.1786 49.8062L52.9609 49.1546L52.104 49.6933L52.1378 49.7523ZM25.1295 50.0279L25.1639 49.9638L24.2934 49.4496L25.0868 50.0864L25.1295 50.0279ZM19.4442 60.6111L19.4566 60.5847L18.5599 60.1226L19.4304 60.6368L19.4442 60.6111ZM6.2079 84.1057L6.19631 84.1305L7.09293 84.5925L6.22075 84.0816L6.2079 84.1057ZM71.0224 80.8327L71.0054 80.8044L70.1613 81.3649L71.0377 80.8619L71.0224 80.8327ZM109.495 85.687L109.476 85.7155L110.296 86.3148L109.516 85.6599L109.495 85.687ZM179.884 76.5014L179.874 76.488L179.097 77.1475L179.894 76.5153L179.884 76.5014ZM185.579 83.8727L185.547 83.8381L184.831 84.5695L185.607 83.91L185.579 83.8727ZM224.172 79.7329L224.152 79.7621L224.965 80.3704L224.193 79.7054L224.172 79.7329ZM294.611 88.4849L294.59 88.4531L293.767 89.0478L294.629 88.5181L294.611 88.4849ZM327.322 91.7236L327.293 91.7797L328.168 92.284L327.357 91.6719L327.322 91.7236ZM333.014 80.854L333.003 80.8776L333.902 81.3347L333.026 80.8304L333.014 80.854ZM403.603 98.4139L403.582 98.3738L402.704 98.8724L403.62 98.4557L403.603 98.4139ZM436.189 94.0866L436.176 94.1212L437.105 94.5066L436.204 94.0537L436.189 94.0866ZM506.818 89.2205L506.803 89.1901L505.906 89.6516L506.83 89.2513L506.818 89.2205ZM539.443 98.8123L539.418 98.8619L540.307 99.3401L539.472 98.7655L539.443 98.8123ZM609.879 70.8062L609.859 70.7825L609.109 71.4751L609.897 70.8315L609.879 70.8062ZM615.554 77.5616L615.511 77.5207L614.843 78.2999L615.592 77.6074L615.554 77.5616ZM654.575 83.7941L654.548 83.8072L654.977 84.7535L654.602 83.7824L654.575 83.7941ZM753.026 80.0023L752.991 79.9786L752.446 80.8567L753.059 80.0289L753.026 80.0023ZM786.254 81.1124L786.206 81.1549L786.847 81.958L786.307 81.0766L786.254 81.1124ZM791.918 76.1374L791.897 76.1577L792.581 76.9217L791.939 76.1186L791.918 76.1374ZM856.3 78.5286L856.265 78.4996L855.649 79.3248L856.333 78.5606L856.3 78.5286ZM889.365 77.9617L889.329 78.0011L890.05 78.7263L889.405 77.9264L889.365 77.9617ZM953.946 86.5087L953.929 86.4839L953.118 87.0964L953.961 86.5337L953.946 86.5087ZM986.638 85.764L986.615 85.8145L987.519 86.2597L986.665 85.7165L986.638 85.764ZM1057.26 107.07L1057.24 107.035L1056.32 107.443L1057.27 107.106L1057.26 107.07ZM1084.07 115.869L1084.05 115.938L1084.99 116.29L1084.1 115.804L1084.07 115.869ZM1166.2 112.855L1166.19 112.819L1165.26 113.205L1166.21 112.892L1166.2 112.855ZM1198.71 110.145L1198.7 110.178L1199.66 110.477L1198.72 110.111L1198.71 110.145ZM1280.86 121.34L1280.84 121.287L1279.93 121.719L1280.88 121.395L1280.86 121.34ZM1307.66 118.764L1307.64 118.811L1308.59 119.13L1307.68 118.718L1307.66 118.764ZM1389.79 103.806L1389.78 103.771L1388.86 104.189L1389.81 103.843L1389.79 103.806ZM1416.78 123.876L1416.74 123.931L1417.53 124.567L1416.82 123.829L1416.78 123.876ZM1424 113.967L1423.98 114.003L1424.82 114.569L1424.02 113.933L1424 113.967Z" fill="white"/>
</svg>
