<svg width="1440" height="117" viewBox="0 0 1440 117" fill="none" xmlns="http://www.w3.org/2000/svg">
<path d="M0 0C139 5.65052e-05 218.062 50 360 50C501.938 50 578.062 0 720 0C861.938 0 938.062 50 1080 50C1221.94 50 1298.5 5.65052e-05 1440 0V77H0L0 0Z" fill="#1D2B2B"/>
<path d="M0 10C139 10.0001 218.062 60 360 60C501.938 60 578.062 10 720 10C861.938 10 938.062 60 1080 60C1221.94 60 1298.5 10.0001 1440 10V87H0L0 10Z" fill="#535E5E"/>
<path d="M0 20C139 20.0001 218.062 70 360 70C501.938 70 578.062 20 720 20C861.938 20 938.062 70 1080 70C1221.94 70 1298.5 20.0001 1440 20V97H0L0 20Z" fill="#8A9191"/>
<path d="M0 30C139 30.0001 218.062 80 360 80C501.938 80 578.062 30 720 30C861.938 30 938.062 80 1080 80C1221.94 80 1298.5 30.0001 1440 30V107H0L0 30Z" fill="#C0C4C4"/>
<path d="M0 42C139 42.0001 218.062 92.1396 360 92.1396C501.938 92.1396 578.062 42 720 42C861.938 42 938.062 92.1396 1080 92.1396C1221.94 92.1396 1298.5 42.0001 1440 42V117C1440 117 1001.18 117 720 117C438.823 117 0 117 0 117V42Z" fill="white"/>
</svg>
