<svg xmlns="http://www.w3.org/2000/svg" viewBox="0 0 250 130"><defs><style>.cls-1{fill:#737373;}.cls-2{fill:none;}</style></defs><g id="Layer_2" data-name="Layer 2"><g id="logos"><polygon class="cls-1" points="121.99 84.04 127.94 84.04 127.94 113.63 121.99 113.63 121.99 84.04 121.99 84.04"/><path class="cls-1" d="M111.2,81.7c-1-.56-4.06-2.07-7.58,1l-19,16,4.8,3.82,5.88-5.23a24.15,24.15,0,0,0,11.27,6.17l-1.23,7.77,5.8,2,3.26-24.6C115.12,84,112.22,82.26,111.2,81.7Zm-8.09,14.77a14.67,14.67,0,0,1-3.75-2.74l7.76-6.93a1.2,1.2,0,0,1,1.38-.18,1.23,1.23,0,0,1,.6,1.26l-1.65,10.27A14.37,14.37,0,0,1,103.11,96.47Z"/><path class="cls-1" d="M135.4,88.62l3.25,24.6,5.8-2-1.22-7.77a24,24,0,0,0,11.26-6.17l5.88,5.23,4.81-3.82-19-16c-3.53-3.07-6.56-1.56-7.58-1S134.71,84,135.4,88.62Zm7,9.53-1.65-10.27a1.21,1.21,0,0,1,.59-1.26,1.22,1.22,0,0,1,1.39.18l7.76,6.93a14.76,14.76,0,0,1-3.76,2.74A14.44,14.44,0,0,1,142.39,98.15Z"/><path class="cls-1" d="M115.54,55.79c-1.47-.42-2.58-.5-3.36-.67s.39-.67.78-.73a19.75,19.75,0,0,0,4.48-1.73c1.06-.73,4.65-2.75,5.15-3.53s2.24-.34,2.47-.34c0,0,.11.28-.34.73A3,3,0,0,0,124.1,51a2.38,2.38,0,0,1-1.12,1.4c-.61.4-2.74,1.68-2.46,3.48a7.56,7.56,0,0,0,3.08,4.48,61.43,61.43,0,0,1,5.83,4.36c.95.9,1.56,2.58,2.18,4.43a4.3,4.3,0,0,0,3.92,2.74c1.34,0,3.47,0,4.31,1.23a1,1,0,0,1-.78.17,12.5,12.5,0,0,0-3.25,1,12.1,12.1,0,0,1-4.37.23c-1.73-.17-3-.17-3.64.56a3.48,3.48,0,0,1-2.46,1.34c-1.18.11-8-.28-9.41-1.06-1.61-.91,1.45-1,2-1.12a44.66,44.66,0,0,0,5-1.23c.81-.41,3.08-3.2,4.14-3.53s1-2.07,0-2.63-1.46.39-2.24-.68-.06-1.51-.79-2.57-3.25-2.86-4.37-4.43A9.65,9.65,0,0,0,115.54,55.79Z"/><path class="cls-1" d="M125,16.37A45.69,45.69,0,0,0,88.82,90l1.47-1.11a41.63,41.63,0,0,1-7.37-14.92c0-.59,1.28-.33,2-.17s6,1.85,8,1.51a30.42,30.42,0,0,0,6.81-2.18,12.9,12.9,0,0,1,5.46-1c.84.08-.42-.92-1.18-1.26s-2.77,0-4.87,0,3.86-6,4.37-6.38,1-.68.33-.68-4.62,2.19-6,2.61-4.2.33-5.72.42-5.2,2.52-6.3,3A30.59,30.59,0,0,1,82.28,71s.55-7.3,3-10.74,5.79-6.89,7-6.3,0,1.76.59,2.35,1.43.5,1.43,1.85.33,2-1.43,3.94-2.35,3.28-.67,2.69S98,62.93,99,62.6s3.36-2.77,4.62-3.45,7-6.46,8.15-7A13.21,13.21,0,0,0,115.68,49,11.64,11.64,0,0,1,119,45.46c1.26-.67,5.29-3.11,6-4.28s1.77-3.2,2.27-3.11A6.64,6.64,0,0,1,130,39.66c.67.76.5,1.6.92,2.27a5.26,5.26,0,0,0,2.61,2.1c1.26.42,4.7,3.11,3.94,3.45s-2.94-1.43-3.94-1.52-1.68,0-1.43.59,3.19,3.11,3.86,4,.67,3.1,1.26,4.87,1.93,1.93,2.1,4.7,2.61,5.38,3.61,6.22,2.44,2.1,3.28,2.18.67-.5,2,0,1.09,0,.5-1.09a.94.94,0,0,1,.59-1.43c2.94-.17,4.11,3,4,5.71s-1.93,2-2.94,4.12,0,1.51.5,1.09,4-.33,5.8-.5,3.28-2.44,4-3a1.46,1.46,0,0,1,1.85-.25c.59.34-.09,2.19.25,2.44s2.18-1.09,2.86-1.6a3,3,0,0,1,1.59-.5l0,0A41.51,41.51,0,0,1,159.63,89l1.46,1.12A45.68,45.68,0,0,0,125,16.37Zm36.71,45c-1.09-.84-4-4.2-5.38-4.62s-5.54-3.19-6.8-3.78a7.29,7.29,0,0,1-3-3.61c-.26-1-2.61-4.21-3.87-4.46s-7-2.77-7.81-3.11a33.68,33.68,0,0,1-5-3.19,3.59,3.59,0,0,0-3-.92c-.42.17-1.73,2.52-2.23,3.27s-5.38,3.78-6,3.95a11.84,11.84,0,0,0-3,1.94c-1.06.95-1.34,2.26-2.69,3.1s-7,4.71-8,5.38-2.6,2.94-3.78,2.86-5.29-1.85-6.21-2.86a11.7,11.7,0,0,0-2.78-1.93c-1.9,0-8,5.69-10.51,8.18,1.07-22.38,20.07-40.2,43.36-40.2,22.72,0,41.35,17,43.24,38.56C166.54,62.79,162.76,62.15,161.71,61.34Z"/><rect class="cls-2" width="250" height="130"/></g></g></svg>