<svg xmlns="http://www.w3.org/2000/svg" viewBox="0 0 250 130"><defs><style>.cls-1{fill:#737373;}.cls-2{fill:none;}</style></defs><g id="Layer_2" data-name="Layer 2"><g id="logos"><path class="cls-1" d="M215.84,59.85a9.42,9.42,0,0,0-9.42,9.42V78.7h3.35V69.27a6.08,6.08,0,0,1,6-6.07H218V59.85Z"/><path class="cls-1" d="M227.3,79.09a9.82,9.82,0,1,1,9.82-9.82,9.83,9.83,0,0,1-9.82,9.82m0-16.22a6.4,6.4,0,1,0,6.4,6.4,6.41,6.41,0,0,0-6.4-6.4"/><path class="cls-1" d="M156.41,79.09a9.82,9.82,0,1,1,9.82-9.82,9.82,9.82,0,0,1-9.82,9.82m0-16.22a6.4,6.4,0,1,0,6.41,6.4,6.41,6.41,0,0,0-6.41-6.4"/><path class="cls-1" d="M176.93,59.45a9.83,9.83,0,0,0-9.82,9.82V86.49h3.42V76.71a9.82,9.82,0,1,0,6.4-17.26m0,16.23a6.41,6.41,0,1,1,6.41-6.41,6.41,6.41,0,0,1-6.41,6.41"/><path class="cls-1" d="M196.59,59.45h0a8.44,8.44,0,0,0-5.26,1.68V53h-3.42v25.7h3.42V69.27c0-1.92.51-6.4,5.26-6.4s5.26,4.48,5.26,6.4v9.39h3.42V69.27c0-6-3.41-9.82-8.68-9.82"/><path class="cls-1" d="M143.41,66a11.17,11.17,0,0,0-2-1.55A24.16,24.16,0,0,0,138.51,63a16.48,16.48,0,0,1-3.15-1.68,2.95,2.95,0,0,1-.07-4.62,4,4,0,0,1,2.67-.88,4.82,4.82,0,0,1,2.59.61,3.72,3.72,0,0,1,1.27,1.31l0,0h3.79l-.78-1.62c-1.35-2.45-3.68-3.7-6.9-3.7a7.27,7.27,0,0,0-5,1.8,6.45,6.45,0,0,0-.06,9.56,16.67,16.67,0,0,0,4.19,2.4c1,.44,1.8.84,2.43,1.18a6.78,6.78,0,0,1,1.28.86,4.15,4.15,0,0,1,1.46,3.26,3.88,3.88,0,0,1-1.18,3.11,5.15,5.15,0,0,1-3.45,1c-2.38,0-3.85-1-4.6-3h-3.63l.13.42c1.2,4,3.92,6,8.1,6a10.18,10.18,0,0,0,3.46-.54c3-1.12,4.55-3.48,4.55-7A7.45,7.45,0,0,0,143.41,66"/><path class="cls-1" d="M104.42,64.33a7,7,0,0,0,2.13-5A6.87,6.87,0,0,0,100,52.46H90.41V79.09h9.28a8.14,8.14,0,0,0,4.73-14.76m-4.71-8.45a3.43,3.43,0,0,1,3.42,3.42,3.51,3.51,0,0,1-3.43,3.51H93.83V55.88Zm0,19.79H93.83V66.24H99.7a4.72,4.72,0,0,1,0,9.43"/><path class="cls-1" d="M128.19,71a9.83,9.83,0,0,0-9.67-11.54,9.82,9.82,0,1,0,9.21,13.25h-3.8A6.41,6.41,0,0,1,112.35,71Zm-9.67-8.12a6.41,6.41,0,0,1,6.17,4.69H112.35a6.42,6.42,0,0,1,6.17-4.69"/><path class="cls-1" d="M21.46,59.48a42.26,42.26,0,0,1,2.21-5.69l2.46,0a32.68,32.68,0,0,1,4.12.18,10.35,10.35,0,0,1,4.42,1.87,15.21,15.21,0,0,0-.93,9c.53,2.1,2.94,7.57,5.16,12.45-3.56-1.27-10.16-3.7-12.34-5-4.34-2.62-6-8.66-5.1-12.71M39.9,73.85A94.89,94.89,0,0,1,36,64.23a12.7,12.7,0,0,1,.54-6.8,12.7,12.7,0,0,1,3.3,6.27,90.83,90.83,0,0,1,.09,10.15M27.32,46.06c2.18.76,7.82,2.78,11.34,4.34a13,13,0,0,0-2.93,3.34,12.4,12.4,0,0,0-5.14-2.07,32.74,32.74,0,0,0-4.46-.23h-1.4c1-2.22,2-4.28,2.59-5.39M25,78.54c-5-.75-8.89-5.67-9.6-9.77-.43-2.88.05-11.72.25-14.64,1.16-.07,3.26-.19,5.54-.27A37.77,37.77,0,0,0,19.23,59c-1.13,5,.87,12,6.15,15.2a87.42,87.42,0,0,0,10.41,4.4c-2.14.09-4.63.17-6.77.17A31.75,31.75,0,0,1,25,78.54M41,80.9c8,0,15.9,0,16.36-.11,6.11-.91,10.65-6.64,11.53-11.65a64.76,64.76,0,0,0,.07-9.65c-.16-4.06-.27-5.48-.38-6.63h0c0-.76-.82-1-2.19-1.12-.7,0-1.7-.05-2.84-.1s-2.39-.1-3.77-.14l-.65-1.41c-3.07-6.58-3.07-6.58-3.91-6.58A120,120,0,0,0,41,49a120,120,0,0,0-14.24-5.46c-.84,0-.84,0-3.9,6.58-.23.49-.45,1-.65,1.41-1.39,0-2.71.09-3.77.14s-2.14.06-2.85.1c-1.36.08-2.19.36-2.19,1.12h0c-.12,1.15-.22,2.57-.39,6.63a62.94,62.94,0,0,0,.08,9.65c.87,5,5.42,10.74,11.52,11.65.46.07,8.39.11,16.37.11m14.41-8.71c-2.18,1.32-8.77,3.75-12.34,5,2.22-4.88,4.63-10.35,5.16-12.45a15.21,15.21,0,0,0-.93-9,10.39,10.39,0,0,1,4.43-1.87,32.39,32.39,0,0,1,4.11-.18l2.46,0a44,44,0,0,1,2.22,5.69c.92,4.05-.77,10.09-5.11,12.71M41,60a16.06,16.06,0,0,0-3.44-4.75A10.14,10.14,0,0,1,41,51.57a10.23,10.23,0,0,1,3.44,3.63A16.06,16.06,0,0,0,41,60m1.16,3.75a12.8,12.8,0,0,1,3.31-6.27,12.69,12.69,0,0,1,.53,6.8,92.57,92.57,0,0,1-3.93,9.62,90.83,90.83,0,0,1,.09-10.15M57.22,51.45h-1.4a32.46,32.46,0,0,0-4.45.23,12.39,12.39,0,0,0-5.15,2.07,12.77,12.77,0,0,0-2.93-3.34c3.52-1.56,9.16-3.58,11.35-4.34.55,1.11,1.55,3.17,2.58,5.39M52.93,78.72c-2.14,0-4.63-.08-6.77-.17a87.69,87.69,0,0,0,10.42-4.4C61.86,71,63.85,63.91,62.73,59a37.77,37.77,0,0,0-1.91-5.09c2.28.08,4.37.2,5.54.27.19,2.92.68,11.76.24,14.64-.71,4.1-4.58,9-9.6,9.77a31.65,31.65,0,0,1-4.07.18"/><rect class="cls-2" width="250" height="130"/></g></g></svg>