<svg xmlns="http://www.w3.org/2000/svg" viewBox="0 0 250 130"><defs><style>.cls-1{fill:#737373;}.cls-2{fill:none;}</style></defs><g id="Layer_2" data-name="Layer 2"><g id="logos"><path class="cls-1" d="M94.06,66.45c0-1.14.18-3-1.11-3.46v-.08h6c3.34,0,5.28,1.42,5.28,3.67,0,1.69-1.08,2.65-2.53,3.28,2.28.48,4.12,2,4.12,4.48a5.09,5.09,0,0,1-3,4.42c-1.77.86-3.77.78-5.66.78H93v-.07c1.26-.48,1.11-2.33,1.11-3.49Zm3.41,3.16c1.65,0,4-.56,4-2.63a2.66,2.66,0,0,0-3.14-2.5l-1.69.17v5Zm1.37,8.11c2.07.21,4.17-.76,4.17-3.16s-2.38-3.51-4.6-3.38l-1.77.1v6.24Z"/><path class="cls-1" d="M125.41,71.05a9,9,0,0,1-9.3,8.9c-5,0-9.23-3.59-9.23-8.77a9,9,0,0,1,9.48-8.7,8.72,8.72,0,0,1,9,8.57M109.76,71c0,3.54,2.5,7.18,6.47,7.18s6.3-2.81,6.3-6.57-2.35-7.26-6.35-7.26-6.42,2.83-6.42,6.65"/><path class="cls-1" d="M127.71,66.37c0-1.16.18-3-1.11-3.38v-.08h6.19c5.77,0,9.36,3.13,9.36,8.16s-3.82,8.47-9.48,8.47H126.6v-.07c1.26-.86,1.11-2.07,1.11-3.57Zm2.58,11.18a9.43,9.43,0,0,0,1.85.17c3.76,0,7.13-2,7.13-6.34s-2.48-6.65-6.7-6.65a9.88,9.88,0,0,0-2.28.28Z"/><path class="cls-1" d="M150.92,76.26c0,1.51,0,2.27,1.29,3.21v.07h-4.93v-.07c1.24-.63,1.06-2.28,1.06-3.47V72.26l-4.19-6.75a6.16,6.16,0,0,0-2.41-2.6h2.31a2.16,2.16,0,0,1,1.89.71l4.05,6.6,3.13-4.71c.43-.63,1-1.84-.4-2.52v-.08h4.42l-6.22,9.35Z"/><path class="cls-1" d="M171.5,66.12a4.8,4.8,0,0,0,.36-1.47A1.85,1.85,0,0,0,170.75,63v-.08h4.52V63l-5.84,17.08a15,15,0,0,1-3.18-1.26,4.79,4.79,0,0,1-2.33-3l-3.84-10.6A5,5,0,0,0,158.84,63v-.08h5.71V63l0,.12a12.94,12.94,0,0,0,.78,2.86l3.21,9.3Z"/><path class="cls-1" d="M182,76c0,1.32-.18,2.73,1.06,3.52v.07h-6.8v-.07c1.24-.79,1.06-2.2,1.06-3.52V66.52c0-1.31.18-2.75-1.06-3.53v-.08h6.8V63c-1.24.78-1.06,2.22-1.06,3.53Z"/><path class="cls-1" d="M192.24,62.91a5.13,5.13,0,0,1,3.51.83,3.89,3.89,0,0,1,1.7,3.14,3.4,3.4,0,0,1-2.68,3.21,4.23,4.23,0,0,1,3.64,4.32,5,5,0,0,1-1.8,3.92c-1.36,1.19-2.7,1.21-4.5,1.21H184.7v-.07c1.24-.79,1.07-2.2,1.07-3.54V66.5c0-1.32.17-2.76-1.07-3.51v-.08Zm-1.8,6.37a1.72,1.72,0,0,0,.48.1,2,2,0,0,0,1.85-2.17c0-1-.51-1.95-1.59-1.95a2,2,0,0,0-.74.15Zm0,7.58a1.71,1.71,0,0,0,1.12.31c1.64,0,2.3-1.37,2.3-2.83,0-1.93-.89-2.78-2.81-2.78h-.61Z"/><path class="cls-1" d="M205.71,76.74a7.27,7.27,0,0,0,2.66.38,4.4,4.4,0,0,0,3.69-1.39h.13l-1,3.81H200v-.07c1.23-.79,1.06-2.2,1.06-3.52V66.5c0-1.32.17-2.76-1.06-3.51v-.08h8.84a2.76,2.76,0,0,0,1.07-.13H210v3.67h-.07c-.69-1.19-2.13-1.06-3.37-1.06h-.81v4.09h2.36a2.56,2.56,0,0,0,.93-.12h.13V72.9H209c-.35-1-1.52-.91-2.45-.91h-.84Z"/><rect class="cls-1" x="146.95" y="88.24" width="11.24" height="0.76"/><path class="cls-1" d="M78.32,62.64h0c-4.72,0-5.28.25-5.28.25,2.44,1,2,3.51,1,6.38l-8,21.24-.05.14L59,72.35h0l-1.12-3c-1-2.86-1.43-5.48,1-6.47,0,0-.74-.33-5.61-.31h-.83a28.35,28.35,0,0,0-4.3.29c2.63,1.63,3.33,4.86,4.35,7.56l8.17,21c2.22,5.49,3.21,5.5,6.51,7l9.16-23.75s.06-.17.18-.47c1.11-2.83,2.35-6,3.3-8.5a4.65,4.65,0,0,1,2.67-2.9,23.06,23.06,0,0,0-4.16-.24"/><path class="cls-1" d="M55.16,52.73a16.76,16.76,0,0,0-8,2.37,8.31,8.31,0,0,1-1,.43,7.6,7.6,0,0,1-.22-1.9l-.07-13.36a86.77,86.77,0,0,1,.44-8.77c-1.08-.07-7.41,3.07-8.5,4A12.33,12.33,0,0,1,39,36c1.16.55,1.72,1.6,1.75,5.77l.16,32.16c0,5.62,4,7.32,5.51,7.74a18.68,18.68,0,0,0,6.09.89,20.66,20.66,0,0,0,3-.24l-.76-2a9.56,9.56,0,0,1-1.09.06A7.15,7.15,0,0,1,48,78.14,9.83,9.83,0,0,1,46,72L46,61c0-2.76.33-3.54,1-4a9.66,9.66,0,0,1,4.9-1.15c7,0,10.82,5.6,10.86,12.87a15.77,15.77,0,0,1-1.08,6.27l1.56,4a15.91,15.91,0,0,0,5.49-12.44c0-7.78-5.51-13.83-13.57-13.79"/><rect class="cls-2" width="250" height="130"/></g></g></svg>