<svg xmlns="http://www.w3.org/2000/svg" viewBox="0 0 250 130"><defs><style>.cls-1{fill:#737373;}.cls-2{fill:none;}</style></defs><g id="Layer_2" data-name="Layer 2"><g id="logos"><polygon class="cls-1" points="140.5 22.49 134.85 40.58 144.27 45.01 96.18 30.83 123.82 75.38 154.19 47.98 140.5 22.49 140.5 22.49"/><path class="cls-1" d="M73.28,107.22h-.12c-.2,0-.35-.15-.35.13V90.16c0-.68.15-.83.35-.83H84.38a.34.34,0,0,1,.35.35v.12a.34.34,0,0,1-.35.35H73.63V97.4h9.13a.34.34,0,0,1,.35.35v.12a.34.34,0,0,1-.35.35H73.63v8.65a.34.34,0,0,1-.35.35"/><path class="cls-1" d="M87.17,107.22h-.11a.34.34,0,0,1-.35-.35V95.78a.34.34,0,0,1,.35-.35h.11a.34.34,0,0,1,.35.35v1.09a4.82,4.82,0,0,1,3.59-1.73,3.84,3.84,0,0,1,2.21.55.26.26,0,0,1,.14.21.31.31,0,0,1,0,.25l-.09.14a.32.32,0,0,1-.18.14.37.37,0,0,1-.27,0h0A3.49,3.49,0,0,0,91.11,96a3.87,3.87,0,0,0-2.45.9,2.75,2.75,0,0,0-1.1,1.72c0,.32,0,.61,0,.91v7.38a.34.34,0,0,1-.35.35"/><path class="cls-1" d="M115.43,107.51c-3.42,0-5.81-2.57-5.81-6.24s2.39-6.13,5.81-6.13a5.07,5.07,0,0,1,5.26,5.41,3,3,0,0,1-.14.94.38.38,0,0,1-.3.19h-9.78c.15,3,2.13,5,5,5a6.38,6.38,0,0,0,3.81-1.2.35.35,0,0,1,.27-.07.29.29,0,0,1,.19.15l.1.15a.31.31,0,0,1-.07.4h0a7.42,7.42,0,0,1-4.29,1.38m-5-6.62h9.39c0-.13,0-.25,0-.34A4.29,4.29,0,0,0,115.43,96a4.88,4.88,0,0,0-5,4.93"/><path class="cls-1" d="M144.14,107.29a.21.21,0,0,1-.12,0,.36.36,0,0,1-.16-.26l-4.24-15.53-5.42,12.79a.34.34,0,0,1-.34.25.34.34,0,0,1-.34-.26l-5.37-12.78L123.86,107a.36.36,0,0,1-.16.26.22.22,0,0,1-.21,0l-.21,0c-.27-.07-.23-.29-.2-.41l4.61-17.22a.31.31,0,0,1,.31-.27.36.36,0,0,1,.38.25l5.48,12.85,5.51-12.86a.37.37,0,0,1,.35-.25.35.35,0,0,1,.34.26l4.58,17.24c0,.12.07.34-.19.41l-.23,0-.08,0"/><path class="cls-1" d="M148.63,107.22h-.11a.34.34,0,0,1-.35-.35V95.78a.34.34,0,0,1,.35-.35h.11a.34.34,0,0,1,.36.35v11.09a.34.34,0,0,1-.36.35"/><path class="cls-1" d="M162.77,107.22h-.12a.34.34,0,0,1-.35-.35v-6.59c0-3.06-1.42-4.32-4.1-4.32-2.47,0-4.35,1.51-4.33,2.86v8.05a.34.34,0,0,1-.35.35h-.12a.34.34,0,0,1-.35-.35V95.78a.34.34,0,0,1,.35-.35h.12a.34.34,0,0,1,.35.35V97a5.72,5.72,0,0,1,4.33-1.85c3.17,0,4.92,1.59,4.92,5.14v6.59a.34.34,0,0,1-.35.35"/><path class="cls-1" d="M172.24,107.51a6,6,0,0,1-5.64-6.21,6.4,6.4,0,0,1,1.61-4.4,5.61,5.61,0,0,1,4.2-1.76,6.63,6.63,0,0,1,4,1.46V89.68a.34.34,0,0,1,.35-.35h.11a.34.34,0,0,1,.33.35v17.19a.34.34,0,0,1-.33.35h-.11a.34.34,0,0,1-.35-.35v-1a5.78,5.78,0,0,1-4.16,1.64M172.41,96c-3,0-5,2.19-5,5.34a5.14,5.14,0,0,0,4.85,5.39,4.89,4.89,0,0,0,4.16-2V97.73a5.67,5.67,0,0,0-4-1.77"/><path class="cls-1" d="M100.92,107.51c-3.42,0-5.81-2.57-5.81-6.24s2.39-6.13,5.81-6.13a5.07,5.07,0,0,1,5.26,5.41,2.93,2.93,0,0,1-.13.94.38.38,0,0,1-.3.19H96c.14,3,2.13,5,5,5a6.41,6.41,0,0,0,3.82-1.2.35.35,0,0,1,.27-.07.29.29,0,0,1,.19.15l.1.15a.3.3,0,0,1-.08.4h0a7.39,7.39,0,0,1-4.29,1.38m-5-6.62h9.38a2.18,2.18,0,0,0,0-.34A4.29,4.29,0,0,0,100.92,96a4.87,4.87,0,0,0-5,4.93"/><path class="cls-1" d="M148,92.63l1-3.23a.09.09,0,0,1,.17,0l.84,1.56a.09.09,0,0,1,0,.11l-1.87,1.68a.09.09,0,0,1-.15-.1"/><rect class="cls-2" width="250" height="130"/></g></g></svg>