<svg xmlns="http://www.w3.org/2000/svg" viewBox="0 0 250 130"><defs><style>.cls-1{fill:#737373;}.cls-2{fill:none;}</style></defs><g id="Layer_2" data-name="Layer 2"><g id="logos"><path class="cls-1" d="M47.8,41.41H19.64a17.61,17.61,0,0,1,9,5,.54.54,0,0,1,.16.42.58.58,0,0,1-.18.41.62.62,0,0,1-.41.16.61.61,0,0,1-.43-.19,16.26,16.26,0,0,0-7.6-4.41,18.29,18.29,0,0,0-4.35-.52h-.7l-.36,0v2.22l.68,0,.76,0a17.38,17.38,0,0,1,6.15,1.64.6.6,0,0,1,.3.33.58.58,0,0,1,0,.45.59.59,0,0,1-.53.34.51.51,0,0,1-.25-.06,16.12,16.12,0,0,0-5.73-1.52l-.69,0c-.22,0-.45,0-.67,0V48H15a13.55,13.55,0,0,1,5.1,1.14,13.65,13.65,0,0,1,6.37,4.94.59.59,0,0,1-.14.82A.6.6,0,0,1,26,55a.61.61,0,0,1-.48-.25,12.56,12.56,0,0,0-5.84-4.53,12.52,12.52,0,0,0-4.66-1.06h-.27v2.37l.4,0a10.58,10.58,0,0,1,7.74,3.85,14.06,14.06,0,0,1,3.3,6.5.65.65,0,0,1-.07.45.59.59,0,0,1-.37.26l-.13,0a.58.58,0,0,1-.57-.45,12.88,12.88,0,0,0-3-6,9.55,9.55,0,0,0-6.9-3.45l-.36,0v2.52a5.49,5.49,0,0,1,.9-.09,6,6,0,0,1,2.26.46.59.59,0,0,1-.22,1.13.59.59,0,0,1-.23,0,4.7,4.7,0,0,0-1.81-.38,3.82,3.82,0,0,0-.9.11v2.9a3,3,0,0,1,.86-.38,2.52,2.52,0,0,1,.67-.09,4.16,4.16,0,0,1,3.38,2.34,12,12,0,0,1,1.88,6.93c0,.3,0,.62,0,.94a.59.59,0,0,1-.59.55h0a.57.57,0,0,1-.4-.2.6.6,0,0,1-.14-.43c0-.29,0-.58,0-.85a10.79,10.79,0,0,0-1.71-6.33A3.07,3.07,0,0,0,16.31,60a1.2,1.2,0,0,0-.38,0,2.12,2.12,0,0,0-1.15.84v4.2c.19-1.64.62-2.13,1-2.35a1,1,0,0,1,.5-.14,1.07,1.07,0,0,1,.56.17c1.16.69,1.78,3.43,1.69,5.57a18.16,18.16,0,0,1-3.73,10v2.92a21.11,21.11,0,0,0,5.13-9.45.59.59,0,0,1,.57-.45l.14,0a.59.59,0,0,1,.43.71,22.14,22.14,0,0,1-6,10.53.53.53,0,0,1-.29.14v1.55c0,2.39,2.31,4.21,4.7,4.21h32.2V45.74c0-2.39-1.49-4.33-3.88-4.33M24.28,69.17c-.28,5.26-2.07,9.55-5.34,12.73a.57.57,0,0,1-.41.17.6.6,0,0,1-.42-.18.59.59,0,0,1,0-.83c3.05-3,4.73-7,5-12a14.52,14.52,0,0,0-2.42-9.54,4.91,4.91,0,0,0-1-1.32.59.59,0,0,1,0-.83.57.57,0,0,1,.43-.18.59.59,0,0,1,.4.15A5.94,5.94,0,0,1,21.69,59a15.66,15.66,0,0,1,2.59,10.21M25.58,77a.61.61,0,0,1-.55.38.71.71,0,0,1-.21,0,.59.59,0,0,1-.33-.31.59.59,0,0,1,0-.45C26.23,72,26.3,69.62,25.8,66.16c-.05-.38-.1-.75-.16-1.1a.59.59,0,0,1,.49-.67h.09a.58.58,0,0,1,.58.49c.06.36.11.73.17,1.12.51,3.6.44,6.16-1.39,11m4.24-5a.59.59,0,0,1-.58.5h-.09a.57.57,0,0,1-.49-.66c.91-6.19.2-8.52-.87-12l-.14-.46a18.59,18.59,0,0,0-.79-2.14.59.59,0,0,1,.3-.77.52.52,0,0,1,.24,0,.59.59,0,0,1,.54.35,20.16,20.16,0,0,1,.83,2.27l.14.46c1.08,3.54,1.86,6.11.91,12.56m2-13.25a.6.6,0,0,1-.36.26l-.14,0a.59.59,0,0,1-.57-.46c-1.09-4.61-3.15-7.76-6.48-9.92a.54.54,0,0,1-.25-.37.53.53,0,0,1,.08-.44.58.58,0,0,1,.49-.27.55.55,0,0,1,.32.1c3.6,2.33,5.82,5.71,7,10.63a.55.55,0,0,1-.07.45M40,79.84h-5.1v1.52h3.62l-.68,1.52H34.94v3H33.42v-6a1.86,1.86,0,0,1,.38-1,2,2,0,0,1,1.25-.35h5.52A2.17,2.17,0,0,0,40,79.84m8.81,4.33c0,1.41-.46,1.77-1.85,1.77H42.42c-1.39,0-1.85-.36-1.85-1.77V84l1.52-.33v.89h5.23V82.82H42.71c-1.4,0-1.84-.36-1.84-1.76v-.83c0-1.41.44-1.77,1.84-1.77h4.2c1.32,0,1.84.35,1.84,1.64v.15l-1.53.36v-.84H42.38v1.6H47c1.39,0,1.85.36,1.85,1.77Z"/><path class="cls-1" d="M65.74,56.2a2.35,2.35,0,0,1,1.7-.64h10l-1,2.13H68V60.9h5.09l-1,2.23H68v4.64H65.16V57.86a2.28,2.28,0,0,1,.57-1.66"/><path class="cls-1" d="M83.65,65.5h8.06v-10h2.83v9.38c0,2.31-.73,2.9-3,2.9H83.84c-2.29,0-3-.59-3-2.9V55.53h2.83Z"/><path class="cls-1" d="M100.74,55.53h1.93l8.56,7.24a9.62,9.62,0,0,1,1.39,1.32c-.07-1-.12-1.72-.12-2.1V55.53h2.55V67.81h-1.93l-8.94-7.59a8,8,0,0,1-1-1c.09,1,.12,1.6.12,2v6.64h-2.55Z"/><path class="cls-1" d="M123.82,57.72V65.5h7.64V62.86l2.82.59v1.46c0,2.31-.73,2.9-3,2.9H124c-2.29,0-3-.59-3-2.9V58.43c0-2.31.73-2.9,3-2.9h7.26c2.28,0,3,.59,3,2.9v1.18l-2.82.45V57.72Z"/><polygon class="cls-1" points="145.79 67.81 142.96 67.81 142.96 57.73 137.37 57.73 137.37 55.53 151.4 55.53 151.4 57.73 145.79 57.73 145.79 67.81"/><rect class="cls-1" x="154.86" y="55.53" width="2.83" height="12.28"/><path class="cls-1" d="M166.67,55.53h9c2.29,0,3,.59,3,2.9v6.48c0,2.31-.73,2.9-3,2.9h-9c-2.28,0-3-.59-3-2.9V58.43c0-2.31.73-2.9,3-2.9m9.15,2.19h-9.34V65.5h9.34Z"/><path class="cls-1" d="M184.59,55.53h1.93l8.56,7.24a10.78,10.78,0,0,1,1.39,1.32c-.07-1-.12-1.72-.12-2.1V55.53h2.55V67.81H197L188,60.22a8,8,0,0,1-1-1c.09,1,.11,1.6.11,2v6.64h-2.54Z"/><path class="cls-1" d="M209.65,55.53h2.73l7,12.28h-3.19l-1.46-2.68H207l-1.42,2.68h-2.83Zm3.88,7.38-2.61-5-2.71,5Z"/><polygon class="cls-1" points="223.27 55.53 226.1 55.53 226.1 65.5 235.22 65.5 235.22 67.81 223.27 67.81 223.27 55.53"/><path class="cls-1" d="M128.61,79.4v1.7h4.88c1.47,0,2,.38,2,1.86v1.1c0,1.48-.49,1.86-2,1.86h-4.83c-1.48,0-2-.38-2-1.86v-.22l1.61-.35v.94h5.53v-1.8H129c-1.47,0-1.94-.38-1.94-1.87v-.87c0-1.49.47-1.87,1.94-1.87h4.44c1.4,0,1.94.36,1.94,1.73v.17l-1.6.37V79.4Z"/><polygon class="cls-1" points="140.74 78.02 148.75 78.02 148.75 79.37 142.56 79.37 142.56 81.13 146.17 81.13 146.17 82.48 142.56 82.48 142.56 84.43 148.83 84.43 148.83 85.92 140.74 85.92 140.74 78.02"/><polygon class="cls-1" points="153.71 78.02 155.53 78.02 155.53 84.43 161.4 84.43 161.4 85.92 153.71 85.92 153.71 78.02"/><path class="cls-1" d="M166,78.45a1.47,1.47,0,0,1,1.09-.41h6.41l-.62,1.37h-5.45v2.07h3.28l-.62,1.44h-2.66v3h-1.81V79.51a1.47,1.47,0,0,1,.37-1.06"/><path class="cls-1" d="M14.78,76.31a16.62,16.62,0,0,0,2.56-8,8.65,8.65,0,0,0-.73-4s-.09-.24-.29-.23-.21.28-.21.28a14.9,14.9,0,0,0-.24,4A9.86,9.86,0,0,1,14.78,73Z"/><rect class="cls-2" width="250" height="130"/></g></g></svg>