<svg xmlns="http://www.w3.org/2000/svg" viewBox="0 0 250 130"><defs><style>.cls-1{fill:none;}.cls-2{fill:#737373;}</style></defs><g id="Layer_2" data-name="Layer 2"><g id="logos"><rect class="cls-1" width="250" height="130"/><polygon class="cls-2" points="41.32 31.59 41.32 64.21 60.3 64.21 60.3 59.41 47.03 59.41 47.03 31.59 41.32 31.59"/><path class="cls-2" d="M92.55,52.57c0,7.52-4.89,12.23-13.14,12.23S66.32,60.09,66.32,52.57v-21H72V52.07c0,4.71,2.77,7.47,7.43,7.47s7.43-2.76,7.43-7.47V31.59h5.71Z"/><path class="cls-2" d="M108.35,45.41l-1.26-1.27V64.21h-5.48V31.09h.09L116.87,48,132,31.09h.1V64.21H126.7V44.14l-1.31,1.27c-2.81,3.31-5.67,6.57-8.52,9.83Z"/><rect class="cls-2" x="141.78" y="31.59" width="5.71" height="32.61"/><polygon class="cls-2" points="157.09 31.59 157.09 64.21 162.8 64.21 162.8 50.39 174.39 50.39 174.39 45.64 162.8 45.64 162.8 36.4 176.57 36.4 176.57 31.59 157.09 31.59"/><polygon class="cls-2" points="202.29 31.59 194 46 185.76 31.59 179.37 31.59 191.15 51.43 191.15 64.21 196.86 64.21 196.86 51.43 208.68 31.59 202.29 31.59"/><path class="cls-2" d="M127.23,91.69a2.39,2.39,0,0,0-1,.61,6.06,6.06,0,0,1-.61.47,2.89,2.89,0,0,1-2.84.55,4.12,4.12,0,0,1-.89-.68q1.91-2.64,1.9-4.2a1,1,0,0,0-.07-.35,1.15,1.15,0,0,0-1.42-.94,2.82,2.82,0,0,0-2,1.35,5.53,5.53,0,0,0-.47,3.8,1,1,0,0,0,.07.34A1.42,1.42,0,0,1,120,93a2.93,2.93,0,0,1-3.25.07,6.4,6.4,0,0,1-1.36-2.51,6.84,6.84,0,0,0-.47-1.16c-.37-.9-.89-1.28-1.57-1.15a2.78,2.78,0,0,0-1.15,1.16,2.15,2.15,0,0,1-.34.61c-.31.63-.72,1.45-1.22,2.44a2.87,2.87,0,0,1-.06-.61c-.32-2.17-.5-3.37-.55-3.6a2,2,0,0,0-.34-.27c-.4-.18-.65-.06-.74.34a4.09,4.09,0,0,0-.09,1l-.12.07a20.92,20.92,0,0,0-1.69,1.49c-.59.63-1.27,1.4-2,2.31q-4.49,5.36-5,5.89a27.93,27.93,0,0,1-6.65,5.57,3.54,3.54,0,0,1-2.91.4c-.64-.4-.93-1.24-.89-2.51a20.33,20.33,0,0,1,1.9-5.83,46.23,46.23,0,0,1,7.8-10.64A.71.71,0,0,0,99.22,85a3.2,3.2,0,0,0-1.08-.13h-.61a54.84,54.84,0,0,0-6.85.4c-1.77.18-3.1.3-4,.34a14.45,14.45,0,0,1-4.14-.34.3.3,0,0,0-.2-.06c-.68-.36-.88-.84-.61-1.43a.87.87,0,0,0,.2-.41,15.2,15.2,0,0,1,4.13-4.47,35.4,35.4,0,0,1,13.29-6.65,4.63,4.63,0,0,1,4.21.81,5.4,5.4,0,0,1,1.09,5.09c0,.05,0,.11.13.2s.39-.07.48-.34a5.73,5.73,0,0,0,0-4.27,4.58,4.58,0,0,0-3.66-2.91,5.84,5.84,0,0,0-1.49-.14,19.84,19.84,0,0,0-6.44,1.56,39.08,39.08,0,0,0-10.72,6.85,9.7,9.7,0,0,0-3.11,4.68v.41a2.57,2.57,0,0,0,1.56,2.58,7.08,7.08,0,0,0,.67.27,18.38,18.38,0,0,0,4.89.4c1.49-.09,3.7-.31,6.64-.68l3.39-.4a33.76,33.76,0,0,0-7.86,11,12.87,12.87,0,0,0-1.22,7.12,1.62,1.62,0,0,1,.13.34,2.72,2.72,0,0,0,2.38,2.1c1.17.14,2.69-.36,4.54-1.49q.35-.27.75-.54a55.57,55.57,0,0,0,6.1-6l1.49-1.83a75.75,75.75,0,0,1,5.36-6.38c.06-.06.16-.13.27-.22v.22a7.8,7.8,0,0,0,.81,3.26.44.44,0,0,0,.28.2.81.81,0,0,0,1.21-.4,6.33,6.33,0,0,0,.55-1c.18-.32.31-.54.4-.68.5-1,.91-1.85,1.22-2.44.09.27.21.61.34,1a7.84,7.84,0,0,0,1.9,3.59,3.61,3.61,0,0,0,3.94.13,12,12,0,0,0,1.08-.61,3.54,3.54,0,0,0,3.73,1.16,5.86,5.86,0,0,0,3.19-2.38,1.33,1.33,0,0,0,.07-.47C127.64,91.76,127.5,91.64,127.23,91.69Zm-4.88-3.39a1.89,1.89,0,0,1,.41-.14c.36.18.47.57.33,1.15A7,7,0,0,1,121.54,92,3.49,3.49,0,0,1,122.35,88.3Z"/><path class="cls-2" d="M134.55,87.42A2,2,0,0,0,132,87a6.4,6.4,0,0,0-2.51,2.64,3.6,3.6,0,0,1-.06-.74,7.14,7.14,0,0,0-.55-2.92.9.9,0,0,0-.67-.27,1.54,1.54,0,0,0-.28.07,3.5,3.5,0,0,0-.61,1.15,2.93,2.93,0,0,0,.34.75v2a29.67,29.67,0,0,0,.41,5.22,3.22,3.22,0,0,0,.21.34c.49.36.88.31,1.15-.14a3.14,3.14,0,0,0,.2-1.29V93a8.73,8.73,0,0,1,1.56-4.34,2.22,2.22,0,0,1,2-1,1.19,1.19,0,0,1,.47.4c.18.5.38.78.61.82a.68.68,0,0,0,.41-.14.66.66,0,0,0,.13-1Z"/><path class="cls-2" d="M170,89.85a2.88,2.88,0,0,1-.34-.2H168a17.13,17.13,0,0,0-5.56,1.63q-.28-3.73-1.77-5.43a2.25,2.25,0,0,0-2.78-.13,16.72,16.72,0,0,0-2.24,2c-.36.44-.66.79-.88,1a9,9,0,0,1-2.78,2c-.18-.09-.29-.43-.34-1a3.79,3.79,0,0,1,.14-1,32.16,32.16,0,0,1,1.56-3.46.43.43,0,0,0-.41-.54c-.77,0-1.51.7-2.24,2a5.7,5.7,0,0,0-.65,4l-.16,0h-.2a10.48,10.48,0,0,0-1.77.61,26.65,26.65,0,0,0-4.41,2.58c-.13-.64-.54-2-1.22-4.14.28-.22.39-.9.34-2a.46.46,0,0,1-.06-.28,2,2,0,0,0-1.9-1.55q-1.91.19-3.6,2.57a8.15,8.15,0,0,0-1.62,4.89,2.45,2.45,0,0,1,.13.34,1.16,1.16,0,0,0,1.42.81.46.46,0,0,0,.21-.07,5.56,5.56,0,0,0,2-1.69c.23-.37.57-.89,1-1.57.32-.45.55-.79.68-1A20,20,0,0,0,141.4,93a17.31,17.31,0,0,1,.41,2.17q-5,4.62-5.76,10a5,5,0,0,0,0,1.22,3.38,3.38,0,0,0,.34,1.19,3.18,3.18,0,0,0,.68,1,2.1,2.1,0,0,0,.81.28,2.77,2.77,0,0,0,2.91-1.23c2.26-2.66,3.28-6.24,3.05-10.71,0-.64-.11-1.4-.2-2.31a33.24,33.24,0,0,1,6.24-3.32l.2-.2a.43.43,0,0,0,0-.13,2,2,0,0,0,.09.26.84.84,0,0,1,.13.27,1.51,1.51,0,0,0,2,.48,9.21,9.21,0,0,0,3.32-2.72c.32-.36.54-.63.68-.81a9.29,9.29,0,0,1,2.44-2.1.94.94,0,0,1,1.16.61,10.7,10.7,0,0,1,.81,5.22,13.08,13.08,0,0,0-6.51,7.8,5.91,5.91,0,0,0,.14,3.86,2.14,2.14,0,0,0,2,1.09,3.23,3.23,0,0,0,2.58-1.36q2.58-3,3.32-8.75a24.58,24.58,0,0,0,.14-2.71,14.13,14.13,0,0,1,7.18-1.42l.27-.14C170.25,90.3,170.27,90.08,170,89.85Zm-29.9,15.74a6.31,6.31,0,0,1-2,1.9q-.87-.08-1.08-1.29a9.23,9.23,0,0,1,1-4.82,19,19,0,0,1,4-5.35v.27A14.44,14.44,0,0,1,140.05,105.59Zm1.89-16.48c-.31-.45-.63-.63-.94-.54a4.21,4.21,0,0,0-.55.74,4.18,4.18,0,0,1-.34.68,7.71,7.71,0,0,1-2.91,3.19,2.19,2.19,0,0,1,.14-1,1.79,1.79,0,0,0,.13-.54,8.67,8.67,0,0,1,3.19-4.48.81.81,0,0,1,.47-.13q.75.27,1,1.56C142.19,88.93,142.13,89.11,141.94,89.11Zm18.79,4.2a20.12,20.12,0,0,1-2.71,8.48,4.79,4.79,0,0,1-2.17,1.69c-.64-.13-1-.69-1-1.69A9.53,9.53,0,0,1,157.2,96a17.08,17.08,0,0,1,3.53-3Z"/></g></g></svg>