<svg xmlns="http://www.w3.org/2000/svg" viewBox="0 0 250 130"><defs><style>.cls-1{fill:#737373;}.cls-2{fill:none;}</style></defs><g id="Layer_2" data-name="Layer 2"><g id="logos"><path class="cls-1" d="M36.89,32.91c3.86,0,7.29,6.54,7.29,13.71s-3.75,6.43-4.72,8-2,6.75-1.07,15.64S39.25,85.41,41,89.7,39,97.09,37.1,97.09s-5.67-1.93-3.85-7.18,2.46-16.29,2.46-19.71.82-12.72-.53-15.43c-.75-1.5-4.82-.07-4.93-8.15-.11-7.39,3-13.71,6.64-13.71"/><path class="cls-1" d="M24,83.82,19.88,71.4q-.73-2.18-1.38-4.32a39.84,39.84,0,0,1-1-3.87c0,.82.05,1.85.06,3.11s0,2.53,0,3.83V83.82H15.33V57.16h2.36l3.65,11.12c.48,1.45.94,2.89,1.37,4.32s.77,2.73,1,3.87c0-.81,0-1.85-.06-3.11s0-2.53,0-3.82V57.16h2.28V83.82Z"/><path class="cls-1" d="M59.09,76.1a11.06,11.06,0,0,1-.5,3.52A7.07,7.07,0,0,1,57.28,82a5,5,0,0,1-1.93,1.37,6.35,6.35,0,0,1-2.36.44H49.15V57.16h3.69A5.12,5.12,0,0,1,57.2,59,7.88,7.88,0,0,1,58.63,64a7.26,7.26,0,0,1-.84,3.85,5.91,5.91,0,0,1-2,2,6.81,6.81,0,0,1,1.3.86,5.2,5.2,0,0,1,1.06,1.25,6.17,6.17,0,0,1,.71,1.75,10,10,0,0,1,.25,2.42M56.16,64a5.37,5.37,0,0,0-.9-3.41,3,3,0,0,0-2.49-1.12H51.58v9.18h1.15a2.85,2.85,0,0,0,2.61-1.32A6.32,6.32,0,0,0,56.16,64m.45,12.21a6.21,6.21,0,0,0-1-3.9A3.49,3.49,0,0,0,52.65,71H51.58V81.49h1.53a3,3,0,0,0,2.59-1.26,6.9,6.9,0,0,0,.91-4"/><polygon class="cls-1" points="82.05 68.55 87.09 68.55 87.09 69.08 82.05 69.08 82.05 77.32 81.46 77.32 81.46 60.16 87.6 60.16 87.6 60.69 82.05 60.69 82.05 68.55"/><path class="cls-1" d="M89.9,60.06h.59V62H89.9Zm0,4.71h.59V77.32H89.9Z"/><path class="cls-1" d="M94.52,58.89V75.6c0,1,.25,1.44.88,1.44a1.2,1.2,0,0,0,.61-.18v.49a1.83,1.83,0,0,1-.78.17c-.87,0-1.3-.55-1.3-1.8V58.89Z"/><path class="cls-1" d="M98.5,58.89V75.6c0,1,.25,1.44.88,1.44a1.23,1.23,0,0,0,.61-.18v.49a1.84,1.84,0,0,1-.79.17c-.86,0-1.29-.55-1.29-1.8V58.89Z"/><path class="cls-1" d="M108.15,70.58V71h-6.54c0,3.88,1.32,6.09,3.7,6.09a4.52,4.52,0,0,0,2.59-.84v.48a4.7,4.7,0,0,1-2.69.84c-2.69,0-4.18-2.33-4.18-6.52s1.37-6.48,3.85-6.48c2.08,0,3.27,2.18,3.27,6m-6.54,0h6c0-3.5-1-5.45-2.73-5.45-2,0-3.2,2-3.25,5.45"/><path class="cls-1" d="M113.63,64.59a3.65,3.65,0,0,1,2.91,1.7h0v-7.4h.58V77.32h-.56V75.67h0a3.91,3.91,0,0,1-3.12,1.85c-2.31,0-3.6-2.2-3.6-6.11,0-4.36,1.37-6.82,3.78-6.82m0,12.43a3.78,3.78,0,0,0,2.94-1.85V66.85a3.64,3.64,0,0,0-2.87-1.75c-2.1,0-3.27,2.28-3.27,6.31,0,3.58,1.14,5.61,3.2,5.61"/><polygon class="cls-1" points="123.03 64.77 123.64 64.77 126.14 76.48 128.73 64.77 129.26 64.77 131.87 76.48 134.38 64.77 134.94 64.77 132.18 77.32 131.57 77.32 128.98 65.66 128.96 65.66 126.4 77.32 125.81 77.32 123.03 64.77"/><path class="cls-1" d="M137,60.06h.59V62H137Zm0,4.71h.59V77.32H137Z"/><path class="cls-1" d="M143.58,77.12a4.28,4.28,0,0,0,1.55-.28v.51a4.8,4.8,0,0,1-1.65.25c-1,0-2.18-.48-2.18-2.76V65.25h-1.75v-.48h1.75V61.43h.58v3.34h3.22v.48h-3.22v9.59c0,1.47.59,2.28,1.7,2.28"/><path class="cls-1" d="M153.52,68.9c0-2.61-.92-3.8-2.61-3.8a4,4,0,0,0-3,1.78V77.32h-.58V58.89h.58v7.5a4.18,4.18,0,0,1,3.17-1.79c2,0,3,1.36,3,4.23v8.49h-.58Z"/><path class="cls-1" d="M161.25,62.39c0-2.61,1.08-3.8,3.37-3.8a4.87,4.87,0,0,1,1.64.28v1.75a3.45,3.45,0,0,0-1.26-.23c-1.12,0-1.63.73-1.63,2.33v1.85h2.36v1.65h-2.36v11.1h-2.12V66.22h-1.63V64.57h1.63Z"/><path class="cls-1" d="M174,70.5v1.09h-6.13c0,2.76,1.11,4.31,3,4.31a5.6,5.6,0,0,0,2.84-.86v1.72a6.37,6.37,0,0,1-3.22.89c-3,0-4.76-2.41-4.76-6.67s1.57-6.64,4.43-6.64c2.46,0,3.85,2.23,3.85,6.16M167.86,70h4.21c0-2.51-.71-3.88-1.95-3.88-1.4,0-2.23,1.4-2.26,3.88"/><path class="cls-1" d="M183.37,70.5v1.09h-6.13c0,2.76,1.11,4.31,3,4.31a5.6,5.6,0,0,0,2.84-.86v1.72a6.4,6.4,0,0,1-3.22.89c-3,0-4.77-2.41-4.77-6.67s1.57-6.64,4.44-6.64c2.46,0,3.85,2.23,3.85,6.16M177.24,70h4.2c0-2.51-.71-3.88-1.95-3.88-1.39,0-2.23,1.4-2.25,3.88"/><path class="cls-1" d="M187.32,58.89V74.76c0,.76.26,1.07.89,1.07a2,2,0,0,0,.76-.16v1.62a4.72,4.72,0,0,1-1.49.26,2,2,0,0,1-2.29-2.21V58.89Z"/><path class="cls-1" d="M200.2,75.55a3.49,3.49,0,0,1-2.84,1.77c-2.53,0-3.93-2.28-3.93-6.39s1.47-6.59,4.11-6.59a3.55,3.55,0,0,1,2.84,1.7V64.57h1.92v13c0,3.47-1.42,5.09-4.46,5.09a7,7,0,0,1-3.47-.91V79.91a6.32,6.32,0,0,0,3.12,1c1.87,0,2.73-1,2.73-3.07v-2.3Zm-2.18,0a3,3,0,0,0,2.18-1.42V67.41A2.62,2.62,0,0,0,198,66.09c-1.54,0-2.4,1.72-2.4,4.82s.86,4.64,2.38,4.64"/><path class="cls-1" d="M208.92,77.65c-3,0-4.74-2.38-4.74-6.67s1.75-6.64,4.84-6.64,4.81,2.41,4.81,6.75-1.77,6.56-4.91,6.56m.1-11.53c-1.67,0-2.64,1.72-2.64,4.81s1,4.95,2.64,4.95,2.61-1.73,2.61-4.82-.94-4.94-2.61-4.94"/><path class="cls-1" d="M219.66,77.65c-3,0-4.74-2.38-4.74-6.67s1.75-6.64,4.84-6.64,4.82,2.41,4.82,6.75-1.77,6.56-4.92,6.56m.1-11.53c-1.67,0-2.63,1.72-2.63,4.81s1,4.95,2.63,4.95,2.62-1.73,2.62-4.82-.94-4.94-2.62-4.94"/><path class="cls-1" d="M229.88,64.34a3.15,3.15,0,0,1,2.63,1.47h0V58.89h2.13V77.32h-1.95V75.75h0a3.94,3.94,0,0,1-3.09,1.85c-2.54,0-3.93-2.31-3.93-6.44,0-4.36,1.49-6.82,4.21-6.82m.45,11.48a2.83,2.83,0,0,0,2.21-1.34V67.41a2.78,2.78,0,0,0-2.18-1.32c-1.6,0-2.49,1.83-2.49,5.07,0,3,.89,4.66,2.46,4.66"/><rect class="cls-2" width="250" height="130"/></g></g></svg>