<svg xmlns="http://www.w3.org/2000/svg" viewBox="0 0 250 130"><defs><style>.cls-1{fill:#737373;}.cls-2{fill:none;}</style></defs><g id="Layer_2" data-name="Layer 2"><g id="logos"><path class="cls-1" d="M46.14,61.55a9.77,9.77,0,0,1-3.92-.79,9.94,9.94,0,0,1-5.33-5.33,10.12,10.12,0,0,1,0-7.84A10.16,10.16,0,0,1,39,44.4a10.48,10.48,0,0,1,3.19-2.15,10.12,10.12,0,0,1,7.84,0,10.36,10.36,0,0,1,3.19,2.15,10.48,10.48,0,0,1,2.15,3.19,10.12,10.12,0,0,1,0,7.84,10.48,10.48,0,0,1-2.15,3.19,10.16,10.16,0,0,1-3.19,2.14,9.74,9.74,0,0,1-3.92.79m0-16.18a6,6,0,0,0-2.38.48,6.27,6.27,0,0,0-2,1.32,6.44,6.44,0,0,0-1.32,2A6.12,6.12,0,0,0,40,51.51a6.2,6.2,0,0,0,.47,2.38,6.17,6.17,0,0,0,3.28,3.28,6.2,6.2,0,0,0,2.38.47,6.12,6.12,0,0,0,2.38-.47,6.44,6.44,0,0,0,2-1.32,6.27,6.27,0,0,0,1.32-2,6.14,6.14,0,0,0,0-4.76,6.17,6.17,0,0,0-3.28-3.28,6,6,0,0,0-2.38-.48"/><path class="cls-1" d="M94.6,61.31V41.71h7.78a5.62,5.62,0,0,1,2.27.46,5.71,5.71,0,0,1,1.87,1.26,6.06,6.06,0,0,1,1.27,1.88,6,6,0,0,1,0,4.55,6.09,6.09,0,0,1-1.27,1.86A5.71,5.71,0,0,1,104.65,53a5.62,5.62,0,0,1-2.27.46H98.46v7.87Zm7.78-11.73a1.87,1.87,0,0,0,.77-.16,2.18,2.18,0,0,0,.64-.43,2.15,2.15,0,0,0,.44-.64,2,2,0,0,0,.15-.78,2,2,0,0,0-.15-.76,2.13,2.13,0,0,0-.44-.65,2,2,0,0,0-.64-.43,1.87,1.87,0,0,0-.77-.16H98.46v4Z"/><path class="cls-1" d="M155.15,61.55a7.46,7.46,0,0,1-3.05-.62A7.68,7.68,0,0,1,148,56.79a7.62,7.62,0,0,1-.62-3v-12h3.86v12a3.69,3.69,0,0,0,.31,1.52,4,4,0,0,0,2.11,2.12,3.87,3.87,0,0,0,1.53.3,3.94,3.94,0,0,0,1.53-.3,4.31,4.31,0,0,0,1.26-.85,4.22,4.22,0,0,0,.85-1.27,3.85,3.85,0,0,0,.3-1.52v-12H163v12a7.7,7.7,0,0,1-.61,3,8.18,8.18,0,0,1-1.2,2,7.26,7.26,0,0,1-1.67,1.51,7.51,7.51,0,0,1-2,1,7.91,7.91,0,0,1-2.28.33"/><path class="cls-1" d="M207.33,61.55a5.94,5.94,0,0,1-3.75-1.22,6.79,6.79,0,0,1-2.23-3.23l-.09-.29,3.31-1.47.12.34a3.35,3.35,0,0,0,.83,1.35,2.68,2.68,0,0,0,1.88.76l.44,0a3.38,3.38,0,0,0,1.12-.39,2.35,2.35,0,0,0,.8-.73,1.55,1.55,0,0,0,.28-.9,1.33,1.33,0,0,0-.46-1,6.57,6.57,0,0,0-1.36-.93c-.56-.31-1.18-.63-1.84-.94a10.35,10.35,0,0,1-1.92-1.21,6.17,6.17,0,0,1-1.5-1.75,5.07,5.07,0,0,1-.61-2.59,5.74,5.74,0,0,1,.43-2.22,5.76,5.76,0,0,1,3-3.12,5.24,5.24,0,0,1,2.22-.48,5.77,5.77,0,0,1,3.28.95,5.94,5.94,0,0,1,2.16,2.65l.13.29-3.37,1.56-.14-.3a2.28,2.28,0,0,0-1.1-1.18,2.31,2.31,0,0,0-.93-.21,1.47,1.47,0,0,0-.42.05,2.12,2.12,0,0,0-1.16.69,1.85,1.85,0,0,0-.48,1.32,1.28,1.28,0,0,0,.48,1,6.39,6.39,0,0,0,1.4.91l1.9.94a10.74,10.74,0,0,1,2,1.21,6.67,6.67,0,0,1,1.56,1.78,5.08,5.08,0,0,1,.63,2.62,5.37,5.37,0,0,1-.55,2.47A5.68,5.68,0,0,1,211.89,60a6.64,6.64,0,0,1-2.1,1.13,8.11,8.11,0,0,1-2.46.38"/><polygon class="cls-1" points="66.36 83.77 69.09 83.77 69.09 84.82 66.36 84.82 66.36 88.19 65.19 88.19 65.19 80.73 66.35 80.73 69.68 80.73 69.68 81.77 66.36 81.77 66.36 83.77"/><rect class="cls-1" x="72.67" y="80.73" width="1.17" height="7.47"/><polygon class="cls-1" points="81.8 81.77 79.74 81.77 79.74 88.19 78.57 88.19 78.57 81.77 76.51 81.77 76.51 80.73 81.8 80.73 81.8 81.77"/><polygon class="cls-1" points="85.65 83.39 85.65 88.19 84.48 88.19 84.48 80.37 89.17 85.52 89.17 80.72 90.35 80.72 90.35 88.53 85.65 83.39"/><polygon class="cls-1" points="94.69 83.77 97.41 83.77 97.41 84.82 94.69 84.82 94.69 87.14 98 87.14 98 88.19 94.68 88.19 93.52 88.19 93.52 80.73 94.68 80.73 98 80.73 98 81.77 94.69 81.77 94.69 83.77"/><path class="cls-1" d="M104.94,86.69a2.16,2.16,0,0,1-1.68,1.46,2.28,2.28,0,0,1-.45,0,2.46,2.46,0,0,1-.89-.16,3,3,0,0,1-1.24-1l.93-.73a1.68,1.68,0,0,0,.73.59A1.17,1.17,0,0,0,103,87a1,1,0,0,0,.78-.63.87.87,0,0,0-.34-.84l-.92-.89-.91-.87a2.25,2.25,0,0,1-.58-.89,1.66,1.66,0,0,1,.54-1.78,1.84,1.84,0,0,1,.89-.42,1.91,1.91,0,0,1,1.11.07,2.65,2.65,0,0,1,1,.76l-.92.73a1,1,0,0,0-1-.42.68.68,0,0,0-.55.43c0,.15,0,.38.28.68l1.25,1.2.57.54a2.19,2.19,0,0,1,.65,1,1.76,1.76,0,0,1,0,1"/><path class="cls-1" d="M111.63,86.69A2.14,2.14,0,0,1,110,88.15a2.28,2.28,0,0,1-.45,0,2.46,2.46,0,0,1-.89-.16,2.93,2.93,0,0,1-1.23-1l.92-.73a1.65,1.65,0,0,0,.74.59,1.14,1.14,0,0,0,.68.06,1,1,0,0,0,.78-.63.85.85,0,0,0-.34-.84l-.91-.89-.92-.87a2.12,2.12,0,0,1-.57-.89,1.62,1.62,0,0,1,0-.95,1.69,1.69,0,0,1,.55-.83,1.83,1.83,0,0,1,.9-.42,1.89,1.89,0,0,1,1.1.07,2.58,2.58,0,0,1,1,.76l-.92.73a1,1,0,0,0-1-.42.7.7,0,0,0-.55.43c0,.15,0,.38.29.68l1.24,1.2.57.54a2.19,2.19,0,0,1,.65,1,1.76,1.76,0,0,1,0,1"/><polygon class="cls-1" points="124.03 81.77 121.97 81.77 121.97 88.19 120.8 88.19 120.8 81.77 118.75 81.77 118.75 80.73 124.03 80.73 124.03 81.77"/><path class="cls-1" d="M128.12,87.9a3.82,3.82,0,0,1-2-2,3.75,3.75,0,0,1-.29-1.45,3.67,3.67,0,0,1,1.1-2.65,3.65,3.65,0,0,1,1.18-.79,3.77,3.77,0,0,1,4.1.79A4.15,4.15,0,0,1,133,83a3.84,3.84,0,0,1,.29,1.46,3.75,3.75,0,0,1-.29,1.45,4,4,0,0,1-.8,1.19,3.72,3.72,0,0,1-2.65,1.09,3.79,3.79,0,0,1-1.45-.29m-.36-5.25a2.56,2.56,0,0,0,0,3.62,2.57,2.57,0,0,0,4.38-1.81,2.56,2.56,0,0,0-4.38-1.81"/><rect class="cls-1" x="140.86" y="80.73" width="1.17" height="7.47"/><polygon class="cls-1" points="146.36 83.39 146.36 88.19 145.19 88.19 145.19 80.37 149.88 85.52 149.88 80.72 151.06 80.72 151.06 88.53 146.36 83.39"/><path class="cls-1" d="M158.18,86.69a2.14,2.14,0,0,1-1.68,1.46,2.28,2.28,0,0,1-.45,0,2.46,2.46,0,0,1-.89-.16,3,3,0,0,1-1.24-1l.93-.73a1.68,1.68,0,0,0,.73.59,1.17,1.17,0,0,0,.69.06,1,1,0,0,0,.78-.63.87.87,0,0,0-.34-.84l-.92-.89-.91-.87a2.25,2.25,0,0,1-.58-.89,1.66,1.66,0,0,1,.54-1.78,1.83,1.83,0,0,1,.9-.42,1.89,1.89,0,0,1,1.1.07,2.65,2.65,0,0,1,1,.76l-.92.73a1,1,0,0,0-1-.42.68.68,0,0,0-.55.43c0,.15,0,.38.28.68l1.25,1.2c.18.18.4.39.57.54a2.19,2.19,0,0,1,.65,1,1.76,1.76,0,0,1,0,1"/><path class="cls-1" d="M162,80.73h1.23a2.4,2.4,0,0,1,1.86.73,2.76,2.76,0,0,1,0,3.46,2.33,2.33,0,0,1-1.86.75h-1.05v2.52H161V80.73Zm2.65,2.46a1.57,1.57,0,0,0-.33-1,1.43,1.43,0,0,0-1.09-.4h-1.05v2.84h1.05a1.42,1.42,0,0,0,1.09-.39,1.56,1.56,0,0,0,.33-1"/><rect class="cls-1" x="168.25" y="80.73" width="1.17" height="7.47"/><path class="cls-1" d="M177.8,88.19h-1.32l-1.88-2.52h-.85v2.52h-1.17V80.73h2.21a2.41,2.41,0,0,1,1.87.74,2.54,2.54,0,0,1,.6,1.73,2.52,2.52,0,0,1-.6,1.72,2.2,2.2,0,0,1-.87.58Zm-3-3.57a1.37,1.37,0,0,0,1.08-.4,1.5,1.5,0,0,0,.33-1,1.48,1.48,0,0,0-.33-1,1.34,1.34,0,0,0-1.08-.4h-1v2.84Z"/><polygon class="cls-1" points="181.49 83.77 184.22 83.77 184.22 84.82 181.49 84.82 181.49 87.14 184.81 87.14 184.81 88.19 181.48 88.19 180.33 88.19 180.33 80.73 181.48 80.73 184.81 80.73 184.81 81.77 181.49 81.77 181.49 83.77"/><rect class="cls-2" width="250" height="130"/></g></g></svg>