<svg xmlns="http://www.w3.org/2000/svg" viewBox="0 0 250 130"><defs><style>.cls-1{fill:#737373;}.cls-2{fill:none;}</style></defs><g id="Layer_2" data-name="Layer 2"><g id="logos"><path class="cls-1" d="M88.61,65.42a16.77,16.77,0,0,1-4.84-.65l3.45-9.63c.47-1.27.82-1.69,1.37-1.69s.88.42,1.37,1.68c.2.54,1.77,4.84,3.52,9.6a16.92,16.92,0,0,1-4.87.69m6.25-14c-1.38-2.94-3.37-4.12-6-4.11h-.56c-2.65,0-4.64,1.19-6,4.16-1.88,4.1-10.5,27.11-10.5,27.11h7.07s1.28-3.69,2.82-8a32.1,32.1,0,0,0,7,.73,32.46,32.46,0,0,0,7-.79c1.57,4.31,3,8.07,3,8.07h7S96.78,55.54,94.86,51.45m-54.42,14a16.9,16.9,0,0,1-4.85-.65l3.46-9.63c.47-1.27.81-1.69,1.36-1.69s.89.42,1.37,1.68l3.53,9.6a16.92,16.92,0,0,1-4.87.69m.24-18.08h-.57c-2.65,0-4.63,1.19-6,4.16-1.89,4.1-10.5,27.11-10.5,27.11h7.07s1.27-3.69,2.81-8a32.13,32.13,0,0,0,7,.73,32.46,32.46,0,0,0,7-.79c1.57,4.31,3,8.07,3,8.07h7S48.6,55.54,46.68,51.45c-1.37-2.94-3.36-4.12-6-4.11m20.5,31.27H68V47.74H61.18Z"/><path class="cls-1" d="M189.15,49.59c2,.46,3.09,1,3.09,2.61,0,.63-2.44,7.55-3.67,10.95a16.39,16.39,0,0,1,4.72,1.2,10.16,10.16,0,0,1,2.72-3c.32.29.6.25.6.88,0,2.15-3.9,10.79-1.57,10.88,1.82.39,8.19-10.64,11.85-16h.84a9.92,9.92,0,0,1,.88,5.23c-.36.75-.71,1.42-1,2-.79,2.22-1.87,5.83-3,9.79a46.52,46.52,0,0,1,21.84-2.85,21.83,21.83,0,0,1-.88,4.62c-1.1,1.74-6.93-3.48-21.88,1.41-1.55,5.33-3.25,10.76-4.25,14a35.91,35.91,0,0,1-5.05,10.23c-1.31,1.72-6,7.08-10,6.34-2.78-.47-5.72-3.56-4-9.56,4.39-15.28,19.3-22,19.3-22l.48-.25c.2-.92.4-1.85.62-2.76-1.84,1.33-4.37,2.5-5.72,2.5-2.77,0-4.25-1.63-4.25-4.38,0-2.1.22-2.51,1.12-4.86a10.62,10.62,0,0,1-3.17.23c-1,.68-3.5,6.07-3.28,9.54,0,.71-2.32,3.17-2.87,3a66.08,66.08,0,0,1-.07-7.75c0-.62.73-3.88.73-4.51s-1.42-1.28-2.18-2.08c.3-1.78,1.83-1,2.84-1.86.14-.56,2.48-8.95,5.25-13.56m10,30.2c-2.79,1.13-7.34,4.78-10.7,9.9-3.82,5.84-6.07,13.21-1.87,14.45,1.38.41,3.24-.58,5-2.47s3-4.52,4.64-9.44a122.35,122.35,0,0,0,2.94-12.44M141.41,42.15c-2.72.32-13.42,15.41-19.85,35.63-.44,1.19-3,1.19-4.38.6-1.21-1.32-.91-3.35-1.3-5,0,0-1.36-16.42-.5-22.32a2.92,2.92,0,0,1,1.53-2.16c1.86.73,2,3.4,2,4.49.12,2.44-.84,10,1.28,17.67,2.7-6.71,8.53-19.27,14.32-25.42,2.18-2.33,6.77-4.3,6.85-3.51M134.1,54.59c1.7,0,3.81,3.86,3.81,4.67a1.61,1.61,0,0,1-1.58,1.38,4.28,4.28,0,0,1-3.81-4.17c0-1,.46-1.88,1.58-1.88m42,.29c2.1,0,3.65,3.35,3.65,3.76,0,.9-1.43,2-2.07,2-2.15,0-3-3.35-3-4.38a1.71,1.71,0,0,1,1.46-1.38m-43.72,7.76a3.26,3.26,0,0,1,2.56,3.13c0,.63-1.71,8.26-1.71,8.89s0,.54.13.75c.15-.21.18,3.25-2.68,3.25-1.52,0-2.09-1.16-2.55-2.87.24-2.27.6-9,4.25-13.15m35.71-14.33c2.22-1.16,3,1.24,3.79,2.75.37.67-9.42,19.24-5.86,23.85,1.89-1.6,7.86-9.52,9.35-9.52,4.93,0,.81,11.56,4.28,11.56a21.11,21.11,0,0,0,2.42-.67c.77.87-2.73,2.18-4.86,2.18-3.34,0-3-5.33-3.93-8.31-2,2.16-5.17,8-8.6,8a4.32,4.32,0,0,1-2.82-1.5c-.72.36-3.05,2.25-4.6,2.25-1.82,0-4.49-1.66-4.39-4.26-.17.92-2.57,3.5-5.33,3.51-1.28,0-3.5-.78-3.53-2.88-.08-5.56,2.66-8.19,5.12-11-2.34,1.38-6.85-1.81-7.45,5.23,0,.1-1.05,4.32-1.56,6.29-.22.85-.71,2.68-2.84,2.62-.64-.5-.59-2.12-.56-2.74.17-3.38,4.68-29.54,8.87-29.54,1.07,0,1.6,2.57,1.59,2.88-.18,3.32-2.34,8.93-2.73,11.5.21.18,6.27.31,6.88.31s6,.32,6.11,2.4c0,.62-.58.95-1.57,1.52-7,1.79-8.09,8.52-7.05,10,.66.14,6.86-7.78,7.47-7.78,1.31,0,3,2.34,3,2.75,0,.63-1.37,4.26-1.46,4.88-.39,2.74,3.55.89,3.55.89.2-.67-.27.43-.24-3.83V71.1a27.88,27.88,0,0,1,.95-6.47c.17-.69,2.52-10.59,6-16.32"/><rect class="cls-2" width="250" height="130"/></g></g></svg>