<svg xmlns="http://www.w3.org/2000/svg" viewBox="0 0 250 130"><defs><style>.cls-1{fill:none;}.cls-2{fill:#737373;}</style></defs><g id="Layer_2" data-name="Layer 2"><g id="logos"><rect class="cls-1" width="250" height="130"/><path class="cls-2" d="M41.62,33,53.29,64.45h.27l8.3-23.92,8.25,23.92h.27L81.2,33.7c1.16-3.26,2.47-5.26,4.31-6.47v-.1H76.89v.1c2,.95,3,2.37,3,4.1a8.12,8.12,0,0,1-.42,2.37L74,49.63,68.85,33.17a9,9,0,0,1-.58-2.84,3.48,3.48,0,0,1,2-3.1v-.1H55.71v.1c1.68,1.26,2.47,2.68,3.57,5.78l1.84,5.26L57.34,49.41,51.56,33.17a9.5,9.5,0,0,1-.63-2.94,3.37,3.37,0,0,1,1.84-3v-.1H38.05v.1C39.73,28.49,40.52,29.91,41.62,33Z"/><path class="cls-2" d="M78,52c0,7.79,5.11,12.28,11.28,12.28,5.45,0,9.08-3.3,10.13-8.51l-.28-.09c-1.34,3.3-3.64,4.59-6.22,4.59-4.06,0-6.64-3.45-6.64-9.37H99.62c0-6.31-3.25-11.23-10.13-11.23C83.32,39.64,78,44.46,78,52ZM89.44,40.45c2.25,0,2.58,4.06,2.58,9.41H86.29C86.38,44.37,87.39,40.45,89.44,40.45Z"/><path class="cls-2" d="M102,33.28V58.66c0,3.15-.14,3.82-1.81,5v.09H112v-.09c-1.72-1.2-1.86-1.87-1.86-5V28H99.72v.1C101.53,29.17,102,30,102,33.28Z"/><path class="cls-2" d="M115.11,33.28V58.66c0,3.15-.14,3.82-1.82,5v.09h11.86v-.09c-1.72-1.2-1.87-1.87-1.87-5V28H112.86v.1C114.68,29.17,115.11,30,115.11,33.28Z"/><path class="cls-2" d="M127.44,45.42V58.66c0,3.15-.14,3.82-1.86,5v.09h11.85v-.09c-1.67-1.2-1.86-1.87-1.86-5V49.15c0-3.73,1.43-5.5,3.34-5.5s2.58,1.43,2.58,3.3V58.66c0,3.15-.14,3.82-1.81,5v.09h11.85v-.09c-1.72-1.2-1.86-1.87-1.86-5V47.14c0-4.3-2.15-7.5-6.74-7.5-3.59,0-6.31,2.15-7.36,6.11V40.11H125.34v.1C127.15,41.4,127.44,42.12,127.44,45.42Z"/><path class="cls-2" d="M173,55.65c-1.34,3.3-3.63,4.59-6.21,4.59-4.07,0-6.65-3.45-6.65-9.37h13.34c0-6.31-3.25-11.23-10.14-11.23-6.16,0-11.47,4.82-11.47,12.33,0,7.79,5.12,12.28,11.28,12.28,5.45,0,9.09-3.3,10.14-8.51Zm-9.7-15.2c2.24,0,2.58,4.06,2.58,9.41h-5.74C160.28,44.37,161.28,40.45,163.34,40.45Z"/><path class="cls-2" d="M177.29,63.25c1.58,0,3.44,1,6.46,1,5.21,0,9-3.11,9-8,0-4.45-2.48-6.64-8-8.65-3.92-1.44-5.16-2.2-5.16-4.3,0-1.68,1.19-2.82,3.15-2.82,3.11,0,6.17,2.86,8.13,7H191V39.59a3.56,3.56,0,0,1-2.48,1.14c-1.58,0-3.11-1.09-5.88-1.09-4.45,0-8,3-8,7.5s2.48,6.74,7.74,8.65c3.25,1.15,4.93,2,4.93,4.26,0,2.1-1.44,3.39-3.64,3.39-3.58,0-6.59-3.06-9-8.17h-.1l.48,9A3.34,3.34,0,0,1,177.29,63.25Z"/><path class="cls-2" d="M196.75,63.25c1.57,0,3.44,1,6.45,1,5.21,0,9-3.11,9-8,0-4.45-2.49-6.64-8-8.65-3.92-1.44-5.16-2.2-5.16-4.3,0-1.68,1.2-2.82,3.16-2.82,3.1,0,6.16,2.86,8.12,7h.1V39.59a3.58,3.58,0,0,1-2.49,1.14c-1.58,0-3.11-1.09-5.88-1.09-4.44,0-8,3-8,7.5s2.49,6.74,7.75,8.65c3.25,1.15,4.92,2,4.92,4.26,0,2.1-1.44,3.39-3.63,3.39-3.59,0-6.6-3.06-9-8.17h-.09l.47,9A3.38,3.38,0,0,1,196.75,63.25Z"/><path class="cls-2" d="M59.37,96.46V68h1.27c5,0,7.07,2.64,10.83,10.06h.11L70.25,66.36a8.84,8.84,0,0,1-3.56.46h-24a8.42,8.42,0,0,1-3.51-.46L37.81,79h.11c3.81-7.42,5.84-11,10.83-11H50V96.46c0,3.36-.61,4.37-2.9,5.85v.1H62.27v-.1C60,100.83,59.37,99.82,59.37,96.46Z"/><path class="cls-2" d="M107.21,100.61v-.1a3.27,3.27,0,0,1-1,.19c-1.8,0-2.17-1.39-2.17-3.7,0-3.88.05-7.3.05-10.22,0-5.73-3.57-7.49-10.24-7.49,1.85.25,2.42,2.41,2.42,4.53v5.32l-3,.6c-5,1.07-9.66,2.27-9.66,7.31,0,3.79,2.82,5.68,6.19,5.68s5.87-1.89,6.57-4.8c0,.13.09.87.09,1,.51,2.45,2.26,3.93,5.55,3.93A6.64,6.64,0,0,0,107.21,100.61ZM96.3,95.1c0,2.59-1,4.49-2.82,4.49-1.43,0-2.22-1.43-2.22-3.84,0-3,1.21-4.76,3.66-5.45L96.3,90Z"/><path class="cls-2" d="M115.54,79.62v-.1H103.65v.1c1.39,1.34,1.81,2.08,3.1,4.9l8.51,18.35h.09l8.32-18.26c1.3-2.82,1.85-3.7,3.29-5v-.1h-6.52v.1a3.06,3.06,0,0,1,2.22,3,4.78,4.78,0,0,1-.51,2.17l-3.56,8.14-3.75-8.69a6.89,6.89,0,0,1-.64-2.5A2.21,2.21,0,0,1,115.54,79.62Z"/><path class="cls-2" d="M135.65,79.06c-6,0-11.1,4.67-11.1,11.93,0,7.54,5,11.88,10.91,11.88,5.27,0,8.79-3.19,9.81-8.23l-.28-.09c-1.3,3.19-3.52,4.44-6,4.44-3.93,0-6.43-3.33-6.43-9.06h12.9C145.45,83.82,142.31,79.06,135.65,79.06Zm-3.1,9.9c.09-5.32,1.06-9.11,3-9.11,2.17,0,2.5,3.93,2.5,9.11Z"/><path class="cls-2" d="M145.54,67.78v.09c1.76,1.07,2.18,1.85,2.18,5V97.46c0,3.05-.14,3.7-1.76,4.86v.09h11.46v-.09c-1.66-1.16-1.8-1.81-1.8-4.86V67.78Z"/><path class="cls-2" d="M167.41,97.46V67.78H157.33v.09c1.76,1.07,2.17,1.85,2.17,5V97.46c0,3.05-.13,3.7-1.75,4.86v.09h11.46v-.09C167.55,101.16,167.41,100.51,167.41,97.46Z"/><path class="cls-2" d="M180.54,102.87c5.27,0,8.79-3.19,9.8-8.23l-.27-.09c-1.3,3.19-3.52,4.44-6,4.44-3.93,0-6.43-3.33-6.43-9.06h12.9c0-6.11-3.15-10.87-9.8-10.87-6,0-11.1,4.67-11.1,11.93C169.63,98.53,174.58,102.87,180.54,102.87Zm.14-23c2.17,0,2.5,3.93,2.5,9.11h-5.55C177.72,83.64,178.69,79.85,180.68,79.85Z"/><path class="cls-2" d="M207.17,79.06c-3.56,0-5.45,3.33-6.38,7.12V79.52H190.9v.1c1.75,1.15,2,1.85,2,5v12.8c0,3.05-.14,3.7-1.8,4.86v.09h12.39v-.09c-1.94-1-2.73-1.76-2.73-4.81V89.65c0-3.84,1.76-6.06,3.75-6.06A2.21,2.21,0,0,1,207,86a2.3,2.3,0,0,1-1.39,2.26,2.54,2.54,0,0,0,1.66.46c2.41,0,4.54-1.8,4.54-5A4.44,4.44,0,0,0,207.17,79.06Z"/><rect class="cls-2" x="171.82" y="70.09" width="36.79" height="2.31"/><path class="cls-2" d="M88,79a4.77,4.77,0,0,0-.66,0,8.5,8.5,0,0,0-5.66,2.53,13,13,0,0,0-3.07,6V79.52H68.7v.1c1.76,1.15,2,1.85,2,5V97.3h0c0,3.16-.15,3.83-1.87,5v.1H81.33v-.09c-1.94-1-2.73-1.76-2.73-4.81V93.58c0-.11,0-.22,0-.33.3-3.84,1.51-8.17,4-10.72a8.33,8.33,0,0,1,1-.87,4.9,4.9,0,0,0,3.82,7.16A4.91,4.91,0,1,0,88,79Z"/><polygon class="cls-2" points="75.12 70.09 75.37 72.39 143.16 72.39 142.56 70.09 75.12 70.09"/></g></g></svg>