<svg xmlns="http://www.w3.org/2000/svg" viewBox="0 0 251.9 53.9" fill="#939ba8"><path d="M37.74,0H5.56A20.2,20.2,0,0,1,15.85,5.65a.62.62,0,0,1,.18.48.67.67,0,0,1-.67.65.67.67,0,0,1-.49-.21,18.56,18.56,0,0,0-8.69-5,20.72,20.72,0,0,0-5-.6H0V3.5l.78,0c.29,0,.58,0,.86,0a19.66,19.66,0,0,1,7,1.87A.65.65,0,0,1,9,5.76a.65.65,0,0,1,0,.51.67.67,0,0,1-.6.39.59.59,0,0,1-.29-.07A18.3,18.3,0,0,0,1.56,4.85c-.26,0-.53,0-.79,0s-.51,0-.77,0V7.5H.29A15.56,15.56,0,0,1,6.13,8.8a15.6,15.6,0,0,1,7.28,5.64.68.68,0,0,1-.17.94.66.66,0,0,1-.93-.17A14.32,14.32,0,0,0,5.63,10,14.37,14.37,0,0,0,.31,8.83H0v2.71l.45,0a12,12,0,0,1,8.85,4.4,16,16,0,0,1,3.77,7.42.69.69,0,0,1-.08.51.66.66,0,0,1-.41.3.47.47,0,0,1-.16,0,.66.66,0,0,1-.65-.51A14.82,14.82,0,0,0,8.3,16.81,10.94,10.94,0,0,0,.42,12.88H0v2.89a5.89,5.89,0,0,1,1-.1,6.68,6.68,0,0,1,2.58.52.67.67,0,0,1-.25,1.29.58.58,0,0,1-.26,0A5.52,5.52,0,0,0,1,17a5,5,0,0,0-1,.12v3.32A3.32,3.32,0,0,1,1,20a3.31,3.31,0,0,1,.77-.09,4.77,4.77,0,0,1,3.87,2.67A13.73,13.73,0,0,1,7.77,30.5q0,.53,0,1.08a.68.68,0,0,1-.67.63H7A.73.73,0,0,1,6.56,32a.64.64,0,0,1-.16-.49c0-.34,0-.66,0-1a12.3,12.3,0,0,0-1.95-7.23,3.51,3.51,0,0,0-2.72-2,2.12,2.12,0,0,0-.44,0,2.51,2.51,0,0,0-1.31,1v4.81c.22-1.88.71-2.44,1.12-2.68a1.08,1.08,0,0,1,.58-.16,1.23,1.23,0,0,1,.63.18c1.32.79,2,3.92,1.93,6.37A20.75,20.75,0,0,1,0,42.27v3.34A24.09,24.09,0,0,0,5.86,34.82a.66.66,0,0,1,.65-.51h.16a.68.68,0,0,1,.49.82,25.28,25.28,0,0,1-6.82,12,.67.67,0,0,1-.34.16V49.1c0,2.72,2.64,4.8,5.37,4.8h36.8v-49C42.17,2.21,40.47,0,37.74,0ZM10.86,31.72c-.32,6-2.37,10.91-6.1,14.54a.68.68,0,0,1-.95,0,.67.67,0,0,1,0-1c3.48-3.39,5.4-8,5.7-13.65a16.61,16.61,0,0,0-2.77-10.9,5.49,5.49,0,0,0-1.17-1.51.68.68,0,0,1,0-.95.68.68,0,0,1,1,0,6.76,6.76,0,0,1,1.4,1.79A18,18,0,0,1,10.86,31.72Zm1.48,8.88a.66.66,0,0,1-.87.39.64.64,0,0,1-.37-.35.65.65,0,0,1,0-.51c2-5.24,2.09-7.89,1.52-11.86-.06-.43-.12-.85-.19-1.25a.68.68,0,0,1,.56-.77h.11a.68.68,0,0,1,.66.57c.06.41.13.83.19,1.27C14.52,32.2,14.43,35.12,12.34,40.6Zm4.85-5.75a.68.68,0,0,1-.66.57h-.1a.67.67,0,0,1-.57-.76c1-7.07.23-9.74-1-13.77l-.15-.52a21.74,21.74,0,0,0-.9-2.44.67.67,0,0,1,.34-.89.66.66,0,0,1,.27-.06.68.68,0,0,1,.62.4A25.53,25.53,0,0,1,16,20l.16.52C17.38,24.55,18.27,27.47,17.19,34.85ZM19.43,19.7A.62.62,0,0,1,19,20a.39.39,0,0,1-.15,0,.66.66,0,0,1-.65-.51C17,14.24,14.6,10.63,10.8,8.17a.67.67,0,0,1,.37-1.24.66.66,0,0,1,.36.11c4.11,2.67,6.65,6.53,8,12.16A.63.63,0,0,1,19.43,19.7Zm9.44,24.21H23v1.73h4.14l-.78,1.74H23v3.48H21.3V44a2.21,2.21,0,0,1,.43-1.21,2.31,2.31,0,0,1,1.43-.4h6.32a1.89,1.89,0,0,0-.51.91A1.75,1.75,0,0,0,28.87,43.91Zm10.06,5c0,1.61-.53,2-2.12,2H31.59c-1.59,0-2.12-.41-2.12-2v-.23l1.74-.38v1h6v-2H31.91c-1.59,0-2.1-.41-2.1-2v-.95c0-1.61.51-2,2.1-2h4.81c1.5,0,2.09.39,2.09,1.86v.18l-1.73.41v-1H31.54v1.83h5.27c1.59,0,2.12.41,2.12,2Z"/><path d="M58.24,16.9a2.68,2.68,0,0,1,1.93-.74H71.56l-1.1,2.44H60.78v3.68H66.6l-1.1,2.54H60.78v5.31H57.57V18.79A2.6,2.6,0,0,1,58.24,16.9Z"/><path d="M78.7,27.53h9.21V16.13h3.24V26.85c0,2.64-.84,3.32-3.45,3.32H78.92c-2.62,0-3.45-.68-3.45-3.32V16.13H78.7Z"/><path d="M98.23,16.13h2.21l9.78,8.27a13.3,13.3,0,0,1,1.59,1.51c-.08-1.16-.14-2-.14-2.4V16.13h2.91v14h-2.21l-10.21-8.68A9.6,9.6,0,0,1,101,20.34c.1,1.1.13,1.83.13,2.23v7.6H98.23Z"/><path d="M124.6,18.64v8.89h8.73v-3l3.23.67v1.67c0,2.64-.83,3.32-3.45,3.32h-8.29c-2.62,0-3.45-.68-3.45-3.32v-7.4c0-2.64.83-3.32,3.45-3.32h8.29c2.62,0,3.45.68,3.45,3.32v1.34l-3.23.52V18.64Z"/><path d="M149.71,30.17h-3.24V18.64h-6.38V16.13h16v2.51h-6.41Z"/><path d="M160.08,16.13h3.23v14h-3.23Z"/><path d="M173.57,16.13h10.24c2.61,0,3.45.68,3.45,3.32v7.4c0,2.64-.84,3.32-3.45,3.32H173.57c-2.61,0-3.45-.68-3.45-3.32v-7.4C170.12,16.81,171,16.13,173.57,16.13ZM184,27.53V18.64H173.36v8.89Z"/><path d="M194,16.13h2.21L206,24.4a12.58,12.58,0,0,1,1.59,1.51c-.08-1.16-.13-2-.13-2.4V16.13h2.9v14h-2.2L198,21.49a9.67,9.67,0,0,1-1.16-1.15c.11,1.1.13,1.83.13,2.23v7.6H194Z"/><path d="M222.68,16.13h3.12l8,14h-3.63l-1.67-3.07h-8.81L218,30.17h-3.23Zm4.44,8.43-3-5.71L221,24.56Z"/><path d="M238.25,16.13h3.23v11.4H251.9v2.64H238.25Z"/><path d="M130.08,43.41v1.94h5.58c1.68,0,2.23.43,2.23,2.13v1.25c0,1.7-.55,2.13-2.23,2.13h-5.53c-1.68,0-2.24-.43-2.24-2.13v-.25l1.84-.39v1.07h6.33V47.1h-5.58c-1.69,0-2.22-.44-2.22-2.13V44c0-1.7.53-2.13,2.22-2.13h5.07c1.6,0,2.22.42,2.22,2V44l-1.84.43v-1Z"/><path d="M143.94,41.83h9.15v1.54H146v2h4.13v1.54H146v2.24h7.16v1.7h-9.24Z"/><path d="M158.76,41.83h2.08v7.33h6.71v1.7h-8.79Z"/><path d="M172.84,42.32a1.7,1.7,0,0,1,1.24-.47h7.33l-.71,1.57h-6.22v2.37h3.74l-.71,1.64h-3v3.41H172.4l0-7.29A1.64,1.64,0,0,1,172.84,42.32Z"/><path d="M0,39.88a18.83,18.83,0,0,0,2.92-9.14,9.85,9.85,0,0,0-.83-4.58s-.1-.27-.33-.25-.24.32-.24.32a16.24,16.24,0,0,0-.27,4.58A11.27,11.27,0,0,1,0,36.13Z"/></svg>
