<svg xmlns="http://www.w3.org/2000/svg" viewBox="0 0 234.34 68.57" fill="#939ba8"><path d="M23,0c4.12,0,7.79,7,7.79,14.65s-4,6.87-5,8.59S23.6,30.45,24.64,40s.91,16.14,2.74,20.72-2.06,7.9-4.12,7.9-6.07-2.06-4.12-7.67,2.63-17.4,2.63-21.06.88-13.59-.57-16.49c-.8-1.6-5.14-.06-5.27-8.7C15.82,6.75,19.14,0,23,0Z"/><path d="M9.23,54.39,4.85,41.13q-.76-2.33-1.47-4.62C2.92,35,2.56,33.6,2.32,32.38c0,.87.05,2,.06,3.31s0,2.71,0,4.09V54.39H0V25.91H2.52L6.41,37.79q.78,2.33,1.48,4.62c.46,1.53.82,2.91,1.06,4.13,0-.87,0-2-.06-3.32s0-2.7,0-4.09V25.91h2.44V54.39Z"/><path d="M46.75,46.14a11.83,11.83,0,0,1-.53,3.76,7.44,7.44,0,0,1-1.4,2.56,5.37,5.37,0,0,1-2.06,1.46,6.64,6.64,0,0,1-2.52.47H36.13V25.91h3.94a5.48,5.48,0,0,1,4.66,2,8.45,8.45,0,0,1,1.53,5.26,7.78,7.78,0,0,1-.9,4.12,6.26,6.26,0,0,1-2.15,2.16,6.86,6.86,0,0,1,1.38.91,5.32,5.32,0,0,1,1.14,1.34,6.2,6.2,0,0,1,.75,1.87A10.75,10.75,0,0,1,46.75,46.14ZM43.61,33.23a5.75,5.75,0,0,0-1-3.65A3.25,3.25,0,0,0,40,28.39H38.73V38.2H40a3,3,0,0,0,2.79-1.42A6.67,6.67,0,0,0,43.61,33.23Zm.49,13A6.61,6.61,0,0,0,43,42.11a3.73,3.73,0,0,0-3.11-1.43H38.73V51.91h1.63a3.22,3.22,0,0,0,2.77-1.35A7.43,7.43,0,0,0,44.1,46.27Z"/><path d="M71.28,32.08h5.39v.57H71.28v8.8h-.62V23.11h6.55v.57H71.28Z"/><path d="M79.67,25.06V23h.63v2Zm0,3h.63V41.45h-.63Z"/><path d="M84.6,21.76V39.61c0,1.11.27,1.54,1,1.54A1.36,1.36,0,0,0,86.2,41v.52a2,2,0,0,1-.84.19c-.92,0-1.38-.6-1.38-1.93v-18Z"/><path d="M88.85,21.76V39.61c0,1.11.27,1.54,1,1.54a1.36,1.36,0,0,0,.65-.19v.52a2,2,0,0,1-.84.19c-.92,0-1.38-.6-1.38-1.93v-18Z"/><path d="M99.17,34.24v.49h-7c0,4.15,1.41,6.5,4,6.5a4.8,4.8,0,0,0,2.76-.89v.51a5,5,0,0,1-2.87.9c-2.87,0-4.47-2.49-4.47-7s1.46-6.94,4.12-6.94C97.9,27.85,99.17,30.18,99.17,34.24Zm-7,0h6.4c0-3.74-1-5.83-2.93-5.83C93.48,28.39,92.24,30.51,92.18,34.22Z"/><path d="M105,27.85a3.88,3.88,0,0,1,3.11,1.82h0V21.76h.62V41.45h-.59V39.69h0a4.16,4.16,0,0,1-3.33,2c-2.47,0-3.85-2.36-3.85-6.53C101,30.48,102.45,27.85,105,27.85Zm0,13.27a4,4,0,0,0,3.14-2V30.26c-1-1.3-2-1.87-3.06-1.87-2.25,0-3.49,2.44-3.49,6.75C101.61,39,102.82,41.12,105,41.12Z"/><path d="M115.06,28h.65l2.68,12.51L121.16,28h.57l2.79,12.51L127.2,28h.59l-3,13.41h-.65L121.43,29h0l-2.73,12.46H118Z"/><path d="M130,25.06V23h.62v2Zm0,3h.62V41.45H130Z"/><path d="M137,41.23a4.63,4.63,0,0,0,1.66-.3v.55a5.1,5.1,0,0,1-1.76.27c-1.11,0-2.33-.52-2.33-3V28.56h-1.87V28h1.87V24.47h.62V28h3.44v.52h-3.44V38.79C135.21,40.37,135.83,41.23,137,41.23Z"/><path d="M147.64,32.46c0-2.79-1-4.07-2.79-4.07a4.34,4.34,0,0,0-3.22,1.9V41.45H141V21.76h.63v8A4.48,4.48,0,0,1,145,27.85c2.14,0,3.25,1.47,3.25,4.53v9.07h-.62Z"/><path d="M155.9,25.5c0-2.79,1.16-4.07,3.6-4.07a5.33,5.33,0,0,1,1.76.3V23.6a3.74,3.74,0,0,0-1.35-.24c-1.2,0-1.74.78-1.74,2.49v2h2.52v1.76h-2.52V41.45H155.9V29.59h-1.74V27.83h1.74Z"/><path d="M169.52,34.16v1.17H163c0,3,1.2,4.6,3.2,4.6a5.92,5.92,0,0,0,3-.92v1.84a6.77,6.77,0,0,1-3.44.95c-3.25,0-5.09-2.57-5.09-7.12s1.68-7.1,4.74-7.1C168,27.58,169.52,30,169.52,34.16ZM163,33.59h4.5c0-2.68-.76-4.14-2.08-4.14C163.89,29.45,163,30.94,163,33.59Z"/><path d="M179.54,34.16v1.17H173c0,3,1.2,4.6,3.2,4.6a6,6,0,0,0,3-.92v1.84a6.77,6.77,0,0,1-3.44.95c-3.25,0-5.09-2.57-5.09-7.12s1.68-7.1,4.74-7.1C178.05,27.58,179.54,30,179.54,34.16ZM173,33.59h4.5c0-2.68-.76-4.14-2.09-4.14C173.9,29.45,173,30.94,173,33.59Z"/><path d="M183.76,21.76v17c0,.82.27,1.14,1,1.14a2,2,0,0,0,.81-.16v1.73a5.42,5.42,0,0,1-1.6.27,2.17,2.17,0,0,1-2.43-2.35V21.76Z"/><path d="M197.52,39.55a3.72,3.72,0,0,1-3,1.9c-2.7,0-4.19-2.44-4.19-6.83s1.57-7,4.38-7a3.78,3.78,0,0,1,3,1.82V27.83h2V41.69c0,3.71-1.51,5.45-4.76,5.45a7.51,7.51,0,0,1-3.71-1V44.21a6.72,6.72,0,0,0,3.33,1.08c2,0,2.92-1,2.92-3.27V39.55Zm-2.33,0A3.21,3.21,0,0,0,197.52,38V30.86a2.8,2.8,0,0,0-2.31-1.41c-1.65,0-2.57,1.84-2.57,5.15S193.56,39.55,195.19,39.55Z"/><path d="M206.83,41.8c-3.22,0-5.06-2.54-5.06-7.12s1.87-7.1,5.17-7.1,5.15,2.58,5.15,7.21S210.19,41.8,206.83,41.8Zm.11-12.32c-1.79,0-2.82,1.84-2.82,5.14s1,5.28,2.82,5.28,2.79-1.84,2.79-5.14S208.73,29.48,206.94,29.48Z"/><path d="M218.31,41.8c-3.22,0-5.06-2.54-5.06-7.12s1.87-7.1,5.17-7.1,5.15,2.58,5.15,7.21S221.67,41.8,218.31,41.8Zm.11-12.32c-1.79,0-2.82,1.84-2.82,5.14s1,5.28,2.82,5.28,2.79-1.84,2.79-5.14S220.21,29.48,218.42,29.48Z"/><path d="M229.22,27.58A3.37,3.37,0,0,1,232,29.15h0V21.76h2.27V41.45h-2.08V39.77h0a4.18,4.18,0,0,1-3.3,2c-2.71,0-4.2-2.47-4.2-6.88C224.73,30.21,226.33,27.58,229.22,27.58Zm.49,12.27a3,3,0,0,0,2.36-1.43V30.86a2.94,2.94,0,0,0-2.33-1.41c-1.71,0-2.65,1.95-2.65,5.42C227.09,38.06,228,39.85,229.71,39.85Z"/></svg>
