<svg xmlns="http://www.w3.org/2000/svg" viewBox="0 0 178.52 47.26" fill="#939ba8"><path d="M10.08,20.17a10,10,0,0,1-3.93-.79A10.13,10.13,0,0,1,.79,14a10.2,10.2,0,0,1,0-7.87A10.15,10.15,0,0,1,3,3,10.26,10.26,0,0,1,6.15.79,10.2,10.2,0,0,1,14,.79a10.13,10.13,0,0,1,5.36,5.36,10.2,10.2,0,0,1,0,7.87,10.38,10.38,0,0,1-2.16,3.2A10.26,10.26,0,0,1,14,19.38,10,10,0,0,1,10.08,20.17Zm0-16.25A6.16,6.16,0,0,0,7.7,15.76a6.17,6.17,0,0,0,4.77,0,6.12,6.12,0,0,0,3.29-3.29,6.17,6.17,0,0,0,0-4.77,6.14,6.14,0,0,0-5.68-3.78Z"/><path d="M58.74,19.92V.25h7.81A5.87,5.87,0,0,1,68.83.7,6.06,6.06,0,0,1,70.71,2,6,6,0,0,1,72,3.86a5.79,5.79,0,0,1,.46,2.27A5.87,5.87,0,0,1,72,8.43a6,6,0,0,1-1.27,1.86,5.89,5.89,0,0,1-1.88,1.27,5.7,5.7,0,0,1-2.28.46H62.61v7.9ZM66.55,8.15A2.08,2.08,0,0,0,67.32,8,2.4,2.4,0,0,0,68,7.55a2,2,0,0,0,.43-.64,1.81,1.81,0,0,0,.16-.78,1.9,1.9,0,0,0-.16-.77A2.16,2.16,0,0,0,68,4.71a2.37,2.37,0,0,0-.65-.43,2.08,2.08,0,0,0-.77-.16H62.61v4Z"/><path d="M119.53,20.17a7.68,7.68,0,0,1-3.06-.62,7.84,7.84,0,0,1-4.16-4.16,7.68,7.68,0,0,1-.62-3.06V.25h3.87V12.33a4,4,0,0,0,1.16,2.8A4.25,4.25,0,0,0,118,16a4.08,4.08,0,0,0,3.07,0,4.25,4.25,0,0,0,1.27-.86,4,4,0,0,0,1.16-2.8V.25h3.87V12.33a7.63,7.63,0,0,1-.62,3.05,8.15,8.15,0,0,1-1.19,2,7.57,7.57,0,0,1-1.68,1.52,7.43,7.43,0,0,1-2.05,1A8,8,0,0,1,119.53,20.17Z"/><path d="M171.91,20.17a6,6,0,0,1-3.76-1.23,6.8,6.8,0,0,1-2.23-3.25l-.1-.28,3.32-1.48.12.34a3.59,3.59,0,0,0,.84,1.36,3,3,0,0,0,1.12.65,2.52,2.52,0,0,0,.77.11l.44,0a3.36,3.36,0,0,0,1.13-.39,2.41,2.41,0,0,0,.79-.73,1.52,1.52,0,0,0,.29-.91,1.33,1.33,0,0,0-.46-1,7,7,0,0,0-1.36-.94c-.57-.31-1.19-.62-1.85-.94A10.1,10.1,0,0,1,169,10.2a6.22,6.22,0,0,1-1.51-1.76,5.11,5.11,0,0,1-.62-2.6,5.92,5.92,0,0,1,1.64-4.08,5.94,5.94,0,0,1,1.8-1.29A5.44,5.44,0,0,1,172.58,0a5.85,5.85,0,0,1,3.29.94A6.07,6.07,0,0,1,178,3.61l.14.29-3.39,1.56-.14-.29a2.2,2.2,0,0,0-2-1.4,2.1,2.1,0,0,0-.43,0,2.2,2.2,0,0,0-1.16.69,1.87,1.87,0,0,0-.48,1.33,1.32,1.32,0,0,0,.48,1,6.87,6.87,0,0,0,1.41.91l1.91.94a11,11,0,0,1,2,1.22,6.25,6.25,0,0,1,1.57,1.78,5.15,5.15,0,0,1,.64,2.63,5.39,5.39,0,0,1-.56,2.48,5.62,5.62,0,0,1-1.47,1.84,6.53,6.53,0,0,1-2.1,1.13A7.9,7.9,0,0,1,171.91,20.17Z"/><path d="M30.38,42.47h2.74v1.06H30.38v3.39H29.21v-7.5h4.51v1H30.38Z"/><path d="M36.72,46.92v-7.5h1.17v7.5Z"/><path d="M45.88,40.47H43.82v6.45H42.64V40.47H40.58v-1h5.3Z"/><path d="M49.75,42.1v4.82H48.58V39.06l4.71,5.17V39.42h1.18v7.84Z"/><path d="M58.82,42.47h2.74v1.06H58.82v2.32h3.33v1.07h-4.5v-7.5h4.5v1H58.82Z"/><path d="M69.12,45.41a2.18,2.18,0,0,1-1.69,1.47,2.28,2.28,0,0,1-.45,0,2.24,2.24,0,0,1-.89-.17,2.93,2.93,0,0,1-1.25-1l.93-.72a1.74,1.74,0,0,0,.74.58,1.17,1.17,0,0,0,.69.06,1,1,0,0,0,.79-.62.86.86,0,0,0-.35-.85l-.92-.89-.92-.87a2.15,2.15,0,0,1-.57-.9,1.62,1.62,0,0,1,0-.95,1.72,1.72,0,0,1,.55-.84,2.09,2.09,0,0,1,2-.34,2.56,2.56,0,0,1,1,.75l-.92.74a1,1,0,0,0-1-.42.68.68,0,0,0-.55.43c0,.14,0,.38.28.68l1.26,1.2.56.55a2.19,2.19,0,0,1,.66,1A1.79,1.79,0,0,1,69.12,45.41Z"/><path d="M75.84,45.41a2.2,2.2,0,0,1-1.69,1.47,2.32,2.32,0,0,1-.46,0,2.22,2.22,0,0,1-.88-.17,2.93,2.93,0,0,1-1.25-1l.93-.72a1.68,1.68,0,0,0,.74.58,1.17,1.17,0,0,0,.69.06,1,1,0,0,0,.79-.62.88.88,0,0,0-.35-.85l-.92-.89-.92-.87a2.15,2.15,0,0,1-.57-.9,1.62,1.62,0,0,1,0-.95,1.72,1.72,0,0,1,.55-.84,2,2,0,0,1,.9-.42,2,2,0,0,1,1.11.08,2.46,2.46,0,0,1,1,.75l-.92.74a1,1,0,0,0-1-.42.68.68,0,0,0-.54.43c0,.14,0,.38.28.68l1.25,1.2.57.55a2.28,2.28,0,0,1,.66,1A1.79,1.79,0,0,1,75.84,45.41Z"/><path d="M88.28,40.47H86.22v6.45H85V40.47H83v-1h5.3Z"/><path d="M92.39,46.62a3.7,3.7,0,0,1-1.19-.81,3.8,3.8,0,0,1-.81-1.19,3.75,3.75,0,0,1-.29-1.45,3.89,3.89,0,0,1,.29-1.47,4.18,4.18,0,0,1,.81-1.19,3.67,3.67,0,0,1,1.19-.8,3.8,3.8,0,0,1,1.46-.29,3.72,3.72,0,0,1,2.66,1.09,4.15,4.15,0,0,1,.8,1.19,3.89,3.89,0,0,1,.29,1.47,3.72,3.72,0,0,1-1.09,2.64,3.73,3.73,0,0,1-2.66,1.11A3.81,3.81,0,0,1,92.39,46.62ZM92,41.35a2.57,2.57,0,0,0-.76,1.82A2.61,2.61,0,0,0,92,45a2.58,2.58,0,0,0,3.64,0,2.61,2.61,0,0,0,.76-1.82A2.57,2.57,0,0,0,92,41.35Z"/><path d="M105.18,46.92v-7.5h1.18v7.5Z"/><path d="M110.7,42.1v4.82h-1.17V39.06l4.71,5.17V39.42h1.18v7.84Z"/><path d="M122.57,45.41a2.18,2.18,0,0,1-1.69,1.47,2.46,2.46,0,0,1-1.34-.13,2.91,2.91,0,0,1-1.24-1l.93-.72a1.63,1.63,0,0,0,.74.58,1.14,1.14,0,0,0,.68.06,1,1,0,0,0,.79-.62.88.88,0,0,0-.34-.85l-.92-.89-.92-.87a2.08,2.08,0,0,1-.58-.9,1.62,1.62,0,0,1,0-.95,1.67,1.67,0,0,1,.56-.84,1.92,1.92,0,0,1,.9-.42,2,2,0,0,1,1.11.08,2.53,2.53,0,0,1,1,.75l-.92.74a1,1,0,0,0-1-.42.7.7,0,0,0-.55.43c0,.14,0,.38.29.68l1.25,1.2c.18.18.4.4.57.55a2.25,2.25,0,0,1,.65,1A1.79,1.79,0,0,1,122.57,45.41Z"/><path d="M126.39,39.42h1.23a2.43,2.43,0,0,1,1.87.73,2.51,2.51,0,0,1,.61,1.74,2.46,2.46,0,0,1-.61,1.74,2.36,2.36,0,0,1-1.87.75h-1.05v2.54H125.4v-7.5Zm2.66,2.47a1.53,1.53,0,0,0-.34-1,1.41,1.41,0,0,0-1.09-.4h-1.05v2.85h1.05a1.38,1.38,0,0,0,1.09-.4A1.5,1.5,0,0,0,129.05,41.89Z"/><path d="M132.68,46.92v-7.5h1.18v7.5Z"/><path d="M142.27,46.92H141l-1.89-2.54h-.86v2.54H137v-7.5h2.22a2.39,2.39,0,0,1,1.87.74,2.59,2.59,0,0,1,.61,1.74,2.55,2.55,0,0,1-.61,1.73,2.06,2.06,0,0,1-.87.58Zm-3-3.59a1.34,1.34,0,0,0,1.08-.41,1.45,1.45,0,0,0,.34-1,1.49,1.49,0,0,0-.34-1,1.37,1.37,0,0,0-1.08-.39H138.2v2.85Z"/><path d="M146,42.47h2.74v1.06H146v2.32h3.32v1.07h-4.49v-7.5h4.49v1H146Z"/></svg>
