<svg xmlns="http://www.w3.org/2000/svg" viewBox="0 0 236.99 56.48" fill="#939ba8"><path d="M18.94,27l-1.76,7.75H41.56c-.21,2-1,10.49-14.31,10.49-10.56,0-16.62-7.39-16.62-17s7-16.76,16.62-16.76a17.37,17.37,0,0,1,11.59,4V4.77A27,27,0,0,0,27.32,2.26C11,2.26,0,13.24,0,28,0,43,10.07,54.22,27.46,54.22c20.85,0,23.78-14.37,23.78-26.12V27Z"/><path d="M68.66,28.8c2.46-.91,7.27-3.87,7.27-11.4,0-10.5-9.15-15.14-22.25-15.14A57,57,0,0,0,41.15,3.6V24.7H51.22V10.92a18,18,0,0,1,4.43-.31c5.5,0,11.13,2.44,11.13,7.59,0,6-5.42,8.84-11.13,8.84H53.57c0,1.08,0,2.6,0,3.39a35.18,35.18,0,0,1-.31,3.9c.83,0,2.36-.1,3.62-.1,5.77,0,11.55.24,11.55,5,0,5.07-5.42,6.38-11.55,6.38a42.55,42.55,0,0,1-6-.54L50.24,45a19.6,19.6,0,0,1-7.54,8l.45.14a76.51,76.51,0,0,0,12.57,1.08c11.41,0,22.4-3.87,22.4-14C78.12,31.13,71.26,29.23,68.66,28.8Z"/><path d="M110.39,39.09c-.77.84-4.93,5.56-13.59,5.56-8.94,0-15.7-7-15.7-16.76,0-9.37,6.76-16,15.7-16a18,18,0,0,1,12.54,4.93L115,9.09c-.21-.14-6.19-6.83-18.73-6.83a25.48,25.48,0,0,0-19.33,8.36,16.36,16.36,0,0,1,1.37,6.78c0,5.33-2.09,8.71-4.3,10.78a13.33,13.33,0,0,1,1.87,1.26c2.1,1.72,4.61,5,4.61,10.77a13.69,13.69,0,0,1-2,7.35,25.79,25.79,0,0,0,17.72,6.66c12.89,0,19.08-6.68,19.86-7.32Z"/><rect x="103.67" y="27.82" width="56.48" height="0.84" transform="translate(160.15 -103.67) rotate(90)"/><path d="M155.87,11.64,154.7,12.8a3,3,0,0,0-2.42-1.05,2.9,2.9,0,0,0-3,3,2.85,2.85,0,0,0,3,3,2.17,2.17,0,0,0,2.44-1.88h-4.25l.32-1.39h5.89v.19c0,1.34-.63,4.68-4.37,4.68a4.52,4.52,0,0,1-4.91-4.7,4.56,4.56,0,0,1,4.89-4.6A4.72,4.72,0,0,1,155.87,11.64Z"/><path d="M159.56,10.27V17.6h3.51l-.21,1.61h-5.1V10.27Z"/><path d="M172.88,14.74a4.65,4.65,0,0,1-4.72,4.65,4.65,4.65,0,1,1,4.72-4.65Zm-4.7,2.93a2.82,2.82,0,0,0,2.81-3,2.82,2.82,0,1,0-5.64,0A2.83,2.83,0,0,0,168.18,17.67Z"/><path d="M174,10.32a10.64,10.64,0,0,1,2.24-.23c2.35,0,4,.83,4,2.71a2.07,2.07,0,0,1-1.33,2,1.92,1.92,0,0,1,1.72,2c0,1.81-2,2.51-4,2.51a12.58,12.58,0,0,1-2.61-.27Zm1.8,1.32v2.6a5.36,5.36,0,0,0,.8,0c1,0,2-.43,2-1.37s-1-1.34-2-1.34A2.28,2.28,0,0,0,175.79,11.64Zm0,4v2.14a6.69,6.69,0,0,0,1,.09c1.1,0,2.07-.27,2.07-1.12s-1-1.17-2.07-1.17A8.11,8.11,0,0,0,175.79,15.62Z"/><path d="M185.29,9.8l4.2,9.41h-1.94l-.78-1.83h-2.94L183,19.21h-2Zm0,3.71-.94,2.4h1.87Z"/><path d="M192.18,10.27V17.6h3.5l-.2,1.61h-5.11V10.27Z"/><path d="M147.73,23.35a10.1,10.1,0,0,1,2.24-.24c2.34,0,4,.83,4,2.71a2,2,0,0,1-1.32,2,1.92,1.92,0,0,1,1.71,2c0,1.82-2,2.51-4,2.51a13.78,13.78,0,0,1-2.61-.26Zm1.8,1.31v2.61c.18,0,.23,0,.79,0,1,0,2-.42,2-1.37s-1-1.34-2-1.34A2.59,2.59,0,0,0,149.53,24.66Zm0,4v2.15a7.3,7.3,0,0,0,1,.08c1.09,0,2.06-.26,2.06-1.12s-1-1.17-2.06-1.17A7.94,7.94,0,0,0,149.53,28.64Z"/><path d="M162.55,23.3v5.82c0,1.43-.8,3.29-3.58,3.29s-3.57-1.88-3.57-3.29V23.3h1.79v5.78a1.78,1.78,0,0,0,3.56,0V23.3Z"/><path d="M170.07,24.13l-.83,1.45a3.67,3.67,0,0,0-2.37-.86c-.81,0-1.35.33-1.35.94,0,1,1.85.85,3.34,1.67a2.37,2.37,0,0,1,1.39,2.23c0,1.73-1.3,2.85-3.48,2.85a5.64,5.64,0,0,1-3.3-1.16l.89-1.51a4,4,0,0,0,2.46,1c1,0,1.54-.33,1.54-1,0-1.14-1.82-1.06-3.27-1.8a2.15,2.15,0,0,1-1.43-2.11c0-1.84,1.56-2.72,3.37-2.72A5.48,5.48,0,0,1,170.07,24.13Z"/><path d="M172.94,23.3v8.93h-1.8V23.3Z"/><path d="M181.38,23.3v9.15l-5.32-5.37.09,5.15h-1.79V23.06l5.31,5.36-.08-5.12Z"/><path d="M188.19,23.3l.19,1.61h-3.74v2.56H188L187.79,29h-3.15v1.6h4.17l-.28,1.61h-5.69V23.3Z"/><path d="M195.78,24.13,195,25.58a3.67,3.67,0,0,0-2.37-.86c-.81,0-1.35.33-1.35.94,0,1,1.85.85,3.34,1.67A2.37,2.37,0,0,1,196,29.56c0,1.73-1.3,2.85-3.48,2.85a5.61,5.61,0,0,1-3.3-1.16l.89-1.51a4,4,0,0,0,2.46,1c1,0,1.54-.33,1.54-1,0-1.14-1.82-1.06-3.27-1.8a2.15,2.15,0,0,1-1.43-2.11c0-1.84,1.56-2.72,3.37-2.72A5.48,5.48,0,0,1,195.78,24.13Z"/><path d="M203,24.13l-.83,1.45a3.65,3.65,0,0,0-2.37-.86c-.8,0-1.35.33-1.35.94,0,1,1.86.85,3.34,1.67a2.36,2.36,0,0,1,1.39,2.23c0,1.73-1.3,2.85-3.48,2.85a5.67,5.67,0,0,1-3.3-1.16l.89-1.51a4,4,0,0,0,2.46,1c1,0,1.54-.33,1.54-1,0-1.14-1.81-1.06-3.26-1.8a2.15,2.15,0,0,1-1.44-2.11c0-1.84,1.56-2.72,3.38-2.72A5.4,5.4,0,0,1,203,24.13Z"/><path d="M155.35,37.36l-1,1.38a3.19,3.19,0,0,0-2.24-.88,2.75,2.75,0,0,0-2.81,2.86,2.82,2.82,0,0,0,2.81,3,3.15,3.15,0,0,0,2.43-1l1,1.39A4.89,4.89,0,0,1,152,45.44a4.66,4.66,0,0,1,0-9.31A4.6,4.6,0,0,1,155.35,37.36Z"/><path d="M165.62,40.78a4.66,4.66,0,0,1-4.72,4.66,4.66,4.66,0,1,1,4.72-4.66Zm-4.7,2.94a2.82,2.82,0,0,0,2.81-2.95,2.82,2.82,0,1,0-5.64,0A2.83,2.83,0,0,0,160.92,43.72Z"/><path d="M173.75,36.32v9.15l-5.32-5.37.09,5.16h-1.79V36.08l5.32,5.36L172,36.32Z"/><path d="M181.33,37.15l-.84,1.45a3.64,3.64,0,0,0-2.37-.85c-.8,0-1.34.32-1.34.93,0,1,1.85.86,3.34,1.68a2.35,2.35,0,0,1,1.38,2.23c0,1.72-1.3,2.85-3.48,2.85a5.74,5.74,0,0,1-3.3-1.16l.9-1.52a3.85,3.85,0,0,0,2.45,1c1,0,1.54-.33,1.54-1,0-1.13-1.81-1.06-3.26-1.8a2.13,2.13,0,0,1-1.44-2.1c0-1.84,1.56-2.73,3.38-2.73A5.56,5.56,0,0,1,181.33,37.15Z"/><path d="M189.54,36.32v5.83c0,1.42-.79,3.29-3.58,3.29s-3.56-1.88-3.56-3.29V36.32h1.79v5.79a1.78,1.78,0,0,0,3.55,0V36.32Z"/><path d="M192.76,36.32v7.33h3.5l-.2,1.61H191V36.32Z"/><path d="M203.08,36.32l-.23,1.62h-2.21v7.32h-1.78V37.94h-2.49l.23-1.62Z"/><path d="M207.48,35.84l4.19,9.42h-1.94L209,43.43H206l-.79,1.83h-1.95Zm0,3.72-.95,2.4h1.87Z"/><path d="M219.57,36.32v9.15l-5.31-5.37.08,5.16h-1.79V36.08l5.32,5.36-.09-5.12Z"/><path d="M228.66,37.36l-1,1.38a3.22,3.22,0,0,0-2.24-.88,2.75,2.75,0,0,0-2.81,2.86,2.82,2.82,0,0,0,2.81,3,3.15,3.15,0,0,0,2.43-1l1,1.39a4.9,4.9,0,0,1-3.56,1.32,4.66,4.66,0,0,1,0-9.31A4.6,4.6,0,0,1,228.66,37.36Z"/><path d="M237,36.9l-3,4.57v3.79H232.2V41.47l-3-4.57,1.59-.72,2.27,3.68,2.3-3.68Z"/></svg>
