<svg xmlns="http://www.w3.org/2000/svg" viewBox="0 0 215.89 75.69" fill="#939ba8"><rect x="82.02" y="6.52" width="3.53" height="24.74"/><rect x="103.04" y="6.52" width="3.53" height="24.74"/><path d="M146.71,19.79a6.85,6.85,0,0,0-1.42-2.13,8.89,8.89,0,0,0-2.12-1.54,14.24,14.24,0,0,0-2.61-1.05,9.79,9.79,0,0,0,1.81-1A8.07,8.07,0,0,0,144,12.59a6.87,6.87,0,0,0,1.13-2.05,7.71,7.71,0,0,0,.43-2.69V7.76a7,7,0,0,0-2-5,9.31,9.31,0,0,0-3.41-2A14.14,14.14,0,0,0,135.34,0H119.69l2.37,3.26h14.61a7,7,0,0,1,3.53,1.29A4.45,4.45,0,0,1,142,8.24v.09a4.77,4.77,0,0,1-2,4.16,8.85,8.85,0,0,1-5.19,1.4h-6v3.17h6.58a11.15,11.15,0,0,1,6.2,1.41,4.49,4.49,0,0,1,2.09,4v.09a4.77,4.77,0,0,1-2.05,4.11,9.48,9.48,0,0,1-5.61,1.47H125.59V6.52h-3.53V31.26h13.86a17.23,17.23,0,0,0,4.64-.58A11,11,0,0,0,144.15,29a7.58,7.58,0,0,0,2.3-2.68,7.94,7.94,0,0,0,.8-3.6v-.09A7,7,0,0,0,146.71,19.79Z"/><polygon points="117.07 0 96.04 0 92.55 0 82.02 0 69.17 0 71.52 3.26 82.02 3.26 82.02 3.26 85.54 3.26 103.04 3.26 106.57 3.26 120.4 3.26 118.03 0 117.07 0"/><polygon points="33.65 51.94 30.35 51.94 29.57 50.25 38.79 50.25 39.59 51.94 35.49 51.94 35.49 60.64 33.65 60.64 33.65 51.94"/><path d="M43.39,50H48a5.12,5.12,0,0,1,1.74.28,3.42,3.42,0,0,1,1.26.76,3,3,0,0,1,.64,1,3.31,3.31,0,0,1,.22,1.25v0a3.47,3.47,0,0,1-.18,1.15,2.84,2.84,0,0,1-.51.9,3.15,3.15,0,0,1-.78.67,4.06,4.06,0,0,1-1,.42l2.8,3.94H50.06L47.5,56.81H45.2v3.62H43.39Zm4.49,5.16a2.45,2.45,0,0,0,1.57-.47A1.59,1.59,0,0,0,50,53.44v0a1.53,1.53,0,0,0-.57-1.29,2.55,2.55,0,0,0-1.59-.44H45.2v3.51Z"/><polygon points="70.31 50.03 72.33 50.03 75.47 58.02 78.59 50.03 80.56 50.03 76.24 60.5 74.64 60.5 70.31 50.03"/><polygon points="85.01 50.03 92.71 50.03 92.71 51.68 86.83 51.68 86.83 54.35 92.04 54.35 92.04 56 86.83 56 86.83 58.78 92.78 58.78 92.78 60.43 85.01 60.43 85.01 50.03"/><polygon points="97.64 50.03 99.45 50.03 99.45 58.78 104.91 58.78 105.69 60.43 97.64 60.43 97.64 50.03"/><path d="M135,60.61a5.38,5.38,0,0,1-2.19-.43A5,5,0,0,1,131.08,59a5.19,5.19,0,0,1-1.12-1.7,5.53,5.53,0,0,1-.4-2.07v0a5.53,5.53,0,0,1,.4-2.07,5.4,5.4,0,0,1,5-3.3,5.57,5.57,0,0,1,2.2.42,5.2,5.2,0,0,1,1.71,1.15,5.44,5.44,0,0,1,1.11,1.7,5.34,5.34,0,0,1,.4,2.07v0a5.3,5.3,0,0,1-.4,2.07A5.2,5.2,0,0,1,138.9,59a5.46,5.46,0,0,1-1.72,1.17,5.57,5.57,0,0,1-2.2.43m0-1.68a3.35,3.35,0,0,0,2.52-1.08,3.69,3.69,0,0,0,.71-1.16,3.78,3.78,0,0,0,.26-1.43v0a3.82,3.82,0,0,0-.26-1.43,3.64,3.64,0,0,0-.72-1.18,3.49,3.49,0,0,0-1.12-.79,3.31,3.31,0,0,0-1.42-.3,3.45,3.45,0,0,0-1.41.29,3.51,3.51,0,0,0-1.1.79,3.66,3.66,0,0,0-.72,1.17,3.93,3.93,0,0,0-.26,1.42v0a4,4,0,0,0,.26,1.43,3.48,3.48,0,0,0,1.84,2,3.38,3.38,0,0,0,1.42.3"/><path d="M149.58,60.59a5.57,5.57,0,0,1-1.83-.29,3.57,3.57,0,0,1-1.39-.87,3.66,3.66,0,0,1-.89-1.43,5.71,5.71,0,0,1-.32-2V50H147v5.91a3.16,3.16,0,0,0,.7,2.22,2.52,2.52,0,0,0,1.94.75,2.57,2.57,0,0,0,1.93-.72,3,3,0,0,0,.7-2.17V50h1.81v5.9a6,6,0,0,1-.32,2,4,4,0,0,1-.9,1.47,3.54,3.54,0,0,1-1.4.87,5.65,5.65,0,0,1-1.85.29"/><rect x="171.63" y="50.03" width="1.81" height="10.39"/><path d="M187,59.63a5.17,5.17,0,0,1-1.45.72,5.57,5.57,0,0,1-1.71.26,5.43,5.43,0,0,1-2.2-.43A5.2,5.2,0,0,1,180,59a5.37,5.37,0,0,1-1.51-3.77v0a5.34,5.34,0,0,1,.4-2.07A5.2,5.2,0,0,1,180,51.45a5.27,5.27,0,0,1,1.72-1.16,5.43,5.43,0,0,1,2.2-.43,5.64,5.64,0,0,1,2.2.42,5.2,5.2,0,0,1,1.71,1.15,5.44,5.44,0,0,1,1.11,1.7,5.34,5.34,0,0,1,.4,2.07v0a5.31,5.31,0,0,1-.27,1.7,5,5,0,0,1-.79,1.49l1.19,1-1.17,1.31Zm-3.13-.7a3.34,3.34,0,0,0,1-.14,3,3,0,0,0,.81-.37l-1.78-1.51,1.17-1.34,1.79,1.64a3.56,3.56,0,0,0,.53-2v0a4,4,0,0,0-.26-1.43,3.5,3.5,0,0,0-.73-1.18,3.45,3.45,0,0,0-1.11-.79,3.38,3.38,0,0,0-1.42-.3,3.45,3.45,0,0,0-1.41.29,3.4,3.4,0,0,0-1.1.79,3.49,3.49,0,0,0-.72,1.17,3.93,3.93,0,0,0-.26,1.42v0a4,4,0,0,0,.26,1.43,3.53,3.53,0,0,0,.72,1.18,3.6,3.6,0,0,0,1.12.79,3.38,3.38,0,0,0,1.42.3"/><path d="M198.47,60.59a5.53,5.53,0,0,1-1.83-.29,3.57,3.57,0,0,1-1.39-.87,3.8,3.8,0,0,1-.9-1.43,5.72,5.72,0,0,1-.31-2V50h1.81v5.91a3.21,3.21,0,0,0,.7,2.22,2.91,2.91,0,0,0,3.87,0,3,3,0,0,0,.7-2.17V50h1.82v5.9a6,6,0,0,1-.32,2,4.24,4.24,0,0,1-.9,1.47,3.65,3.65,0,0,1-1.41.87,5.55,5.55,0,0,1-1.84.29"/><polygon points="208.12 50.03 215.81 50.03 215.81 51.68 209.93 51.68 209.93 54.35 215.14 54.35 215.14 56 209.93 56 209.93 58.78 215.88 58.78 215.88 60.43 208.12 60.43 208.12 50.03"/><polygon points="2.24 50.97 0.53 50.97 0 49.83 5.18 49.83 5.7 50.97 3.47 50.97 3.47 55.44 2.24 55.44 2.24 50.97"/><polygon points="7.73 49.83 8.96 49.83 8.96 52.05 11.24 52.05 11.24 49.83 12.47 49.83 12.47 55.44 11.24 55.44 11.24 53.19 8.96 53.19 8.96 55.44 7.73 55.44 7.73 49.83"/><polygon points="15.42 49.83 19.65 49.83 19.65 50.93 16.64 50.93 16.64 52.07 19.29 52.07 19.29 53.17 16.64 53.17 16.64 54.34 19.69 54.34 19.69 55.44 15.42 55.44 15.42 49.83"/><rect x="0.62" y="59.33" width="19.26" height="1.07"/><polygon points="161.75 51.79 158.45 51.79 157.66 50.1 166.88 50.1 167.69 51.79 163.59 51.79 163.59 60.5 161.75 60.5 161.75 51.79"/><path d="M116.62,50.06h4.66A3.64,3.64,0,0,1,124,51a2.31,2.31,0,0,1,.7,1.72v0a2.66,2.66,0,0,1-.12.84,2.75,2.75,0,0,1-.33.64,2.37,2.37,0,0,1-.47.48,4.31,4.31,0,0,1-.55.36,5.78,5.78,0,0,1,.83.38,2.53,2.53,0,0,1,.65.51,1.85,1.85,0,0,1,.42.7,2.69,2.69,0,0,1,.15.94v0a2.68,2.68,0,0,1-.27,1.23,2.48,2.48,0,0,1-.78.89,3.8,3.8,0,0,1-1.22.55,6.39,6.39,0,0,1-1.57.18h-4.81Zm4.3,4.39a2.57,2.57,0,0,0,1.42-.35,1.18,1.18,0,0,0,.54-1.06v0a1.17,1.17,0,0,0-.47-1,2.25,2.25,0,0,0-1.36-.35h-2.62v2.77Zm.54,4.4a2.65,2.65,0,0,0,1.46-.35,1.21,1.21,0,0,0,.54-1.08v0a1.19,1.19,0,0,0-.53-1,2.89,2.89,0,0,0-1.61-.36h-2.89v2.85Z"/><path d="M60.48,49.94h1.7l4.58,10.49H64.82l-1-2.51H58.85l-1.07,2.51H55.9ZM63.1,56.3l-1.8-4.17L59.51,56.3Z"/><path d="M49.21,70.61h1.56l.37,0a1.94,1.94,0,0,1,.39.12,1.07,1.07,0,0,1,.37.22,1.12,1.12,0,0,1,.26.37,1.45,1.45,0,0,1,0,1.13,1.32,1.32,0,0,1-.31.38,1.44,1.44,0,0,1-.41.21,2.41,2.41,0,0,1-.43.1l1.44,2.37h-.52l-1.39-2.35h-.86v2.35h-.46Zm.46,2.19h1a1.61,1.61,0,0,0,.59-.1.92.92,0,0,0,.35-.22.72.72,0,0,0,.17-.29,1,1,0,0,0,.05-.28,1.11,1.11,0,0,0-.05-.28.75.75,0,0,0-.17-.28,1.06,1.06,0,0,0-.35-.23,1.63,1.63,0,0,0-.59-.09h-1Z"/><path d="M54.75,70.61h3V71H55.21V72.8h2.41v.41H55.21v1.93h2.68v.42H54.75Z"/><path d="M60.23,70.61h1.53a3.44,3.44,0,0,1,1.09.16,2.46,2.46,0,0,1,.74.4,2,2,0,0,1,.47.55,2.1,2.1,0,0,1,.25.56,2.86,2.86,0,0,1,.11.5c0,.14,0,.25,0,.31s0,.16,0,.31a2.59,2.59,0,0,1-.11.49,2.31,2.31,0,0,1-.25.57,1.83,1.83,0,0,1-.47.54,2.27,2.27,0,0,1-.74.41,3.46,3.46,0,0,1-1.09.15H60.23Zm.46,4.53h1a3.41,3.41,0,0,0,.92-.12,2.06,2.06,0,0,0,.74-.37,1.74,1.74,0,0,0,.49-.64,2,2,0,0,0,.19-.92,2,2,0,0,0-.19-.92,1.74,1.74,0,0,0-.49-.64,2.06,2.06,0,0,0-.74-.37,3.05,3.05,0,0,0-.92-.13h-1Z"/><path d="M66.87,70.61h.46v5h-.46Z"/><path d="M70.22,74.65a1.25,1.25,0,0,0,.47.47,1.4,1.4,0,0,0,.66.15,1.21,1.21,0,0,0,.43-.07,1,1,0,0,0,.36-.2.76.76,0,0,0,.23-.3.87.87,0,0,0,.09-.4.73.73,0,0,0-.11-.43.84.84,0,0,0-.29-.27,1.55,1.55,0,0,0-.41-.19l-.46-.15a3.27,3.27,0,0,1-.47-.18,1.55,1.55,0,0,1-.41-.25,1.18,1.18,0,0,1-.29-.4,1.44,1.44,0,0,1-.11-.59,1.24,1.24,0,0,1,.13-.58,1.33,1.33,0,0,1,.35-.43,1.43,1.43,0,0,1,.51-.25,2,2,0,0,1,.6-.09,2,2,0,0,1,.75.14,1.52,1.52,0,0,1,.6.48l-.4.29A1.18,1.18,0,0,0,72,71a1.22,1.22,0,0,0-.56-.12,1.42,1.42,0,0,0-.42.06,1.2,1.2,0,0,0-.36.17,1,1,0,0,0-.24.29.91.91,0,0,0-.09.41.77.77,0,0,0,.19.57,1.31,1.31,0,0,0,.47.32,5,5,0,0,0,.62.2,3,3,0,0,1,.61.24,1.14,1.14,0,0,1,.66,1.13,1.38,1.38,0,0,1-.12.59,1.48,1.48,0,0,1-.34.44,1.47,1.47,0,0,1-.49.27,1.92,1.92,0,0,1-.59.09,2.44,2.44,0,0,1-.9-.17,1.68,1.68,0,0,1-.7-.58Z"/><path d="M79.44,74.79a2.06,2.06,0,0,1-.82.69,2.44,2.44,0,0,1-1,.21,2.87,2.87,0,0,1-1-.19,2.3,2.3,0,0,1-.81-.54,2.44,2.44,0,0,1-.52-.83,2.71,2.71,0,0,1-.19-1,2.68,2.68,0,0,1,.19-1,2.39,2.39,0,0,1,.52-.82,2.33,2.33,0,0,1,.81-.55,2.68,2.68,0,0,1,1-.19,2.5,2.5,0,0,1,.94.18,1.85,1.85,0,0,1,.76.59l-.38.32a1.38,1.38,0,0,0-.59-.51,1.72,1.72,0,0,0-.73-.16,2,2,0,0,0-.87.17,2,2,0,0,0-.67.46,1.84,1.84,0,0,0-.41.69,2.39,2.39,0,0,0-.15.86,2.43,2.43,0,0,0,.15.86,2,2,0,0,0,.41.69,2,2,0,0,0,.67.46,2.14,2.14,0,0,0,.87.17,1.89,1.89,0,0,0,.39,0,1.53,1.53,0,0,0,.39-.14,2.06,2.06,0,0,0,.37-.23,1.5,1.5,0,0,0,.31-.35Z"/><path d="M81.37,73.09a2.87,2.87,0,0,1,.18-1,2.58,2.58,0,0,1,.53-.82,2.33,2.33,0,0,1,.81-.55,2.91,2.91,0,0,1,2.07,0,2.33,2.33,0,0,1,.81.55,2.39,2.39,0,0,1,.52.82,2.68,2.68,0,0,1,.19,1,2.71,2.71,0,0,1-.19,1,2.44,2.44,0,0,1-.52.83,2.3,2.3,0,0,1-.81.54,2.91,2.91,0,0,1-2.07,0,2.3,2.3,0,0,1-.81-.54,2.62,2.62,0,0,1-.53-.83A2.91,2.91,0,0,1,81.37,73.09Zm.46,0A2.67,2.67,0,0,0,82,74a2.2,2.2,0,0,0,.42.69,2,2,0,0,0,.66.46,2.21,2.21,0,0,0,.87.17,2.14,2.14,0,0,0,.87-.17,1.83,1.83,0,0,0,.66-.46,1.89,1.89,0,0,0,.42-.69,2.43,2.43,0,0,0,.15-.86,2.39,2.39,0,0,0-.15-.86,1.74,1.74,0,0,0-.42-.69,1.83,1.83,0,0,0-.66-.46,2,2,0,0,0-.87-.17,2,2,0,0,0-.87.17A2,2,0,0,0,82,72.23,2.63,2.63,0,0,0,81.83,73.09Z"/><path d="M88.22,70.61h.49L90.31,75l1.6-4.34h.49l-1.88,5h-.46Z"/><path d="M94.46,70.61h3V71H94.92V72.8h2.4v.41h-2.4v1.93H97.6v.42H94.46Z"/><path d="M100,70.61h1.57l.36,0a2.25,2.25,0,0,1,.4.12,1.13,1.13,0,0,1,.36.22,1.14,1.14,0,0,1,.27.37,1.51,1.51,0,0,1,0,1.13,1.06,1.06,0,0,1-.31.38,1.44,1.44,0,0,1-.41.21,2.53,2.53,0,0,1-.42.1l1.44,2.37h-.53l-1.39-2.35h-.86v2.35H100Zm.46,2.19h1a1.61,1.61,0,0,0,.59-.1.92.92,0,0,0,.35-.22.62.62,0,0,0,.17-.29.72.72,0,0,0,0-.28.79.79,0,0,0,0-.28.64.64,0,0,0-.17-.28,1.06,1.06,0,0,0-.35-.23,1.63,1.63,0,0,0-.59-.09h-1Z"/><path d="M109.86,73.43,108,70.61h.55l1.5,2.35,1.53-2.35h.51l-1.81,2.82v2.13h-.46Z"/><path d="M113.85,73.09a2.87,2.87,0,0,1,.18-1,2.58,2.58,0,0,1,.53-.82,2.33,2.33,0,0,1,.81-.55,2.91,2.91,0,0,1,2.07,0,2.33,2.33,0,0,1,.81.55,2.39,2.39,0,0,1,.52.82,2.68,2.68,0,0,1,.19,1,2.71,2.71,0,0,1-.19,1,2.44,2.44,0,0,1-.52.83,2.3,2.3,0,0,1-.81.54,2.91,2.91,0,0,1-2.07,0,2.3,2.3,0,0,1-.81-.54,2.62,2.62,0,0,1-.53-.83A2.91,2.91,0,0,1,113.85,73.09Zm.46,0a2.67,2.67,0,0,0,.14.86,2.2,2.2,0,0,0,.42.69,2,2,0,0,0,.66.46,2.21,2.21,0,0,0,.87.17,2.14,2.14,0,0,0,.87-.17,2,2,0,0,0,.67-.46,2,2,0,0,0,.41-.69,2.43,2.43,0,0,0,.15-.86,2.39,2.39,0,0,0-.15-.86,1.84,1.84,0,0,0-.41-.69,2,2,0,0,0-.67-.46,2,2,0,0,0-.87-.17,2,2,0,0,0-.87.17,2,2,0,0,0-1.08,1.15A2.63,2.63,0,0,0,114.31,73.09Z"/><path d="M124.91,73.67a3.16,3.16,0,0,1-.09.76,1.72,1.72,0,0,1-.3.64,1.55,1.55,0,0,1-.56.45,2,2,0,0,1-.85.17,2,2,0,0,1-.85-.17,1.47,1.47,0,0,1-.56-.45,1.72,1.72,0,0,1-.3-.64,2.73,2.73,0,0,1-.1-.76V70.61h.47v2.94a3.82,3.82,0,0,0,0,.57,1.88,1.88,0,0,0,.2.56,1.15,1.15,0,0,0,.4.42,1.32,1.32,0,0,0,.7.17,1.26,1.26,0,0,0,.69-.17,1.18,1.18,0,0,0,.41-.42,1.85,1.85,0,0,0,.19-.56,3.88,3.88,0,0,0,0-.57V70.61h.46Z"/><path d="M127.57,70.61h1.57l.36,0a2,2,0,0,1,.4.12,1,1,0,0,1,.36.22,1.14,1.14,0,0,1,.27.37,1.39,1.39,0,0,1,0,1.13,1.15,1.15,0,0,1-.3.38,1.59,1.59,0,0,1-.41.21,2.41,2.41,0,0,1-.43.1l1.44,2.37h-.52l-1.4-2.35H128v2.35h-.47ZM128,72.8h1a1.57,1.57,0,0,0,.59-.1,1,1,0,0,0,.36-.22.72.72,0,0,0,.17-.29,1,1,0,0,0,0-.28,1,1,0,0,0,0-.28.75.75,0,0,0-.17-.28,1.12,1.12,0,0,0-.36-.23A1.59,1.59,0,0,0,129,71h-1Z"/><path d="M135.69,70.61h.47L137.39,75h0l1.25-4.39h.59L140.5,75h0l1.23-4.39h.48l-1.44,5h-.57L139,71.16h0l-1.26,4.4h-.56Z"/><path d="M144,73.09a2.87,2.87,0,0,1,.18-1,2.58,2.58,0,0,1,.53-.82,2.33,2.33,0,0,1,.81-.55,2.91,2.91,0,0,1,2.07,0,2.33,2.33,0,0,1,.81.55,2.39,2.39,0,0,1,.52.82,2.68,2.68,0,0,1,.19,1,2.71,2.71,0,0,1-.19,1,2.44,2.44,0,0,1-.52.83,2.3,2.3,0,0,1-.81.54,2.91,2.91,0,0,1-2.07,0,2.3,2.3,0,0,1-.81-.54,2.62,2.62,0,0,1-.53-.83A2.91,2.91,0,0,1,144,73.09Zm.46,0a2.67,2.67,0,0,0,.14.86,2.2,2.2,0,0,0,.42.69,2,2,0,0,0,.66.46,2.21,2.21,0,0,0,.87.17,2.14,2.14,0,0,0,.87-.17,1.83,1.83,0,0,0,.66-.46,1.89,1.89,0,0,0,.42-.69,2.43,2.43,0,0,0,.15-.86,2.39,2.39,0,0,0-.15-.86,1.74,1.74,0,0,0-.42-.69,1.83,1.83,0,0,0-.66-.46,2,2,0,0,0-.87-.17,2,2,0,0,0-.87.17,2,2,0,0,0-1.08,1.15A2.63,2.63,0,0,0,144.47,73.09Z"/><path d="M151.55,70.61h1.57l.36,0a2,2,0,0,1,.4.12,1.07,1.07,0,0,1,.37.22,1.29,1.29,0,0,1,.26.37,1.27,1.27,0,0,1,.11.54,1.22,1.22,0,0,1-.43,1,1.59,1.59,0,0,1-.41.21,2.41,2.41,0,0,1-.43.1l1.44,2.37h-.52l-1.39-2.35H152v2.35h-.47ZM152,72.8h1a1.67,1.67,0,0,0,.6-.1,1,1,0,0,0,.35-.22.72.72,0,0,0,.17-.29,1,1,0,0,0,0-.28,1,1,0,0,0,0-.28.75.75,0,0,0-.17-.28,1.18,1.18,0,0,0-.35-.23A1.69,1.69,0,0,0,153,71h-1Z"/><path d="M157.1,70.61h.46v4.53h2.31v.42H157.1Z"/><path d="M161.93,70.61h1.53a3.44,3.44,0,0,1,1.09.16,2.59,2.59,0,0,1,.74.4,2,2,0,0,1,.47.55,2.82,2.82,0,0,1,.37,1.37,2.16,2.16,0,0,1,0,.31,1.94,1.94,0,0,1-.1.49,2.31,2.31,0,0,1-.25.57,1.83,1.83,0,0,1-.47.54,2.38,2.38,0,0,1-.74.41,3.46,3.46,0,0,1-1.09.15h-1.53Zm.46,4.53h1a3.28,3.28,0,0,0,.91-.12,2,2,0,0,0,.75-.37,1.74,1.74,0,0,0,.49-.64,2.19,2.19,0,0,0,.18-.92,2.16,2.16,0,0,0-.18-.92,1.74,1.74,0,0,0-.49-.64,2,2,0,0,0-.75-.37,2.94,2.94,0,0,0-.91-.13h-1Z"/></svg>
