<svg xmlns="http://www.w3.org/2000/svg" viewBox="0 0 173.76 94.24" fill="#939ba8"><path d="M92.44,20.77c0-.05,4.85-6.9,14.39-4.25,8.66,2.42,5.59,10.51-3,11.7,0,0-8.85,1.39-11.47-3.79-1.83-3.61,5.69-5.31,7.43-5.38,2.23-.09,4.12.58,4.64,2.42.36,1.29-1,3.13-3,3.06-4.37-.14-1.79-2.93-1.79-2.93s-3.84.2-3.14,2,4.69,2,4.69,2c4-.08,7.23-1.9,7.25-4.05s-3.43-3.71-7.18-3.74c-6-.05-8.79,2.95-8.79,2.95"/><path d="M92.68,2.63c-.06,0-8.39-6.29-20.29.62C61.58,9.53,68,17.94,79.72,16c0,0,12.14-1.82,14.14-9,1.4-5-8.86-3.83-11.18-3.23-3,.77-5.51,2.07-5.67,4.46-.11,1.68,2.21,3.33,4.87,2.45,5.74-1.89,1.53-4.19,1.53-4.19s5.15-1.27,4.74,1.2-5.65,4.18-5.65,4.18c-5.32,1.47-10.14.59-10.78-2s3.5-5.76,8.47-7.27c7.88-2.4,12.49,0,12.49,0"/><path d="M78.16,22.75s-5.51-4.08-13.5.42c-7.25,4.09-3.11,9.54,4.74,8.25,0,0,8.09-1.21,9.5-5.88,1-3.25-5.85-2.47-7.4-2.08-2,.51-3.69,1.35-3.82,2.91-.09,1.09,1.43,2.15,3.21,1.58C74.73,26.72,72,25.23,72,25.23s3.43-.83,3.14.77-3.81,2.72-3.81,2.72c-3.55,1-6.75.4-7.14-1.25s2.38-3.75,5.7-4.74c5.27-1.57,8.31,0,8.31,0"/><path d="M108.33,7a32.09,32.09,0,0,1,7.83,21.16A32.18,32.18,0,0,1,108.62,49c-.46.48-2,2-3.65,2a14.38,14.38,0,0,1-5.22-1.2,11.43,11.43,0,0,0-2.35-.62A4.74,4.74,0,0,1,99,52.09c.4,2.52-.8,5.28-4.68,6.67a23.48,23.48,0,0,1-8.2.86,25.47,25.47,0,0,1-17.23-6.79c-.9-.85-1.69-1.7-2.29-2.38,3.12,0,6.69-.29,8.57-1.33a19.06,19.06,0,0,0,5.65-4.91A16.89,16.89,0,0,1,85.31,40c1.88-1,4.07-1.58,6-2.69A5.76,5.76,0,0,0,92,28.55s3.68,5.23-5.23,6.07a10.71,10.71,0,0,0-6.81,3c-1.59,1.25-5.5,5.4-7.41,6.65-1.77,1-5.68,3.21-9.8.7a16.31,16.31,0,0,1-6.32-7.75c-1.49-3.38-2.07-9.6-2.07-9.6s0,3.16.23,4.71c1,16.86,16.06,30,32.42,30,19.05,0,30.73-14.41,30.73-32.18A32.82,32.82,0,0,0,108.33,7"/><path d="M92.23,51.87a1.62,1.62,0,0,0,.29.71,2.59,2.59,0,0,1-.29-.71"/><path d="M92.52,52.58a1.62,1.62,0,0,1-.29-.71,2.59,2.59,0,0,1-.08-.63,2.91,2.91,0,0,1,2.59-2.78h0a5,5,0,0,0-1,.13c-1,.27-3.25,1.23-4,1.07,0,0-3.73-.22-3.83-3.6a7.55,7.55,0,0,1,2.72-6s-5.4.52-5.17,8.55c.1,3.31,4,7.23,10.8,4.76a2.56,2.56,0,0,1-1.82-.78"/><path d="M96.42,52.93a1,1,0,0,0,0-.17,2.41,2.41,0,0,1-.14.59.84.84,0,0,0,.14-.42"/><path d="M96.64,51.23a1.45,1.45,0,0,0-1.52-.3,1.93,1.93,0,0,1,1.06.77,2,2,0,0,1-1,2.66c-1.39,1-5.68,1.73-9.45.11-3.34-1.44-3.46-5.21-3.48-6.91a10.53,10.53,0,0,1,1.5-5c-1,.95-1.78,2-2.47,2.79-1.39,1.51-2.61,3.5-5.82,4.95a19.43,19.43,0,0,1-6.76,1c3.57,3.2,10.14,7.39,17.55,7.39s8.18-1,9.65-2c1.3-.91,2.9-3.25.75-5.44"/><path d="M88.25,23.32l0,.05,0-.05"/><path d="M79.32,17.79h0a19.64,19.64,0,0,1,7.18,3.28,16.24,16.24,0,0,1,2.69,2.48c-.41-.51-3.66-4.69-2.41-7.78l-.13.05a27.34,27.34,0,0,1-7.1,1.93l-.24,0"/><path d="M94.21,29.6a2.91,2.91,0,0,1-.61-.34c2.49,3.31.06,7.13-1.26,8.09a19.34,19.34,0,0,0,5.37-4.28,13.75,13.75,0,0,1,2.62-2.31,12.82,12.82,0,0,1-6.12-1.16"/><path d="M89,25.18a18.42,18.42,0,0,0-8.41-6.1A32.58,32.58,0,0,1,85.08,24a5.47,5.47,0,0,1,.08,7.09,6.22,6.22,0,0,1-3.06,1.63c-3.37.94-3.35-2-3.35-2l-.13.06A16.43,16.43,0,0,1,74.27,33l-.34.18a2.66,2.66,0,0,1,1.91,2.54,11.9,11.9,0,0,1-1.4,5.76l.53-.63a45.49,45.49,0,0,1,4.55-4.44,14.87,14.87,0,0,1,6.69-2.63c2.2-.4,5.32-.45,5.48-2.9.14-2.15-1.92-4.7-2.74-5.69"/><path d="M76.82,92.05a2,2,0,0,1-1.43.57A2,2,0,0,1,74,92.05c-.53-.5-.53-1-.53-2.18s0-1.68.53-2.18a2,2,0,0,1,1.42-.57,2,2,0,0,1,1.43.57c.52.5.52,1,.52,2.18s0,1.68-.52,2.18m-.46-4a1.4,1.4,0,0,0-1-.38,1.36,1.36,0,0,0-1,.38c-.35.35-.39.72-.39,1.85s0,1.49.39,1.84a1.33,1.33,0,0,0,1,.39,1.37,1.37,0,0,0,1-.39c.35-.35.39-.71.39-1.84s0-1.5-.39-1.85"/><path d="M81.63,92.29a1.35,1.35,0,0,1-.94.33,1.27,1.27,0,0,1-1.09-.49v2.11H79v-5.4h.56v.44a1.25,1.25,0,0,1,1.09-.49,1.35,1.35,0,0,1,.94.33,2.91,2.91,0,0,1,0,3.17m-1-3c-.84,0-1,.69-1,1.42s.14,1.43,1,1.43,1-.7,1-1.43-.13-1.42-1-1.42"/><path d="M84.79,92.57a.93.93,0,0,1-1-1V89.28h-.49v-.42h.49V87.69h.56v1.17h.83v.42h-.83v2.27a.48.48,0,0,0,.53.55h.3v.47Z"/><path d="M86.67,87.16h.63v.61h-.63Zm0,1.68h.56v3.73H86.7Z"/><path d="M94,92.57v-2.3a1,1,0,1,0-1.91-.06v2.36h-.57v-2.3a.88.88,0,0,0-1-1,.89.89,0,0,0-1,1v2.3h-.56V88.84h.56v.41a1.41,1.41,0,0,1,1.09-.46,1.27,1.27,0,0,1,1.18.62,1.49,1.49,0,0,1,1.27-.62,1.44,1.44,0,0,1,1,.35,1.39,1.39,0,0,1,.41,1v2.39Z"/><path d="M98.54,92.57v-.36a1.35,1.35,0,0,1-1.11.41,1.41,1.41,0,0,1-1.09-.34,1.07,1.07,0,0,1-.29-.76c0-.66.47-1.08,1.33-1.08h1.16v-.36c0-.54-.28-.82-1-.82a1,1,0,0,0-1,.43l-.38-.35a1.53,1.53,0,0,1,1.36-.55c1,0,1.55.43,1.55,1.25v2.53Zm0-1.72H97.46c-.58,0-.86.23-.86.66s.27.64.89.64a1.19,1.19,0,0,0,.86-.25.89.89,0,0,0,.19-.65Z"/><path d="M101.84,92.57a.9.9,0,0,1-1-1V87.17h.56v4.38c0,.37.13.55.52.55h.3v.47Z"/><path d="M108.41,92.57V90.26a.87.87,0,0,0-.94-1,.9.9,0,0,0-1,1v2.31h-.56v-5.4h.56v2.08a1.38,1.38,0,0,1,1.08-.46A1.28,1.28,0,0,1,109,90.17v2.4Z"/><path d="M111.09,90.85c0,.82.4,1.29,1.14,1.29a1.29,1.29,0,0,0,1-.43l.38.33a1.79,1.79,0,0,1-1.41.58c-1,0-1.68-.6-1.68-1.92s.6-1.91,1.58-1.91,1.58.7,1.58,1.81v.25Zm1.92-1a1,1,0,0,0-1.8,0,1.37,1.37,0,0,0-.12.62h2a1.52,1.52,0,0,0-.12-.62"/><path d="M117.47,92.57v-.36a1.35,1.35,0,0,1-1.11.41,1.41,1.41,0,0,1-1.09-.34,1.07,1.07,0,0,1-.29-.76c0-.66.47-1.08,1.33-1.08h1.16v-.36c0-.54-.28-.82-1-.82a1,1,0,0,0-1,.43l-.38-.35a1.51,1.51,0,0,1,1.36-.55c1,0,1.55.43,1.55,1.25v2.53Zm0-1.72h-1.08c-.58,0-.86.23-.86.66s.27.64.88.64a1.17,1.17,0,0,0,.86-.25.84.84,0,0,0,.2-.65Z"/><path d="M120.76,92.57a.9.9,0,0,1-1-1V87.17h.57v4.38c0,.37.12.55.52.55h.3v.47Z"/><path d="M123.6,92.57a.93.93,0,0,1-1-1V89.28h-.48v-.42h.48V87.69h.57v1.17H124v.42h-.82v2.27c0,.35.16.55.53.55H124v.47Z"/><path d="M128,92.57V90.26a.87.87,0,0,0-.94-1,.89.89,0,0,0-1,1v2.31h-.57v-5.4h.57v2.08a1.37,1.37,0,0,1,1.08-.46,1.28,1.28,0,0,1,1.39,1.38v2.4Z"/><path d="M133.87,92.62a2.18,2.18,0,0,1-1.58-.54l.38-.37a1.61,1.61,0,0,0,1.2.44c.63,0,1-.22,1-.66s-.19-.51-.64-.55l-.64,0c-.75-.06-1.15-.39-1.15-1s.6-1.1,1.42-1.1a2.27,2.27,0,0,1,1.39.4l-.37.36a1.65,1.65,0,0,0-1-.3c-.56,0-.86.24-.86.62s.19.51.67.55l.62,0c.68.06,1.14.31,1.14,1s-.64,1.14-1.57,1.14"/><path d="M138,92.57a.93.93,0,0,1-1-1V89.28h-.48v-.42H137V87.69h.57v1.17h.82v.42h-.82v2.27c0,.35.16.55.52.55h.3v.47Z"/><path d="M142.12,92.57v-.36a1.35,1.35,0,0,1-1.11.41,1.4,1.4,0,0,1-1.09-.34,1.07,1.07,0,0,1-.29-.76c0-.66.47-1.08,1.33-1.08h1.16v-.36c0-.54-.28-.82-1-.82a1,1,0,0,0-1,.43l-.38-.35a1.51,1.51,0,0,1,1.36-.55c1,0,1.54.43,1.54,1.25v2.53Zm0-1.72H141c-.58,0-.86.23-.86.66s.27.64.88.64a1.21,1.21,0,0,0,.87-.25.89.89,0,0,0,.19-.65Z"/><path d="M146.61,89.55a.82.82,0,0,0-.67-.27.92.92,0,0,0-.93,1v2.29h-.56V88.84H145v.45a1.33,1.33,0,0,1,1.08-.5,1.2,1.2,0,0,1,.93.35Z"/><path d="M149.22,92.57a.93.93,0,0,1-1-1V89.28h-.49v-.42h.49V87.69h.56v1.17h.82v.42h-.82v2.27c0,.35.16.55.52.55h.3v.47Z"/><path d="M152.35,92.62a2.18,2.18,0,0,1-1.58-.54l.37-.37a1.64,1.64,0,0,0,1.2.44c.64,0,1-.22,1-.66s-.2-.51-.64-.55l-.64,0c-.75-.06-1.15-.39-1.15-1s.6-1.1,1.42-1.1a2.27,2.27,0,0,1,1.39.4l-.37.36a1.67,1.67,0,0,0-1-.3c-.56,0-.86.24-.86.62s.19.51.67.55l.63,0c.67.06,1.13.31,1.13,1s-.63,1.14-1.57,1.14"/><path d="M160.23,92.57V90.26a.87.87,0,0,0-.94-1,.89.89,0,0,0-1,1v2.31h-.57v-5.4h.57v2.08a1.37,1.37,0,0,1,1.08-.46,1.28,1.28,0,0,1,1.39,1.38v2.4Z"/><path d="M162.91,90.85c0,.82.4,1.29,1.14,1.29a1.26,1.26,0,0,0,1-.43l.38.33a1.79,1.79,0,0,1-1.41.58c-1,0-1.68-.6-1.68-1.92s.6-1.91,1.58-1.91,1.58.7,1.58,1.81v.25Zm1.92-1a1,1,0,0,0-1.8,0,1.52,1.52,0,0,0-.12.62h2a1.37,1.37,0,0,0-.12-.62"/><path d="M169.26,89.55a.8.8,0,0,0-.66-.27.92.92,0,0,0-.93,1v2.29h-.56V88.84h.56v.45a1.32,1.32,0,0,1,1.08-.5,1.21,1.21,0,0,1,.93.35Z"/><path d="M171.15,90.85c0,.82.4,1.29,1.14,1.29a1.29,1.29,0,0,0,1-.43l.38.33a1.79,1.79,0,0,1-1.41.58c-1,0-1.68-.6-1.68-1.92s.6-1.91,1.58-1.91,1.58.7,1.58,1.81v.25Zm1.92-1a1,1,0,0,0-.9-.57,1,1,0,0,0-.9.57,1.52,1.52,0,0,0-.12.62h2a1.52,1.52,0,0,0-.12-.62"/><path d="M10.15,81.3a6.44,6.44,0,0,1-4.27,1.36H0V68.85H5.88a6.44,6.44,0,0,1,4.27,1.36c1.85,1.61,1.65,3.37,1.65,5.54s.2,3.94-1.65,5.55M7.48,72.65a2.15,2.15,0,0,0-1.87-.77H3.89v7.75H5.61a2.15,2.15,0,0,0,1.87-.77c.31-.39.42-.76.42-3.11s-.11-2.71-.42-3.1"/><polygon points="12.93 82.66 12.93 68.85 23.7 68.85 23.7 71.88 16.83 71.88 16.83 74.18 22.7 74.18 22.7 77.21 16.83 77.21 16.83 79.63 23.7 79.63 23.7 82.66 12.93 82.66"/><polygon points="24.91 82.66 24.91 68.85 35.68 68.85 35.68 71.88 28.8 71.88 28.8 74.18 34.68 74.18 34.68 77.21 28.8 77.21 28.8 79.63 35.68 79.63 35.68 82.66 24.91 82.66"/><path d="M43.16,77.73H40.78v4.93h-3.9V68.85h6.28c3.52,0,5.41,2.17,5.41,4.44s-1.89,4.44-5.41,4.44M43,71.9h-2.2v2.79H43a1.42,1.42,0,1,0,0-2.79"/><polygon points="49.28 82.66 49.28 68.85 53.18 68.85 53.18 79.63 59.83 79.63 59.83 82.66 49.28 82.66"/><polygon points="67.63 77.04 67.63 82.66 63.73 82.66 63.73 77.04 58.95 68.85 63.2 68.85 65.69 73.82 68.16 68.85 72.41 68.85 67.63 77.04"/><polygon points="83.65 82.91 75.26 71.82 75.24 82.9 73.55 82.89 73.57 69.08 75.17 69.09 83.57 80.14 83.59 69.1 85.28 69.11 85.25 82.92 83.65 82.91"/><path d="M96.39,81.62a6.42,6.42,0,0,1-8.1,0C86.8,80.3,86.8,78.94,86.8,76s0-4.28,1.51-5.58a6.42,6.42,0,0,1,8.1,0c1.49,1.3,1.48,2.66,1.48,5.58s0,4.29-1.5,5.59m-1.3-10.3a4.26,4.26,0,0,0-5.47,0c-1,.89-1.12,1.82-1.12,4.71s.1,3.82,1.1,4.71a4.3,4.3,0,0,0,5.48,0c1-.89,1.11-1.82,1.12-4.71s-.11-3.82-1.11-4.71"/><path d="M104.71,83.07c-3.2,0-5.52-1.93-5.51-4.69l0-9.25h1.69l0,9.13c0,2.1,1.51,3.47,3.82,3.48s3.86-1.37,3.86-3.47l0-9.13h1.69l0,9.26c0,2.75-2.34,4.66-5.55,4.66"/><path d="M121.27,83l-3.59-6.13h-3.81V83h-1.69l0-13.81h6.08C121,69.17,123,70.63,123,73c0,2-1.41,3.33-3.46,3.7L123.25,83Zm-3.16-12.49h-4.23v5.06h4.23c1.85,0,3.17-.83,3.17-2.52s-1.31-2.54-3.16-2.54"/><rect x="118.28" y="75.24" width="13.81" height="1.69" transform="translate(48.86 201.12) rotate(-89.89)"/><path d="M132.22,83.12a7.48,7.48,0,0,1-5.42-1.83l1.16-1a5.84,5.84,0,0,0,4.31,1.52c2.32,0,3.74-.94,3.75-2.55a2.09,2.09,0,0,0-.76-1.73,3.73,3.73,0,0,0-2.07-.66l-1.84-.26a6.34,6.34,0,0,1-2.92-1A3,3,0,0,1,127.24,73c0-2.35,1.94-3.9,5.08-3.89A6.89,6.89,0,0,1,137,70.6l-1.09,1a5.4,5.4,0,0,0-3.69-1.19c-2.12,0-3.34,1-3.35,2.55a1.87,1.87,0,0,0,.71,1.59,4.88,4.88,0,0,0,2.14.76l1.74.24a5.63,5.63,0,0,1,2.89,1,3.32,3.32,0,0,1,1.33,2.74c0,2.43-2.19,3.92-5.49,3.91"/><polygon points="148.01 83.03 148.02 76.73 140.5 76.72 140.49 83.02 138.79 83.02 138.82 69.21 140.51 69.21 140.5 75.4 148.02 75.41 148.03 69.22 149.72 69.23 149.7 83.04 148.01 83.03"/><polygon points="151.84 83.04 151.86 69.23 161.7 69.25 161.7 70.57 153.55 70.55 153.54 75.42 160.49 75.43 160.48 76.75 153.54 76.74 153.53 81.72 161.68 81.74 161.67 83.06 151.84 83.04"/><path d="M172.18,81.8a6.06,6.06,0,0,1-4,1.27h-5.43l0-13.81h5.43a6,6,0,0,1,4,1.29c1.65,1.44,1.56,3.55,1.55,5.47s.08,4.35-1.57,5.78M171,71.59a4.51,4.51,0,0,0-3.11-1h-3.45l0,11.18h3.45a4.54,4.54,0,0,0,3.12-1c1.09-1,1.05-3,1.05-4.73s.05-3.43-1-4.43"/></svg>
