<svg xmlns="http://www.w3.org/2000/svg" viewBox="0 0 191 96.6" fill="#939ba8"><path d="M0,64.64A1.69,1.69,0,0,1,1.72,63,1.67,1.67,0,0,1,3.4,64.64v6.5h9.24v-6.5a1.7,1.7,0,0,1,3.4,0V80.9a1.7,1.7,0,0,1-3.4,0V74.29H3.4V80.9a1.67,1.67,0,0,1-1.68,1.69A1.69,1.69,0,0,1,0,80.9Z"/><path d="M19.36,80.73V64.8a1.69,1.69,0,0,1,1.72-1.71H32.33a1.53,1.53,0,0,1,1.52,1.52,1.51,1.51,0,0,1-1.52,1.52H22.76v5h8.33a1.54,1.54,0,0,1,1.52,1.54,1.52,1.52,0,0,1-1.52,1.5H22.76v5.2h9.71A1.53,1.53,0,0,1,34,80.93a1.51,1.51,0,0,1-1.52,1.52H21.08A1.69,1.69,0,0,1,19.36,80.73Z"/><path d="M35.13,80.24l7.19-16a2.14,2.14,0,0,1,2-1.39h.17a2.13,2.13,0,0,1,2,1.39l7.19,16a1.44,1.44,0,0,1,.19.72,1.59,1.59,0,0,1-1.6,1.63,1.74,1.74,0,0,1-1.66-1.19l-1.58-3.62h-9.4l-1.63,3.73a1.65,1.65,0,0,1-1.58,1.08A1.56,1.56,0,0,1,34.9,81,1.7,1.7,0,0,1,35.13,80.24Zm12.66-5.48-3.4-7.83L41,74.76Z"/><path d="M56,64.64a1.7,1.7,0,0,1,3.4,0V79.35h8.77a1.55,1.55,0,0,1,0,3.1H57.67A1.69,1.69,0,0,1,56,80.73Z"/><path d="M73.4,66.24H68.7a1.58,1.58,0,1,1,0-3.15H81.56a1.58,1.58,0,0,1,0,3.15H76.83V80.9a1.72,1.72,0,0,1-3.43,0Z"/><path d="M84.91,64.64a1.7,1.7,0,0,1,3.4,0v6.5h9.24v-6.5a1.7,1.7,0,0,1,3.4,0V80.9a1.7,1.7,0,0,1-3.4,0V74.29H88.31V80.9a1.7,1.7,0,0,1-3.4,0Z"/><path d="M109.72,74.93l-6.67-9.16a2.11,2.11,0,0,1-.39-1.19A1.66,1.66,0,0,1,104.38,63,2,2,0,0,1,106,64l5.39,7.78,5.48-7.8a2,2,0,0,1,1.63-1,1.62,1.62,0,0,1,1.66,1.66,2.06,2.06,0,0,1-.47,1.22l-6.61,9V80.9a1.7,1.7,0,0,1-3.4,0Z"/><path d="M122.25,63.81a.73.73,0,0,1,.71-.72h7.28a7.08,7.08,0,0,1,5,1.71,4.21,4.21,0,0,1,1.25,3v.05a4.78,4.78,0,0,1-3.3,4.59c2.33.61,4.37,1.94,4.37,4.62v.06c0,3.23-2.76,5.28-6.94,5.28H123a.73.73,0,0,1-.71-.72ZM130.07,72c2.91,0,5-1.41,5-4V68c0-2.12-1.74-3.56-4.84-3.56h-6.53V72Zm.64,9.1c3.32,0,5.42-1.52,5.42-4v-.06c0-2.38-2.08-3.76-5.89-3.76h-6.56v7.77Z"/><path d="M139.7,72.82v0a9.74,9.74,0,1,1,19.47-.06v.06a9.74,9.74,0,0,1-9.77,10A9.64,9.64,0,0,1,139.7,72.82Zm18,0v0c0-4.79-3.48-8.71-8.27-8.71s-8.21,3.87-8.21,8.65v.06c0,4.78,3.48,8.71,8.27,8.71S157.67,77.61,157.67,72.82Z"/><path d="M161.46,80a.72.72,0,0,1,.44-1.28.8.8,0,0,1,.47.17,9,9,0,0,0,6.53,2.52c2.91,0,4.9-1.64,4.9-3.85v0c0-2-1.08-3.24-5.48-4.12-4.65-.94-6.53-2.52-6.53-5.45V67.9c0-2.87,2.63-5.09,6.23-5.09a9.51,9.51,0,0,1,6.16,2,.78.78,0,0,1,.31.59.73.73,0,0,1-.72.71.74.74,0,0,1-.47-.16A8.31,8.31,0,0,0,168,64.11c-2.85,0-4.73,1.63-4.73,3.65v.06c0,2.05,1.05,3.29,5.64,4.23s6.36,2.52,6.36,5.34v0c0,3.13-2.68,5.29-6.41,5.29A11,11,0,0,1,161.46,80Z"/><path d="M177.23,80a.74.74,0,0,1-.28-.56.74.74,0,0,1,.72-.72.83.83,0,0,1,.47.17,9,9,0,0,0,6.53,2.52c2.9,0,4.89-1.64,4.89-3.85v0c0-2-1.08-3.24-5.47-4.12-4.65-.94-6.53-2.52-6.53-5.45V67.9c0-2.87,2.63-5.09,6.22-5.09a9.54,9.54,0,0,1,6.17,2,.77.77,0,0,1,.3.59.73.73,0,0,1-.72.71.76.76,0,0,1-.47-.16,8.26,8.26,0,0,0-5.33-1.83c-2.85,0-4.73,1.63-4.73,3.65v.06c0,2.05,1.05,3.29,5.64,4.23S191,74.57,191,77.39v0c0,3.13-2.68,5.29-6.42,5.29A11,11,0,0,1,177.23,80Z"/><path d="M29,92.23a.26.26,0,1,1,.52,0V94h2.61V92.23a.26.26,0,0,1,.26-.26.25.25,0,0,1,.25.26V96.3a.25.25,0,0,1-.25.26.26.26,0,0,1-.26-.26V94.49H29.56V96.3a.26.26,0,0,1-.52,0Z"/><path d="M34,96.27v-4a.26.26,0,0,1,.25-.26H37a.23.23,0,1,1,0,.46H34.48V94h2.26a.24.24,0,1,1,0,.47H34.48v1.58h2.59a.23.23,0,0,1,.23.24.23.23,0,0,1-.23.23H34.22A.26.26,0,0,1,34,96.27Z"/><path d="M38,96.19l1.83-4a.35.35,0,0,1,.33-.22h0a.32.32,0,0,1,.32.22l1.84,4a.31.31,0,0,1,0,.13.24.24,0,0,1-.24.24.28.28,0,0,1-.26-.19l-.47-1H38.94l-.47,1.06a.25.25,0,0,1-.24.17.23.23,0,0,1-.24-.23A.27.27,0,0,1,38,96.19Zm3.2-1.32-1-2.32-1,2.32Z"/><path d="M43.38,92.23a.26.26,0,1,1,.51,0v3.83h2.35a.23.23,0,0,1,.23.24.23.23,0,0,1-.23.23H43.63a.26.26,0,0,1-.25-.26Z"/><path d="M47.94,92.47H46.62a.23.23,0,0,1-.24-.23.24.24,0,0,1,.24-.24h3.15a.24.24,0,0,1,.24.24.23.23,0,0,1-.24.23H48.46V96.3a.26.26,0,0,1-.26.26.25.25,0,0,1-.26-.26Z"/><path d="M50.94,92.23a.25.25,0,0,1,.25-.26.26.26,0,0,1,.26.26V94h2.61V92.23a.26.26,0,0,1,.26-.26.25.25,0,0,1,.25.26V96.3a.25.25,0,0,1-.25.26.26.26,0,0,1-.26-.26V94.49H51.45V96.3a.26.26,0,0,1-.26.26.25.25,0,0,1-.25-.26Z"/><path d="M57.25,94.75l-1.69-2.36a.34.34,0,0,1-.05-.17.26.26,0,0,1,.26-.25.31.31,0,0,1,.25.15l1.49,2.16L59,92.12a.29.29,0,0,1,.24-.15.25.25,0,0,1,.25.25.49.49,0,0,1-.07.19l-1.67,2.33V96.3a.26.26,0,0,1-.26.26.25.25,0,0,1-.26-.26Z"/><path d="M62.38,92.23a.26.26,0,0,1,.26-.26.25.25,0,0,1,.25.26V94h2.62V92.23a.26.26,0,1,1,.51,0V96.3a.26.26,0,1,1-.51,0V94.49H62.89V96.3a.25.25,0,0,1-.25.26.26.26,0,0,1-.26-.26Z"/><path d="M67,96.19l1.83-4a.35.35,0,0,1,.33-.22h0a.32.32,0,0,1,.32.22l1.84,4a.31.31,0,0,1,0,.13.25.25,0,0,1-.25.24.28.28,0,0,1-.25-.19l-.47-1H67.94l-.47,1.06a.25.25,0,0,1-.24.17.23.23,0,0,1-.24-.23A.27.27,0,0,1,67,96.19Zm3.2-1.32-1-2.32-1,2.32Z"/><path d="M72.38,92.26a.26.26,0,0,1,.25-.26h1.68a1.66,1.66,0,0,1,1.18.4,1,1,0,0,1,.29.72v0a1.1,1.1,0,0,1-.71,1c.53.16,1,.47,1,1.09h0c0,.78-.66,1.24-1.65,1.24H72.63a.26.26,0,0,1-.25-.26ZM74.22,94c.62,0,1-.28,1-.81h0c0-.45-.36-.74-1-.74H72.88V94Zm.19,2c.68,0,1.11-.3,1.11-.81h0c0-.49-.42-.78-1.21-.78H72.88v1.6Z"/><path d="M77.1,92.23a.26.26,0,1,1,.51,0V96.3a.26.26,0,1,1-.51,0Z"/><path d="M80.14,92.47H78.82a.23.23,0,0,1-.24-.23.24.24,0,0,1,.24-.24H82a.24.24,0,0,1,.24.24.23.23,0,0,1-.24.23H80.65V96.3a.26.26,0,1,1-.51,0Z"/><path d="M82.87,96a.25.25,0,0,1-.09-.2.25.25,0,0,1,.24-.25.24.24,0,0,1,.16.06,2.06,2.06,0,0,0,1.43.53c.61,0,1-.32,1-.77h0c0-.42-.23-.66-1.18-.86s-1.52-.56-1.52-1.31h0a1.34,1.34,0,0,1,1.49-1.24,2.29,2.29,0,0,1,1.44.45.27.27,0,0,1,.11.21.25.25,0,0,1-.39.2,1.88,1.88,0,0,0-1.17-.4c-.59,0-1,.33-1,.73v0c0,.43.23.66,1.23.88s1.48.59,1.48,1.28h0c0,.78-.65,1.28-1.55,1.28A2.67,2.67,0,0,1,82.87,96Z"/><path d="M89.18,94.26v0a.85.85,0,0,1,1.7,0v0a.85.85,0,0,1-1.7,0Z"/><path d="M93.89,92.34a.61.61,0,0,1,0-.11.27.27,0,0,1,.27-.26.28.28,0,0,1,.26.21l1.25,3.6,1.19-3.61a.25.25,0,0,1,.25-.2h0a.25.25,0,0,1,.25.2l1.19,3.61,1.25-3.61a.26.26,0,0,1,.51,0,.53.53,0,0,1,0,.12l-1.45,4a.3.3,0,0,1-.27.22h0a.27.27,0,0,1-.26-.22l-1.18-3.48-1.17,3.48a.3.3,0,0,1-.27.22h0a.27.27,0,0,1-.26-.22Z"/><path d="M101.29,96.27v-4a.26.26,0,0,1,.25-.26h2.82a.23.23,0,0,1,0,.46H101.8V94h2.27a.24.24,0,0,1,0,.47H101.8v1.58h2.59a.23.23,0,0,1,.23.24.23.23,0,0,1-.23.23h-2.85A.26.26,0,0,1,101.29,96.27Z"/><path d="M105.35,96.19l1.84-4a.32.32,0,0,1,.32-.22h0a.31.31,0,0,1,.31.22l1.84,4a.31.31,0,0,1,0,.13.24.24,0,0,1-.24.24.27.27,0,0,1-.25-.19l-.48-1h-2.48l-.48,1.06a.24.24,0,0,1-.24.17.23.23,0,0,1-.23-.23A.25.25,0,0,1,105.35,96.19Zm3.2-1.32-1-2.32-1,2.32Z"/><path d="M110.7,92.23A.26.26,0,0,1,111,92a.25.25,0,0,1,.25.26v3.83h2.35a.24.24,0,0,1,.24.24.23.23,0,0,1-.24.23H111a.26.26,0,0,1-.26-.26Z"/><path d="M115.26,92.47H114a.23.23,0,0,1-.24-.23A.24.24,0,0,1,114,92h3.14a.24.24,0,0,1,.24.24.23.23,0,0,1-.24.23h-1.31V96.3a.26.26,0,1,1-.52,0Z"/><path d="M118.26,92.23a.26.26,0,1,1,.51,0V94h2.62V92.23a.25.25,0,0,1,.25-.26.26.26,0,0,1,.26.26V96.3a.26.26,0,0,1-.26.26.25.25,0,0,1-.25-.26V94.49h-2.62V96.3a.26.26,0,1,1-.51,0Z"/><path d="M124.57,94.75l-1.68-2.36a.35.35,0,0,1-.06-.17.26.26,0,0,1,.27-.25.28.28,0,0,1,.24.15l1.5,2.16,1.5-2.16a.29.29,0,0,1,.24-.15.25.25,0,0,1,.26.25.49.49,0,0,1-.07.19l-1.68,2.33V96.3a.26.26,0,0,1-.52,0Z"/><path d="M129.71,92.26A.26.26,0,0,1,130,92h1.67a1.69,1.69,0,0,1,1.19.4,1,1,0,0,1,.29.72v0a1.1,1.1,0,0,1-.72,1c.54.16,1,.47,1,1.09h0c0,.78-.65,1.24-1.64,1.24H130a.26.26,0,0,1-.25-.26ZM131.55,94c.62,0,1-.28,1-.81h0c0-.45-.35-.74-1-.74h-1.38V94Zm.18,2c.69,0,1.12-.3,1.12-.81h0c0-.49-.42-.78-1.21-.78h-1.43v1.6Z"/><path d="M134.31,94.63v-2.4a.26.26,0,1,1,.51,0V94.6c0,1,.52,1.53,1.39,1.53s1.36-.51,1.36-1.5v-2.4a.26.26,0,0,1,.26-.26.25.25,0,0,1,.25.26v2.36a1.89,1.89,0,1,1-3.77,0Z"/><path d="M139.13,96a.23.23,0,0,1-.09-.2.25.25,0,0,1,.24-.25.26.26,0,0,1,.16.06,2,2,0,0,0,1.43.53c.61,0,1-.32,1-.77h0c0-.42-.23-.66-1.18-.86s-1.52-.56-1.52-1.31h0a1.34,1.34,0,0,1,1.49-1.24,2.29,2.29,0,0,1,1.44.45.27.27,0,0,1,.11.21.25.25,0,0,1-.25.24.23.23,0,0,1-.14,0,1.93,1.93,0,0,0-1.18-.4c-.59,0-1,.33-1,.73v0c0,.43.23.66,1.23.88s1.48.59,1.48,1.28h0c0,.78-.65,1.28-1.55,1.28A2.67,2.67,0,0,1,139.13,96Z"/><path d="M143.48,92.23a.26.26,0,0,1,.52,0V96.3a.26.26,0,0,1-.52,0Z"/><path d="M145.32,92.23a.26.26,0,0,1,.25-.25h.08a.31.31,0,0,1,.25.15l2.76,3.51V92.22a.25.25,0,1,1,.49,0v4.09a.22.22,0,0,1-.23.24h0a.37.37,0,0,1-.27-.16l-2.81-3.59v3.51a.25.25,0,0,1-.5,0Z"/><path d="M150.44,96.27v-4a.26.26,0,0,1,.25-.26h2.82a.23.23,0,1,1,0,.46H151V94h2.26a.24.24,0,1,1,0,.47H151v1.58h2.59a.23.23,0,0,1,.23.24.23.23,0,0,1-.23.23h-2.85A.26.26,0,0,1,150.44,96.27Z"/><path d="M154.61,96a.25.25,0,0,1-.09-.2.25.25,0,0,1,.24-.25.24.24,0,0,1,.16.06,2,2,0,0,0,1.43.53c.61,0,1-.32,1-.77h0c0-.42-.23-.66-1.18-.86s-1.52-.56-1.52-1.31h0a1.34,1.34,0,0,1,1.49-1.24,2.29,2.29,0,0,1,1.44.45.27.27,0,0,1,.11.21.25.25,0,0,1-.39.2,1.91,1.91,0,0,0-1.18-.4c-.58,0-1,.33-1,.73v0c0,.43.23.66,1.23.88s1.48.59,1.48,1.28h0c0,.78-.65,1.28-1.55,1.28A2.67,2.67,0,0,1,154.61,96Z"/><path d="M158.69,96a.23.23,0,0,1-.09-.2.25.25,0,0,1,.24-.25.26.26,0,0,1,.16.06,2,2,0,0,0,1.43.53c.61,0,1-.32,1-.77h0c0-.42-.23-.66-1.18-.86s-1.52-.56-1.52-1.31h0a1.34,1.34,0,0,1,1.49-1.24,2.29,2.29,0,0,1,1.44.45.27.27,0,0,1,.11.21.25.25,0,0,1-.25.24.23.23,0,0,1-.14,0,1.93,1.93,0,0,0-1.18-.4c-.59,0-1,.33-1,.73v0c0,.43.23.66,1.23.88s1.48.59,1.48,1.28h0c0,.78-.65,1.28-1.55,1.28A2.67,2.67,0,0,1,158.69,96Z"/><path d="M119.44,43H71.56V0h47.88ZM74.17,40.39h42.66V2.61H74.17Z"/><path d="M85.35,17.13a1.21,1.21,0,0,1,2.42,0v3.23h4.45V17.13a1.21,1.21,0,1,1,2.41,0v8.74a1.21,1.21,0,1,1-2.41,0V22.58H87.77v3.29a1.21,1.21,0,0,1-2.42,0Z"/><path d="M96.32,17.22A1.2,1.2,0,0,1,97.53,16h3.89a3.92,3.92,0,0,1,2.86,1,2.52,2.52,0,0,1,.76,1.86v0a2.55,2.55,0,0,1-1.45,2.36,2.69,2.69,0,0,1,2.06,2.7v0c0,2-1.63,3-4.11,3h-4a1.21,1.21,0,0,1-1.21-1.21Zm4.58,3.23c1.06,0,1.74-.34,1.74-1.16v0c0-.72-.57-1.13-1.58-1.13H98.67v2.32Zm.64,4.42c1.07,0,1.71-.37,1.71-1.19v0c0-.74-.55-1.19-1.79-1.19H98.67v2.41Z"/></svg>
