<svg xmlns="http://www.w3.org/2000/svg" viewBox="0 0 145 114.46" fill="#939ba8"><polygon points="10.21 109.75 10.21 114.36 13.96 114.36 13.96 113.84 10.93 113.84 10.93 112.25 13.73 112.25 13.73 111.73 10.93 111.73 10.93 110.27 13.94 110.27 13.94 109.75 10.21 109.75"/><polygon points="19.36 109.75 19.36 113.49 19.34 113.49 16.5 109.75 15.73 109.75 15.73 114.36 16.41 114.36 16.41 110.66 16.43 110.66 19.25 114.36 20.04 114.36 20.04 109.75 19.36 109.75"/><polygon points="22.11 109.75 22.11 114.36 25.86 114.36 25.86 113.84 22.83 113.84 22.83 112.25 25.64 112.25 25.64 111.73 22.83 111.73 22.83 110.27 25.84 110.27 25.84 109.75 22.11 109.75"/><path d="M30.33,111.84a1.17,1.17,0,0,0,.4-.12.84.84,0,0,0,.27-.26.71.71,0,0,0,.11-.41.74.74,0,0,0-.23-.56,1,1,0,0,0-.74-.22H28.36v1.6h1.5a3.59,3.59,0,0,0,.47,0m-.15-2.09a2,2,0,0,1,1.21.32,1,1,0,0,1,.43.89,1.21,1.21,0,0,1-.22.73,1.19,1.19,0,0,1-.71.44h0a1,1,0,0,1,.38.13.78.78,0,0,1,.23.21,1,1,0,0,1,.13.29,3,3,0,0,1,.07.32c0,.11,0,.22,0,.34a1.86,1.86,0,0,0,0,.34,3,3,0,0,0,.08.32,1,1,0,0,0,.17.27h-.8a.39.39,0,0,1-.1-.19,2.36,2.36,0,0,1,0-.28c0-.1,0-.21,0-.32a1.41,1.41,0,0,0,0-.35c0-.11,0-.21-.07-.32a.72.72,0,0,0-.14-.26.68.68,0,0,0-.26-.18,1,1,0,0,0-.43-.07H28.36v2h-.72v-4.61Z"/><path d="M37,114.3a3,3,0,0,1-2,0,2.38,2.38,0,0,1-.81-.51,2.19,2.19,0,0,1-.68-1.61,2.76,2.76,0,0,1,.16-1,2.31,2.31,0,0,1,.48-.8,2.37,2.37,0,0,1,.81-.55,2.91,2.91,0,0,1,1.12-.2,3.7,3.7,0,0,1,.83.09,2.37,2.37,0,0,1,.69.27,1.84,1.84,0,0,1,.52.48,1.65,1.65,0,0,1,.28.69h-.72a1,1,0,0,0-.19-.45,1.22,1.22,0,0,0-.36-.32,1.71,1.71,0,0,0-.48-.18,2.62,2.62,0,0,0-.57-.06,1.87,1.87,0,0,0-.85.17,1.56,1.56,0,0,0-.57.44,1.76,1.76,0,0,0-.33.62,2.57,2.57,0,0,0-.11.72,1.85,1.85,0,0,0,.13.7,1.64,1.64,0,0,0,.35.58,1.74,1.74,0,0,0,.58.41,2,2,0,0,0,.8.15,2.47,2.47,0,0,0,.75-.11,1.85,1.85,0,0,0,.55-.32,1.42,1.42,0,0,0,.33-.48,1.29,1.29,0,0,0,.1-.59H36.05v-.52h2.36v2.43H38l-.19-.58a1.64,1.64,0,0,1-.79.52"/><polygon points="43.86 109.75 42.28 111.94 40.66 109.75 39.8 109.75 41.89 112.47 41.89 114.36 42.61 114.36 42.61 112.47 44.68 109.75 43.86 109.75"/><polygon points="58.64 109.75 58.64 111.73 55.8 111.73 55.8 109.75 55.08 109.75 55.08 114.36 55.8 114.36 55.8 112.25 58.64 112.25 58.64 114.36 59.36 114.36 59.36 109.75 58.64 109.75"/><polygon points="61.45 109.75 61.45 114.36 65.2 114.36 65.2 113.84 62.17 113.84 62.17 112.25 64.97 112.25 64.97 111.73 62.17 111.73 62.17 110.27 65.18 110.27 65.18 109.75 61.45 109.75"/><path d="M68.83,110.31h0l.9,2.15H67.91Zm-.38-.56-2.11,4.61h.74l.6-1.39H70l.59,1.39h.79l-2.11-4.61Z"/><polygon points="72.79 109.75 72.79 114.36 76.37 114.36 76.37 113.84 73.51 113.84 73.51 109.75 72.79 109.75"/><polygon points="76.63 109.75 76.63 110.27 78.43 110.27 78.43 114.36 79.15 114.36 79.15 110.27 80.95 110.27 80.95 109.75 76.63 109.75"/><polygon points="86.02 109.75 86.02 111.73 83.18 111.73 83.18 109.75 82.46 109.75 82.46 114.36 83.18 114.36 83.18 112.25 86.02 112.25 86.02 114.36 86.74 114.36 86.74 109.75 86.02 109.75"/><polygon points="101.02 109.75 99.46 113.75 99.44 113.75 97.9 109.75 97.13 109.75 99.03 114.36 99.84 114.36 101.77 109.75 101.02 109.75"/><rect x="103.28" y="109.75" width="0.72" height="4.61"/><polygon points="105.54 109.75 105.54 110.27 107.34 110.27 107.34 114.36 108.06 114.36 108.06 110.27 109.86 110.27 109.86 109.75 105.54 109.75"/><path d="M112.52,110.31h0l.9,2.15H111.6Zm-.38-.56L110,114.36h.74l.6-1.39h2.29l.59,1.39H115l-2.11-4.61Z"/><polygon points="116.48 109.75 116.48 114.36 120.06 114.36 120.06 113.84 117.2 113.84 117.2 109.75 116.48 109.75"/><rect x="121.62" y="109.75" width="0.72" height="4.61"/><polygon points="123.89 109.75 123.89 110.27 125.69 110.27 125.69 114.36 126.41 114.36 126.41 110.27 128.21 110.27 128.21 109.75 123.89 109.75"/><polygon points="133.19 109.75 131.61 111.94 129.99 109.75 129.14 109.75 131.22 112.47 131.22 114.36 131.94 114.36 131.94 112.47 134.01 109.75 133.19 109.75"/><path d="M10.62,89.25c-.16.13-.58.53-.58.76s.24.56.63,1.09l5.06,6.81C17.8,100.71,19,100,19,100.63c0,.19,0,.35-.34.35-.58,0-1.27-.11-2-.11-.5,0-1,.11-1.77.11-.51,0-.77,0-1.3-.77L8.29,93c-.34-.45-.5-.74-.66-.74s-.66.45-1.25,1.11C6,93.8,6,94,6,94.65v3.47c0,2.43,2.59,1.59,2.59,2.54,0,.24-.1.32-.74.32s-1.43-.11-2.94-.11c-1.27,0-2.65.11-3.47.11-.5,0-.82,0-.82-.21,0-1.33,2.12.39,2.12-3.6V85.64c0-3.2-2.78-1.85-2.78-3,0-.3.21-.4.53-.4.5,0,1.38.1,3.18.1,1.48,0,3.15-.1,3.68-.1.24,0,.56,0,.56.32C8,83.6,6,82.18,6,85.09v6.06c0,.27,0,.64.13.61s.32-.1.66-.45l3.5-3.41c.74-.75,3.31-2.89,3.31-4.08,0-.82-1.62-.48-1.62-1.09s.27-.5.61-.5,2.1.1,2.89.1,1.35-.1,2.49-.1c.21,0,.69,0,.69.45,0,.71-.85-.08-3.42,2.25Z"/><path d="M25.77,96.13c0-.71.05-.95-.19-.95-1,0-3.12.9-3.12,2.67,0,.43,0,1.75,1.4,1.75.58,0,1.91-.29,1.91-.9ZM28.58,98c0,1.32,0,1.64.71,1.64.32,0,.66-.13.85-.13a.26.26,0,0,1,.29.24c0,.53-1.62,1.45-2.57,1.45a1.76,1.76,0,0,1-1.72-1.61A7,7,0,0,1,22,101.16a2.39,2.39,0,0,1-2.49-2.49c0-3.25,3.52-3.7,6.25-4.39,0-2.28-.19-3.89-2.28-3.89-1,0-1.22.26-1.22,1.48s-1.69,1.24-1.88,1.24-.69,0-.69-.55c0-2.31,3-3,4.85-3,2.73,0,4,1.22,4,3.89Z"/><path d="M35.81,98.12c0,2.44,2.46,1.64,2.46,2.41a.43.43,0,0,1-.4.45c-.63,0-2.14-.11-3-.11-1.24,0-2,.11-2.67.11-.35,0-.45,0-.45-.27,0-.82,1.27-.13,1.27-2.09V92.4c0-1.27-1.7-.53-1.7-1.27,0-.43.4-.45,1.33-.69a10.71,10.71,0,0,0,2.86-1.14c.32,0,.32.18.32.53v2c1.16-1.38,2.12-2.36,2.78-2.36s2.09,1.19,2.09,1.7c0,1-.9,2.22-1.38,2.22s-.66-1.06-2.12-1.06-1.37,2-1.37,2.23Z"/><path d="M43.2,84.61c0-1.56-1.75-.71-1.75-1.48,0-.45.39-.35,2.09-.93,2-.58,2-1.06,2.41-1.06s0,.74,0,2.23V98.54c0,1.88,2,1.51,2,2.09,0,.27-.1.35-.55.35s-2.18-.11-3-.11c-.61,0-1.8.11-2.36.11-.21,0-.45,0-.45-.27,0-.82,1.57.24,1.57-2.25Z"/><path d="M74.87,97.24c0,3.37,2.75,2.39,2.75,3.42,0,.35-.21.32-.55.32-.88,0-2.44-.11-3.52-.11s-2,.11-3.34.11c-.37,0-.53-.11-.53-.29,0-.93,1.93-.21,1.93-2.78V93.14c0-1.11.08-1.4-1.08-1.4H63.46c-1.22,0-1.3.26-1.3,1.43v4.15c0,3.29,3.28,2.33,3.28,3.29,0,.16.06.37-.79.37-1.09,0-2-.11-3.87-.11-1.11,0-2.22.11-3.55.11-.32,0-.58,0-.58-.4,0-1.06,2.25-.1,2.25-3.39V85.38c0-2.89-3-1.72-3-2.73,0-.4.79-.42,1.3-.42.79,0,1.58.1,3,.1,1.59,0,2.65-.1,3.42-.1.37,0,.61.13.61.39,0,.83-2,.06-2,2.42v4.21c0,.71.1,1.06.66,1.06h7.87c.76,0,.92-.61.92-1.2V85.38c0-2.91-2.91-2-2.91-2.73,0-.48.24-.42.61-.42,1.08,0,1.77.1,3.42.1,1.37,0,2.35-.1,3.49-.1.45,0,.56.08.56.32,0,1-1.91-.14-1.91,2.46Z"/><path d="M90.13,98.81c0,1.64,2,.69,2,1.43,0,.42-.31.37-.66.42l-4,.5a4,4,0,0,1-.18-1.77,5.3,5.3,0,0,1-3.82,1.77c-3.15,0-3.62-2.14-3.62-4.52V92.13c0-1.27-1.7-.53-1.7-1.27s1.8-.37,3.47-1c.4-.19.56-.32.72-.32s.31.24.31.58v6.7c0,1.67.45,2.71,2.31,2.71,1,0,2.33-.59,2.33-1.73V92.13c0-1.27-1.7-.53-1.7-1.27s1.8-.37,3.47-1c.4-.19.56-.32.72-.32.32,0,.32.24.32.58Z"/><path d="M97.91,90.28c-.47,0-2.06.21-2.06,3.1,0,1.32.55,3.18,2.17,3.18s2.17-1.54,2.17-3-.5-3.31-2.28-3.31M96.4,102.09c-.71,0-1.06.69-1.06,1.33,0,1.74,1.75,2,3,2,1.38,0,3.57-.29,3.57-2.09,0-1.22-.92-1.27-5.48-1.27m-3.2,1.83a2.26,2.26,0,0,1,2-2.07A2.83,2.83,0,0,1,94,99.42a3,3,0,0,1,1.41-2.55c-1.43-.9-2.17-1.59-2.17-3.36,0-2.54,2.12-4,4.74-4,1.83,0,2.86.93,3.73.93,1.56,0,1.51-1.67,1.91-1.67.24,0,.29.24.29.71,0,2.52-.74,2.57-1.17,2.84,0,.45,0,.1,0,.79,0,1.67-1,4.16-4.9,4.16-.4,0-.82,0-1.35,0a1,1,0,0,0-1.11,1.16c0,1,.16,1.17,4,1.17s4.48,1.11,4.48,2.73a3.63,3.63,0,0,1-2.46,3.31,9.33,9.33,0,0,1-4.08.66c-1.06,0-4.21-.24-4.21-2.33"/><path d="M116.79,98.73c0,1.8,1.65,1.08,1.65,2a.24.24,0,0,1-.24.24c-1,0-1.94-.11-2.89-.11-.66,0-1.3.11-2.2.11-.13,0-.42.08-.42-.27s1.3-.58,1.3-2V94.81c0-1.78-.37-3.63-2.6-3.63a3,3,0,0,0-1.8.74c-.4.35-.5.37-.5.87v5.73c0,1.82,2.09,1.4,2.09,2.14,0,.42-.45.32-1.19.32s-1.35-.11-2.7-.11c-.8,0-1.09.11-1.62.11-.21,0-.79,0-.79-.29,0-.69,1.4-.4,1.4-1.54V84.61c0-1.56-1.75-.71-1.75-1.48,0-.45.4-.35,2.09-.93,2-.58,2-1.06,2.41-1.06s.06.74.06,2.23v8.07h0a4.78,4.78,0,0,1,3.66-1.93c2.56,0,4,1.54,4,4.61Z"/><path d="M125.83,96.13c0-.71,0-.95-.19-.95-1,0-3.12.9-3.12,2.67,0,.43,0,1.75,1.4,1.75.58,0,1.91-.29,1.91-.9Zm2.8,1.83c0,1.32,0,1.64.72,1.64.32,0,.66-.13.85-.13a.26.26,0,0,1,.29.24c0,.53-1.62,1.45-2.57,1.45a1.75,1.75,0,0,1-1.72-1.61,7,7,0,0,1-4.13,1.61,2.39,2.39,0,0,1-2.49-2.49c0-3.25,3.52-3.7,6.25-4.39,0-2.28-.19-3.89-2.28-3.89-1,0-1.22.26-1.22,1.48s-1.7,1.24-1.88,1.24-.69,0-.69-.55c0-2.31,3-3,4.85-3,2.73,0,4,1.22,4,3.89Z"/><path d="M132.87,92.4c0-1.27-1.69-.53-1.69-1.27,0-.43.39-.45,1.32-.69a10.31,10.31,0,0,0,2.86-1.14c.32,0,.32.18.32.53v1.51h0a4.08,4.08,0,0,1,3.6-1.83c2.86,0,4,2.36,4,4.93v4.29c0,1.67,1.64,1.27,1.64,1.85,0,.32-.16.4-.61.4-.85,0-1.69-.11-2.25-.11s-1.62.11-1.93.11c-.51,0-.88.13-.88-.35s1.22-.68,1.22-1.66V94.46c0-1.72-.61-3.23-2.59-3.23-1.75,0-2.28,1-2.28,2.55v4.89c0,1.51,2.14,1.28,2.14,1.91,0,.24-.18.4-.82.4-.29,0-1.24-.11-2.59-.11-.93,0-1.86.11-2.65.11-.27,0-.29-.16-.29-.29,0-.77,1.4-.06,1.4-2.25Z"/><path d="M112.63,2.06l2.08-.32V0H86.35V1.8c3,.46,6,.43,7.59,2.59C95,5.86,95,8,95.18,10.71c.29,5.95.17,15.33,0,20.48H63l0,4.69,32.31,0s.14,15.58-.14,22c-.1,2.26-.27,4.78-1.24,6-1.42,1.85-6.83,2.39-7.59,2.46v1.77h28.36V66.35c-.82-.11-6-.83-7.44-2.46-1.94-2.25-1.51-9-1.51-14v-31c0-5-.56-11.45,1.23-14.29,1.07-1.68,3.54-2.17,5.64-2.47"/><path d="M75.47,64.85c-2.11-1-3.67-3-5.36-4.67-9.92-9.92-19.73-21.27-29-31.19C48,22.65,54.75,15.39,61.87,8.93,64.33,6.69,66.7,4.3,69.7,3a22.39,22.39,0,0,1,6.44-1.37V0H49.23V1.78s7.14-.4,7.14,3.16c0,1.4-1.29,3.09-2.2,4.26-1.06,1.38-2.24,2.58-3.16,3.58-6.08,6.59-20.53,19-20.53,19L41,43.68h0c3.65,4,7.48,8.25,11,12.11a37.54,37.54,0,0,1,3,3.44c.85,1.18,2.16,3.12,2.06,4.53-.15,2.15-3.29,2.39-5.32,2.6l-1.92.15v1.59l31.2,0V66.42a19.24,19.24,0,0,1-5.55-1.57"/><rect x="49.46" y="109.75" width="0.29" height="4.57"/><rect x="92.09" y="109.75" width="0.29" height="4.57"/></svg>
