<svg xmlns="http://www.w3.org/2000/svg" viewBox="0 0 186.3 71.58" fill="#939ba8"><path d="M60.09,37.34c0-1.22.19-3.19-1.18-3.7v-.09h6.4c3.56,0,5.64,1.52,5.64,3.92,0,1.81-1.16,2.84-2.7,3.51,2.43.52,4.4,2.14,4.4,4.78a5.43,5.43,0,0,1-3.24,4.73c-1.89.92-4,.84-6,.84H58.91v-.08c1.35-.52,1.18-2.49,1.18-3.73Zm3.65,3.37c1.76,0,4.27-.59,4.27-2.81a2.85,2.85,0,0,0-3.35-2.67l-1.81.19v5.29Zm1.46,8.67c2.21.22,4.46-.81,4.46-3.37s-2.54-3.76-4.92-3.62l-1.89.11v6.67Z"/><path d="M93.59,42.25a9.64,9.64,0,0,1-9.94,9.51c-5.35,0-9.86-3.84-9.86-9.37A9.6,9.6,0,0,1,83.92,33.1,9.32,9.32,0,0,1,93.59,42.25Zm-16.72-.11c0,3.79,2.67,7.68,6.91,7.68s6.73-3,6.73-7S88,35,83.73,35,76.87,38.07,76.87,42.14Z"/><path d="M96.05,37.26c0-1.25.19-3.22-1.19-3.62v-.09h6.62c6.16,0,10,3.35,10,8.73s-4.08,9-10.13,9H94.86v-.08c1.35-.92,1.19-2.22,1.19-3.81ZM98.8,49.19a9.3,9.3,0,0,0,2,.19c4,0,7.61-2.1,7.61-6.78s-2.64-7.1-7.15-7.1a10.79,10.79,0,0,0-2.44.3Z"/><path d="M120.85,47.82c0,1.62,0,2.43,1.38,3.43v.08H117v-.08c1.32-.68,1.13-2.43,1.13-3.7v-4l-4.48-7.21A6.58,6.58,0,0,0,111,33.55h2.46a2.31,2.31,0,0,1,2,.76l4.32,7,3.35-5c.46-.68,1.08-2-.43-2.7v-.09h4.72l-6.64,10Z"/><path d="M142.84,37a5.46,5.46,0,0,0,.38-1.57A2,2,0,0,0,142,33.64v-.09h4.83v.09l-6.24,18.25a15.46,15.46,0,0,1-3.4-1.35,5.09,5.09,0,0,1-2.48-3.24L130.63,36a5.26,5.26,0,0,0-1.32-2.35v-.09h6.1v.09l0,.13a14,14,0,0,0,.84,3l3.43,9.94Z"/><path d="M154.05,47.49c0,1.41-.19,2.92,1.14,3.76v.08h-7.27v-.08c1.32-.84,1.13-2.35,1.13-3.76V37.42c0-1.41.19-3-1.13-3.78v-.09h7.27v.09c-1.33.83-1.14,2.37-1.14,3.78Z"/><path d="M165,33.55a5.46,5.46,0,0,1,3.76.9,4.16,4.16,0,0,1,1.81,3.35c0,1.81-1.25,2.89-2.87,3.43a4.5,4.5,0,0,1,3.89,4.61A5.35,5.35,0,0,1,169.66,50c-1.45,1.27-2.89,1.3-4.8,1.3h-7.92v-.08c1.33-.84,1.14-2.35,1.14-3.78V37.39c0-1.4.19-2.94-1.14-3.75v-.09Zm-1.92,6.81a1.61,1.61,0,0,0,.52.11,2.11,2.11,0,0,0,2-2.32c0-1.06-.54-2.08-1.7-2.08a2,2,0,0,0-.79.16Zm0,8.1a1.87,1.87,0,0,0,1.19.33c1.76,0,2.46-1.46,2.46-3,0-2-.95-3-3-3h-.65Z"/><path d="M179.39,48.33a7.79,7.79,0,0,0,2.84.4,4.69,4.69,0,0,0,3.94-1.48h.13l-1.08,4.08h-12v-.08c1.32-.84,1.13-2.35,1.13-3.76V37.39c0-1.4.19-2.94-1.13-3.75v-.09h9.45a3.11,3.11,0,0,0,1.14-.13h.08v3.92h-.08c-.73-1.27-2.27-1.14-3.6-1.14h-.86v4.38h2.51a2.65,2.65,0,0,0,1-.14H183v3.78h-.14c-.38-1.08-1.62-1-2.62-1h-.89Z"/><rect x="116.6" y="60.62" width="12.01" height="0.81"/><path d="M43.28,33.27h0c-5.05,0-5.64.27-5.64.27,2.6,1,2.1,3.75,1.12,6.81l-8.52,22.7h0l0,.14L22.63,43.64h0l-1.19-3.21c-1-3-1.53-5.84,1.06-6.91,0,0-.78-.35-6-.33h-.88a29,29,0,0,0-4.59.32c2.81,1.74,3.55,5.19,4.64,8.07l8.73,22.48c2.38,5.87,3.43,5.88,7,7.51l9.78-25.37.19-.51c1.19-3,2.51-6.36,3.53-9.08a4.94,4.94,0,0,1,2.85-3.09A23.17,23.17,0,0,0,43.28,33.27Z"/><path d="M18.54,22.68A17.74,17.74,0,0,0,10,25.22a9,9,0,0,1-1,.45,8.26,8.26,0,0,1-.23-2L8.61,9.37C8.59,6,8.8,3,9.07,0,7.93-.07,1.16,3.27,0,4.33c0,0,.6.2,1.23.49C2.46,5.4,3.07,6.53,3.09,11l.17,34.36c0,6,4.3,7.83,5.89,8.27a20.1,20.1,0,0,0,6.51,1,21.89,21.89,0,0,0,3.18-.26L18,52.22a11,11,0,0,1-1.17.07,7.62,7.62,0,0,1-5.95-2.46,10.45,10.45,0,0,1-2.13-6.56L8.72,31.49c0-2.95.34-3.78,1.1-4.31A10.3,10.3,0,0,1,15.05,26c7.48,0,11.56,6,11.6,13.75a17,17,0,0,1-1.15,6.7l1.67,4.3A17,17,0,0,0,33,37.41C33,29.1,27.15,22.64,18.54,22.68Z"/></svg>
