<svg xmlns="http://www.w3.org/2000/svg" viewBox="0 0 194.65 68.45" fill="#939ba8"><path d="M27.33,61.91c-10,0-13.69-8.55-13.69-13.94,0-5.55,3.57-10.08,7.35-14.89l.09-.11c1.3-1.65,2-2.2,3.19-4,1.67-2.48,4.07-5.41,4.27-9.37,1.18.84,2.39,4,2.44,7.33a12,12,0,0,1-2.6,7.11c-.89,1.23-1.18,1.25-2.08,2.39C22.86,40.82,19.63,44.93,20,50c.26,4.24,3.42,11.42,10.84,10.53,2.44-.29,4.4-2.2,6-3.45a12,12,0,0,1-9.48,4.87"/><path d="M33.77,30.85c0,2.34-1.61,4.56-3,6.45-.85,1.17-1.75,2.31-2.54,3.32-2.79,3.54-5.19,6.58-5,9.78a6.36,6.36,0,0,0,10,5.07,6.16,6.16,0,0,1-1.38.42l-.45,0A3.65,3.65,0,0,1,29.05,55a4.69,4.69,0,0,1-1.56-3.46,7.41,7.41,0,0,1,1-3.3l.19-.36a27.45,27.45,0,0,1,2.12-3.24l.66-.84c.87-1.11,1.71-2.09,2.33-2.81l.43-.5a2.13,2.13,0,0,0,.18-.22A6.15,6.15,0,0,0,35.64,37c.17-2.08-1-4.31-1.87-6.13"/><path d="M26.79,4.38A4.38,4.38,0,1,1,22.42,0a4.38,4.38,0,0,1,4.37,4.38"/><path d="M42.34,48.85c-1.05,5.36-3.63,15.26-16.21,15.26-11.91,0-16.35-9.75-16.35-15.9s4-11,7.78-15.66l0,0c1.24-1.51,2.52-3.08,3.62-4.64.41-.59.81-1.24,1.21-1.93h0v0c.34-.6.67-1.23,1-1.87A76.42,76.42,0,0,1,30,13.71h0C36.43,7,33.65,2.36,33.65,2.36c-.53,2-.69,4.51-5.86,7.23a15.45,15.45,0,0,0-5.49,4.68c-.31-.59-1.45-1.81-5.43-3.86A12.94,12.94,0,0,1,11.12,5a9,9,0,0,1-.85-2.39v0A6.16,6.16,0,0,0,10.06,8l.12.25h0a.16.16,0,0,1,0,.07,7.33,7.33,0,0,0,.94,1.48c2.81,4,7,7.79.56,15.54C7.2,30.78,0,37.6,0,47.87,0,59.05,9.43,68.09,21.47,68.43l.84,0c12.11,0,20.13-6.7,20.13-17.72Z"/><path d="M66.93,37.59a3.07,3.07,0,0,0,3-3.2,2.93,2.93,0,0,0-3-3H61v6.23ZM54.78,26.42a.76.76,0,0,1,.75-.76H67.45a8.5,8.5,0,0,1,8.69,8.61c0,3.67-2.19,6.63-5.9,8L75.7,52.42A.76.76,0,0,1,75,53.58H69.72a.73.73,0,0,1-.63-.36L63.78,42.65H61V52.82a.79.79,0,0,1-.76.76H55.53a.76.76,0,0,1-.75-.76Z"/><path d="M94.68,47.6a8,8,0,1,0-7.94-7.94,8,8,0,0,0,7.94,7.94m0-22.34a14.36,14.36,0,1,1-14.31,14.4,14.32,14.32,0,0,1,14.31-14.4"/><path d="M113.49,50.91a.9.9,0,0,1-.16-1.2l1.84-3.23a.93.93,0,0,1,1.35-.24,10.22,10.22,0,0,0,5.66,2.2,2.5,2.5,0,0,0,2.75-2.4c0-1.67-1.47-2.75-4.11-4-3.86-1.87-7.73-4-7.73-8.81,0-4,3.07-7.94,9.21-7.94a14.8,14.8,0,0,1,8.53,3,1,1,0,0,1,.24,1.28l-2,3.07a1.24,1.24,0,0,1-1.76.28c-.91-.64-3.27-2.16-5.38-2.16a2.17,2.17,0,0,0-2.43,2.2c0,1.31,1.55,2.35,4.35,3.71,3.5,1.71,8.05,3.67,8.05,9.09,0,4.11-3.55,8.26-9.41,8.26-5.18,0-8-2.15-9-3.07"/><rect x="137.37" y="25.66" width="6.3" height="27.92" rx="0.76" ry="0.76"/><path d="M155.1,31.52h-5.69a.76.76,0,0,1-.76-.76V26.42a.76.76,0,0,1,.76-.76H167.1a.76.76,0,0,1,.76.76v4.34a.76.76,0,0,1-.76.76h-5.7v21.3a.79.79,0,0,1-.75.76h-4.79a.79.79,0,0,1-.76-.76Z"/><path d="M184.24,44l-3-6.58h0l-3,6.58Zm-16.38,8.53L180.34,25.7a.8.8,0,0,1,.67-.44h.4a.81.81,0,0,1,.68.44l12.48,26.84a.71.71,0,0,1-.68,1h-4.43c-.71,0-1-.24-1.39-1l-1.44-3.15H175.79l-1.43,3.19a1.49,1.49,0,0,1-1.44,1h-4.38a.71.71,0,0,1-.68-1"/><polygon points="61.29 64.74 60.21 64.74 60.21 59.36 64.98 59.36 64.98 60.44 61.29 60.44 61.29 61.42 63.24 61.42 63.24 62.5 61.29 62.5 61.29 64.74"/><path d="M69.48,60.44v1h2.34a1.23,1.23,0,0,0,.27,0,.94.94,0,0,0,.29-.06.6.6,0,0,0,.22-.16.41.41,0,0,0,.09-.28.44.44,0,0,0-.09-.29.43.43,0,0,0-.2-.15,1.27,1.27,0,0,0-.28-.06H69.48Zm2.34-1.08a3.55,3.55,0,0,1,.73.08,1.9,1.9,0,0,1,.62.26,1.28,1.28,0,0,1,.43.49,1.58,1.58,0,0,1,.17.76,1.62,1.62,0,0,1-.12.66,1.31,1.31,0,0,1-.3.45,1.36,1.36,0,0,1-.39.3l-.4.18,1.36,2.2H72.56L71.2,62.55H69.48v2.19H68.4V59.36Z"/><polygon points="82.29 59.36 82.29 60.44 78.59 60.44 78.59 61.42 80.55 61.42 80.55 62.5 78.59 62.5 78.59 63.66 82.41 63.66 82.41 64.74 77.52 64.74 77.52 59.36 82.29 59.36"/><path d="M85.94,63a4.8,4.8,0,0,0,2.77.82l.45,0a1.8,1.8,0,0,0,.47-.12,1.09,1.09,0,0,0,.38-.22.5.5,0,0,0,.15-.37.46.46,0,0,0-.08-.27.67.67,0,0,0-.2-.17,1.22,1.22,0,0,0-.27-.09l-.26,0-1.61-.05a2.82,2.82,0,0,1-.87-.15,2.16,2.16,0,0,1-.61-.37,1.4,1.4,0,0,1-.36-.51,1.53,1.53,0,0,1-.12-.6,1.44,1.44,0,0,1,.13-.6,1.36,1.36,0,0,1,.41-.53,2.4,2.4,0,0,1,.77-.38,4.57,4.57,0,0,1,1.21-.14,4.75,4.75,0,0,1,1,.09,5.77,5.77,0,0,1,.75.2,4.16,4.16,0,0,1,.54.23l.34.18-.48,1L90,60.68a4.23,4.23,0,0,0-.51-.19,4.87,4.87,0,0,0-.63-.15,4.35,4.35,0,0,0-.74-.06l-.45,0a1.67,1.67,0,0,0-.4.1.73.73,0,0,0-.31.18.41.41,0,0,0-.12.3.32.32,0,0,0,.1.25.74.74,0,0,0,.24.17,1.57,1.57,0,0,0,.31.08l.3,0,1.4.05a2.48,2.48,0,0,1,1.48.43,1.5,1.5,0,0,1,.55,1.26,1.65,1.65,0,0,1-.15.69,1.52,1.52,0,0,1-.46.56,2.47,2.47,0,0,1-.78.38,4.23,4.23,0,0,1-1.14.14,6.7,6.7,0,0,1-1.91-.25A4.35,4.35,0,0,1,85.44,64Z"/><polygon points="96.15 59.36 96.15 61.4 99.03 61.4 99.03 59.36 100.11 59.36 100.11 64.74 99.03 64.74 99.03 62.48 96.15 62.48 96.15 64.74 95.07 64.74 95.07 59.36 96.15 59.36"/><path d="M107.55,62.33a1.21,1.21,0,0,1,.34-.86,1.27,1.27,0,0,1,1.73,0,1.27,1.27,0,0,1,0,1.73,1.27,1.27,0,0,1-1.73,0,1.22,1.22,0,0,1-.34-.87"/><polygon points="118.12 59.36 119.33 63.31 119.34 63.31 120.43 59.36 121.82 59.36 122.88 63.31 122.9 63.31 124.14 59.36 125.25 59.36 123.59 64.74 122.14 64.74 121.12 60.8 121.1 60.8 120.07 64.74 118.65 64.74 117 59.36 118.12 59.36"/><rect x="128.48" y="59.36" width="1.08" height="5.38"/><polygon points="134.78 59.36 134.78 63.66 137.87 63.66 137.87 64.74 133.71 64.74 133.71 59.36 134.78 59.36"/><path d="M142.54,63.66h1.83a2,2,0,0,0,.66-.1,1.44,1.44,0,0,0,.52-.31,1.34,1.34,0,0,0,.34-.51A1.92,1.92,0,0,0,146,62a1.76,1.76,0,0,0-.14-.78,1.16,1.16,0,0,0-.37-.49,1.32,1.32,0,0,0-.52-.25,3,3,0,0,0-.61-.07h-1.83Zm1.83-4.3a3.88,3.88,0,0,1,.95.13,2.31,2.31,0,0,1,.88.42,2.26,2.26,0,0,1,.64.81,2.73,2.73,0,0,1,.25,1.25,3.32,3.32,0,0,1-.19,1.18,2.42,2.42,0,0,1-.56.87,2.33,2.33,0,0,1-.86.54,3.27,3.27,0,0,1-1.11.18h-2.91V59.36Z"/><path d="M153.81,62.33a1.17,1.17,0,0,1,.34-.86,1.15,1.15,0,0,1,.86-.34,1.21,1.21,0,1,1,0,2.41,1.15,1.15,0,0,1-.86-.34,1.18,1.18,0,0,1-.34-.87"/><path d="M165.45,60.44v1h2.34a1.32,1.32,0,0,0,.27,0,.94.94,0,0,0,.28-.06.6.6,0,0,0,.22-.16.41.41,0,0,0,.09-.28.5.5,0,0,0-.08-.29.51.51,0,0,0-.21-.15,1.27,1.27,0,0,0-.28-.06h-2.63Zm2.34-1.08a3.38,3.38,0,0,1,.72.08,1.81,1.81,0,0,1,.62.26,1.39,1.39,0,0,1,.44.49,1.71,1.71,0,0,1,.16.76,1.62,1.62,0,0,1-.12.66,1.29,1.29,0,0,1-.29.45,1.27,1.27,0,0,1-.4.3l-.4.18,1.36,2.2h-1.36l-1.35-2.19h-1.72v2.19h-1.08V59.36Z"/><path d="M174.62,62.53h2.07l-1-2.12Zm.31-3.17h1.43L179,64.74h-1.23l-.54-1.13h-3.14l-.54,1.13h-1.22Z"/><polygon points="182.08 59.36 183.28 63.31 183.3 63.31 184.39 59.36 185.78 59.36 186.84 63.31 186.86 63.31 188.09 59.36 189.21 59.36 187.54 64.74 186.1 64.74 185.07 60.8 185.05 60.8 184.03 64.74 182.6 64.74 180.96 59.36 182.08 59.36"/><path d="M27.33,61.91c-10,0-13.69-8.55-13.69-13.94,0-5.55,3.57-10.08,7.35-14.89l.09-.11c1.3-1.65,2-2.2,3.19-4,1.67-2.48,4.07-5.41,4.27-9.37,1.18.84,2.39,4,2.44,7.33a12,12,0,0,1-2.6,7.11c-.89,1.23-1.18,1.25-2.08,2.39C22.86,40.82,19.63,44.93,20,50c.26,4.24,3.42,11.42,10.84,10.53,2.44-.29,4.4-2.2,6-3.45a12,12,0,0,1-9.48,4.87"/><path d="M33.77,30.85c0,2.34-1.61,4.56-3,6.45-.85,1.17-1.75,2.31-2.54,3.32-2.79,3.54-5.19,6.58-5,9.78a6.36,6.36,0,0,0,10,5.07,6.16,6.16,0,0,1-1.38.42l-.45,0A3.65,3.65,0,0,1,29.05,55a4.69,4.69,0,0,1-1.56-3.46,7.41,7.41,0,0,1,1-3.3l.19-.36a27.45,27.45,0,0,1,2.12-3.24l.66-.84c.87-1.11,1.71-2.09,2.33-2.81l.43-.5a2.13,2.13,0,0,0,.18-.22A6.15,6.15,0,0,0,35.64,37c.17-2.08-1-4.31-1.87-6.13"/><path d="M26.79,4.38A4.38,4.38,0,1,1,22.42,0a4.38,4.38,0,0,1,4.37,4.38"/><path d="M42.34,48.85c-1.05,5.36-3.63,15.26-16.21,15.26-11.91,0-16.35-9.75-16.35-15.9s4-11,7.78-15.66l0,0c1.24-1.51,2.52-3.08,3.62-4.64.41-.59.81-1.24,1.21-1.93h0v0c.34-.6.67-1.23,1-1.87A76.42,76.42,0,0,1,30,13.71h0C36.43,7,33.65,2.36,33.65,2.36c-.53,2-.69,4.51-5.86,7.23a15.45,15.45,0,0,0-5.49,4.68c-.31-.59-1.45-1.81-5.43-3.86A12.94,12.94,0,0,1,11.12,5a9,9,0,0,1-.85-2.39v0A6.16,6.16,0,0,0,10.06,8l.12.25h0a.16.16,0,0,1,0,.07,7.33,7.33,0,0,0,.94,1.48c2.81,4,7,7.79.56,15.54C7.2,30.78,0,37.6,0,47.87,0,59.05,9.43,68.09,21.47,68.43l.84,0c12.11,0,20.13-6.7,20.13-17.72Z"/><path d="M66.93,37.59a3.07,3.07,0,0,0,3-3.2,2.93,2.93,0,0,0-3-3H61v6.23ZM54.78,26.42a.76.76,0,0,1,.75-.76H67.45a8.5,8.5,0,0,1,8.69,8.61c0,3.67-2.19,6.63-5.9,8L75.7,52.42A.76.76,0,0,1,75,53.58H69.72a.73.73,0,0,1-.63-.36L63.78,42.65H61V52.82a.79.79,0,0,1-.76.76H55.53a.76.76,0,0,1-.75-.76Z"/><path d="M94.68,47.6a8,8,0,1,0-7.94-7.94,8,8,0,0,0,7.94,7.94m0-22.34a14.36,14.36,0,1,1-14.31,14.4,14.32,14.32,0,0,1,14.31-14.4"/><path d="M113.49,50.91a.9.9,0,0,1-.16-1.2l1.84-3.23a.93.93,0,0,1,1.35-.24,10.22,10.22,0,0,0,5.66,2.2,2.5,2.5,0,0,0,2.75-2.4c0-1.67-1.47-2.75-4.11-4-3.86-1.87-7.73-4-7.73-8.81,0-4,3.07-7.94,9.21-7.94a14.8,14.8,0,0,1,8.53,3,1,1,0,0,1,.24,1.28l-2,3.07a1.24,1.24,0,0,1-1.76.28c-.91-.64-3.27-2.16-5.38-2.16a2.17,2.17,0,0,0-2.43,2.2c0,1.31,1.55,2.35,4.35,3.71,3.5,1.71,8.05,3.67,8.05,9.09,0,4.11-3.55,8.26-9.41,8.26-5.18,0-8-2.15-9-3.07"/><rect x="137.37" y="25.66" width="6.3" height="27.92" rx="0.76" ry="0.76"/><path d="M155.1,31.52h-5.69a.76.76,0,0,1-.76-.76V26.42a.76.76,0,0,1,.76-.76H167.1a.76.76,0,0,1,.76.76v4.34a.76.76,0,0,1-.76.76h-5.7v21.3a.79.79,0,0,1-.75.76h-4.79a.79.79,0,0,1-.76-.76Z"/><path d="M184.24,44l-3-6.58h0l-3,6.58Zm-16.38,8.53L180.34,25.7a.8.8,0,0,1,.67-.44h.4a.81.81,0,0,1,.68.44l12.48,26.84a.71.71,0,0,1-.68,1h-4.43c-.71,0-1-.24-1.39-1l-1.44-3.15H175.79l-1.43,3.19a1.49,1.49,0,0,1-1.44,1h-4.38a.71.71,0,0,1-.68-1"/><polygon points="61.29 64.74 60.21 64.74 60.21 59.36 64.98 59.36 64.98 60.44 61.29 60.44 61.29 61.42 63.24 61.42 63.24 62.5 61.29 62.5 61.29 64.74"/><path d="M69.48,60.44v1h2.34a1.23,1.23,0,0,0,.27,0,.94.94,0,0,0,.29-.06.6.6,0,0,0,.22-.16.41.41,0,0,0,.09-.28.44.44,0,0,0-.09-.29.43.43,0,0,0-.2-.15,1.27,1.27,0,0,0-.28-.06H69.48Zm2.34-1.08a3.55,3.55,0,0,1,.73.08,1.9,1.9,0,0,1,.62.26,1.28,1.28,0,0,1,.43.49,1.58,1.58,0,0,1,.17.76,1.62,1.62,0,0,1-.12.66,1.31,1.31,0,0,1-.3.45,1.36,1.36,0,0,1-.39.3l-.4.18,1.36,2.2H72.56L71.2,62.55H69.48v2.19H68.4V59.36Z"/><polygon points="82.29 59.36 82.29 60.44 78.59 60.44 78.59 61.42 80.55 61.42 80.55 62.5 78.59 62.5 78.59 63.66 82.41 63.66 82.41 64.74 77.52 64.74 77.52 59.36 82.29 59.36"/><path d="M85.94,63a4.8,4.8,0,0,0,2.77.82l.45,0a1.8,1.8,0,0,0,.47-.12,1.09,1.09,0,0,0,.38-.22.5.5,0,0,0,.15-.37.46.46,0,0,0-.08-.27.67.67,0,0,0-.2-.17,1.22,1.22,0,0,0-.27-.09l-.26,0-1.61-.05a2.82,2.82,0,0,1-.87-.15,2.16,2.16,0,0,1-.61-.37,1.4,1.4,0,0,1-.36-.51,1.53,1.53,0,0,1-.12-.6,1.44,1.44,0,0,1,.13-.6,1.36,1.36,0,0,1,.41-.53,2.4,2.4,0,0,1,.77-.38,4.57,4.57,0,0,1,1.21-.14,4.75,4.75,0,0,1,1,.09,5.77,5.77,0,0,1,.75.2,4.16,4.16,0,0,1,.54.23l.34.18-.48,1L90,60.68a4.23,4.23,0,0,0-.51-.19,4.87,4.87,0,0,0-.63-.15,4.35,4.35,0,0,0-.74-.06l-.45,0a1.67,1.67,0,0,0-.4.1.73.73,0,0,0-.31.18.41.41,0,0,0-.12.3.32.32,0,0,0,.1.25.74.74,0,0,0,.24.17,1.57,1.57,0,0,0,.31.08l.3,0,1.4.05a2.48,2.48,0,0,1,1.48.43,1.5,1.5,0,0,1,.55,1.26,1.65,1.65,0,0,1-.15.69,1.52,1.52,0,0,1-.46.56,2.47,2.47,0,0,1-.78.38,4.23,4.23,0,0,1-1.14.14,6.7,6.7,0,0,1-1.91-.25A4.35,4.35,0,0,1,85.44,64Z"/><polygon points="96.15 59.36 96.15 61.4 99.03 61.4 99.03 59.36 100.11 59.36 100.11 64.74 99.03 64.74 99.03 62.48 96.15 62.48 96.15 64.74 95.07 64.74 95.07 59.36 96.15 59.36"/><path d="M107.55,62.33a1.21,1.21,0,0,1,.34-.86,1.27,1.27,0,0,1,1.73,0,1.27,1.27,0,0,1,0,1.73,1.27,1.27,0,0,1-1.73,0,1.22,1.22,0,0,1-.34-.87"/><polygon points="118.12 59.36 119.33 63.31 119.34 63.31 120.43 59.36 121.82 59.36 122.88 63.31 122.9 63.31 124.14 59.36 125.25 59.36 123.59 64.74 122.14 64.74 121.12 60.8 121.1 60.8 120.07 64.74 118.65 64.74 117 59.36 118.12 59.36"/><rect x="128.48" y="59.36" width="1.08" height="5.38"/><polygon points="134.78 59.36 134.78 63.66 137.87 63.66 137.87 64.74 133.71 64.74 133.71 59.36 134.78 59.36"/><path d="M142.54,63.66h1.83a2,2,0,0,0,.66-.1,1.44,1.44,0,0,0,.52-.31,1.34,1.34,0,0,0,.34-.51A1.92,1.92,0,0,0,146,62a1.76,1.76,0,0,0-.14-.78,1.16,1.16,0,0,0-.37-.49,1.32,1.32,0,0,0-.52-.25,3,3,0,0,0-.61-.07h-1.83Zm1.83-4.3a3.88,3.88,0,0,1,.95.13,2.31,2.31,0,0,1,.88.42,2.26,2.26,0,0,1,.64.81,2.73,2.73,0,0,1,.25,1.25,3.32,3.32,0,0,1-.19,1.18,2.42,2.42,0,0,1-.56.87,2.33,2.33,0,0,1-.86.54,3.27,3.27,0,0,1-1.11.18h-2.91V59.36Z"/><path d="M153.81,62.33a1.17,1.17,0,0,1,.34-.86,1.15,1.15,0,0,1,.86-.34,1.21,1.21,0,1,1,0,2.41,1.15,1.15,0,0,1-.86-.34,1.18,1.18,0,0,1-.34-.87"/><path d="M165.45,60.44v1h2.34a1.32,1.32,0,0,0,.27,0,.94.94,0,0,0,.28-.06.6.6,0,0,0,.22-.16.41.41,0,0,0,.09-.28.5.5,0,0,0-.08-.29.51.51,0,0,0-.21-.15,1.27,1.27,0,0,0-.28-.06h-2.63Zm2.34-1.08a3.38,3.38,0,0,1,.72.08,1.81,1.81,0,0,1,.62.26,1.39,1.39,0,0,1,.44.49,1.71,1.71,0,0,1,.16.76,1.62,1.62,0,0,1-.12.66,1.29,1.29,0,0,1-.29.45,1.27,1.27,0,0,1-.4.3l-.4.18,1.36,2.2h-1.36l-1.35-2.19h-1.72v2.19h-1.08V59.36Z"/><path d="M174.62,62.53h2.07l-1-2.12Zm.31-3.17h1.43L179,64.74h-1.23l-.54-1.13h-3.14l-.54,1.13h-1.22Z"/><polygon points="182.08 59.36 183.28 63.31 183.3 63.31 184.39 59.36 185.78 59.36 186.84 63.31 186.86 63.31 188.09 59.36 189.21 59.36 187.54 64.74 186.1 64.74 185.07 60.8 185.05 60.8 184.03 64.74 182.6 64.74 180.96 59.36 182.08 59.36"/><path d="M27.33,61.91c-10,0-13.69-8.55-13.69-13.94,0-5.55,3.57-10.08,7.35-14.89l.09-.11c1.3-1.65,2-2.2,3.19-4,1.67-2.48,4.07-5.41,4.27-9.37,1.18.84,2.39,4,2.44,7.33a12,12,0,0,1-2.6,7.11c-.89,1.23-1.18,1.25-2.08,2.39C22.86,40.82,19.63,44.93,20,50c.26,4.24,3.42,11.42,10.84,10.53,2.44-.29,4.4-2.2,6-3.45a12,12,0,0,1-9.48,4.87"/><path d="M33.77,30.85c0,2.34-1.61,4.56-3,6.45-.85,1.17-1.75,2.31-2.54,3.32-2.79,3.54-5.19,6.58-5,9.78a6.36,6.36,0,0,0,10,5.07,6.16,6.16,0,0,1-1.38.42l-.45,0A3.65,3.65,0,0,1,29.05,55a4.69,4.69,0,0,1-1.56-3.46,7.41,7.41,0,0,1,1-3.3l.19-.36a27.45,27.45,0,0,1,2.12-3.24l.66-.84c.87-1.11,1.71-2.09,2.33-2.81l.43-.5a2.13,2.13,0,0,0,.18-.22A6.15,6.15,0,0,0,35.64,37c.17-2.08-1-4.31-1.87-6.13"/><path d="M26.79,4.38A4.38,4.38,0,1,1,22.42,0a4.38,4.38,0,0,1,4.37,4.38"/><path d="M42.34,48.85c-1.05,5.36-3.63,15.26-16.21,15.26-11.91,0-16.35-9.75-16.35-15.9s4-11,7.78-15.66l0,0c1.24-1.51,2.52-3.08,3.62-4.64.41-.59.81-1.24,1.21-1.93h0v0c.34-.6.67-1.23,1-1.87A76.42,76.42,0,0,1,30,13.71h0C36.43,7,33.65,2.36,33.65,2.36c-.53,2-.69,4.51-5.86,7.23a15.45,15.45,0,0,0-5.49,4.68c-.31-.59-1.45-1.81-5.43-3.86A12.94,12.94,0,0,1,11.12,5a9,9,0,0,1-.85-2.39v0A6.16,6.16,0,0,0,10.06,8l.12.25h0a.16.16,0,0,1,0,.07,7.33,7.33,0,0,0,.94,1.48c2.81,4,7,7.79.56,15.54C7.2,30.78,0,37.6,0,47.87,0,59.05,9.43,68.09,21.47,68.43l.84,0c12.11,0,20.13-6.7,20.13-17.72Z"/><path d="M66.93,37.59a3.07,3.07,0,0,0,3-3.2,2.93,2.93,0,0,0-3-3H61v6.23ZM54.78,26.42a.76.76,0,0,1,.75-.76H67.45a8.5,8.5,0,0,1,8.69,8.61c0,3.67-2.19,6.63-5.9,8L75.7,52.42A.76.76,0,0,1,75,53.58H69.72a.73.73,0,0,1-.63-.36L63.78,42.65H61V52.82a.79.79,0,0,1-.76.76H55.53a.76.76,0,0,1-.75-.76Z"/><path d="M94.68,47.6a8,8,0,1,0-7.94-7.94,8,8,0,0,0,7.94,7.94m0-22.34a14.36,14.36,0,1,1-14.31,14.4,14.32,14.32,0,0,1,14.31-14.4"/><path d="M113.49,50.91a.9.9,0,0,1-.16-1.2l1.84-3.23a.93.93,0,0,1,1.35-.24,10.22,10.22,0,0,0,5.66,2.2,2.5,2.5,0,0,0,2.75-2.4c0-1.67-1.47-2.75-4.11-4-3.86-1.87-7.73-4-7.73-8.81,0-4,3.07-7.94,9.21-7.94a14.8,14.8,0,0,1,8.53,3,1,1,0,0,1,.24,1.28l-2,3.07a1.24,1.24,0,0,1-1.76.28c-.91-.64-3.27-2.16-5.38-2.16a2.17,2.17,0,0,0-2.43,2.2c0,1.31,1.55,2.35,4.35,3.71,3.5,1.71,8.05,3.67,8.05,9.09,0,4.11-3.55,8.26-9.41,8.26-5.18,0-8-2.15-9-3.07"/><rect x="137.37" y="25.66" width="6.3" height="27.92" rx="0.76" ry="0.76"/><path d="M155.1,31.52h-5.69a.76.76,0,0,1-.76-.76V26.42a.76.76,0,0,1,.76-.76H167.1a.76.76,0,0,1,.76.76v4.34a.76.76,0,0,1-.76.76h-5.7v21.3a.79.79,0,0,1-.75.76h-4.79a.79.79,0,0,1-.76-.76Z"/><path d="M184.24,44l-3-6.58h0l-3,6.58Zm-16.38,8.53L180.34,25.7a.8.8,0,0,1,.67-.44h.4a.81.81,0,0,1,.68.44l12.48,26.84a.71.71,0,0,1-.68,1h-4.43c-.71,0-1-.24-1.39-1l-1.44-3.15H175.79l-1.43,3.19a1.49,1.49,0,0,1-1.44,1h-4.38a.71.71,0,0,1-.68-1"/><polygon points="61.29 64.74 60.21 64.74 60.21 59.36 64.98 59.36 64.98 60.44 61.29 60.44 61.29 61.42 63.24 61.42 63.24 62.5 61.29 62.5 61.29 64.74"/><path d="M69.48,60.44v1h2.34a1.23,1.23,0,0,0,.27,0,.94.94,0,0,0,.29-.06.6.6,0,0,0,.22-.16.41.41,0,0,0,.09-.28.44.44,0,0,0-.09-.29.43.43,0,0,0-.2-.15,1.27,1.27,0,0,0-.28-.06H69.48Zm2.34-1.08a3.55,3.55,0,0,1,.73.08,1.9,1.9,0,0,1,.62.26,1.28,1.28,0,0,1,.43.49,1.58,1.58,0,0,1,.17.76,1.62,1.62,0,0,1-.12.66,1.31,1.31,0,0,1-.3.45,1.36,1.36,0,0,1-.39.3l-.4.18,1.36,2.2H72.56L71.2,62.55H69.48v2.19H68.4V59.36Z"/><polygon points="82.29 59.36 82.29 60.44 78.59 60.44 78.59 61.42 80.55 61.42 80.55 62.5 78.59 62.5 78.59 63.66 82.41 63.66 82.41 64.74 77.52 64.74 77.52 59.36 82.29 59.36"/><path d="M85.94,63a4.8,4.8,0,0,0,2.77.82l.45,0a1.8,1.8,0,0,0,.47-.12,1.09,1.09,0,0,0,.38-.22.5.5,0,0,0,.15-.37.46.46,0,0,0-.08-.27.67.67,0,0,0-.2-.17,1.22,1.22,0,0,0-.27-.09l-.26,0-1.61-.05a2.82,2.82,0,0,1-.87-.15,2.16,2.16,0,0,1-.61-.37,1.4,1.4,0,0,1-.36-.51,1.53,1.53,0,0,1-.12-.6,1.44,1.44,0,0,1,.13-.6,1.36,1.36,0,0,1,.41-.53,2.4,2.4,0,0,1,.77-.38,4.57,4.57,0,0,1,1.21-.14,4.75,4.75,0,0,1,1,.09,5.77,5.77,0,0,1,.75.2,4.16,4.16,0,0,1,.54.23l.34.18-.48,1L90,60.68a4.23,4.23,0,0,0-.51-.19,4.87,4.87,0,0,0-.63-.15,4.35,4.35,0,0,0-.74-.06l-.45,0a1.67,1.67,0,0,0-.4.1.73.73,0,0,0-.31.18.41.41,0,0,0-.12.3.32.32,0,0,0,.1.25.74.74,0,0,0,.24.17,1.57,1.57,0,0,0,.31.08l.3,0,1.4.05a2.48,2.48,0,0,1,1.48.43,1.5,1.5,0,0,1,.55,1.26,1.65,1.65,0,0,1-.15.69,1.52,1.52,0,0,1-.46.56,2.47,2.47,0,0,1-.78.38,4.23,4.23,0,0,1-1.14.14,6.7,6.7,0,0,1-1.91-.25A4.35,4.35,0,0,1,85.44,64Z"/><polygon points="96.15 59.36 96.15 61.4 99.03 61.4 99.03 59.36 100.11 59.36 100.11 64.74 99.03 64.74 99.03 62.48 96.15 62.48 96.15 64.74 95.07 64.74 95.07 59.36 96.15 59.36"/><path d="M107.55,62.33a1.21,1.21,0,0,1,.34-.86,1.27,1.27,0,0,1,1.73,0,1.27,1.27,0,0,1,0,1.73,1.27,1.27,0,0,1-1.73,0,1.22,1.22,0,0,1-.34-.87"/><polygon points="118.12 59.36 119.33 63.31 119.34 63.31 120.43 59.36 121.82 59.36 122.88 63.31 122.9 63.31 124.14 59.36 125.25 59.36 123.59 64.74 122.14 64.74 121.12 60.8 121.1 60.8 120.07 64.74 118.65 64.74 117 59.36 118.12 59.36"/><rect x="128.48" y="59.36" width="1.08" height="5.38"/><polygon points="134.78 59.36 134.78 63.66 137.87 63.66 137.87 64.74 133.71 64.74 133.71 59.36 134.78 59.36"/><path d="M142.54,63.66h1.83a2,2,0,0,0,.66-.1,1.44,1.44,0,0,0,.52-.31,1.34,1.34,0,0,0,.34-.51A1.92,1.92,0,0,0,146,62a1.76,1.76,0,0,0-.14-.78,1.16,1.16,0,0,0-.37-.49,1.32,1.32,0,0,0-.52-.25,3,3,0,0,0-.61-.07h-1.83Zm1.83-4.3a3.88,3.88,0,0,1,.95.13,2.31,2.31,0,0,1,.88.42,2.26,2.26,0,0,1,.64.81,2.73,2.73,0,0,1,.25,1.25,3.32,3.32,0,0,1-.19,1.18,2.42,2.42,0,0,1-.56.87,2.33,2.33,0,0,1-.86.54,3.27,3.27,0,0,1-1.11.18h-2.91V59.36Z"/><path d="M153.81,62.33a1.17,1.17,0,0,1,.34-.86,1.15,1.15,0,0,1,.86-.34,1.21,1.21,0,1,1,0,2.41,1.15,1.15,0,0,1-.86-.34,1.18,1.18,0,0,1-.34-.87"/><path d="M165.45,60.44v1h2.34a1.32,1.32,0,0,0,.27,0,.94.94,0,0,0,.28-.06.6.6,0,0,0,.22-.16.41.41,0,0,0,.09-.28.5.5,0,0,0-.08-.29.51.51,0,0,0-.21-.15,1.27,1.27,0,0,0-.28-.06h-2.63Zm2.34-1.08a3.38,3.38,0,0,1,.72.08,1.81,1.81,0,0,1,.62.26,1.39,1.39,0,0,1,.44.49,1.71,1.71,0,0,1,.16.76,1.62,1.62,0,0,1-.12.66,1.29,1.29,0,0,1-.29.45,1.27,1.27,0,0,1-.4.3l-.4.18,1.36,2.2h-1.36l-1.35-2.19h-1.72v2.19h-1.08V59.36Z"/><path d="M174.62,62.53h2.07l-1-2.12Zm.31-3.17h1.43L179,64.74h-1.23l-.54-1.13h-3.14l-.54,1.13h-1.22Z"/><polygon points="182.08 59.36 183.28 63.31 183.3 63.31 184.39 59.36 185.78 59.36 186.84 63.31 186.86 63.31 188.09 59.36 189.21 59.36 187.54 64.74 186.1 64.74 185.07 60.8 185.05 60.8 184.03 64.74 182.6 64.74 180.96 59.36 182.08 59.36"/></svg>
