<svg xmlns="http://www.w3.org/2000/svg" viewBox="0 0 250.03 47.92" fill="#939ba8"><path d="M226.31,18.22A10.52,10.52,0,0,0,215.8,28.73V39.24h3.74V28.73A6.79,6.79,0,0,1,226.29,22h2.45V18.22Z"/><path d="M239.08,39.68A11,11,0,1,1,250,28.73a11,11,0,0,1-10.95,11m0-18.09a7.14,7.14,0,1,0,7.14,7.14,7.14,7.14,0,0,0-7.14-7.14"/><path d="M160,39.68a11,11,0,1,1,11-10.95,11,11,0,0,1-11,11m0-18.09a7.14,7.14,0,1,0,7.14,7.14A7.14,7.14,0,0,0,160,21.59"/><path d="M182.92,17.77a11,11,0,0,0-10.95,11V47.92h3.82V37a10.86,10.86,0,0,0,7.13,2.66,11,11,0,1,0,0-21.91m0,18.1a7.14,7.14,0,1,1,7.14-7.14,7.15,7.15,0,0,1-7.14,7.14"/><path d="M204.84,17.77h0A9.43,9.43,0,0,0,199,19.65V10.54h-3.81V39.19H199V28.73c0-2.15.58-7.14,5.87-7.14s5.87,5,5.87,7.14V39.19h3.81V28.73c0-6.66-3.8-10.95-9.68-11"/><path d="M145.54,25.09a12.22,12.22,0,0,0-2.28-1.73,30,30,0,0,0-3.18-1.63,18.92,18.92,0,0,1-3.51-1.87,3.3,3.3,0,0,1-.09-5.15,4.42,4.42,0,0,1,3-1,5.38,5.38,0,0,1,2.89.68,4.13,4.13,0,0,1,1.41,1.46l0,.05H148l-.87-1.8c-1.51-2.74-4.1-4.12-7.69-4.12a8.1,8.1,0,0,0-5.55,2,6.67,6.67,0,0,0-2.4,5.33,6.69,6.69,0,0,0,2.34,5.32,18.51,18.51,0,0,0,4.67,2.69c1.09.49,2,.93,2.71,1.31a7.41,7.41,0,0,1,1.42,1,4.59,4.59,0,0,1,1.63,3.63A4.32,4.32,0,0,1,143,34.71a5.77,5.77,0,0,1-3.85,1.16c-2.65,0-4.3-1.07-5.13-3.34h-4l.14.46c1.33,4.42,4.37,6.65,9,6.65A11.34,11.34,0,0,0,143,39c3.36-1.26,5.07-3.88,5.07-7.8a8.31,8.31,0,0,0-2.52-6.15"/><path d="M102.06,23.21a7.74,7.74,0,0,0,2.38-5.6A7.64,7.64,0,0,0,97.1,10H86.45V39.67H96.79a9.07,9.07,0,0,0,5.27-16.46m-5.25-9.42a3.83,3.83,0,0,1,3.82,3.82,3.92,3.92,0,0,1-3.83,3.91H90.26V13.79Zm0,22.07H90.26V25.34H96.8a5.26,5.26,0,1,1,0,10.52"/><path d="M128.57,30.64a10.88,10.88,0,1,0-.51,1.91h-4.24a7.13,7.13,0,0,1-12.9-1.92Zm-10.78-9a7.14,7.14,0,0,1,6.88,5.23H110.92a7.12,7.12,0,0,1,6.87-5.23"/><path d="M9.56,17.81A47.61,47.61,0,0,1,12,11.46l2.74,0a37.09,37.09,0,0,1,4.59.2,11.39,11.39,0,0,1,4.93,2.09,17,17,0,0,0-1,10C23.85,26,26.54,32.13,29,37.58c-4-1.41-11.33-4.13-13.76-5.6-4.83-2.93-6.71-9.65-5.69-14.17m20.56,16A107.57,107.57,0,0,1,25.74,23.1a14.27,14.27,0,0,1,.6-7.57,14.22,14.22,0,0,1,3.69,7,99.53,99.53,0,0,1,.09,11.32m-14-31c2.44.85,8.73,3.1,12.65,4.85a14.33,14.33,0,0,0-3.27,3.72A13.74,13.74,0,0,0,19.74,9.1a36,36,0,0,0-5-.25H13.21c1.15-2.48,2.27-4.78,2.88-6M13.46,39.06c-5.59-.84-9.92-6.32-10.71-10.89C2.27,25,2.81,15.1,3,11.84c1.29-.08,3.63-.21,6.17-.3a42.2,42.2,0,0,0-2.12,5.67C5.82,22.75,8,30.6,13.93,34.16a98.85,98.85,0,0,0,11.61,4.91c-2.38.1-5.16.19-7.54.19a34.28,34.28,0,0,1-4.54-.2m17.87,2.63c8.89,0,17.73,0,18.25-.12,6.8-1,11.87-7.4,12.84-13a70.24,70.24,0,0,0,.09-10.76c-.19-4.53-.3-6.11-.43-7.39h0c0-.85-.92-1.16-2.44-1.25-.78,0-1.89-.06-3.17-.12s-2.66-.11-4.2-.15c-.23-.5-.47-1-.73-1.57C48.14,0,48.14,0,47.19,0A133.28,133.28,0,0,0,31.33,6.09,133.93,133.93,0,0,0,15.46,0c-.94,0-.94,0-4.36,7.34-.26.54-.5,1.07-.72,1.57-1.55,0-3,.1-4.21.15S3.78,9.13,3,9.18c-1.52.09-2.44.4-2.44,1.25h0C.45,11.71.33,13.29.14,17.82A71.62,71.62,0,0,0,.23,28.58c1,5.59,6,12,12.85,13,.51.08,9.35.12,18.25.12M47.4,32c-2.43,1.47-9.78,4.19-13.76,5.6C36.11,32.13,38.81,26,39.39,23.7a17,17,0,0,0-1-10,11.39,11.39,0,0,1,4.93-2.09,37.09,37.09,0,0,1,4.59-.2l2.74,0a47.61,47.61,0,0,1,2.47,6.35c1,4.52-.85,11.24-5.69,14.17M31.33,18.33A18,18,0,0,0,27.49,13a11.38,11.38,0,0,1,3.84-4,11.35,11.35,0,0,1,3.83,4,17.91,17.91,0,0,0-3.83,5.29m1.3,4.18a14.12,14.12,0,0,1,3.68-7,14.17,14.17,0,0,1,.6,7.57,107.57,107.57,0,0,1-4.38,10.73,101.44,101.44,0,0,1,.1-11.32M49.44,8.86H47.88a36,36,0,0,0-5,.25,13.74,13.74,0,0,0-5.73,2.31,14.33,14.33,0,0,0-3.27-3.72c3.92-1.75,10.21-4,12.65-4.85.61,1.24,1.73,3.54,2.88,6m-4.78,30.4c-2.39,0-5.17-.09-7.55-.19a98.11,98.11,0,0,0,11.61-4.91c5.89-3.56,8.11-11.41,6.86-16.95a42.62,42.62,0,0,0-2.13-5.67c2.54.09,4.88.22,6.18.3.21,3.26.75,13.11.27,16.33-.79,4.57-5.11,10-10.7,10.89a34.38,34.38,0,0,1-4.54.2"/></svg>
