<svg xmlns="http://www.w3.org/2000/svg" viewBox="0 0 248.88 53.16" fill="#939ba8"><path d="M78.6,19.51V37H77.29V19.51H71.6V18.42H84.29l-.4,1.09Z"/><path d="M102.42,37V18.42h9.87l-.39,1.06h-8.16v7.37h8v1.06h-8v8h8.81V37Z"/><path d="M124.83,37.52a24.78,24.78,0,0,1-5.57-.89l1.12-3a13.28,13.28,0,0,0,4.48,1.15c2.32,0,4-.43,4-2.53s-2.23-2.64-4.56-3.53-5-2.18-5-5.53c0-3.67,3.78-5.11,7.2-5.11a20,20,0,0,1,5.22.8l-1.12,3a10,10,0,0,0-4.19-1.06c-2.69,0-3.44,1.24-3.44,2.33,0,1.49,1.75,2,3.73,2.75,2.67,1,5.83,2.18,5.83,6.25C132.49,36.63,128.64,37.52,124.83,37.52Z"/><path d="M161.32,37.51c-6.68,0-8.75-4.18-8.75-9.75S154.86,18,161.34,18s8.64,4,8.64,9.73C170,33.26,167.78,37.51,161.32,37.51Zm0-16.69c-3.42,0-5,2.06-5,6.94,0,5.11,1.58,7,5,7s4.93-2.35,4.93-7C166.25,22.82,164.67,20.81,161.32,20.82Z"/><path d="M196,21.21V37h-3.62V21.21h-5.11V18.4h13.83l-1.05,2.8Z"/><path d="M202.72,37V18.4h3.61V34.09h7.72L213,37Z"/><path d="M214.85,37V18.39h3.62V37Z"/><path d="M226.5,37.5a24.7,24.7,0,0,1-5.56-.89l1.11-3a13.34,13.34,0,0,0,4.48,1.15c2.32,0,4-.44,4-2.53s-2.24-2.64-4.56-3.53c-2.47-.94-5-2.18-5-5.53,0-3.68,3.79-5.11,7.2-5.11a19.64,19.64,0,0,1,5.23.8l-1.12,3a10,10,0,0,0-4.19-1.06c-2.7,0-3.44,1.24-3.44,2.33,0,1.49,1.75,2,3.73,2.75,2.66.95,5.82,2.18,5.82,6.25C234.16,36.61,230.32,37.5,226.5,37.5Z"/><path d="M243.77,21.2V37h-3.61V21.2h-5.11V18.39h13.83l-1,2.8Z"/><path d="M181.29,29.13a5,5,0,0,0,4.59-5.37c0-4.38-3.33-5.36-6.29-5.36h-6.94V37h3.62V21.18h3.48a2.28,2.28,0,0,1,2.46,2.59c0,1.55-.77,2.69-2.43,2.69h-2.69v2.79L182.72,37h4.42Z"/><polygon points="146.29 36.97 149.9 36.97 149.9 18.41 146.28 18.41 146.28 25.98 139.06 25.98 139.05 18.41 135.44 18.41 135.44 36.97 139.06 36.97 139.06 28.8 146.28 28.79 146.29 36.97"/><polygon points="97.08 36.98 98.4 36.98 98.4 18.42 97.08 18.42 97.08 26.85 87.56 26.86 87.56 18.42 86.24 18.42 86.24 36.98 87.56 36.98 87.56 27.95 97.08 27.94 97.08 36.98"/><path d="M15.26,22.18l0,0L0,0H31.58l.21.3,4.84,7,5-7.32h31.6L58,22.16l-.18.32L36.64,53.16ZM36.64,49.54,50,30.24l-6-8.76L36.64,32,29.36,21.48l-6,8.76Zm0-21.14,6-8.73-6-8.73-6,8.73Zm14.54,0L69.35,2.06h-12L45.16,19.67Zm-29.09,0,6-8.73L16,2.06h-12Zm7.27-10.54,6-8.73L30.51,2.06h-12Zm14.55,0,10.9-15.8H42.76L37.88,9.13Z"/></svg>
