<svg xmlns="http://www.w3.org/2000/svg" viewBox="0 0 129.59 90.63" fill="#939ba8"><path d="M92.3,19.7s-8.2,1.64-12.57,7.37c-3.85,5.06-6,15.57-6,15.57s3.55-22.39-8.19-24.31C50,15.8,50,26.8,54.88,32.26c2.58,2.87,8.46,6.56,12.83,10.93,3.6,3.59,5.74,8.47,5.47,15.57,0,0,.26-5.46-5.47-10.93-6-5.73-13.38-9.28-21.3-15.57-8.49-6.73-8.2-24.07,17.48-24.85A37.1,37.1,0,0,1,92.3,19.7Z"/><path d="M32.62,64.36A17.48,17.48,0,1,1,44.41,34a19.8,19.8,0,1,0,3.14,22A17.47,17.47,0,0,1,32.62,64.36Z"/><path d="M94.49,64.41a17.48,17.48,0,1,1,23.43-22.66A19.81,19.81,0,1,0,111.56,63,17.44,17.44,0,0,1,94.49,64.41Z"/><path d="M107.66,35.39A13.38,13.38,0,1,1,94.57,58.3a13.93,13.93,0,1,0,13.09-22.91Z"/><path d="M45,39.86a30.74,30.74,0,0,1,4.23.3,15.25,15.25,0,0,0-8.46-2.57c-7,0-13,4.81-15.2,11.53C28.68,43.7,36.22,39.86,45,39.86Z"/><path d="M51.4,42.11a28.72,28.72,0,0,0-3.62-.23,27.78,27.78,0,0,0-10.61,2A15.16,15.16,0,0,1,52,59.18a15.35,15.35,0,0,1-5.4,11.73,17.33,17.33,0,0,0,10-16A17.82,17.82,0,0,0,51.4,42.11Z"/><path d="M70.72,3.59S92.3-3.24,102.67,2c9,4.5,4.37,12.83,4.37,12.83l-.82-1.09S106,20,98.3,20c-5.53,0-6-4.09-6-4.09s4.37,4.64,9,.27c2.25-2.12,0-5.74-2.73-4.64-2.09.83-4.37,1.09-6.28-.28S89,6.75,84.65,5C80,3,70.72,3.59,70.72,3.59Z"/><path d="M4.24,81.41,3,86.59a5.73,5.73,0,0,0-.23,1.5H0a7.69,7.69,0,0,0,.51-1.5l.91-3.68a5.73,5.73,0,0,0,.23-1.5Zm.52-2.24-.4,1.59H2l.39-1.59Z"/><path d="M8.05,81.41l-.11.69H8c.29-.54.52-.69.93-.69h3c.89,0,1.32.35,1.32,1.09a2.93,2.93,0,0,1-.1.71l-.84,3.38a5.73,5.73,0,0,0-.23,1.5H9.33a7.05,7.05,0,0,0,.51-1.5l.89-3.65a1.32,1.32,0,0,0,0-.24c0-.17-.09-.24-.33-.24H8.36c-.32,0-.46.13-.55.48l-.9,3.65a5.58,5.58,0,0,0-.22,1.5H4a7.86,7.86,0,0,0,.5-1.5l.92-3.68a6,6,0,0,0,.22-1.5Z"/><path d="M17.17,81.41l-.11.69h0c.29-.54.52-.69.93-.69h3c.89,0,1.32.35,1.32,1.09a2.93,2.93,0,0,1-.1.71l-.84,3.38a5.73,5.73,0,0,0-.23,1.5H18.45a7.05,7.05,0,0,0,.51-1.5l.89-3.65a.8.8,0,0,0,0-.24c0-.17-.09-.24-.32-.24H17.48c-.32,0-.46.13-.55.48L16,86.59a6,6,0,0,0-.22,1.5H13.08a7.2,7.2,0,0,0,.5-1.5l.92-3.68a6,6,0,0,0,.22-1.5Z"/><path d="M23.83,88.09c-.89,0-1.32-.33-1.32-1.1a2.38,2.38,0,0,1,.1-.69l.77-3.09a2,2,0,0,1,2.1-1.8h4.59c.88,0,1.32.35,1.32,1.09a2.93,2.93,0,0,1-.1.71l-.77,3.09a2,2,0,0,1-2.1,1.79Zm3.63-1c.33,0,.47-.13.55-.48l.87-3.62a.86.86,0,0,0,.05-.24c0-.17-.09-.24-.33-.24H26.43c-.32,0-.46.13-.55.48L25,86.56a.8.8,0,0,0,0,.24c0,.17.08.24.32.24Z"/><path d="M33.65,88.09,33.16,86A29,29,0,0,0,32,81.41h3a.7.7,0,0,0-.06.19,1.33,1.33,0,0,0,0,.21c0,.44.27,1.37,1.06,5,2.07-3,3.5-4.79,3.56-5.13a.58.58,0,0,0,0-.22h1.51A6.16,6.16,0,0,0,40,82.74L36.1,88.09Z"/><path d="M47.91,86.59a6,6,0,0,0-.22,1.5H45.42l.06-.69h0a1.15,1.15,0,0,1-1.11.69h-3c-.83,0-1.28-.25-1.28-1.1a5.8,5.8,0,0,1,.19-1.22c.45-1.83,1.07-2.31,2.23-2.31h3.45a.38.38,0,0,0,.43-.31l.1-.43c0-.26-.08-.31-.27-.31H42.47a4.49,4.49,0,0,0-1.23.14l.44-1.14h5.85c.89,0,1.33.35,1.33,1.09a2.93,2.93,0,0,1-.1.71ZM43.39,84.5c-.32,0-.46.14-.54.5l-.37,1.56a.8.8,0,0,0,0,.24c0,.17.08.24.32.24h2.17c.32,0,.46-.13.55-.48L46,84.5Z"/><path d="M55.53,82.41H53.15l-1,4a2.43,2.43,0,0,0,0,.33c0,.28.16.35.48.35h1A4.23,4.23,0,0,0,55,86.88l-.52,1.21H50.9c-.78,0-1.24-.36-1.24-1.17a2.75,2.75,0,0,1,.1-.71l.94-3.8H49.42l.24-1h1.28L51.28,80l2.53-.32-.42,1.69h2.38Z"/><path d="M59.75,81.41l-1.28,5.18a5.73,5.73,0,0,0-.23,1.5H55.51a7.05,7.05,0,0,0,.51-1.5l.91-3.68a5.73,5.73,0,0,0,.23-1.5Zm.52-2.24-.39,1.59H57.51l.4-1.59Z"/><path d="M61.1,88.09c-.89,0-1.32-.33-1.32-1.1a2.79,2.79,0,0,1,.1-.69l.77-3.09a2,2,0,0,1,2.1-1.8h4.59c.88,0,1.32.35,1.32,1.09a2.93,2.93,0,0,1-.1.71l-.77,3.09a2,2,0,0,1-2.1,1.79Zm3.63-1c.33,0,.47-.13.55-.48l.88-3.62a1.32,1.32,0,0,0,0-.24c0-.17-.09-.24-.33-.24H63.71c-.33,0-.47.13-.55.48l-.88,3.62a1.32,1.32,0,0,0,0,.24c0,.17.09.24.33.24Z"/><path d="M72.43,81.41l-.11.69h0c.29-.54.52-.69.93-.69h3c.89,0,1.32.35,1.32,1.09a2.93,2.93,0,0,1-.1.71l-.84,3.38a5.73,5.73,0,0,0-.23,1.5H73.71a7.05,7.05,0,0,0,.51-1.5l.89-3.65a1.32,1.32,0,0,0,0-.24c0-.17-.09-.24-.32-.24H72.74c-.32,0-.46.13-.55.48l-.9,3.65a5.58,5.58,0,0,0-.22,1.5H68.34a7.2,7.2,0,0,0,.5-1.5l.92-3.68a6,6,0,0,0,.22-1.5Z"/><path d="M84.17,86.7a2.05,2.05,0,0,0-.07.41c0,.25.14.34.49.34h3.56a4.92,4.92,0,0,0,1.45-.15l-.29.79H84.37c-1,0-1.41-.24-1.41-1a3.62,3.62,0,0,1,.11-.78l.8-3.21c.34-1.34.88-1.74,2.14-1.74h4.85l-.14.78a5.43,5.43,0,0,0-1.37-.12H85.93c-.49,0-.65.14-.79.73Z"/><path d="M97.36,88.9c-.32,1.33-.87,1.73-2.14,1.73H89.77l.07-.79a5.05,5.05,0,0,0,1.38.13H95.3c.5,0,.65-.15.79-.74l.34-1.35a1,1,0,0,1-.66.21H91.93c-1,0-1.41-.24-1.41-1a3.62,3.62,0,0,1,.11-.78l.87-3.53a5.75,5.75,0,0,0,.23-1.42H93L91.73,86.7a2.05,2.05,0,0,0-.07.41c0,.25.14.34.49.34h3.77c.5,0,.65-.16.79-.75l1-3.87a6.27,6.27,0,0,0,.23-1.42h1.3Z"/><path d="M100.33,86.7a2.05,2.05,0,0,0-.07.41c0,.25.14.34.49.34h3.56a4.92,4.92,0,0,0,1.45-.15l-.29.79h-4.94c-1,0-1.41-.24-1.41-1a3.62,3.62,0,0,1,.11-.78l.8-3.21c.34-1.34.88-1.74,2.14-1.74H107l-.15.78a5.29,5.29,0,0,0-1.36-.12h-3.42c-.49,0-.65.14-.79.73Z"/><path d="M110,79l-1.9,7.67a5.82,5.82,0,0,0-.23,1.42h-1.43a6.17,6.17,0,0,0,.47-1.42l1.55-6.25a5.43,5.43,0,0,0,.23-1.42Z"/><path d="M111,86.67a5.82,5.82,0,0,0-.23,1.42h-1.43a6.63,6.63,0,0,0,.48-1.42l.94-3.84a6.16,6.16,0,0,0,.22-1.42h1.31Zm.56-7h1.18l-.24,1h-1.18Z"/><path d="M113.4,82.83a5.75,5.75,0,0,0,.23-1.42H115l-.12.49h0a2,2,0,0,1,.44-.38.75.75,0,0,1,.41-.11h3.64c1,0,1.41.24,1.41,1a3.28,3.28,0,0,1-.11.79l-.88,3.52a6.23,6.23,0,0,0-.22,1.42h-1.44a5.68,5.68,0,0,0,.48-1.42l1-3.87a2.05,2.05,0,0,0,.07-.41c0-.25-.14-.32-.49-.32h-3.79c-.49,0-.65.14-.79.73l-1,3.87a6.23,6.23,0,0,0-.22,1.42H112a5.68,5.68,0,0,0,.48-1.42Z"/><path d="M127.62,88.9c-.32,1.33-.87,1.73-2.14,1.73h-5.23l.08-.79a5.05,5.05,0,0,0,1.38.13h3.86c.49,0,.64-.15.78-.74l.38-1.56h0a1.05,1.05,0,0,1-.37.34,1.18,1.18,0,0,1-.56.08h-3.51c-1,0-1.41-.24-1.41-1a3.72,3.72,0,0,1,.12-.78l.8-3.21c.34-1.34.87-1.74,2.14-1.74h3.39c.51,0,.8.12.8.59h0l.23-.59h1.22a6.84,6.84,0,0,0-.48,1.42Zm.33-6.1a2.05,2.05,0,0,0,.07-.41c0-.25-.14-.32-.5-.32h-3.68c-.5,0-.65.14-.79.73l-1,3.9a1.61,1.61,0,0,0-.08.41c0,.25.15.34.5.34h3.69c.49,0,.64-.16.78-.75Z"/></svg>
