<svg xmlns="http://www.w3.org/2000/svg" viewBox="0 0 125 68.31" fill="#939ba8"><path d="M6.54,60.5l5-4.59h1.47v12.4H9.78V61.94l-3.24,3L3.28,62v6.35H0V55.91H1.47Z"/><path d="M17.52,55.91h3.26v12.4H17.52Z"/><path d="M34.38,68.31l-5.86-5.87v5.87H25.26V55.91h1.33l5.87,5.85V55.91h3.26v12.4Z"/><path d="M40.2,55.91h4.6a6.2,6.2,0,1,1,0,12.4H40.2Zm3.25,9.19h1.37a2.94,2.94,0,1,0,0-5.87H43.45Z"/><path d="M55.24,55.91H63v2.68H58.5v2h4v2.77h-4v4.94H55.24Z"/><path d="M70.6,63.37a1.62,1.62,0,1,0,3.24,0V55.91h3.28v7.51a4.9,4.9,0,0,1-9.8,0V55.91H70.6Z"/><path d="M81.58,55.91h3.26V65h4.47v3.27H81.58Z"/><path d="M106.29,60.5l5-4.59h1.48v12.4h-3.28V61.94l-3.24,3L103,62v6.35H99.75V55.91h1.47Z"/><path d="M117.29,55.91H125V58.6h-4.45v2h3.94v2.75h-3.94v2.28H125v2.66h-7.71Z"/><path d="M30.1,18.55s-2.21-1.64.48-6.34c1.66-2.89,5.64-7,13.42-9.47s5.72,3.68,3.09,9.52S34.92,33.43,33.85,38.76s1.86,4.75,5,2.92S64.83,21.42,67,22.62s-6.35,9.22-1.66,10,11.08-2.77,14.18-4.31-1.06,3-1.1,7,5.12,7,13.08,1.65c0,0-7.79,2.89-7.59.27s4.06-10.36,3.57-13.07-4.18-1.07-5.49,0-9.86,8.25-13,6.49,5.77-9.2,5-12.75S62.12,20.4,44,36.33c-2.28,2-5.85,4.72-5.84,3.2,0-1.74,12.58-21.69,14.08-29.11S52.11-4.78,37.51,3.7C24.15,11.45,28.23,19.12,30.1,18.55Z"/><path d="M94.81,34.78A2.18,2.18,0,0,1,97,37a2.21,2.21,0,1,1-4.42-.1A2.17,2.17,0,0,1,94.81,34.78Z"/></svg>
