<svg xmlns="http://www.w3.org/2000/svg" viewBox="0 0 237.93 48.88" fill="#939ba8"><path d="M12.37,30.28H25.44a6.88,6.88,0,0,0,3.45-.78,6.71,6.71,0,0,0-1.33-12.36,8.26,8.26,0,0,0-2.11-.28H14.33a3.49,3.49,0,0,1-2.8-1.19,3.45,3.45,0,0,1,2-5.67,5,5,0,0,1,.87-.05h11.1a13.38,13.38,0,0,1,5.94,1.27,13.26,13.26,0,0,1,7.66,10,13.51,13.51,0,0,1-8.07,14.92,13.23,13.23,0,0,1-5.3,1.08q-3.33,0-6.64,0c-.29,0-.38.07-.38.37,0,1.81,0,3.62,0,5.43a3.47,3.47,0,0,1-6.67,1.5,2.32,2.32,0,0,1-.15-.74v-13C11.94,30.45,12.05,30.28,12.37,30.28Z"/><path d="M13.47,27.27a13.45,13.45,0,0,1-10.8-5.54A12.82,12.82,0,0,1,.09,15.24,13.6,13.6,0,0,1,10.81.31,14.21,14.21,0,0,1,13.57,0c3.57,0,7.14,0,10.72,0a3.48,3.48,0,0,1,3.44,2.8,3.42,3.42,0,0,1-3,4.09c-.24,0-.73,0-.73,0s-6.88,0-10.33,0a6.78,6.78,0,0,0-6.53,4.94,6.68,6.68,0,0,0,5.28,8.34,11.19,11.19,0,0,0,1.63.13H25.28a3.49,3.49,0,0,1,2.93,1.34,3.44,3.44,0,0,1-2.36,5.53c-.42.05-.86,0-1.29.05C22.75,27.27,15.35,27.32,13.47,27.27Z"/><path d="M134,33.24V13.1h1.23s0,2.35,0,2.73c.74-1.71,2.42-2.87,5.8-2.87,5.17,0,6.41,3.26,6.41,7.44s-1.21,7.36-6.43,7.36c-3.63,0-5.17-1.4-5.79-3.34v8.82Zm6.71-6.52c4.52,0,5.5-2.58,5.5-6.32s-1-6.4-5.45-6.4-5.53,2.53-5.53,6.4C135.19,24.06,136,26.72,140.67,26.72Z"/><path d="M150.9,19.79v7.83h-1.23V13.1h1.23v2.5c.72-1.62,2.36-2.69,5.54-2.64v1.12C151.89,14,150.9,16.11,150.9,19.79Z"/><path d="M163.64,27.76c-5.61,0-7.1-3.54-7.1-7.38S158.08,13,163.62,13c5.16,0,6.6,3.65,6.43,8H157.83c.11,3.23,1.55,5.78,5.79,5.78,3.51,0,4.91-1.82,5.14-3.68h1.29C169.8,25.54,168,27.76,163.64,27.76Zm5.14-7.86c0-3.4-1.4-5.93-5.28-5.93-4.18,0-5.64,2.75-5.67,5.93Z"/><path d="M183.9,27.62V19.79c0-3.65-.76-5.79-5.05-5.79-4.13,0-5.28,2.19-5.28,5.79v7.83H172.3V13.1h1.29s0,2.12,0,2.44c.77-1.57,2.54-2.58,5.54-2.58,5.08,0,6,2.7,6,6.91v7.75Z"/><path d="M218.65,19.86v7.83h-1.23V13.17h1.23v2.5c.72-1.62,2.36-2.69,5.54-2.64v1.13C219.63,14.07,218.65,16.18,218.65,19.86Z"/><path d="M213.77,27.69s0-1.85,0-2.37c-.77,1.53-2.4,2.51-5.52,2.51-5,0-6-2.66-6-6.88V13.17h1.24V21c0,3.65.7,5.75,5,5.75s5.26-2.07,5.26-5.81V13.17h1.26V27.69Z"/><path d="M231.92,27.83c-4.72,0-6.72-1.88-6.72-5.61h1.21c0,3,1.6,4.57,5.48,4.57,3.56,0,4.83-1.4,4.83-2.78,0-4.38-11.15-1.85-11.15-7,0-2.39,1.63-4,5.92-4s6.1,2.22,6.1,5.37h-1.15c0-2.59-1.38-4.36-5-4.36s-4.69,1.24-4.69,2.84c0,4.16,11.15,1.8,11.15,7.05C237.93,25.9,236.24,27.83,231.92,27.83Z"/><path d="M194,27.83c-5.61,0-7.1-3.53-7.1-7.38S188.39,13,193.92,13c5.17,0,6.61,3.65,6.44,8H188.14c.11,3.23,1.54,5.78,5.78,5.78,3.52,0,4.92-1.82,5.14-3.68h1.3C200.1,25.62,198.31,27.83,194,27.83ZM199.09,20c0-3.4-1.4-5.93-5.28-5.93-4.18,0-5.64,2.76-5.67,5.93Z"/><path d="M53.28,27.69c-5.8,0-7.32-3.64-7.32-7.55s1.58-7.56,7.27-7.56c4.48,0,6.61,2.39,6.61,6.06H56.7c-.2-2.27-1.12-3.56-3.56-3.56-3.16,0-4,2.18-4,5s.86,4.94,4.11,4.94c2.44,0,3.3-1.21,3.5-3.33h3.14C59.84,25.34,57.79,27.69,53.28,27.69Z"/><path d="M69.09,27.69c-5.77,0-7.27-3.64-7.27-7.55s1.52-7.56,7.3-7.56,7.3,3.68,7.3,7.56S74.84,27.69,69.09,27.69Zm0-12.61c-3.42,0-4.17,2.3-4.17,5.06s.75,5.05,4.14,5.05,4.2-2.21,4.2-5.05S72.6,15.08,69.12,15.08Z"/><path d="M88.88,26.32a6.68,6.68,0,0,1-4.63,1.37c-4.85,0-5.8-2.67-5.8-6.83V12.78h3v8.31c0,2.64.49,4,3.65,4s3.76-1.5,3.76-4.17V12.78H92V27.49h-3.1Z"/><path d="M102.66,27.69c-2.9,0-4.37-1-5-2v7.56h-3V12.78h3s0,.6,0,1.23a7.39,7.39,0,0,1,4.94-1.43c4.83,0,6.27,3.56,6.27,7.59S107.52,27.69,102.66,27.69Zm-.89-12.58c-3.42,0-4.14,2-4.14,5.06,0,2.87.58,5,4.05,5s4.11-2,4.11-5S105.07,15.11,101.77,15.11Z"/><path d="M111.31,27.49V7.18h3.07V27.49Z"/><path d="M124.24,27.69c-5.92,0-7.39-3.64-7.39-7.58s1.5-7.53,7.36-7.53c5.43,0,7,4.14,6.58,8.76H120c.17,2.53,1.44,4,4.08,4,2.44,0,3.22-1.18,3.51-2.36h3.21C130.59,25.48,128.86,27.69,124.24,27.69ZM123.92,15c-2.87,0-3.71,1.78-3.85,3.93h7.56s0,0,0,0,0,0,0,0C127.65,16.83,126.71,15,123.92,15Z"/><path d="M51.82,46.69c-1.82,0-2.6-.71-2.6-2.08h1.1c0,.74.43,1.19,1.48,1.19s1.26-.36,1.28-.68c0-1.17-3.76-.39-3.76-2.31,0-1,.66-1.66,2.36-1.66s2.37.82,2.37,2H53c0-.7-.36-1.13-1.35-1.13s-1.21.33-1.21.68c0,1,3.75.33,3.75,2.35C54.19,45.85,53.53,46.69,51.82,46.69Z"/><path d="M57.2,42.13v2.94c0,.51.21.74,1.38.69v.9c-1.78.11-2.53-.31-2.53-1.59V42.13h-.77v-.9h.77V39.88h1.12v1.35h1.41v.9Z"/><path d="M62.52,42.13c-1.13,0-1.35.62-1.35,1.5v3H60V41.23h.86V42a1.8,1.8,0,0,1,1.74-.82h.17v1Z"/><path d="M66.62,46.69c-2.12,0-2.67-1.33-2.67-2.77s.56-2.77,2.68-2.77,2.67,1.35,2.67,2.77S68.72,46.69,66.62,46.69Zm0-4.62c-1.26,0-1.53.84-1.53,1.85s.27,1.86,1.52,1.86,1.53-.81,1.53-1.86S67.9,42.07,66.63,42.07Z"/><path d="M74.76,46.62v-3c0-1-.17-1.53-1.32-1.53s-1.39.56-1.39,1.53v3H70.92V41.23h.87V42c.18-.37.74-.84,2-.84,1.77,0,2.11,1,2.11,2.56v2.91Z"/><path d="M80,48.88c-2.15,0-2.72-.69-2.72-1.89h1.18c0,.62.23,1,1.56,1s1.46-.38,1.46-.7-.6-.52-1.41-.66c-1.23-.21-2.7-.27-2.7-1.23,0-.47.36-.72.91-.86a1.44,1.44,0,0,1-.81-1.35c0-1.1.47-2,2.64-2h2.37V42l-.75,0a1.29,1.29,0,0,1,.6,1.21c0,1.11-.45,1.89-2.45,1.89-.35,0-.93-.07-.93-.07-.43,0-.46.18-.46.29s.45.3,1.64.46,2.52.32,2.52,1.46C82.62,48,82.06,48.88,80,48.88Zm-.12-6.73c-1,0-1.26.41-1.26,1s.22,1.1,1.27,1.1,1.27-.44,1.27-1.1S80.92,42.15,79.85,42.15Z"/><path d="M86.5,46.69c-2.17,0-2.71-1.33-2.71-2.78s.55-2.76,2.7-2.76c2,0,2.55,1.52,2.41,3.22H85a1.37,1.37,0,0,0,1.5,1.46c.89,0,1.18-.43,1.28-.86h1.18C88.83,45.88,88.19,46.69,86.5,46.69ZM86.38,42c-1,0-1.36.65-1.41,1.44h2.77s0,0,0,0,0,0,0,0A1.26,1.26,0,0,0,86.38,42Z"/><path d="M93,42.13c-1.13,0-1.35.62-1.35,1.5v3H90.56V41.23h.86V42a1.8,1.8,0,0,1,1.73-.82h.18v1Z"/><path d="M99.23,42.13v2.94c0,.51.21.74,1.38.69v.9c-1.78.11-2.53-.31-2.53-1.59V42.13h-.77v-.9h.77V39.88H99.2v1.35h1.41v.9Z"/><path d="M104.53,46.69c-2.12,0-2.67-1.33-2.67-2.77s.56-2.77,2.68-2.77,2.67,1.35,2.67,2.77S106.63,46.69,104.53,46.69Zm0-4.62c-1.26,0-1.53.84-1.53,1.85s.27,1.86,1.52,1.86,1.54-.81,1.54-1.86S105.81,42.07,104.54,42.07Z"/><path d="M111.18,48.88c-2.15,0-2.71-.69-2.71-1.89h1.18c0,.62.23,1,1.55,1s1.47-.38,1.47-.7-.6-.52-1.41-.66c-1.24-.21-2.71-.27-2.71-1.23,0-.47.37-.72.92-.86a1.45,1.45,0,0,1-.82-1.35c0-1.1.48-2,2.65-2h2.37V42h-.76a1.27,1.27,0,0,1,.6,1.21c0,1.11-.44,1.89-2.44,1.89-.36,0-.94-.07-.94-.07-.42,0-.45.18-.45.29s.44.3,1.63.46,2.53.32,2.53,1.46C113.84,48,113.28,48.88,111.18,48.88Zm-.11-6.73c-1,0-1.27.41-1.27,1s.22,1.1,1.28,1.1,1.26-.44,1.26-1.1S112.13,42.15,111.07,42.15Z"/><path d="M117.71,46.69c-2.17,0-2.7-1.33-2.7-2.78s.54-2.76,2.69-2.76c2,0,2.55,1.52,2.41,3.22h-3.94a1.38,1.38,0,0,0,1.5,1.46c.9,0,1.18-.43,1.29-.86h1.17C120,45.88,119.41,46.69,117.71,46.69ZM117.6,42c-1.06,0-1.36.65-1.41,1.44H119s0,0,0,0,0,0,0,0A1.26,1.26,0,0,0,117.6,42Z"/><path d="M123.22,42.13v2.94c0,.51.21.74,1.38.69v.9c-1.78.11-2.53-.31-2.53-1.59V42.13h-.77v-.89h.77V39.88h1.12v1.35h1.41v.9Z"/><path d="M129.89,46.62v-3c0-1-.17-1.5-1.32-1.5s-1.38.48-1.38,1.5l0,3h-1.11V39.17h1.11V41.9c.21-.39.68-.75,1.72-.75,1.75,0,2.11,1,2.11,2.55v2.92Z"/><path d="M135.27,46.69c-2.17,0-2.71-1.33-2.71-2.78s.55-2.76,2.7-2.76c2,0,2.55,1.52,2.41,3.22h-3.94a1.37,1.37,0,0,0,1.5,1.46c.89,0,1.18-.43,1.28-.86h1.18C137.6,45.88,137,46.69,135.27,46.69ZM135.15,42c-1.05,0-1.36.65-1.41,1.44h2.77s0,0,0,0,0,0,0,0A1.26,1.26,0,0,0,135.15,42Z"/><path d="M141.81,42.13c-1.13,0-1.35.62-1.35,1.5v3h-1.13V41.23h.85l0,.74a1.78,1.78,0,0,1,1.73-.82h.18v1Z"/><circle cx="143.86" cy="46.01" r="0.68"/></svg>
